<?xml version="1.0" encoding="utf-8" ?>
<svg baseProfile="full" height="200mm" version="1.1" viewBox="0,0,200,200" width="200mm" xmlns="http://www.w3.org/2000/svg" xmlns:ev="http://www.w3.org/2001/xml-events" xmlns:xlink="http://www.w3.org/1999/xlink"><defs /><rect fill="#1a1a1a" height="200" width="200" x="0" y="0" /><text alignment-baseline="middle" fill="#e1ed5e" style="dominant-baseline: central; font-size:9.0px; font-family:Arial;" text-anchor="middle" x="100.0" y="100.0">2026</text><line stroke="#e1ed5e" stroke-width="0.3" x1="100.0" x2="100.0" y1="15.0" y2="10.0" /><path d="M 100.0 14.0 a86.0,86.0 0 0,1 42.46469731375804,11.215312516191453" fill="none" id="id73" stroke="none" /><text fill="#e1ed5e" style="font-size:6.75px; font-family:Arial;" text-anchor="middle"><textPath startOffset="22.20632615414155" xlink:href="#id73">January</textPath></text><path d="M 100.0 79.0 l 0.0 -59.4992092194214 a80.4992092194214,80.4992092194214 0 0,0 1.3856615585569516,0.01192682650346639 l -1.0241810792844233 59.49039376952649" fill="#48f8ff" stroke="none" /><path d="M 100.72285384407766 79.0124445844662 l 0.6930044848046696 -20.120900161511564 a41.13283086218814,41.13283086218814 0 0,0 0.707404712174204,0.030462334971561505 l -1.0392500293682052 20.105990100015806" fill="#ff9e0e" stroke="none" /><path d="M 101.44485096284872 79.0497635885617 l 1.366365966962637 -19.81220954164806 a40.85926994825953,40.85926994825953 0 0,0 0.7012419878497715,0.05442987447491958 l -1.7071981441747497 19.785754404984672" fill="#ff990e" stroke="none" /><path d="M 102.16513564639614 79.11191278185805 l 1.8668699582550758 -18.01057710996943 a39.107072962662684,39.107072962662684 0 0,0 0.66897917792681,0.07516760536635834 l -2.176615839691611 17.975773551132466" fill="#ff7e0b" stroke="none" /><path d="M 103.2404852339499 79.25152402106235 l 2.7355752197233274 -17.515591844194773 a38.72792513057258,38.72792513057258 0 0,0 0.6577676095674061,0.10853729154898194 l -3.036672035429609 17.465908289706167" fill="#ff780b" stroke="none" /><path d="M 103.59715602781102 79.31037775812273 l 5.911674244138879 -34.0019465329387 a55.51203066175094,55.51203066175094 0 0,0 0.9400166162287618,0.17178202818080612 l -6.496085981470542 33.89514902340716" fill="#94ff23" stroke="none" /><path d="M 104.307194497241 79.44645832069477 l 4.2003414576696105 -20.043648661054508 a41.479031227301995,41.479031227301995 0 0,0 0.6975534129992723,0.15245815822893288 l -4.5447375948224105 19.968377004729707" fill="#ffa30f" stroke="none" /><path d="M 105.01212808612495 79.60689891045804 l 4.84155577577839 -19.699084833731646 a41.28532981286055,41.28532981286055 0 0,0 0.6886611457691519,0.17555505973659824 l -5.179925810232567 19.61282677782618" fill="#ffa00e" stroke="none" /><path d="M 106.0581310904928 79.89281104454417 l 5.3949410243145435 -17.906033553758743 a39.70110762185401,39.70110762185401 0 0,0 0.6526382414595235,0.20277787850164739 l -5.702364638484785 17.810515540374578" fill="#ff870c" stroke="none" /><path d="M 106.40334571778207 80.00007090966166 l 5.060800954445542 -15.806683676027657 a37.59707670448372,37.59707670448372 0 0,0 0.6146534412437477,0.20264157575811148 l -5.332137217931707 15.71722837601031" fill="#ff6609" stroke="none" /><path d="M 107.08798089147638 80.2323363322302 l 6.682165676368704 -18.63588597164775 a40.79766612696298,40.79766612696298 0 0,0 0.6590137817854914,0.24272033747768343 l -7.001961783926772 18.518102366363742" fill="#ff980e" stroke="none" /><path d="M 108.09893153111575 80.62456947434976 l 24.296794593347244 -58.12629157695072 a84.0,84.0 0 0,0 1.329264968838739,0.5691218881488367 l -25.2937433199763 57.69945016083909" fill="#4dd2ff" stroke="none" /><path d="M 108.76106565485865 80.91482961587045 l 6.807837169812794 -14.830242969499098 a37.318172491583184,37.318172491583184 0 0,0 0.5814913882726661,0.2730180037422737 l -7.062106769385059 14.710859983116823" fill="#ff6109" stroke="none" /><path d="M 109.41281617654863 81.2277094730956 l 8.92698270969846 -17.803376780333334 a40.91610516847527,40.91610516847527 0 0,0 0.6268727488891634,0.321108569850693 l -9.232115946176378 17.64707568517014" fill="#ff9a0e" stroke="none" /><line stroke="#e1ed5e" stroke-width="0.3" x1="143.23703022742887" x2="145.7803849466894" y1="26.81831364943548" y2="22.513508569990506" /><path d="M 143.74570117128098 25.957352633546492 a86.0,86.0 0 0,1 28.547481713284135,27.462654790039103" fill="none" id="id74" stroke="none" /><text fill="#e1ed5e" style="font-size:6.75px; font-family:Arial;" text-anchor="middle"><textPath startOffset="19.985693538727396" xlink:href="#id74">February</textPath></text><path d="M 110.68208982089419 81.91981866633111 l 8.018135277333345 -13.571252648382897 a36.76291190649295,36.76291190649295 0 0,0 0.54205676583569,0.3265831363014537 l -8.250554109386673 13.431222902622828" fill="#ff5808" stroke="none" /><path d="M 110.99172775467656 82.1063720568725 l 9.128598554206537 -14.860606977974586 a38.4404401124997,38.4404401124997 0 0,0 0.5608292678500434,0.35119123607712127 l -9.383046974428844 14.70127140057452" fill="#ff730a" stroke="none" /><path d="M 111.2981086023043 82.29822771554956 l 9.431842017286849 -14.777723023380327 a38.53113634636394,38.53113634636394 0 0,0 0.5560097546166709,0.36164421082020215 l -9.6848187976878 14.613179888400596" fill="#ff750a" stroke="none" /><path d="M 112.19680574252982 82.90503203632743 l 6.112782934357911 -8.567638989883456 a31.524759050142123,31.524759050142123 0 0,0 0.4390268302396358,0.31897166310448344 l -6.259355080951336 8.461148091962297" fill="#ff0000" stroke="none" /><path d="M 116.38621287248628 86.86637796730983 l 12.769956944775293 -10.235176925353715 a37.36553228785144,37.36553228785144 0 0,0 0.3979356582196408,0.5053378749401494 l -12.944246683588897 10.013846656460528" fill="#ff6209" stroke="none" /><line stroke="#e1ed5e" stroke-width="0.3" x1="172.23445277983987" x2="176.4835382374775" y1="55.19839476539836" y2="52.563006222186495" /><path d="M 173.08426987136738 54.67131705675599 a86.0,86.0 0 0,1 12.851231095245387,41.99856678651699" fill="none" id="id75" stroke="none" /><text fill="#e1ed5e" style="font-size:6.75px; font-family:Arial;" text-anchor="middle"><textPath startOffset="22.20632615414155" xlink:href="#id75">March</textPath></text><line stroke="#e1ed5e" stroke-width="0.3" x1="184.98032266829074" x2="189.97916517819016" y1="98.17113171792111" y2="98.06355123074" /><path d="M 185.9800911702706 98.14961562048488 a86.0,86.0 0 0,1 -9.607161424134198,41.387399972396054" fill="none" id="id76" stroke="none" /><text fill="#e1ed5e" style="font-size:6.75px; font-family:Arial;" text-anchor="middle"><textPath startOffset="21.466115282336823" xlink:href="#id76">April</textPath></text><line stroke="#e1ed5e" stroke-width="0.3" x1="174.80103733775053" x2="179.2010983576182" y1="140.37084112569926" y2="142.7455964860345" /><path d="M 175.68104954172406 140.8457921977663 a86.0,86.0 0 0,1 -30.038265399797805,32.042727171017184" fill="none" id="id77" stroke="none" /><text fill="#e1ed5e" style="font-size:6.75px; font-family:Arial;" text-anchor="middle"><textPath startOffset="22.206326154141568" xlink:href="#id77">May</textPath></text><line stroke="#e1ed5e" stroke-width="0.3" x1="143.8653032363475" x2="146.44561519142675" y1="172.8068346515853" y2="177.08958963109032" /><path d="M 144.38136562736335 173.6633856474863 a86.0,86.0 0 0,1 -40.68145358897372,12.25698825130547" fill="none" id="id78" stroke="none" /><text fill="#e1ed5e" style="font-size:6.75px; font-family:Arial;" text-anchor="middle"><textPath startOffset="21.466115282336833" xlink:href="#id78">June</textPath></text><line stroke="#e1ed5e" stroke-width="0.3" x1="102.19456741930631" x2="102.32365962044197" y1="184.97166512339345" y2="189.96999836594603" /><path d="M 102.22038585953345 185.97133177190398 a86.0,86.0 0 0,1 -42.740103519485714,-10.115201625700543" fill="none" id="id79" stroke="none" /><text fill="#e1ed5e" style="font-size:6.75px; font-family:Arial;" text-anchor="middle"><textPath startOffset="22.20632615414155" xlink:href="#id79">July</textPath></text><line stroke="#e1ed5e" stroke-width="0.3" x1="58.666819895761336" x2="56.23545636021788" y1="174.27360380694188" y2="178.64263932499728" /><path d="M 58.180547188652646 175.14741091055294 a86.0,86.0 0 0,1 -31.652253787137756,-30.449443065178592" fill="none" id="id80" stroke="none" /><text fill="#e1ed5e" style="font-size:6.75px; font-family:Arial;" text-anchor="middle"><textPath startOffset="22.20632615414155" xlink:href="#id80">August</textPath></text><line stroke="#e1ed5e" stroke-width="0.3" x1="26.63291911575756" x2="22.317208475507996" y1="142.92168965132927" y2="145.44649492493687" /><path d="M 25.769776987707644 143.4266507060508 a86.0,86.0 0 0,1 -11.730757126820373,-40.83630448921669" fill="none" id="id81" stroke="none" /><text fill="#e1ed5e" style="font-size:6.75px; font-family:Arial;" text-anchor="middle"><textPath startOffset="21.46611528233685" xlink:href="#id81">September</textPath></text><line stroke="#e1ed5e" stroke-width="0.3" x1="15.007084014347285" x2="10.007500721073583" y1="101.09737516637583" y2="101.16192664675087" /><path d="M 14.007167355692545 101.11028546245083 a86.0,86.0 0 0,1 10.666146001902534,-42.60595125391555" fill="none" id="id82" stroke="none" /><text fill="#e1ed5e" style="font-size:6.75px; font-family:Arial;" text-anchor="middle"><textPath startOffset="22.20632615414155" xlink:href="#id82">October</textPath></text><line stroke="#e1ed5e" stroke-width="0.3" x1="26.266209847984243" x2="21.928928074336255" y1="57.711370442889674" y2="55.22380399835377" /><path d="M 25.398753493254645 57.213857153982495 a86.0,86.0 0 0,1 29.58750427330803,-30.492523968695096" fill="none" id="id83" stroke="none" /><text fill="#e1ed5e" style="font-size:6.75px; font-family:Arial;" text-anchor="middle"><textPath startOffset="21.46611528233685" xlink:href="#id83">November</textPath></text><line stroke="#e1ed5e" stroke-width="0.3" x1="56.762969772571076" x2="54.21961505331055" y1="26.818313649435495" y2="22.513508569990535" /><path d="M 56.25429882871897 25.957352633546506 a86.0,86.0 0 0,1 42.265352541879196,-11.944610805530505" fill="none" id="id84" stroke="none" /><text fill="#e1ed5e" style="font-size:6.75px; font-family:Arial;" text-anchor="middle"><textPath startOffset="22.20632615414155" xlink:href="#id84">December</textPath></text></svg>