<?xml version="1.0" encoding="utf-8" ?>
<svg baseProfile="full" height="200mm" version="1.1" viewBox="0,0,200,200" width="200mm" xmlns="http://www.w3.org/2000/svg" xmlns:ev="http://www.w3.org/2001/xml-events" xmlns:xlink="http://www.w3.org/1999/xlink"><defs /><rect fill="#1a1a1a" height="200" width="200" x="0" y="0" /><text alignment-baseline="middle" fill="#e1ed5e" style="dominant-baseline: central; font-size:9.0px; font-family:Arial;" text-anchor="middle" x="100.0" y="100.0">2022</text><line stroke="#e1ed5e" stroke-width="0.3" x1="100.0" x2="100.0" y1="15.0" y2="10.0" /><path d="M 100.0 14.0 a86.0,86.0 0 0,1 42.46469731375804,11.215312516191453" fill="none" id="id25" stroke="none" /><text fill="#e1ed5e" style="font-size:6.75px; font-family:Arial;" text-anchor="middle"><textPath startOffset="22.20632615414155" xlink:href="#id25">January</textPath></text><path d="M 100.36148047927253 79.00311137660856 l 0.14030692578273357 -8.149842281052866 a29.151049947059555,29.151049947059555 0 0,0 0.5016387146176848,0.012955848020207751 l -0.28057227559528625 8.146219640890298" fill="#ff5a08" stroke="none" /><path d="M 100.72285384407766 79.0124445844662 l 0.2799922285338885 -8.129378380455092 a29.134198700588154,29.134198700588154 0 0,0 0.5010515691289636,0.021576334556666497 l -0.4198846300521837 8.123354319374231" fill="#ff5a08" stroke="none" /><path d="M 102.52436894288641 79.15227682838746 l 1.9937652981462097 -16.46568625479644 a37.58595562231747,37.58595562231747 0 0,0 0.641619595502787,0.08330063810195233 l -2.2768996221568427 16.428927293530354" fill="#ffcb13" stroke="none" /><path d="M 103.2404852339499 79.25152402106235 l 1.361518089931239 -8.717652865028946 a29.823332872807043,29.823332872807043 0 0,0 0.5065291338727937,0.08358164719810637 l -1.5113764299429078 8.692924954891215" fill="#ff6409" stroke="none" /><path d="M 105.01212808612495 79.60689891045804 l 4.612865945715288 -18.76860286230368 a40.327156687832115,40.327156687832115 0 0,0 0.6726783110644684,0.1714806792977148 l -4.935253145464781 18.686419186837096" fill="#ffee16" stroke="none" /><path d="M 105.36241919743992 79.69619591428918 l 2.741019042869401 -10.37835939200581 a31.734222331543535,31.734222331543535 0 0,0 0.5269423957549182,0.1440332621241379 l -2.91925932784803 10.329639589055379" fill="#ff7e0b" stroke="none" /><path d="M 106.0581310904928 79.89281104454417 l 1.9560991120483986 -6.492374277486481 a27.780652438749875,27.780652438749875 0 0,0 0.45668036083314834,0.14189281111694702 l -2.067564845592265 6.457741331487013" fill="#ff4706" stroke="none" /><path d="M 106.74666289553966 80.11325718540242 l 5.4622448142347535 -16.100738912399308 a38.002056109067624,38.002056109067624 0 0,0 0.6176564586962853,0.21548821043665112 l -5.738583276994312 16.00432984879045" fill="#ffd113" stroke="none" /><path d="M 107.4271985657038 80.35727306442388 l 10.14116897303201 -26.820369912370634 a49.67360372147148,49.67360372147148 0 0,0 0.7971828909176705,0.3092945766967658 l -10.601335028949347 26.641832631783323" fill="#a1ff22" stroke="none" /><path d="M 108.09893153111575 80.62456947434976 l 3.118074730954966 -7.459507478399509 a29.084963936104977,29.084963936104977 0 0,0 0.46025742476431464,0.19705820942924865 l -3.246015913509596 7.404729741007469" fill="#ff5908" stroke="none" /><path d="M 108.76106565485865 80.91482961587045 l 7.016266474407875 -15.284286912091481 a37.81777100721231,37.81777100721231 0 0,0 0.589276127316296,0.27667304310521224 l -7.278320813023768 15.161248886346266" fill="#ffce13" stroke="none" /><path d="M 109.41281617654863 81.2277094730956 l 10.083136829957539 -20.109133169526842 a43.49548588409263,43.49548588409263 0 0,0 0.6663912581161013,0.34135148518395647 l -10.427788575662396 19.932589159030385" fill="#e9ff1a" stroke="none" /><path d="M 109.73455568895987 81.39251694778311 l 16.32509772896072 -31.205222818944986 a56.21753465306911,56.21753465306911 0 0,0 0.8535828283855907,0.45595438547821426 l -16.859825603874626 30.91958970696502" fill="#5aff2a" stroke="none" /><path d="M 110.36928655335952 81.73862282372117 l 4.065594744600843 -7.1599293447049215 a29.233689868369627,29.233689868369627 0 0,0 0.43544731966291644,0.2522391937284384 l -4.188238796729087 7.088885993586434" fill="#ff5b08" stroke="none" /><line stroke="#e1ed5e" stroke-width="0.3" x1="143.23703022742887" x2="145.7803849466894" y1="26.81831364943548" y2="22.513508569990506" /><path d="M 143.74570117128098 25.957352633546492 a86.0,86.0 0 0,1 28.547481713284135,27.462654790039103" fill="none" id="id26" stroke="none" /><text fill="#e1ed5e" style="font-size:6.75px; font-family:Arial;" text-anchor="middle"><textPath startOffset="19.985693538727396" xlink:href="#id26">February</textPath></text><path d="M 110.68208982089419 81.91981866633111 l 2.59902620946505 -4.399032955721075 a26.109444997551726,26.109444997551726 0 0,0 0.3849749810117218,0.2319431185450995 l -2.6743632566944093 4.3536432277173605" fill="#ff2f04" stroke="none" /><path d="M 111.2981086023043 82.29822771554956 l 5.543812359115983 -8.685994038752472 a31.30438488772283,31.30438488772283 0 0,0 0.45172670754858485,0.29381561618544677 l -5.692506092448848 8.589279498407498" fill="#ff780b" stroke="none" /><path d="M 111.90073688211348 82.69761687909136 l 10.460826648494368 -15.208909517669856 a39.45913927805191,39.45913927805191 0 0,0 0.5563153523363251,0.389734456083662 l -10.721073140414346 15.026590218822259" fill="#ffe315" stroke="none" /><path d="M 112.48926042617603 83.11751280151076 l 3.3696403384248796 -4.554946244674392 a26.66586368545992,26.66586368545992 0 0,0 0.3666605096443435,0.27616109419457135 l -3.447547001827606 4.496268560973974" fill="#ff3705" stroke="none" /><path d="M 112.77801427241765 83.33499621200491 l 6.273889154215862 -8.182365764464482 a31.31080960074755,31.31080960074755 0 0,0 0.42488387656260035,0.3316286050534862 l -6.413805585937893 8.073158770187773" fill="#ff780b" stroke="none" /><path d="M 113.34407831869373 83.78471172551755 l 8.694133138715229 -10.564826717443825 a34.6822335385463,34.6822335385463 0 0,0 0.4577104584110394,0.38331934587113603 l -8.874701134085386 10.41360621417887" fill="#ffa60f" stroke="none" /><path d="M 113.89432698308785 84.25364557470407 l 27.058957858417326 -30.665748786278737 a61.8971313053466,61.8971313053466 0 0,0 0.7928403914507861,0.7118199316465788 l -27.5828092374641 30.19542984586286" fill="#31ff41" stroke="none" /><path d="M 114.42810811169701 84.74124197986012 l 5.765632493439809 -6.097569436642248 a29.391833594875592,29.391833594875592 0 0,0 0.3646221501152641,0.3507662195211331 l -5.869737887167492 5.997420130358813" fill="#ff5e08" stroke="none" /><path d="M 114.94478906791727 85.2469230424477 l 11.85376192200483 -11.701701581540744 a37.65657502630732,37.65657502630732 0 0,0 0.45140503050793285,0.46521256356083407 l -12.053431216215872 11.495924822429796" fill="#ffcc13" stroke="none" /><path d="M 115.68641384162765 86.03803664274999 l 18.42926227222171 -16.403282939219633 a45.67195572066447,45.67195572066447 0 0,0 0.5176331937062089,0.5917442223514566 l -18.708887329505764 16.083623160665226" fill="#cfff1d" stroke="none" /><path d="M 116.60985879189232 87.15038557335679 l 7.308054154059285 -5.6536108623950305 a30.23964129726118,30.23964129726118 0 0,0 0.31495891003350096,0.4144490065356371 l -7.404289004316899 5.5269770799783595" fill="#ff6909" stroke="none" /><path d="M 117.2510076193507 88.02491185347247 l 51.75302285805209 -35.92526443958259 a84.0,84.0 0 0,0 0.8143021373250665,1.1948879069183742 l -52.36374946104589 35.02909850939381" fill="#4dd2ff" stroke="none" /><path d="M 117.45458315368197 88.32363383020206 l 38.06229804403668 -25.46204199281641 a66.79360342708384,66.79360342708384 0 0,0 0.6310512217381843,0.9611343046430316 l -38.49494590113279 24.803089624195703" fill="#37ff7b" stroke="none" /><path d="M 117.65298651832404 88.62581576622439 l 15.869552927626358 -10.225081094301553 a39.87842666929046,39.87842666929046 0 0,0 0.3668291208398203,0.5802355749646778 l -16.043209644712135 9.950397871622668" fill="#ffe915" stroke="none" /><line stroke="#e1ed5e" stroke-width="0.3" x1="172.23445277983987" x2="176.4835382374775" y1="55.19839476539836" y2="52.563006222186495" /><path d="M 173.08426987136738 54.67131705675599 a86.0,86.0 0 0,1 12.851231095245387,41.99856678651699" fill="none" id="id27" stroke="none" /><text fill="#e1ed5e" style="font-size:6.75px; font-family:Arial;" text-anchor="middle"><textPath startOffset="22.20632615414155" xlink:href="#id27">March</textPath></text><path d="M 118.03404312379186 89.2402003453031 l 15.085506437168306 -9.000589930908538 a38.56653419346624,38.56653419346624 0 0,0 0.3352356050584086,0.573026317262806 l -15.238201716697041 8.739584201291837" fill="#ffd814" stroke="none" /><path d="M 118.3937258080291 89.86733742301442 l 15.921319712351568 -8.770673332270022 a39.17726965427721,39.17726965427721 0 0,0 0.3203057092558863,0.5934778332446558 l -16.06993352082592 8.495314515692908" fill="#ffe015" stroke="none" /><path d="M 118.73160827565052 90.50648371742162 l 15.993115655919391 -8.105598924252396 a38.92987680672836,38.92987680672836 0 0,0 0.297794995521822,0.6003365392750524 l -16.130270664394622 7.829102796478394" fill="#ffdd14" stroke="none" /><path d="M 119.04729006885535 91.15688171328212 l 29.865268896262428 -13.865600017617426 a53.92702765350393,53.92702765350393 0 0,0 0.3836463325946191,0.8453138396237596 l -30.099517545820394 13.349464169151604" fill="#72ff27" stroke="none" /><path d="M 119.34039704204932 91.81776055985345 l 28.83670277141822 -12.199791256978251 a52.311185436533094,52.311185436533094 0 0,0 0.3437051963579121,0.8323093954323112 l -29.042429654662328 11.701607291092637" fill="#84ff25" stroke="none" /><path d="M 119.61058180528143 92.48833698450437 l 20.247230566767488 -7.755525793408117 a42.68175560133594,42.68175560133594 0 0,0 0.2568941934620913,0.6883487187210066 l -20.377729348731204 7.405853937657778" fill="#f3ff19" stroke="none" /><path d="M 120.08093135843002 93.85539295169968 l 7.806610954743192 -2.388761548936632 a29.163905703546224,29.163905703546224 0 0,0 0.14275607254833061,0.48130250878782804 l -7.846572924403225 2.254029653402274" fill="#ff5a08" stroke="none" /><path d="M 120.28053869075195 94.5502522615342 l 7.551941110481142 -2.029343234686313 a28.81984964691408,28.81984964691408 0 0,0 0.1246165744231505,0.480198495552378 l -7.585754016774595 1.8990483135850844" fill="#ff5607" stroke="none" /><path d="M 120.45610955862082 95.25157060432595 l 10.247384395369444 -2.3787016369022855 a31.519843555103982,31.519843555103982 0 0,0 0.11813279088592066,0.5295661380290744 l -10.2868115732574 2.201957329323247" fill="#ff7b0b" stroke="none" /><path d="M 120.67395015179393 96.31383870115 l 9.7589903287931 -1.7400260812144308 a30.912899828041425,30.912899828041425 0 0,0 0.08889392741082093,0.524656991575374 l -9.787496117724144 1.5717833013232188" fill="#ff730a" stroke="none" /><path d="M 120.83666639777658 97.38593545837742 l 16.157683518167314 -2.027062619004531 a37.28433970213779,37.28433970213779 0 0,0 0.07440826263861285,0.6374845539274223 l -16.190182133809515 1.7486343267522562" fill="#ffc812" stroke="none" /><path d="M 120.91429891909075 98.10471618934814 l 8.419038486051704 -0.7629453612381706 a29.45353740477054,29.45353740477054 0 0,0 0.0414109950103652,0.5053190293304399 l -8.430923964881565 0.6179124146999618" fill="#ff5e08" stroke="none" /><path d="M 120.96714384426684 98.82574320788733 l 34.77977071823065 -1.9478276248469975 a55.83427168276683,55.83427168276683 0 0,0 0.04548204406680017,0.9600540654495741 l -34.80814637053095 1.3488624527744237" fill="#5eff2a" stroke="none" /><line stroke="#e1ed5e" stroke-width="0.3" x1="184.98032266829074" x2="189.97916517819016" y1="98.17113171792111" y2="98.06355123074" /><path d="M 185.9800911702706 98.14961562048488 a86.0,86.0 0 0,1 -9.607161424134198,41.387399972396054" fill="none" id="id28" stroke="none" /><text fill="#e1ed5e" style="font-size:6.75px; font-family:Arial;" text-anchor="middle"><textPath startOffset="21.466115282336823" xlink:href="#id28">April</textPath></text><path d="M 120.9904718944345 100.63252640178507 l 6.664754067203326 0.2008355472002648 a27.66777936747479,27.66777936747479 0 0,0 -0.018442376185149212,0.47591578248230104 l -6.660309558166973 -0.3155285766965721" fill="#ff4506" stroke="none" /><path d="M 120.9764740272857 100.99374915477107 l 2.5340749376851655 0.12005043479545273 a23.536917006269352,23.536917006269352 0 0,0 -0.022655570550193953,0.40453043132516114 l -2.531633016247442 -0.16365258245603717" fill="#ff0a01" stroke="none" /><path d="M 120.95626037817324 101.35467743843564 l 8.079293582045441 0.5222705070745498 a29.09615657379726,29.09615657379726 0 0,0 -0.03661050411052274,0.4995212414071431 l -8.069106519270582 -0.6612648849784631" fill="#ff5908" stroke="none" /><path d="M 120.8583938346157 102.4346265915055 l 23.565287266378853 2.750579717215756 a44.72527034045589,44.72527034045589 0 0,0 -0.09583665065939154,0.7639124002770519 l -23.514449106472615 -3.1558098717802023" fill="#daff1c" stroke="none" /><path d="M 120.76222939487914 103.15116336523771 l 35.90561911655038 5.4495338344618425 a57.31681295427412,57.31681295427412 0 0,0 -0.1564428173400557,0.9741695729128576 l -35.80649454484904 -6.066782637067905" fill="#4fff2b" stroke="none" /><path d="M 120.70491114924044 103.5080841355445 l 23.163183704198865 3.924595314401235 a44.49330814713594,44.49330814713594 0 0,0 -0.13444089019212072,0.7540159089245054 l -23.092196371667555 -4.322729974058959" fill="#ddff1b" stroke="none" /><path d="M 120.64145759157962 103.86396538481128 l 12.983982175830281 2.430528825875205 a34.20951412867592,34.20951412867592 0 0,0 -0.11333134241914043,0.5778740733725226 l -12.940220900435477 -2.6536666263156725" fill="#ff9f0e" stroke="none" /><path d="M 120.49622156327973 104.57218783832717 l 15.998530586492294 3.5688669129980037 a37.39175988018435,37.39175988018435 0 0,0 -0.14554196626032995,0.6269909814623514 l -15.934728054301411 -3.84372655180892" fill="#ffc912" stroke="none" /><path d="M 120.32669344350535 105.2749913415812 l 15.685552770243975 4.070566385079664 a37.20512500425248,37.20512500425248 0 0,0 -0.16620401650445565,0.618506974824841 l -15.613160677397742 -4.339964293080053" fill="#ffc712" stroke="none" /><path d="M 120.13307415673323 105.97154293290107 l 7.422830793209028 2.2016385784027785 a28.74245629077256,28.74245629077256 0 0,0 -0.14477058895125824,0.47311866106292955 l -7.383833431751637 -2.3290842120177655" fill="#ff5407" stroke="none" /><path d="M 119.9155931802556 106.66101706037122 l 15.875188242077602 5.309653534292891 a37.739594450751426,37.739594450751426 0 0,0 -0.2113582068520159,0.6143058836955428 l -15.781439204282355 -5.582132121077734" fill="#ffcd13" stroke="none" /><path d="M 119.67450827220406 107.3425965602758 l 32.4289043866284 12.102582616469908 a55.6136728144467,55.6136728144467 0 0,0 -0.3424364775106209,0.8939935859052129 l -32.21577362952428 -12.658999769208265" fill="#60ff29" stroke="none" /><path d="M 119.41010516605496 108.01547362559984 l 3.116152096513944 1.2868263581923565 a24.37139822102742,24.37139822102742 0 0,0 -0.1634613107811057,0.38637425299592254 l -3.093539804540529 -1.3402751368544423" fill="#ff1602" stroke="none" /><path d="M 119.12269723197855 108.67885076344098 l 10.806245344437826 4.904422714002317 a32.867110035800884,32.867110035800884 0 0,0 -0.23824801993177208,0.5131650393941746 l -10.720222707666222 -5.089707820675322" fill="#ff8d0d" stroke="none" /><path d="M 118.64920377521936 109.65438752849418 l 20.405451575082054 10.563568266734057 a43.97762887046811,43.97762887046811 0 0,0 -0.35380524247057693,0.669266183767435 l -20.220593824386587 -10.913249465587626" fill="#e3ff1b" stroke="none" /><line stroke="#e1ed5e" stroke-width="0.3" x1="174.80103733775053" x2="179.2010983576182" y1="140.37084112569926" y2="142.7455964860345" /><path d="M 175.68104954172406 140.8457921977663 a86.0,86.0 0 0,1 -30.038265399797805,32.042727171017184" fill="none" id="id29" stroke="none" /><text fill="#e1ed5e" style="font-size:6.75px; font-family:Arial;" text-anchor="middle"><textPath startOffset="22.206326154141568" xlink:href="#id29">May</textPath></text><path d="M 118.30583269289576 110.29060199501025 l 13.884273219866156 7.80502761565557 a36.92769597038563,36.92769597038563 0 0,0 -0.31625582890312726,0.5514186949757525 l -13.747865394810649 -8.042866156489637" fill="#ffc312" stroke="none" /><path d="M 117.94076556474637 110.91462005526583 l 7.1402272522343235 4.343898663919368 a29.357768889838376,29.357768889838376 0 0,0 -0.2663663368557154,0.4294673478994662 l -7.064396275710646 -4.4661623431841075" fill="#ff5d08" stroke="none" /><path d="M 117.55443506779139 111.5257021239791 l 8.160827155926528 5.358148098828155 a30.762625206259003,30.762625206259003 0 0,0 -0.2944377207558065,0.44014444269537173 l -8.067386329760001 -5.497829455729335" fill="#ff710a" stroke="none" /><path d="M 116.93607887273984 112.41649034213515 l 8.63781195678596 6.332711930814344 a31.710510529357265,31.710510529357265 0 0,0 -0.326525744253341,0.43743459450185973 l -8.527524945837527 -6.480459404825518" fill="#ff7e0b" stroke="none" /><path d="M 115.80600337817218 113.82643327865902 l 7.5243446320719185 6.581983220669744 a30.996912786423994,30.996912786423994 0 0,0 -0.3547539845923464,0.398569862410671 l -7.409931797831233 -6.710527252821282" fill="#ff740a" stroke="none" /><path d="M 115.07121518719521 114.62390073753431 l 12.214643844629126 11.852112580806011 a38.01969732043541,38.01969732043541 0 0,0 -0.4597837412893098,0.4657585024599934 l -12.00881947828428 -12.06061157724667" fill="#ffd113" stroke="none" /><path d="M 114.55890576462653 115.13401014063108 l 11.448817050006172 11.901067026205046 a37.51395798125746,37.51395798125746 0 0,0 -0.4692177367545378,0.44367465719586896 l -11.242263478860826 -12.096376320146836" fill="#ffcb12" stroke="none" /><path d="M 113.75828350139079 115.86535959552629 l 11.84529518744348 13.659397819862512 a39.08010417223685,39.08010417223685 0 0,0 -0.5120136112737016,0.4363491074255236 l -11.60841609959273 -13.861271317510983" fill="#ffdf14" stroke="none" /><path d="M 113.20401910651253 116.32954008644616 l 10.450159456273786 12.923814815355007 a37.620193201137525,37.620193201137525 0 0,0 -0.5070530384813156,0.4028335999767031 l -10.226148925075119 -13.101782329336837" fill="#ffcc13" stroke="none" /><path d="M 112.63410532772338 116.77436683061366 l 10.264182139300466 13.627807585476601 a38.06079056126967,38.06079056126967 0 0,0 -0.5267160845169626,0.3896519673224896 l -10.028081084364938 -13.802469501538859" fill="#ffd213" stroke="none" /><path d="M 111.1453310114006 117.79835938074945 l 12.657186982177405 20.212693766358328 a44.84863458553512,44.84863458553512 0 0,0 -0.657824395570479,0.4040894719325203 l -12.307383386674617 -20.427571705119227" fill="#d9ff1c" stroke="none" /><line stroke="#e1ed5e" stroke-width="0.3" x1="143.8653032363475" x2="146.44561519142675" y1="172.8068346515853" y2="177.08958963109032" /><path d="M 144.38136562736335 173.6633856474863 a86.0,86.0 0 0,1 -40.68145358897372,12.25698825130547" fill="none" id="id30" stroke="none" /><text fill="#e1ed5e" style="font-size:6.75px; font-family:Arial;" text-anchor="middle"><textPath startOffset="21.466115282336833" xlink:href="#id30">June</textPath></text><path d="M 110.5260780823613 118.17145234162733 l 4.501507947027156 7.771074514631651 a29.98071115831626,29.98071115831626 0 0,0 -0.44878445339028966,0.25483152518976715 l -4.367074726715668 -7.847409205616047" fill="#ff6609" stroke="none" /><path d="M 109.89434966115114 118.52300852407294 l 6.06833913586306 11.360412901304256 a33.8795854419297,33.8795854419297 0 0,0 -0.5167590207467133,0.27034389611506066 l -5.871889212589851 -11.463186216364035" fill="#ff9b0e" stroke="none" /><path d="M 109.57404056367764 118.69057910512821 l 9.822373513717647 19.175378246751002 a42.54470125921809,42.54470125921809 0 0,0 -0.6546739981295554,0.32826713347142095 l -9.490845607905332 -19.341613221131723" fill="#f4ff19" stroke="none" /><path d="M 108.92500713936063 119.00905698771935 l 3.606948966660013 7.682313009773957 a29.486931956144808,29.486931956144808 0 0,0 -0.4613048025819991,0.21176240929361914 l -3.4741761683105943 -7.74326248940165" fill="#ff5f08" stroke="none" /><path d="M 108.2653958097858 119.30500536409082 l 3.7499026742972417 8.758430074990299 a30.527427115711575,30.527427115711575 0 0,0 -0.4848461052952815,0.20266571133561112 l -3.598585109504499 -8.821680829345883" fill="#ff6d0a" stroke="none" /><path d="M 107.2578585660854 119.70592522655815 l 8.0331215535013 21.810853880351917 a44.243157893956436,44.243157893956436 0 0,0 -0.7169086289182626,0.2570579279428059 l -7.656493363953302 -21.94589934933468" fill="#e0ff1b" stroke="none" /><path d="M 106.57524785965236 119.94407469862006 l 2.7031842411817397 8.199311962227926 a29.63341888800186,29.63341888800186 0 0,0 -0.485816837862762,0.155543209893568 l -2.561646058228037 -8.244628018781201" fill="#ff6108" stroke="none" /><path d="M 105.88484417918355 120.15858648285463 l 3.3317827500686024 11.413051673809878 a32.88942912013479,32.88942912013479 0 0,0 -0.5448193947489359,0.15397140300989057 l -3.1348321872150606 -11.468711870158288" fill="#ff8e0d" stroke="none" /><path d="M 105.18746579009965 120.34920634021253 l 5.843892456898682 22.924213526843968 a44.65735921171535,44.65735921171535 0 0,0 -0.7465152030150084,0.1834752742764364 l -5.448423969140463 -23.021410059434434" fill="#dbff1b" stroke="none" /><path d="M 104.13013068566511 120.58985236759428 l 1.7813454417835664 8.880503415863258 a30.057402083496243,30.057402083496243 0 0,0 -0.5081595791181474,0.09738999276798456 l -1.6282182480937146 -8.90985060697971" fill="#ff6709" stroke="none" /><path d="M 103.41894727170886 120.7198165907248 l 1.9655846872419598 11.912015885765504 a33.073095942029525,33.073095942029525 0 0,0 -0.5625011309489348,0.08785110823418926 l -1.7602476926845079 -11.9440853013468" fill="#ff900d" stroke="none" /><path d="M 102.70371172650421 120.8252237178851 l 2.9802855725030026 22.955521915351532 a44.148176785653206,44.148176785653206 0 0,0 -0.7544557128881236,0.09135407999810935 l -2.5847024365634987 -23.00342152407499" fill="#e1ff1b" stroke="none" /><path d="M 101.98527174616119 120.90594882070398 l 0.8210184329043332 8.645753092664503 a29.684648398552845,29.684648398552845 0 0,0 -0.5090997522182501,0.04392726880142887 l -0.6720743629445414 -8.658604613744595" fill="#ff6209" stroke="none" /><path d="M 101.26447882468166 120.96189622390904 l 0.6331342362961835 10.495782055018354 a31.51486090766852,31.51486090766852 0 0,0 -0.5417733719027588,0.028003494971401144 l -0.4523727959799451 -10.505125356751957" fill="#ff7b0b" stroke="none" /><line stroke="#e1ed5e" stroke-width="0.3" x1="102.19456741930631" x2="102.32365962044197" y1="184.97166512339345" y2="189.96999836594603" /><path d="M 102.22038585953345 185.97133177190398 a86.0,86.0 0 0,1 -42.740103519485714,-10.115201625700543" fill="none" id="id31" stroke="none" /><text fill="#e1ed5e" style="font-size:6.75px; font-family:Arial;" text-anchor="middle"><textPath startOffset="22.20632615414155" xlink:href="#id31">July</textPath></text><path d="M 100.18074693466247 120.99922214144158 l 0.20314228973770757 23.601119855722413 a44.601994094441565,44.601994094441565 0 0,0 -0.7677784488003098,0.0 l 0.20314228973769133 -23.601119855722413" fill="#dcff1b" stroke="none" /><path d="M 99.09653310690486 120.98055641714683 l -0.46460539364661085 10.789194100648663 a31.79919291027239,31.79919291027239 0 0,0 -0.5466613359728345,-0.028256146881509632 l 0.6502547980329342 -10.77959814700495" fill="#ff7f0b" stroke="none" /><path d="M 98.37488393609728 120.93702456842531 l -0.401315115504467 5.170304213730575 a26.18585571380968,26.18585571380968 0 0,0 -0.4490945109585083,-0.03874976409665094 l 0.490253944204517 -5.162630197355261" fill="#ff3004" stroke="none" /><path d="M 97.65516085044442 120.86867818915974 l -0.9435578344745511 8.397507694394243 a29.450351286450097,29.450351286450097 0 0,0 -0.5032820694385799,-0.06094044971454471 l 1.0879673269645203 -8.38002171595435" fill="#ff5e08" stroke="none" /><path d="M 96.93821686468263 120.77559828337769 l -1.2057134807498615 8.181317165141326 a29.26968533586968,29.26968533586968 0 0,0 -0.4978134231160164,-0.07774821864059085 l 1.346362767474395 -8.15935063915363" fill="#ff5c08" stroke="none" /><path d="M 96.22490169976321 120.6578951692458 l -1.7440551561252697 9.543727267276335 a30.70177605079405,30.70177605079405 0 0,0 -0.5190535613428102,-0.0994778503892348 l 1.9080763320397751 -9.512292218538633" fill="#ff700a" stroke="none" /><path d="M 95.16358092515715 120.4354850818985 l -5.207881304943321 22.005037005385105 a43.6129096158532,43.6129096158532 0 0,0 -0.7290556506398339,-0.179184141091417 l 5.585890240326365 -21.91213160597966" fill="#e7ff1a" stroke="none" /><path d="M 94.46302465271185 120.25689768951611 l -2.242283481838412 8.203342842178067 a29.504273572695055,29.504273572695055 0 0,0 -0.48874367541215896,-0.1381238446000965 l 2.383158325355185 -8.16353020423945" fill="#ff5f08" stroke="none" /><path d="M 93.76903079525671 120.05430185196036 l -3.215141743640359 10.34789627506405 a31.835870696496116,31.835870696496116 0 0,0 -0.52192432101183,-0.1671036857611634 l 3.3927874097431294 -10.291019742643181" fill="#ff7f0b" stroke="none" /><path d="M 92.7421414339146 119.70592522655815 l -6.336525549454382 17.204399553499663 a39.33420082892482,39.33420082892482 0 0,0 -0.6333364115645259,-0.23947363841119793 l 6.631732181779191 -17.092777664981835" fill="#ffe215" stroke="none" /><path d="M 92.40401165467489 119.57807347666478 l -9.692404572478582 24.981424438642357 a47.79578835153393,47.79578835153393 0 0,0 -0.7644570457735385,-0.30419323510867974 l 10.120982694293978 -24.810884359127613" fill="#b6ff1f" stroke="none" /><path d="M 91.7346041902142 119.30500536409082 l -4.824522282635321 11.268356735581948 a33.25772730876241,33.25772730876241 0 0,0 -0.5243307580858003,-0.22985119568421564 l 5.0177737153788655 -11.18364098660328" fill="#ff930d" stroke="none" /><path d="M 91.07499286063937 119.00905698771935 l -5.715472168578627 12.173181989411622 a34.448159050856454,34.448159050856454 0 0,0 -0.5345818402565202,-0.256631769808066 l 5.924166676835389 -12.072995943103994" fill="#ffa20f" stroke="none" /><path d="M 90.42595943632237 118.69057910512821 l -12.233770154384597 23.882941304005637 a47.833934067163725,47.833934067163725 0 0,0 -0.7296021071266823,-0.3816933393235587 l 12.643063164037775 -23.668818545737363" fill="#b6ff1f" stroke="none" /><line stroke="#e1ed5e" stroke-width="0.3" x1="58.666819895761336" x2="56.23545636021788" y1="174.27360380694188" y2="178.64263932499728" /><path d="M 58.180547188652646 175.14741091055294 a86.0,86.0 0 0,1 -31.652253787137756,-30.449443065178592" fill="none" id="id32" stroke="none" /><text fill="#e1ed5e" style="font-size:6.75px; font-family:Arial;" text-anchor="middle"><textPath startOffset="22.20632615414155" xlink:href="#id32">August</textPath></text><path d="M 89.7882731507175 118.34994917583269 l -5.561540822903548 9.9938034914016 a32.43708199452874,32.43708199452874 0 0,0 -0.48555412964085787,-0.27571030699444227 l 5.7327437194656135 -9.896590018612525" fill="#ff870c" stroke="none" /><path d="M 89.1626897886671 117.98757091392108 l -5.63937697072267 9.360135604970495 a31.9277038375568,31.9277038375568 0 0,0 -0.46830461335088297,-0.2876709425596951 l 5.799660784005861 -9.261676195582423" fill="#ff810b" stroke="none" /><path d="M 88.24862548938628 117.40417183066458 l -15.663234970051274 23.197765724905828 a48.99059242593219,48.99059242593219 0 0,0 -0.6948338415385656,-0.4779130520434535 l 16.06022569621273 -22.924711883497274" fill="#a9ff21" stroke="none" /><path d="M 87.95078237400918 117.19931262002967 l -33.473581140102155 47.78091029733594 a79.33948939770613,79.33948939770613 0 0,0 -1.111783026293709,-0.7932276695903872 l 34.29109149424475 -47.197638365901334" fill="#47feff" stroke="none" /><path d="M 87.36589467227662 116.77436683061367 l -6.089921604278236 8.085620335591296 a31.122470121347966,31.122470121347966 0 0,0 -0.42514964648259806,-0.32598661961189573 l 6.228199979254321 -7.979594374152033" fill="#ff760a" stroke="none" /><path d="M 86.51685102203217 116.09983520530335 l -6.256571109785461 7.470789203798417 a30.744607399961943,30.744607399961943 0 0,0 -0.4028049002292395,-0.3432790746410493 l 6.3842414865917565 -7.3619857389344165" fill="#ff700a" stroke="none" /><path d="M 86.24171649860922 115.8653595955263 l -15.25371789269079 17.589819217767204 a44.28256106324061,44.28256106324061 0 0,0 -0.5715774670986834,-0.5043506585420315 l 15.554237712696061 -17.32464541745288" fill="#dfff1b" stroke="none" /><path d="M 85.70375840098266 115.38237550388516 l -5.724589286835054 6.159505727831829 a29.408949596360998,29.408949596360998 0 0,0 -0.36784177177003247,-0.34781735473432435 l 5.829766892995903 -6.060053736351574" fill="#ff5e08" stroke="none" /><path d="M 85.18274418774928 114.88116024355367 l -7.295343815954563 7.326807455620723 a31.339446256194087,31.339446256194087 0 0,0 -0.3789974372537504,-0.3839224029899047 l 7.420381878263847 -7.200144558650154" fill="#ff790b" stroke="none" /><path d="M 83.72743513129214 113.27417163493432 l -6.55100086422242 5.343909245647802 a29.45416928791723,29.45416928791723 0 0,0 -0.3170980995858056,-0.39562863529502396 l 6.642016875863087 -5.230352776774518" fill="#ff5e08" stroke="none" /><path d="M 83.28015986056508 112.70617746262583 l -6.968456438276599 5.295651358321688 a29.752331600268178,29.752331600268178 0 0,0 -0.306362214195704,-0.41042225091266243 l 7.058579919167388 -5.174916227899717" fill="#ff6309" stroke="none" /><path d="M 83.06392112726016 112.41649034213515 l -9.606197558445025 7.042672634281319 a32.91126648872949,32.91126648872949 0 0,0 -0.3310249781395788,-0.4597647423731119 l 9.726002328960211 -6.876274286457069" fill="#ff8e0d" stroke="none" /><path d="M 82.44556493220864 111.52570212397912 l -11.439518519794614 7.510836001940557 a34.68485445347412,34.68485445347412 0 0,0 -0.3233869436412024,-0.5019037180132926 l 11.56711032681286 -7.312810684005816" fill="#ffa60f" stroke="none" /><path d="M 82.24976979558568 111.22182372390057 l -10.563264396442193 6.6781720372476965 a33.497221149848485,33.497221149848485 0 0,0 -0.3039240524718357,-0.49002234410964374 l 10.676653088581984 -6.495353361772789" fill="#ff960d" stroke="none" /><line stroke="#e1ed5e" stroke-width="0.3" x1="26.63291911575756" x2="22.317208475507996" y1="142.92168965132927" y2="145.44649492493687" /><path d="M 25.769776987707644 143.4266507060508 a86.0,86.0 0 0,1 -11.730757126820373,-40.83630448921669" fill="none" id="id33" stroke="none" /><text fill="#e1ed5e" style="font-size:6.75px; font-family:Arial;" text-anchor="middle"><textPath startOffset="21.46611528233685" xlink:href="#id33">September</textPath></text><path d="M 81.87401531095188 110.60418214915194 l -7.498024049044221 4.386543083798781 a29.686893856037866,29.686893856037866 0 0,0 -0.2542442190687937,-0.44329622625544923 l 7.572420264265393 -4.256827011685025" fill="#ff6209" stroke="none" /><path d="M 81.35079622478065 109.6543875284942 l -21.272369700507525 11.012357589817912 a44.953825004810625,44.953825004810625 0 0,0 -0.34982923240388275,-0.6902462638407483 l 21.458777602697676 -10.644557114274477" fill="#d7ff1c" stroke="none" /><path d="M 81.02952815118164 109.00673069616217 l -10.561990572527156 5.014582950823184 a32.69194966739248,32.69194966739248 0 0,0 -0.23697831258913907,-0.5104302027366008 l 10.646743501956122 -4.832032680807756" fill="#ff8b0c" stroke="none" /><path d="M 80.73074385275274 108.34839909993369 l -8.286176442240622 3.5899833093544524 a30.03043189406725,30.03043189406725 0 0,0 -0.20141699365003018,-0.4760902753705929 l 8.346744417082958 -3.4468185083177003" fill="#ff6609" stroke="none" /><path d="M 80.45479744820244 107.68017299344265 l -25.33034941999933 9.953412609277498 a48.215749563621884,48.215749563621884 0 0,0 -0.2968843920125275,-0.7750714647692001 l 25.497928091605367 -9.51591757767514" fill="#b1ff20" stroke="none" /><path d="M 80.20201598880116 107.00284435728193 l -8.033849853583554 2.8416933806287648 a29.521617495489565,29.521617495489565 0 0,0 -0.16533394775506557,-0.4805378432816628 l 8.081574632281848 -2.7029828342578046" fill="#ff5f08" stroke="none" /><path d="M 79.97269907076064 106.31721596034903 l -11.135792778467804 3.5125655783486587 a32.676643256825805,32.676643256825805 0 0,0 -0.16458638194953606,-0.5378778191154138 l 11.194605932923471 -3.3203607866811975" fill="#ff8b0c" stroke="none" /><path d="M 79.67330655649465 105.27499134158121 l -16.19601469231317 4.203036637883242 a37.73249559668291,37.73249559668291 0 0,0 -0.15773743794287065,-0.630082655038914 l 16.265963444551097 -3.923626143446936" fill="#ffcd13" stroke="none" /><path d="M 79.50377843672027 104.57218783832718 l -8.001094946857277 1.7848416058724565 a29.197754564920714,29.197754564920714 0 0,0 -0.1052036269639321,-0.49147632108467104 l 8.030632612545649 -1.6468514653716217" fill="#ff5b08" stroke="none" /><path d="M 79.35854240842038 103.8639653848113 l -11.163527438643834 2.0897498834049086 a32.35743806712344,32.35743806712344 0 0,0 -0.09777116962611178,-0.5483526420190742 l 11.197845050609136 -1.8972784906526208" fill="#ff860c" stroke="none" /><path d="M 79.23777060512086 103.15116336523772 l -6.634829438101743 1.0069935680945548 a27.710812001455956,27.710812001455956 0 0,0 -0.06751666634071958,-0.47221140713432724 l 6.651180155459062 -0.892636688979827" fill="#ff4606" stroke="none" /><path d="M 79.10278846688536 102.07522291339032 l -8.128188416447667 0.8071795999880876 a29.168169062887408,29.168169062887408 0 0,0 -0.04531539483501061,-0.5000516059333997 l 8.140878407559752 -0.6671466055061217" fill="#ff5a08" stroke="none" /><path d="M 79.04373962182676 101.35467743843564 l -11.688770663165856 0.7555982610776996 a32.71316730642188,32.71316730642188 0 0,0 -0.03148821358521352,-0.5622432061494536 l 11.7000452276386 -0.5542833385928084" fill="#ff8b0c" stroke="none" /><path d="M 79.0235259727143 100.99374915477108 l -7.100733188995197 0.3363934089037172 a28.10869695140057,28.10869695140057 0 0,0 -0.01873627645959812,-0.4835000426492472 l 7.105471598305996 -0.2141161192404733" fill="#ff4c07" stroke="none" /><line stroke="#e1ed5e" stroke-width="0.3" x1="15.007084014347285" x2="10.007500721073583" y1="101.09737516637583" y2="101.16192664675087" /><path d="M 14.007167355692545 101.11028546245083 a86.0,86.0 0 0,1 10.666146001902534,-42.60595125391555" fill="none" id="id34" stroke="none" /><text fill="#e1ed5e" style="font-size:6.75px; font-family:Arial;" text-anchor="middle"><textPath startOffset="22.20632615414155" xlink:href="#id34">October</textPath></text><path d="M 79.00019446554 99.90962569577889 l -12.6275052108785 -0.05434345549576826 a33.62762214599086,33.62762214599086 0 0,0 0.0074733272954042975,-0.5788174349246856 l 12.624698876465379 0.27169714848092585" fill="#ff980e" stroke="none" /><path d="M 79.01574976396665 99.18683210126434 l -11.778413713095453 -0.4564293611534598 a32.787254021126294,32.787254021126294 0 0,0 0.026708172011103714,-0.5637672986361328 l 11.768811932850852 0.6591077664126017" fill="#ff8c0c" stroke="none" /><path d="M 79.12142395522702 97.74499172005258 l -1.8816948920763767 -0.20323404972003878 a22.892638302960165,22.892638302960165 0 0,0 0.045686780480646665,-0.39141643471152177 l 1.8779177585921412 0.23559422275642233" fill="#ff0000" stroke="none" /><path d="M 79.21141760316559 97.0276538004421 l -11.477995923228445 -1.6411209244428462 a32.59472588301651,32.59472588301651 0 0,0 0.08419389448167054,-0.5547325696155501 l 11.448046135307472 1.8384526064504882" fill="#ff8a0c" stroke="none" /><path d="M 79.32604984820605 96.31383870115002 l -13.187764449563655 -2.3513758413562282 a34.395749308063685,34.395749308063685 0 0,0 0.10894325551446353,-0.581979227202694 l 13.145335470139331 2.578033146021495" fill="#ffa20e" stroke="none" /><path d="M 79.46518482838121 95.60439243477599 l -24.10528870558155 -5.159890094487287 a45.65135715060381,45.65135715060381 0 0,0 0.1710960975584375,-0.7669902567811712 l 24.012898221021075 5.574058520818418" fill="#cfff1d" stroke="none" /><path d="M 79.62865764111835 94.90015583598534 l -7.9311639502899745 -1.985519632097049 a29.175918897336377,29.175918897336377 0 0,0 0.12615621223488385,-0.48613134809878333 l 7.895811406184784 2.121747405744696" fill="#ff5b08" stroke="none" /><path d="M 79.81627453868168 94.20196356495316 l -11.438592920616404 -3.28588389920911 a32.90119494011662,32.90119494011662 0 0,0 0.1610499437058159,-0.5429803479603751 l 11.380337079798881 3.4822936339160244" fill="#ff8e0d" stroke="none" /><path d="M 80.02781315780177 93.51064311812611 l -10.939602242771796 -3.5544922376302304 a32.50257850646677,32.50257850646677 0 0,0 0.1774682671879478,-0.5306075303045537 l 10.876796681812076 3.7422728708571062" fill="#ff880c" stroke="none" /><path d="M 80.2630227832202 92.82701384747504 l -15.784112324409644 -5.73640116667071 a37.794180546086835,37.794180546086835 0 0,0 0.22747671439840128,-0.6095245002807325 l 15.683031021509617 6.007248803980784" fill="#ffce13" stroke="none" /><path d="M 80.65960295795068 91.81776055985345 l -8.11588123792668 -3.4335429315194954 a29.81230647053981,29.81230647053981 0 0,0 0.20401454289684437,-0.4708936932440246 l 8.055575985187154 3.5727357693501194" fill="#ff6309" stroke="none" /><path d="M 80.95270993114464 91.15688171328213 l -7.331202743150137 -3.40367017078158 a29.082790625312548,29.082790625312548 0 0,0 0.21471658984145875,-0.4522478977635353 l 7.271527959466927 3.529360484185647" fill="#ff5908" stroke="none" /><path d="M 81.26839172434947 90.50648371742162 l -26.846935948105187 -13.606510440002465 a51.098091237743944,51.098091237743944 0 0,0 0.40438194034461317,-0.7811371965593306 l 26.60874457460046 14.06662035882213" fill="#91ff24" stroke="none" /><path d="M 81.6062741919709 89.86733742301443 l -8.083260168461365 -4.452874238956738 a30.228606825463885,30.228606825463885 0 0,0 0.25498889111935247,-0.45359678487626637 l 8.005413636049582 4.59135453376779" fill="#ff6909" stroke="none" /><line stroke="#e1ed5e" stroke-width="0.3" x1="26.266209847984243" x2="21.928928074336255" y1="57.711370442889674" y2="55.22380399835377" /><path d="M 25.398753493254645 57.213857153982495 a86.0,86.0 0 0,1 29.58750427330803,-30.492523968695096" fill="none" id="id35" stroke="none" /><text fill="#e1ed5e" style="font-size:6.75px; font-family:Arial;" text-anchor="middle"><textPath startOffset="21.46611528233685" xlink:href="#id35">November</textPath></text><path d="M 82.15384107792192 88.93136811851018 l -8.743503315888693 -5.422938346605749 a31.288688475507637,31.288688475507637 0 0,0 0.28781481729166936,-0.4552539220775464 l 8.64886090235106 5.57263991639751" fill="#ff780b" stroke="none" /><path d="M 82.54541684631803 88.32363383020206 l -20.24697335626727 -13.544355236466902 a45.359587206293234,45.359587206293234 0 0,0 0.4397191525031673,-0.6452335978048511 l 20.01082973809536 13.89086685754217" fill="#d3ff1c" stroke="none" /><path d="M 83.39014120810768 87.1503855733568 l -14.221929835479754 -11.002279855497086 a38.98091906060383,38.98091906060383 0 0,0 0.4151392134571782,-0.5271846430434337 l 14.030436541428605 11.245456892493568" fill="#ffdd14" stroke="none" /><path d="M 83.84228863543731 86.58626213691792 l -4.423551903676195 -3.6723248931025902 a26.74924182523385,26.74924182523385 0 0,0 0.2971578197663506,-0.3517411302021362 l 4.359683470422721 3.747924972933842" fill="#ff3805" stroke="none" /><path d="M 84.31358615837235 86.03803664274999 l -12.303187017671812 -10.950663934562117 a37.470745320097926,37.470745320097926 0 0,0 0.4329768877513492,-0.4781038936882175 l 12.112866489304418 11.160820615519892" fill="#ffca12" stroke="none" /><path d="M 84.80347519578584 85.50635884689758 l -4.340061095860894 -4.139320595752554 a26.997508258454218,26.997508258454218 0 0,0 0.32363036283919594,-0.33352953681782144 l 4.26816646931858 4.213414328120499" fill="#ff3c05" stroke="none" /><path d="M 85.31137513191541 84.99185889309783 l -5.757149591402948 -5.882382742924992 a29.230868614675664,29.230868614675664 0 0,0 0.3626252894231713,-0.34884524111744675 l 5.65504105836735 5.980611070804752" fill="#ff5b08" stroke="none" /><path d="M 85.83668400450813 84.49514656593479 l -16.305823829405337 -17.85029781705705 a45.17670413669396,45.17670413669396 0 0,0 0.5786684299713477,-0.5195342299785054 l 15.996144411838017 18.128331055804836" fill="#d5ff1c" stroke="none" /><path d="M 87.22198572758235 83.33499621200491 l -1.6859821776201827 -2.198847080424845 a23.77082377396069,23.77082377396069 0 0,0 0.3268531806220311,-0.24617903926744233 l 1.6478828432397616 2.2275427091981417" fill="#ff0d01" stroke="none" /><path d="M 88.09926311788651 82.69761687909137 l -6.206987871455413 -9.0242884321027 a31.952829777832633,31.952829777832633 0 0,0 0.4558532286602663,-0.307794134876382 l 6.050729948388608 9.129794479277749" fill="#ff810b" stroke="none" /><path d="M 89.00827224532344 82.1063720568725 l -6.001502675001867 -9.769952309861212 a32.46603691320663,32.46603691320663 0 0,0 0.47870078990032533,-0.28841186969525334 l 5.832439818883892 9.871810789015086" fill="#ff880c" stroke="none" /><line stroke="#e1ed5e" stroke-width="0.3" x1="56.762969772571076" x2="54.21961505331055" y1="26.818313649435495" y2="22.513508569990535" /><path d="M 56.25429882871897 25.957352633546506 a86.0,86.0 0 0,1 42.265352541879196,-11.944610805530505" fill="none" id="id36" stroke="none" /><text fill="#e1ed5e" style="font-size:6.75px; font-family:Arial;" text-anchor="middle"><textPath startOffset="22.20632615414155" xlink:href="#id36">December</textPath></text><path d="M 89.63071344664047 81.73862282372117 l -4.880815875811205 -8.595617372275328 a30.884685206122253,30.884685206122253 0 0,0 0.4645584796765231,-0.2585262909731928 l 4.732133307062636 8.678359060808706" fill="#ff720a" stroke="none" /><path d="M 90.26544431104013 81.39251694778311 l -13.01454301684371 -24.877138346736643 a49.07579637801838,49.07579637801838 0 0,0 0.7518867998979404,-0.385145622349472 l 12.584395729357006 25.09747649439862" fill="#a8ff21" stroke="none" /><path d="M 90.91171255644093 81.06846463323043 l -3.6328520709271652 -7.567483741036529 a29.394309044828645,29.394309044828645 0 0,0 0.45802182777432987,-0.21504738954224908 l 3.502052031853227 7.628896113218786" fill="#ff5e08" stroke="none" /><path d="M 91.56875222667455 80.76684994638697 l -3.991801942988837 -9.10599804654143 a30.94251895525806,30.94251895525806 0 0,0 0.48965245827207216,-0.20964362871307396 l 3.8344657269264566 9.17336120321729" fill="#ff730a" stroke="none" /><path d="M 92.23578459929587 80.48803036053334 l -1.6020581668837028 -4.0260745870161605 a25.333112847629994,25.333112847629994 0 0,0 0.4065564529816332,-0.15773758752341097 l 1.5325185489023934 4.053054878430124" fill="#ff2403" stroke="none" /><path d="M 92.57280143429618 80.3572730644239 l -5.910200204716213 -15.630718329236629 a37.71076963959953,37.71076963959953 0 0,0 0.6091504557367311,-0.2243552536800055 l 5.640267423206913 15.730136850722957" fill="#ffcd13" stroke="none" /><path d="M 93.25333710446033 80.11325718540243 l -3.341902071775113 -9.850728877664839 a31.402171354029637,31.402171354029637 0 0,0 0.513376421177415,-0.16925213455885646 l 3.171842828355289 9.90679473648293" fill="#ff790b" stroke="none" /><path d="M 96.04723909329186 79.375362276772 l -1.3441025927734174 -7.013231939163701 a28.140870676073476,28.140870676073476 0 0,0 0.4765252813725833,-0.08708194929789607 l 1.223182190297941 7.035329369812333" fill="#ff4c07" stroke="none" /><path d="M 98.55514903715128 79.0497635885617 l -0.20868527893572428 -3.0259217329034276 a24.033109275858976,24.033109275858976 0 0,0 0.41295513862449545,-0.024910581693394357 l 0.1565680914716058 3.029065583977128" fill="#ff1101" stroke="none" /><path d="M 99.63851952072746 79.00311137660856 l -0.14057700318434083 -8.165529947320634 a29.166739937968785,29.166739937968785 0 0,0 0.5020574824568745,-0.004321367256710278 l 2.000274384900465e-15 8.166739937968785" fill="#ff5a08" stroke="none" /></svg>