<?xml version="1.0" encoding="utf-8" ?>
<svg baseProfile="full" height="200mm" version="1.1" viewBox="0,0,200,200" width="200mm" xmlns="http://www.w3.org/2000/svg" xmlns:ev="http://www.w3.org/2001/xml-events" xmlns:xlink="http://www.w3.org/1999/xlink"><defs /><rect fill="#1a1a1a" height="200" width="200" x="0" y="0" /><text alignment-baseline="middle" fill="#e1ed5e" style="dominant-baseline: central; font-size:9.0px; font-family:Arial;" text-anchor="middle" x="100.0" y="100.0">2023</text><line stroke="#e1ed5e" stroke-width="0.3" x1="100.0" x2="100.0" y1="15.0" y2="10.0" /><path d="M 100.0 14.0 a86.0,86.0 0 0,1 42.46469731375804,11.215312516191453" fill="none" id="id37" stroke="none" /><text fill="#e1ed5e" style="font-size:6.75px; font-family:Arial;" text-anchor="middle"><textPath startOffset="22.20632615414155" xlink:href="#id37">January</textPath></text><path d="M 100.36148047927253 79.00311137660856 l 0.2992148137215691 -17.380136628191266 a38.382712064558454,38.382712064558454 0 0,0 0.660499514719811,0.017058753801832586 l -0.5983409636362479 17.372411082247073" fill="#ffaa0f" stroke="none" /><path d="M 101.08401301168833 79.027996857942 l 0.9785524052974984 -18.931695373844835 a39.95696849546286,39.95696849546286 0 0,0 0.6865709831658569,0.04141583664859126 l -1.304285437302967 18.91204626781594" fill="#ffc011" stroke="none" /><path d="M 102.16513564639614 79.11191278185805 l 4.30454556986015 -41.5279862244967 a62.750482062186904,62.750482062186904 0 0,0 1.0734315489311073,0.12061254179525432 l -5.018743822300983 41.447737729230845" fill="#30ff38" stroke="none" /><path d="M 102.88285421437855 79.19881850522331 l 0.8369550843509718 -6.039033998225811 a27.09675532106613,27.09675532106613 0 0,0 0.46145905869276793,0.06800706984575237 l -0.9407831234723955 6.02373244421909" fill="#ff0000" stroke="none" /><path d="M 104.66035177308747 79.52364482259891 l 13.884550580924325 -61.00504919293797 a83.5651402289408,83.5651402289408 0 0,0 1.3998208061045951,0.3312923584086128 l -14.932595073991443 60.75701092238849" fill="#4cd6ff" stroke="none" /><path d="M 105.71112130821622 79.79150937346287 l 5.051204625443397 -17.873411510125344 a39.57346244453042,39.57346244453042 0 0,0 0.653922789847935,0.19089799410018385 l -5.358117633014759 17.78381518710646" fill="#ffbb11" stroke="none" /><path d="M 106.40334571778207 80.00007090966166 l 5.257119022443813 -16.419854916839192 a38.2409087900316,38.2409087900316 0 0,0 0.6251790895561323,0.20611171651837684 l -5.538980934242363 16.32692947606158" fill="#ffa80f" stroke="none" /><path d="M 107.08798089147638 80.2323363322302 l 13.786765033787159 -38.449896864452 a61.84690268531816,61.84690268531816 0 0,0 0.9990267850992106,0.3679499960858997 l -14.446574144658946 38.20688360055978" fill="#32ff2f" stroke="none" /><path d="M 107.76421540070413 80.48803036053334 l 10.611023220371997 -26.666179676158592 a49.69980753079099,49.69980753079099 0 0,0 0.7921584409003942,0.3231413179571845 l -11.068465530860779 26.47957747201783" fill="#bdff1f" stroke="none" /><path d="M 108.43124777332544 80.76684994638697 l 5.919869531512786 -13.504257265172244 a35.74482348331409,35.74482348331409 0 0,0 0.5613943789069304,0.25188129356217864 l -6.151446028886497 13.400355641093533" fill="#ff840c" stroke="none" /><path d="M 109.73455568895987 81.39251694778311 l 6.76204476872007 -12.925565115929285 a35.58751120034883,35.58751120034883 0 0,0 0.5403454394266872,0.2886338203941191 l -6.983535254675068 12.807252569033412" fill="#ff820b" stroke="none" /><path d="M 110.36928655335952 81.73862282372117 l 8.82676078875965 -15.544831091209955 a38.87605884070179,38.87605884070179 0 0,0 0.5790742016305562,0.335437154237856 l -9.093031722855534 15.390589779582049" fill="#ffb110" stroke="none" /><line stroke="#e1ed5e" stroke-width="0.3" x1="143.23703022742887" x2="145.7803849466894" y1="26.81831364943548" y2="22.513508569990506" /><path d="M 143.74570117128098 25.957352633546492 a86.0,86.0 0 0,1 28.547481713284135,27.462654790039103" fill="none" id="id38" stroke="none" /><text fill="#e1ed5e" style="font-size:6.75px; font-family:Arial;" text-anchor="middle"><textPath startOffset="19.985693538727396" xlink:href="#id38">February</textPath></text><path d="M 110.99172775467656 82.1063720568725 l 12.527548854900052 -20.393818265155048 a44.93422870585303,44.93422870585303 0 0,0 0.6555708132570397,0.4105183831193762 l -12.876738820529354 20.175155540712726" fill="#faff18" stroke="none" /><path d="M 111.90073688211348 82.69761687909136 l 31.116161428054358 -45.23953025878711 a75.90747308019604,75.90747308019604 0 0,0 1.0701828119970636,0.7497314506819613 l -31.890275379635074 44.69721396534122" fill="#42ffd7" stroke="none" /><path d="M 112.48926042617603 83.11751280151076 l 9.228535611513186 -12.474768641675016 a36.51727173817245,36.51727173817245 0 0,0 0.5021191746975044,0.37818575235997515 l -9.441900939969072 12.314066299809193" fill="#ff8f0d" stroke="none" /><path d="M 113.06298171725822 83.55741782278167 l 9.75399784512032 -12.277511719465497 a36.68049004285977,36.68049004285977 0 0,0 0.4909886233350907,0.397011987433611 l -9.963889867019903 12.107793634767756" fill="#ff920d" stroke="none" /><path d="M 114.16331599549186 84.49514656593476 l 18.276016011396667 -20.007104953778466 a48.09791523125597,48.09791523125597 0 0,0 0.6064737504352542,0.5636512551325138 l -18.61769764562677 19.68954911257131" fill="#d2ff1c" stroke="none" /><path d="M 114.68862486808459 84.99185889309783 l 16.430310799846474 -16.78771329031225 a44.490049606105096,44.490049606105096 0 0,0 0.5427027598982875,0.5403722217769151 l -16.716849359912082 16.502405217885215" fill="#fffe18" stroke="none" /><path d="M 115.4437574822437 85.77008943001954 l 45.532658070397126 -41.95388674680993 a82.91406596339684,82.91406596339684 0 0,0 0.9580773994476071,1.0579329938590922 l -46.248079110460765 41.163900965681286" fill="#4cddff" stroke="none" /><path d="M 116.15771136456269 86.58626213691792 l 16.18408857207407 -13.435635577376791 a42.03428216690105,42.03428216690105 0 0,0 0.4573760409344098,0.5606889454337565 l -16.41296310508489 13.155062462334934" fill="#ffdd14" stroke="none" /><path d="M 116.60985879189232 87.15038557335679 l 12.311674858047287 -9.524480421791806 a36.565765805618724,36.565765805618724 0 0,0 0.38084822599139123,0.5011516228774187 l -12.473799024262792 9.311144023033354" fill="#ff900d" stroke="none" /><path d="M 117.04232023915458 87.72973835380427 l 25.81232031158487 -18.58455418475758 a52.80662720431148,52.80662720431148 0 0,0 0.5247655565838463,0.742243664646236 l -26.1283984879726 18.13748401977955" fill="#98ff23" stroke="none" /><path d="M 117.45458315368197 88.32363383020206 l 13.386198097210821 -8.95479137074177 a37.105234800873966,37.105234800873966 0 0,0 0.3505620681108387,0.533930080413861 l -13.538356800679585 8.723043226350235" fill="#ff980e" stroke="none" /><line stroke="#e1ed5e" stroke-width="0.3" x1="172.23445277983987" x2="176.4835382374775" y1="55.19839476539836" y2="52.563006222186495" /><path d="M 173.08426987136738 54.67131705675599 a86.0,86.0 0 0,1 12.851231095245387,41.99856678651699" fill="none" id="id39" stroke="none" /><text fill="#e1ed5e" style="font-size:6.75px; font-family:Arial;" text-anchor="middle"><textPath startOffset="22.20632615414155" xlink:href="#id39">March</textPath></text><path d="M 117.84615892207809 88.93136811851018 l 15.155224455564053 -9.399647358987945 a38.833513360295996,38.833513360295996 0 0,0 0.3474382694019272,0.5710971621548936 l -15.314778523252203 9.13738242362597" fill="#ffb010" stroke="none" /><path d="M 118.3937258080291 89.86733742301442 l 47.916338424661554 -26.395962093215985 a75.70577942825778,75.70577942825778 0 0,0 0.6189556747707249,1.1468308622746257 l -48.363602198650746 25.5672502476089" fill="#42ffd5" stroke="none" /><path d="M 118.73160827565052 90.50648371742162 l 12.898009766824213 -6.536943541221282 a35.459954592121214,35.459954592121214 0 0,0 0.2712517450643375,0.5468269660438613 l -13.008621524841958 6.3139569866784715" fill="#ff800b" stroke="none" /><path d="M 119.04729006885535 91.15688171328212 l 15.980753912916368 -7.419412244575622 a38.61908549500088,38.61908549500088 0 0,0 0.2747429473308355,0.605359665885763 l -16.10609917721055 7.1432305698477965" fill="#ffad10" stroke="none" /><path d="M 119.47837535516314 92.15188598940014 l 39.5539368873203 -15.936842811558032 a63.64383756284636,63.64383756284636 0 0,0 0.40067265886140985,1.0196682133462245 l -39.822403096063404 15.253625593316023" fill="#31ff44" stroke="none" /><path d="M 119.7369772167798 92.82701384747503 l 14.291160693145951 -5.19381953120429 a36.2056908846668,36.2056908846668 0 0,0 0.20783259491899733,0.5875707328742253 l -14.378446368874759 4.94705117190345" fill="#ff8b0c" stroke="none" /><path d="M 119.97218684219823 93.5106431181261 l 13.641310881948403 -4.4323305879813155 a35.34332308145915,35.34332308145915 0 0,0 0.1830186938341556,0.5802192738223971 l -13.715585059550765 4.196861147732498" fill="#ff7e0b" stroke="none" /><path d="M 120.28053869075195 94.5502522615342 l 41.158668642446166 -11.060079062629548 a63.618791081989855,63.618791081989855 0 0,0 0.2750866472486454,1.0600210667547223 l -41.34295162156511 10.349961570325975" fill="#31ff43" stroke="none" /><path d="M 120.37134235888165 94.90015583598534 l 13.825696427534556 -3.461180711474287 a35.252356072727885,35.252356072727885 0 0,0 0.14229730992826856,0.5899142163217999 l -13.883226537723644 3.2226812634930813" fill="#ff7d0b" stroke="none" /><path d="M 120.53481517161879 95.60439243477599 l 17.247522539006408 -3.6919417058406294 a38.638238780923096,38.638238780923096 0 0,0 0.1336160049940527,0.6515590931093241 l -17.308517839915456 3.3945069565678936" fill="#ffae10" stroke="none" /><path d="M 120.67395015179393 96.31383870115 l 14.915922440980996 -2.659506075756948 a36.151162161113206,36.151162161113206 0 0,0 0.10395720889477036,0.6135613315771178 l -14.959491511395989 2.4023589558639924" fill="#ff8a0c" stroke="none" /><path d="M 120.87857604477298 97.74499172005257 l 16.759331613682402 -1.8101057981250581 a37.856799196104234,37.856799196104234 0 0,0 0.06439779427407324,0.6484770000022556 l -16.788006533638704 1.5213532674183676" fill="#ffa20f" stroke="none" /><line stroke="#e1ed5e" stroke-width="0.3" x1="184.98032266829074" x2="189.97916517819016" y1="98.17113171792111" y2="98.06355123074" /><path d="M 185.9800911702706 98.14961562048488 a86.0,86.0 0 0,1 -9.607161424134198,41.387399972396054" fill="none" id="id40" stroke="none" /><text fill="#e1ed5e" style="font-size:6.75px; font-family:Arial;" text-anchor="middle"><textPath startOffset="21.466115282336823" xlink:href="#id40">April</textPath></text><path d="M 120.9904718944345 100.63252640178507 l 18.69293772273298 0.5632925594058561 a39.70142291948545,39.70142291948545 0 0,0 -0.02646358303072162,0.6829074897351318 l -18.68047200685106 -0.8849772961549941" fill="#ffbd11" stroke="none" /><path d="M 120.95626037817324 101.35467743843564 l 14.753151819079564 0.9536893297975422 a35.78394439703357,35.78394439703357 0 0,0 -0.04502547407302948,0.614336820820785 l -14.734549786342198 -1.2074992871150974" fill="#ff850c" stroke="none" /><path d="M 120.89721153311464 102.0752229133903 l 41.3462219001457 4.105936666877088 a62.54959423783214,62.54959423783214 0 0,0 -0.1156205376359862,1.0705025825567014 l -41.26941906100866 -4.81703557131858" fill="#30ff35" stroke="none" /><path d="M 120.76222939487914 103.15116336523771 l 17.506387608251426 2.657011741830546 a38.70687206952613,38.70687206952613 0 0,0 -0.10564809529463251,0.6578707902486589 l -17.458057758595505 -2.95796176177241" fill="#ffaf10" stroke="none" /><path d="M 120.64145759157962 103.86396538481128 l 18.593607452400878 3.4806192952262336 a39.91657867512724,39.91657867512724 0 0,0 -0.13223805018146564,0.674278968924466 l -18.530939469243748 -3.8001619912186446" fill="#ffc011" stroke="none" /><path d="M 120.49622156327973 104.57218783832717 l 30.11064723737799 6.716922661957672 a51.850739490335386,51.850739490335386 0 0,0 -0.2018214334296357,0.8694414530572184 l -29.9905652380178 -7.234232772363455" fill="#a3ff21" stroke="none" /><path d="M 120.32669344350535 105.2749913415812 l 15.174889517360448 3.938043884806262 a36.67754641207469,36.67754641207469 0 0,0 -0.1638471992371654,0.6097363810157101 l -15.104854241781505 -4.19867119899752" fill="#ff920d" stroke="none" /><path d="M 120.02730092923936 106.31721596034902 l 13.858662859310531 4.371441090003024 a35.53175947541797,35.53175947541797 0 0,0 -0.18900823183005136,0.5817075234939569 l -13.781362376464234 -4.609347513474775" fill="#ff810b" stroke="none" /><path d="M 119.79798401119884 107.00284435728193 l 33.93370986045823 12.002862942183093 a56.993963156376545,56.993963156376545 0 0,0 -0.33511293899878447,0.9220868828443013 l -33.72207266045422 -12.585197622033524" fill="#67ff28" stroke="none" /><path d="M 119.54520255179757 107.68017299344265 l 19.0395977822317 7.481498557284479 a41.45676182517194,41.45676182517194 0 0,0 -0.26670000685403145,0.6619275451033365 l -18.907995161120272 -7.808125470230629" fill="#ffd513" stroke="none" /><path d="M 119.26925614724726 108.34839909993367 l 13.72126641389047 5.944734311710189 a35.95369579862393,35.95369579862393 0 0,0 -0.250920697911815,0.5657599326614831 l -13.616904631247383 -6.1800425808643595" fill="#ff870c" stroke="none" /><path d="M 118.64920377521936 109.65438752849418 l 11.751755233196596 6.0836913215591135 a34.23310436583107,34.23310436583107 0 0,0 -0.27540938658488673,0.5209707686813767 l -11.645293338386816 -6.285077105326625" fill="#ff6e0a" stroke="none" /><line stroke="#e1ed5e" stroke-width="0.3" x1="174.80103733775053" x2="179.2010983576182" y1="140.37084112569926" y2="142.7455964860345" /><path d="M 175.68104954172406 140.8457921977663 a86.0,86.0 0 0,1 -30.038265399797805,32.042727171017184" fill="none" id="id41" stroke="none" /><text fill="#e1ed5e" style="font-size:6.75px; font-family:Arial;" text-anchor="middle"><textPath startOffset="22.206326154141568" xlink:href="#id41">May</textPath></text><path d="M 117.94076556474637 110.91462005526583 l 6.02049643660907 3.662688245522413 a28.04710313015998,28.04710313015998 0 0,0 -0.25447451910356367,0.4102939512457936 l -5.956557277837544 -3.76577852813348" fill="#ff0f01" stroke="none" /><path d="M 117.75023020441432 111.22182372390056 l 12.125724977191338 7.665970900180162 a35.34574208833028,35.34574208833028 0 0,0 -0.32954878101067475,0.5114670264471795 l -11.991971332803613 -7.873559526548795" fill="#ff7e0b" stroke="none" /><path d="M 117.35343817320211 111.8261652097733 l 19.471305597611064 13.269467096320183 a44.562905141257176,44.562905141257176 0 0,0 -0.43743604000183484,0.6301592411441574 l -19.24000865044709 -13.60266759965136" fill="#ffff18" stroke="none" /><path d="M 116.93607887273984 112.41649034213515 l 14.324624809072448 10.50193299954701 a38.76191072626108,38.76191072626108 0 0,0 -0.3991345940916486,0.5347060144289318 l -14.141728948285706 -10.746951893485258" fill="#ffaf10" stroke="none" /><path d="M 116.498646956653 112.99209946851258 l 11.424339450779586 8.996262232687423 a35.54126081348921,35.54126081348921 0 0,0 -0.3826305929960305,0.47739049690577806 l -11.2677909457287 -9.191580563171451" fill="#ff810b" stroke="none" /><path d="M 116.0416608686014 113.55231037782055 l 33.37653022604444 28.19714870318786 a64.69292808819004,64.69292808819004 0 0,0 -0.7259701467514735,0.8444672910128248 l -32.886217569722184 -28.767493093362212" fill="#33ff51" stroke="none" /><path d="M 115.56566222782051 114.09645910891815 l 11.060569616847781 10.016590688096175 a35.92207389279356,35.92207389279356 0 0,0 -0.41901147772775627,0.45475420330156663 l -10.886511731124303 -10.205496146199076" fill="#ff870c" stroke="none" /><path d="M 115.07121518719521 114.62390073753431 l 12.596974194605862 12.223095346134508 a38.552430563892315,38.552430563892315 0 0,0 -0.46622624612361707,0.4722847258434125 l -12.38470732342671 -12.438120565958586" fill="#ffac10" stroke="none" /><path d="M 114.29624159901734 115.38237550388516 l 29.036758153832704 31.242779037006123 a63.652603273884225,63.652603273884225 0 0,0 -0.8089956424479366,0.738998338274644 l -28.494662961917903 -31.73797014186735" fill="#31ff44" stroke="none" /><path d="M 113.75828350139079 115.86535959552629 l 9.203849082817168 10.613415208887657 a35.0483244671926,35.0483244671926 0 0,0 -0.4591906690025738,0.3913322500528094 l -9.019792937237547 -10.770271849163414" fill="#ff7a0b" stroke="none" /><path d="M 112.92097659922987 116.55440617244103 l 9.629468591454174 12.337313132909571 a36.650430048189264,36.650430048189264 0 0,0 -0.5006645461516341,0.3838882245575997 l -9.415675316809045 -12.501240699294542" fill="#ff910d" stroke="none" /><path d="M 112.34349029814194 116.9893568818739 l 25.520554700561792 35.12603009024886 a64.41816097125067,64.41816097125067 0 0,0 -0.9026906840033632,0.6440458351122305 l -24.912136688709545 -35.560120187205314" fill="#33ff4e" stroke="none" /><path d="M 111.7513745106137 117.40417183066458 l 10.170314122879633 15.062569438712227 a39.174605565295565,39.174605565295565 0 0,0 -0.5621095154145602,0.37253553592174166 l -9.909529908725109 -15.235402995725288" fill="#ffb510" stroke="none" /><path d="M 111.1453310114006 117.79835938074945 l 12.155362872977706 19.411313723690732 a43.90309907094036,43.90309907094036 0 0,0 -0.6439556048229601,0.39557012791420154 l -11.819428068222438 -19.617672318433314" fill="#fff617" stroke="none" /><line stroke="#e1ed5e" stroke-width="0.3" x1="143.8653032363475" x2="146.44561519142675" y1="172.8068346515853" y2="177.08958963109032" /><path d="M 144.38136562736335 173.6633856474863 a86.0,86.0 0 0,1 -40.68145358897372,12.25698825130547" fill="none" id="id42" stroke="none" /><text fill="#e1ed5e" style="font-size:6.75px; font-family:Arial;" text-anchor="middle"><textPath startOffset="21.466115282336833" xlink:href="#id42">June</textPath></text><path d="M 109.89434966115114 118.52300852407294 l 20.06316795399794 37.559844129116215 a63.582538667320385,63.582538667320385 0 0,0 -0.9698126464573137,0.5073601404501377 l -19.41366440501413 -37.89963368851107" fill="#31ff43" stroke="none" /><path d="M 109.2508944713604 118.85261126421891 l 7.763510803869882 15.821437773832818 a38.62356357928408,38.62356357928408 0 0,0 -0.59937762319887,0.28773768325363525 l -7.490020512670779 -15.952729733586013" fill="#ffad10" stroke="none" /><path d="M 108.59647513512805 119.15986991738527 l 6.6175155408405955 14.749154152807618 a37.165675369638876,37.165675369638876 0 0,0 -0.5859422251080465,0.2568598522326584 l -6.362652641074796 -14.860878558334731" fill="#ff990e" stroke="none" /><path d="M 107.59598834532513 119.57807347666477 l 15.80423586037254 40.73419769098791 a64.69266222901473,64.69266222901473 0 0,0 -1.041643599901279,0.3938604795828666 l -15.100722039710986 -41.00020642067741" fill="#33ff51" stroke="none" /><path d="M 106.91757812671514 119.82793768551818 l 4.8180000143792325 13.809891598477794 a35.626217217731515,35.626217217731515 0 0,0 -0.5807586883134472,0.19702487884695236 l -4.579571593128558 -13.890779464222868" fill="#ff820c" stroke="none" /><path d="M 106.2309692047433 120.05430185196036 l 5.190950636760255 16.707014197561673 a38.4948647297088,38.4948647297088 0 0,0 -0.6344779065947495,0.19116298855536693 l -4.90259775572526 -16.793892555222765" fill="#ffac0f" stroke="none" /><path d="M 105.18746579009965 120.34920634021253 l 3.7062502948331426 14.538746865949795 a36.00371459606306,36.00371459606306 0 0,0 -0.6018564640948021,0.14792167577948165 l -3.4554405459951294 -14.600389800043308" fill="#ff880c" stroke="none" /><path d="M 104.48393922423573 120.51570834832081 l 4.095217581761021 18.737160636838258 a40.179468078459465,40.179468078459465 0 0,0 -0.6769447086373667,0.14186034550507723 l -3.772081411694276 -18.804876963069876" fill="#ffc312" stroke="none" /><path d="M 103.7750983002368 120.6578951692458 l 3.7261711680542855 20.390158679444987 a41.72782966319882,41.72782966319882 0 0,0 -0.7076861644184459,0.12304031085612356 l -3.3746360321637896 -20.451277568822118" fill="#ffd914" stroke="none" /><path d="M 102.70371172650421 120.8252237178851 l 2.204885016129425 16.983032356218352 a38.12556293809671,38.12556293809671 0 0,0 -0.651534239010074,0.07889172283444518 l -1.9122233540679705 -17.018469607778147" fill="#ffa60f" stroke="none" /><path d="M 101.98527174616119 120.90594882070398 l 1.648351612867767 17.35800377140936 a38.43609354092554,38.43609354092554 0 0,0 -0.6591894044086648,0.05687763553673794 l -1.3493178907175605 -17.383805659224763" fill="#ffab0f" stroke="none" /><path d="M 101.26447882468166 120.96189622390904 l 1.4039299732153703 23.27364747415588 a44.31595346797928,44.31595346797928 0 0,0 -0.7618375219796931,0.039378297868083924 l -1.0031043828221975 -23.294365578786167" fill="#fffb17" stroke="none" /><line stroke="#e1ed5e" stroke-width="0.3" x1="102.19456741930631" x2="102.32365962044197" y1="184.97166512339345" y2="189.96999836594603" /><path d="M 102.22038585953345 185.97133177190398 a86.0,86.0 0 0,1 -42.740103519485714,-10.115201625700543" fill="none" id="id43" stroke="none" /><text fill="#e1ed5e" style="font-size:6.75px; font-family:Arial;" text-anchor="middle"><textPath startOffset="22.20632615414155" xlink:href="#id43">July</textPath></text><path d="M 100.54218724476979 120.99299961872073 l 1.160580453242753 44.93662521102742 a65.95160989714155,65.95160989714155 0 0,0 -1.1351223968238395,0.019542161479093427 l -0.38689836652624543 -44.94994484978567" fill="#35ff61" stroke="none" /><path d="M 99.81925306533755 120.99922214144158 l -0.07590966069891207 8.819202553420059 a29.819529236577104,29.819529236577104 0 0,0 -0.5132371378344325,-0.008835842771398277 l 0.22770648842601252 -8.816589233369502" fill="#ff2b04" stroke="none" /><path d="M 99.09653310690486 120.98055641714683 l -0.6766424950622254 15.713177926484473 a36.7277400034297,36.7277400034297 0 0,0 -0.6313882076878728,-0.03263555836436219 l 0.9470187711635872 -15.69920256135791" fill="#ff920d" stroke="none" /><path d="M 98.01472825383883 120.90594882070398 l -4.15877182089507 43.79404029334312 a64.99105986758255,64.99105986758255 0 0,0 -1.1127936495446233,-0.1153456117140126 l 4.911998067045286 -43.71596531317335" fill="#33ff55" stroke="none" /><path d="M 97.2962882734958 120.8252237178851 l -2.233100378636381 17.200359976884684 a38.34471448699812,38.34471448699812 0 0,0 -0.6538164731856261,-0.09061300559425187 l 2.5288454430088376 -17.15937240579783" fill="#ffa90f" stroke="none" /><path d="M 96.58105272829116 120.7198165907248 l -3.1771671328179636 19.254558505420913 a40.5149279842006,40.5149279842006 0 0,0 -0.6871158701099461,-0.11946390151908412 l 3.5081319743999595 -19.197016025380826" fill="#ffc812" stroke="none" /><path d="M 95.86986931433489 120.58985236759428 l -2.931358199553687 14.61363747516087 a35.90473955322658,35.90473955322658 0 0,0 -0.6049239728135994,-0.12676770006871194 l 3.1824736337966733 -14.561013794365616" fill="#ff860c" stroke="none" /><path d="M 94.81253420990036 120.34920634021253 l -3.7404844061055176 14.673039220317726 a36.14230179177858,36.14230179177858 0 0,0 -0.6015276140484785,-0.15886891006961068 l 3.9925024629654855 -14.606478960944534" fill="#ff8a0c" stroke="none" /><path d="M 94.11515582081647 120.15858648285463 l -4.720463376919426 16.169989608115756 a37.84492025565598,37.84492025565598 0 0,0 -0.6237654281331325,-0.18793540667068254 l 4.998103779492805 -16.086338832339347" fill="#ffa20f" stroke="none" /><path d="M 93.08242187328487 119.8279376855182 l -13.719870941677195 39.325431690369115 a62.650023244773415,62.650023244773415 0 0,0 -1.015170354109016,-0.36400397095231457 l 14.394760856415939 -39.08344017837684" fill="#30ff37" stroke="none" /><path d="M 92.40401165467489 119.57807347666478 l -5.366429802149793 13.831558475009144 a35.83612411207856,35.83612411207856 0 0,0 -0.5731713716950175,-0.22807671770643548 l 5.603722249886669 -13.737134912896643" fill="#ff850c" stroke="none" /><path d="M 91.7346041902142 119.30500536409082 l -6.762406333689521 15.794560061053048 a38.18133484174429,38.18133484174429 0 0,0 -0.6019547895272143,-0.2638792899081263 l 7.033281797874478 -15.67581621785047" fill="#ffa70f" stroke="none" /><path d="M 90.7491055286396 118.85261126421891 l -19.876517122447833 40.50681280131336 a66.12070274540952,66.12070274540952 0 0,0 -1.0174593673070884,-0.5101752488777591 l 20.570830397437682 -40.1586697115263" fill="#35ff63" stroke="none" /><line stroke="#e1ed5e" stroke-width="0.3" x1="58.666819895761336" x2="56.23545636021788" y1="174.27360380694188" y2="178.64263932499728" /><path d="M 58.180547188652646 175.14741091055294 a86.0,86.0 0 0,1 -31.652253787137756,-30.449443065178592" fill="none" id="id44" stroke="none" /><text fill="#e1ed5e" style="font-size:6.75px; font-family:Arial;" text-anchor="middle"><textPath startOffset="22.20632615414155" xlink:href="#id44">August</textPath></text><path d="M 89.7882731507175 118.34994917583269 l -8.431645239522677 15.151233860584895 a38.33933473185461,38.33933473185461 0 0,0 -0.5739055784942421,-0.3258785654845675 l 8.691199584938127 -15.003852129305693" fill="#ffa90f" stroke="none" /><path d="M 89.1626897886671 117.98757091392108 l -9.019802326382422 14.970904293732433 a38.47812373737839,38.47812373737839 0 0,0 -0.5643839266043292,-0.34669070409127345 l 9.27616545291906 -14.813425122812781" fill="#ffab0f" stroke="none" /><path d="M 88.54995079064634 117.60387380957326 l -23.970072502056006 36.85277886734382 a64.96238944824502,64.96238944824502 0 0,0 -0.932133884336398,-0.6177675108309993 l 24.600881085132364 -36.434713335421506" fill="#33ff55" stroke="none" /><path d="M 88.24862548938628 117.40417183066458 l -16.392030954684095 24.27713652826095 a50.29296906821061,50.29296906821061 0 0,0 -0.7133054566114506,-0.49061799732376243 l 16.807493295918437 -23.991377741572084" fill="#b6ff1f" stroke="none" /><path d="M 87.95078237400918 117.19931262002967 l -8.919128472391453 12.731355981484636 a36.5447186476407,36.5447186476407 0 0,0 -0.5121005718786591,-0.3653701609219394 l 9.136956372118998 -12.575941558718478" fill="#ff900d" stroke="none" /><path d="M 87.36589467227662 116.77436683061367 l -9.17471929243021 12.181322142488815 a36.249920761563956,36.249920761563956 0 0,0 -0.49519337432762883,-0.37969316330568614 l 9.383041395251325 -12.021589637355762" fill="#ff8b0c" stroke="none" /><path d="M 86.79598089348748 116.32954008644616 l -11.3948624036917 14.092138226977156 a39.12267223693287,39.12267223693287 0 0,0 -0.5200145939277784,-0.4279366083892448 l 11.635747126164167 -13.89390649973073" fill="#ffb410" stroke="none" /><path d="M 86.24171649860922 115.8653595955263 l -28.79571049741731 33.2057630447879 a64.95242476175429,64.95242476175429 0 0,0 -0.8383738775682384,-0.7397674708946753 l 29.363026727892137 -32.70517243212094" fill="#33ff55" stroke="none" /><path d="M 85.70375840098266 115.38237550388516 l -11.473427025637182 12.345102144671815 a37.85351816906495,37.85351816906495 0 0,0 -0.4734648935833093,-0.4476906090716345 l 11.684227753611308 -12.145776898854251" fill="#ffa20f" stroke="none" /><path d="M 85.18274418774928 114.88116024355367 l -11.055404755803604 11.103084931046261 a36.66845459197146,36.66845459197146 0 0,0 -0.4434427527788873,-0.44920516737252414 l 11.244888133638025 -10.911139269693074" fill="#ff910d" stroke="none" /><path d="M 84.19399662182784 113.82643327865904 l -7.87821575958018 6.891534940777168 a31.467069188385548,31.467069188385548 0 0,0 -0.3531166931475052,-0.4107544898478608 l 7.995674962298463 -6.754903351767777" fill="#ff4406" stroke="none" /><path d="M 83.72743513129214 113.27417163493432 l -11.84822133585411 9.665060477543943 a36.29031532892538,36.29031532892538 0 0,0 -0.3906947743690922,-0.4874518030932417 l 12.012834022278062 -9.45968084087244" fill="#ff8c0c" stroke="none" /><path d="M 83.06392112726016 112.41649034213515 l -35.26542076916409 25.854435355544673 a64.7275854533523,64.7275854533523 0 0,0 -0.6510368589753659,-0.9042332558239676 l 35.70523742051506 -25.243568494269567" fill="#33ff52" stroke="none" /><path d="M 82.6465618267979 111.8261652097733 l -13.213453807650087 9.004814271461669 a36.99006071253084,36.99006071253084 0 0,0 -0.3540422539946307,-0.5292451326381452 l 13.366499167055448 -8.776032224617703" fill="#ff960d" stroke="none" /><path d="M 82.24976979558568 111.22182372390057 l -14.786912572714643 9.348392916643183 a38.49414855193161,38.49414855193161 0 0,0 -0.34926173642940583,-0.5631211264820901 l 14.945638948812004 -9.092475458795828" fill="#ffac0f" stroke="none" /><line stroke="#e1ed5e" stroke-width="0.3" x1="26.63291911575756" x2="22.317208475507996" y1="142.92168965132927" y2="145.44649492493687" /><path d="M 25.769776987707644 143.4266507060508 a86.0,86.0 0 0,1 -11.730757126820373,-40.83630448921669" fill="none" id="id45" stroke="none" /><text fill="#e1ed5e" style="font-size:6.75px; font-family:Arial;" text-anchor="middle"><textPath startOffset="21.46611528233685" xlink:href="#id45">September</textPath></text><path d="M 81.51974371655577 109.97397251340807 l -37.21898363902164 20.08744435677277 a63.293713054166844,63.293713054166844 0 0,0 -0.5092054316969178,-0.9632247776932843 l 37.55924157894344 -19.44380456399336" fill="#31ff3f" stroke="none" /><path d="M 81.18737489456691 109.33194174019688 l -15.301143577217195 7.5900827035425795 a38.08023273311085,38.08023273311085 0 0,0 -0.28623051067976796,-0.5897196306771388 l 15.429527344511682 -7.325574116900156" fill="#ffa60f" stroke="none" /><path d="M 80.58989483394504 108.01547362559985 l -16.458810394020137 6.7967257000097145 a38.80696267833113,38.80696267833113 0 0,0 -0.2496532955454122,-0.6196190056259565 l 16.573366303822937 -6.512407326540953" fill="#ffb010" stroke="none" /><path d="M 80.20201598880116 107.00284435728193 l -20.119504758323778 7.116571075541695 a42.34104157705171,42.34104157705171 0 0,0 -0.23712831985120322,-0.6892058947936801 l 20.23902390911821 -6.769192477658718" fill="#ffe115" stroke="none" /><path d="M 79.97269907076064 106.31721596034903 l -16.429682189138557 5.182418285689097 a38.2276497562477,38.2276497562477 0 0,0 -0.19254580448683611,-0.6292508296886721 l 16.516454766131524 -4.898840483448376" fill="#ffa80f" stroke="none" /><path d="M 79.76711848015287 105.62410040840567 l -42.52423931917288 11.820392042898089 a65.13652226582988,65.13652226582988 0 0,0 -0.2909801168649673,-1.082845262114981 l 42.72140751237962 -11.08665584760757" fill="#33ff57" stroke="none" /><path d="M 79.58551787078972 104.9243191809786 l -16.7340818506938 4.036544239127614 a38.21404033863503,38.21404033863503 0 0,0 -0.14874257289461731,-0.6407791110752047 l 16.801084989518973 -3.7478964707038345" fill="#ffa80f" stroke="none" /><path d="M 79.4281124754447 104.21870165774334 l -16.81618842916749 3.448515937994215 a38.16614270766344,38.16614270766344 0 0,0 -0.12643910029678213,-0.6447102483956706 l 16.873057462439938 -3.1585419625305895" fill="#ffa70f" stroke="none" /><path d="M 79.18660465613746 102.79330883721812 l -62.440186031587636 8.379926511654372 a84.0,84.0 0 0,0 -0.1799939630126075,-1.4347289828503655 l 62.5751815038471 -7.303879774516597" fill="#4dd2ff" stroke="none" /><line stroke="#e1ed5e" stroke-width="0.3" x1="15.007084014347285" x2="10.007500721073583" y1="101.09737516637583" y2="101.16192664675087" /><path d="M 14.007167355692545 101.11028546245083 a86.0,86.0 0 0,1 10.666146001902534,-42.60595125391555" fill="none" id="id46" stroke="none" /><text fill="#e1ed5e" style="font-size:6.75px; font-family:Arial;" text-anchor="middle"><textPath startOffset="22.20632615414155" xlink:href="#id46">October</textPath></text><line stroke="#e1ed5e" stroke-width="0.3" x1="26.266209847984243" x2="21.928928074336255" y1="57.711370442889674" y2="55.22380399835377" /><path d="M 25.398753493254645 57.213857153982495 a86.0,86.0 0 0,1 29.58750427330803,-30.492523968695096" fill="none" id="id47" stroke="none" /><text fill="#e1ed5e" style="font-size:6.75px; font-family:Arial;" text-anchor="middle"><textPath startOffset="21.46611528233685" xlink:href="#id47">November</textPath></text><line stroke="#e1ed5e" stroke-width="0.3" x1="56.762969772571076" x2="54.21961505331055" y1="26.818313649435495" y2="22.513508569990535" /><path d="M 56.25429882871897 25.957352633546506 a86.0,86.0 0 0,1 42.265352541879196,-11.944610805530505" fill="none" id="id48" stroke="none" /><text fill="#e1ed5e" style="font-size:6.75px; font-family:Arial;" text-anchor="middle"><textPath startOffset="22.20632615414155" xlink:href="#id48">December</textPath></text></svg>