<?xml version="1.0" encoding="utf-8" ?>
<svg baseProfile="full" height="200mm" version="1.1" viewBox="0,0,200,200" width="200mm" xmlns="http://www.w3.org/2000/svg" xmlns:ev="http://www.w3.org/2001/xml-events" xmlns:xlink="http://www.w3.org/1999/xlink"><defs /><rect fill="#1a1a1a" height="200" width="200" x="0" y="0" /><text alignment-baseline="middle" fill="#e1ed5e" style="dominant-baseline: central; font-size:9.0px; font-family:Arial;" text-anchor="middle" x="100.0" y="100.0">2023</text><line stroke="#e1ed5e" stroke-width="0.3" x1="100.0" x2="100.0" y1="15.0" y2="10.0" /><path d="M 100.0 14.0 a86.0,86.0 0 0,1 42.46469731375804,11.215312516191453" fill="none" id="id37" stroke="none" /><text fill="#e1ed5e" style="font-size:6.75px; font-family:Arial;" text-anchor="middle"><textPath startOffset="22.20632615414155" xlink:href="#id37">January</textPath></text><path d="M 100.36148047927253 79.00311137660856 l 0.30129450993764656 -17.50093748003075 a38.503530816999856,38.503530816999856 0 0,0 0.6625785946770161,0.017112450303243845 l -0.6024997398095305 17.49315823758515" fill="#ffab0f" stroke="none" /><path d="M 101.08401301168833 79.027996857942 l 0.9853538457382928 -19.063280353689958 a40.088729136448364,40.088729136448364 0 0,0 0.6888349945818943,0.04155240799995364 l -1.3133508891597991 19.0434946763097" fill="#ffc112" stroke="none" /><path d="M 102.16513564639614 79.11191278185805 l 4.3344643664004225 -41.81662699979191 a63.04066929751857,63.04066929751857 0 0,0 1.0783955926048023,0.12117030994140503 l -5.05362666251495 41.7358207363799" fill="#31ff3c" stroke="none" /><path d="M 102.88285421437855 79.19881850522331 l 0.842772350883675 -6.081008377764922 a27.1391308933644,27.1391308933644 0 0,0 0.46218071674638456,0.06811342348370258 l -0.9473220480587153 6.065600470120251" fill="#ff0000" stroke="none" /><path d="M 104.66035177308747 79.52364482259891 l 13.981055319262426 -61.429065532203275 a84.0,84.0 0 0,0 1.407105252149906,0.3330163514365254 l -15.036384258374856 61.17930326862588" fill="#4dd2ff" stroke="none" /><path d="M 105.71112130821622 79.79150937346287 l 5.086313084865941 -17.997640875054422 a39.70255752202645,39.70255752202645 0 0,0 0.6560559924543576,0.19152073443726564 l -5.395359295043725 17.907421811698455" fill="#ffbc11" stroke="none" /><path d="M 106.40334571778207 80.00007090966166 l 5.293658692396847 -16.53398131891922 a38.360741937082025,38.360741937082025 0 0,0 0.627138174215521,0.20675759592908796 l -5.577479688854786 16.4404099987309" fill="#ffa90f" stroke="none" /><path d="M 107.08798089147638 80.2323363322302 l 13.882590112485959 -38.71714334206784 a62.130809581158516,62.130809581158516 0 0,0 1.0036127963803578,0.36963906274368746 l -14.546985234638894 38.47244101151783" fill="#2fff30" stroke="none" /><path d="M 107.76421540070413 80.48803036053334 l 10.684775266821985 -26.851523283582235 a49.89928589344812,49.89928589344812 0 0,0 0.7953378992646533,0.3244382988554109 l -11.145397035675026 26.663624098543245" fill="#bbff1f" stroke="none" /><path d="M 108.43124777332544 80.76684994638697 l 5.961015656971053 -13.59811877017597 a35.847307558963884,35.847307558963884 0 0,0 0.5630039541793925,0.2526034630689393 l -6.194201729617226 13.4934949765905" fill="#ff850c" stroke="none" /><path d="M 109.73455568895987 81.39251694778311 l 6.809044443447203 -13.01540441408407 a35.68890187505514,35.68890187505514 0 0,0 0.5418849117536368,0.2894561531958727 l -7.03207440172915 12.896269534386443" fill="#ff830c" stroke="none" /><path d="M 110.36928655335952 81.73862282372117 l 8.888111297393507 -15.652875629506225 a39.000306605934355,39.000306605934355 0 0,0 0.5809249210090622,0.3365092103575568 l -9.1562329508679 15.497562261758619" fill="#ffb210" stroke="none" /><line stroke="#e1ed5e" stroke-width="0.3" x1="143.23703022742887" x2="145.7803849466894" y1="26.81831364943548" y2="22.513508569990506" /><path d="M 143.74570117128098 25.957352633546492 a86.0,86.0 0 0,1 28.547481713284135,27.462654790039103" fill="none" id="id38" stroke="none" /><text fill="#e1ed5e" style="font-size:6.75px; font-family:Arial;" text-anchor="middle"><textPath startOffset="19.985693538727396" xlink:href="#id38">February</textPath></text><path d="M 110.99172775467656 82.1063720568725 l 12.614621736172921 -20.535565748008228 a45.100583854701426,45.100583854701426 0 0,0 0.6579978623766306,0.4120382010554062 l -12.966238750921816 20.315383205629878" fill="#f9ff18" stroke="none" /><path d="M 111.90073688211348 82.69761687909136 l 31.332434687977244 -45.55396816620929 a76.28910814224054,76.28910814224054 0 0,0 1.0755633004691796,0.7535008267010449 l -32.11192912803008 45.0078824967443" fill="#43ffdc" stroke="none" /><path d="M 112.48926042617603 83.11751280151076 l 9.292678660958122 -12.561474673431436 a36.625124724848945,36.625124724848945 0 0,0 0.5036021730180513,0.37930271594923154 l -9.507526987734556 12.399655367976356" fill="#ff900d" stroke="none" /><path d="M 113.06298171725822 83.55741782278167 l 9.821793126235649 -12.36284671457566 a36.789477480355835,36.789477480355835 0 0,0 0.4924474803960101,0.3981916150534996 l -10.03314400519615 12.191949002258031" fill="#ff930d" stroke="none" /><path d="M 114.16331599549186 84.49514656593476 l 18.403043683827484 -20.146164581039287 a48.286259621926646,48.286259621926646 0 0,0 0.6088486128057808,0.5658584308840672 l -18.747100180428113 19.826401564080577" fill="#d0ff1d" stroke="none" /><path d="M 114.68862486808459 84.99185889309783 l 16.544509875669014 -16.90439649650853 a44.65331748269742,44.65331748269742 0 0,0 0.5446943496585568,0.5423552590178286 l -16.833040025494892 16.61710538684058" fill="#ffff18" stroke="none" /><path d="M 115.4437574822437 85.77008943001954 l 45.849133366252865 -42.245487748885566 a83.344400434824,83.344400434824 0 0,0 0.9630499421216041,1.0634237996762703 l -46.56952694899051 41.45001116193974" fill="#4cd8ff" stroke="none" /><path d="M 116.15771136456269 86.58626213691792 l 16.2965762772962 -13.529020126501647 a42.18048120192315,42.18048120192315 0 0,0 0.4589668361705776,0.5626390722955521 l -16.527041605543186 13.246496884597995" fill="#ffde14" stroke="none" /><path d="M 116.60985879189232 87.15038557335679 l 12.397247304469287 -9.590680439253967 a36.673955850903106,36.673955850903106 0 0,0 0.38197507198815017,0.5026344201217503 l -12.560498316681551 9.375861243251183" fill="#ff910d" stroke="none" /><path d="M 117.04232023915458 87.72973835380427 l 25.99172915906972 -18.71372635552948 a53.02769955504257,53.02769955504257 0 0,0 0.5269624618080304,0.7453510312864823 l -26.310004240681632 18.263548823911204" fill="#95ff23" stroke="none" /><path d="M 117.45458315368197 88.32363383020206 l 13.47923903052617 -9.017031757498907 a37.21717443199659,37.21717443199659 0 0,0 0.3516196490371016,0.5355408487210163 l -13.632455314921197 8.783672844800217" fill="#ff990e" stroke="none" /><line stroke="#e1ed5e" stroke-width="0.3" x1="172.23445277983987" x2="176.4835382374775" y1="55.19839476539836" y2="52.563006222186495" /><path d="M 173.08426987136738 54.67131705675599 a86.0,86.0 0 0,1 12.851231095245387,41.99856678651699" fill="none" id="id39" stroke="none" /><text fill="#e1ed5e" style="font-size:6.75px; font-family:Arial;" text-anchor="middle"><textPath startOffset="22.20632615414155" xlink:href="#id39">March</textPath></text><path d="M 117.84615892207809 88.93136811851018 l 15.260561028182307 -9.464979722722916 a38.95746541264754,38.95746541264754 0 0,0 0.34854725189749164,0.5729200377902878 l -15.421224078366022 9.200891911725545" fill="#ffb210" stroke="none" /><path d="M 118.3937258080291 89.86733742301442 l 48.24938151992349 -26.579427550030122 a76.08601261611186,76.08601261611186 0 0,0 0.6220643870927672,1.1525908340757927 l -48.69975400623472 25.74495573262187" fill="#42ffd9" stroke="none" /><path d="M 118.73160827565052 90.50648371742162 l 12.987657541188607 -6.582378647118283 a35.560458683064624,35.560458683064624 0 0,0 0.27202055343896986,0.5483768368137971 l -13.099038107580986 6.3578422218055355" fill="#ff810b" stroke="none" /><path d="M 119.04729006885535 91.15688171328212 l 16.091828338107376 -7.4709809599699115 a38.74154716385661,38.74154716385661 0 0,0 0.275614161120733,0.607279269988038 l -16.218044816191455 7.192879681139811" fill="#ffaf10" stroke="none" /><path d="M 119.47837535516314 92.15188598940014 l 39.828857008595016 -16.047612032102908 a63.9402340764929,63.9402340764929 0 0,0 0.4025386365231551,1.024416922963453 l -40.099189194999866 15.35964610424367" fill="#32ff47" stroke="none" /><path d="M 119.7369772167798 92.82701384747503 l 14.390491580033613 -5.229919237270601 a36.311378224816714,36.311378224816714 0 0,0 0.20843927507387722,0.5892858993684991 l -14.4783839359173 4.981435711475487" fill="#ff8c0c" stroke="none" /><path d="M 119.97218684219823 93.5106431181261 l 13.736124979788904 -4.463137555850248 a35.443016523663665,35.443016523663665 0 0,0 0.1835349374124419,0.5818559070418441 l -13.810915400969552 4.226031482381985" fill="#ff7f0b" stroke="none" /><path d="M 120.28053869075195 94.5502522615342 l 41.444742471378085 -11.136952277193958 a63.915013509765394,63.915013509765394 0 0,0 0.2763675083450408,1.0649567470552583 l -41.63030631159343 10.421899104589848" fill="#32ff47" stroke="none" /><path d="M 120.37134235888165 94.90015583598534 l 13.921792099360939 -3.4852376902691664 a35.351417247627545,35.351417247627545 0 0,0 0.14269717366155985,0.5915719096469861 l -13.979722073283318 3.245080548962774" fill="#ff7e0b" stroke="none" /><path d="M 120.53481517161879 95.60439243477599 l 17.367401654999842 -3.7176025917443605 a38.76083357492648,38.76083357492648 0 0,0 0.13403995357775184,0.653626416965716 l -17.428820904492593 3.418100518615233" fill="#ffaf10" stroke="none" /><path d="M 120.67395015179393 96.31383870115 l 15.0195957420251 -2.6779910052081126 a36.25647049870428,36.25647049870428 0 0,0 0.10426003625065251,0.615348635773608 l -15.063467639795975 2.419056581118667" fill="#ff8b0c" stroke="none" /><path d="M 120.87857604477298 97.74499172005257 l 16.875817552688734 -1.8226869605756695 a37.973962584732234,37.973962584732234 0 0,0 0.06459709965534001,0.6504839779924975 l -16.904691778026304 1.5319274518787371" fill="#ffa40f" stroke="none" /><line stroke="#e1ed5e" stroke-width="0.3" x1="184.98032266829074" x2="189.97916517819016" y1="98.17113171792111" y2="98.06355123074" /><path d="M 185.9800911702706 98.14961562048488 a86.0,86.0 0 0,1 -9.607161424134198,41.387399972396054" fill="none" id="id40" stroke="none" /><text fill="#e1ed5e" style="font-size:6.75px; font-family:Arial;" text-anchor="middle"><textPath startOffset="21.466115282336823" xlink:href="#id40">April</textPath></text><path d="M 120.9904718944345 100.63252640178507 l 18.822863214608912 0.5672077312176069 a39.83140738782501,39.83140738782501 0 0,0 -0.02655022614116086,0.685143363425562 l -18.810310855616546 -0.8911283416571751" fill="#ffbe11" stroke="none" /><path d="M 120.95626037817324 101.35467743843564 l 14.855693780928776 0.960317959128505 a35.88670038307182,35.88670038307182 0 0,0 -0.04515476772869471,0.6161009300280493 l -14.836962454535744 -1.2158920256533245" fill="#ff860c" stroke="none" /><path d="M 120.89721153311464 102.0752229133903 l 41.63359932028522 4.134475029812233 a62.83838519988785,62.83838519988785 0 0,0 -0.11615435670714334,1.0754450841742849 l -41.556262662077025 -4.850516435871309" fill="#30ff39" stroke="none" /><path d="M 120.76222939487914 103.15116336523771 l 17.628065969069297 2.6754793343833003 a38.82994390003993,38.82994390003993 0 0,0 -0.10598401250475613,0.6599625470367566 l -17.57940020220325 -2.978521111113262" fill="#ffb010" stroke="none" /><path d="M 120.64145759157962 103.86396538481128 l 18.72284254802008 3.504811382134818 a40.04805858617336,40.04805858617336 0 0,0 -0.1326736247635529,0.6764999543344631 l -18.65973899028086 -3.826575063537226" fill="#ffc111" stroke="none" /><path d="M 120.49622156327973 104.57218783832717 l 30.3199316586416 6.763608714930829 a52.06516793183944,52.06516793183944 0 0,0 -0.2026560648323469,0.8730370232957649 l -30.1990150278787 -7.284514395575159" fill="#a1ff22" stroke="none" /><path d="M 120.32669344350535 105.2749913415812 l 15.280362772230825 3.9654153069097124 a36.78651338982904,36.78651338982904 0 0,0 -0.16433398027518245,0.6115478743451627 l -15.209840715613865 -4.227854114430423" fill="#ff930d" stroke="none" /><path d="M 120.02730092923936 106.31721596034902 l 13.954987664723483 4.401824844672821 a35.632762647079446,35.632762647079446 0 0,0 -0.1895455097798858,0.5833610949950496 l -13.87714990392735 -4.641384839645665" fill="#ff820c" stroke="none" /><path d="M 119.79798401119884 107.00284435728193 l 34.169566525161784 12.086288987613393 a57.24413963676834,57.24413963676834 0 0,0 -0.3365839259414268,0.9261344071466996 l -33.956458338215135 -12.672671191766224" fill="#64ff29" stroke="none" /><path d="M 119.54520255179757 107.68017299344265 l 19.17193273908377 7.533498804353303 a41.59894679800753,41.59894679800753 0 0,0 -0.26761471247888724,0.6641977694497664 l -19.03941541234749 -7.862395941645882" fill="#ffd614" stroke="none" /><path d="M 119.26925614724726 108.34839909993367 l 13.816636243631963 5.986053260126806 a36.057631643851536,36.057631643851536 0 0,0 -0.2516460657562957,0.5673954456592688 l -13.711549093144395 -6.222997042278763" fill="#ff880c" stroke="none" /><path d="M 118.64920377521936 109.65438752849418 l 11.833435951429655 6.125976092369305 a34.325081219297246,34.325081219297246 0 0,0 -0.27614935128462376,0.5223705030303012 l -11.726234091920139 -6.32876161048574" fill="#ff6f0a" stroke="none" /><line stroke="#e1ed5e" stroke-width="0.3" x1="174.80103733775053" x2="179.2010983576182" y1="140.37084112569926" y2="142.7455964860345" /><path d="M 175.68104954172406 140.8457921977663 a86.0,86.0 0 0,1 -30.038265399797805,32.042727171017184" fill="none" id="id41" stroke="none" /><text fill="#e1ed5e" style="font-size:6.75px; font-family:Arial;" text-anchor="middle"><textPath startOffset="22.206326154141568" xlink:href="#id41">May</textPath></text><path d="M 117.94076556474637 110.91462005526583 l 6.062341970599828 3.6881458048930287 a28.096084106508762,28.096084106508762 0 0,0 -0.2549189290072794,0.4110104815137773 l -5.997958401924586 -3.7919526177720795" fill="#ff0f01" stroke="none" /><path d="M 117.75023020441432 111.22182372390056 l 12.210004976696064 7.719253324520623 a35.445452343871594,35.445452343871594 0 0,0 -0.3304784373490757,0.5129098737293374 l -12.075321675969938 -7.928284798171413" fill="#ff7f0b" stroke="none" /><path d="M 117.35343817320211 111.8261652097733 l 19.606641144904934 13.361696689388602 a44.726679401136124,44.726679401136124 0 0,0 -0.43904367225715096,0.6324751553108198 l -19.373736565485647 -13.69721310688644" fill="#feff18" stroke="none" /><path d="M 116.93607887273984 112.41649034213515 l 14.424188288706446 10.574926813085204 a38.88536510363053,38.88536510363053 0 0,0 -0.4004058140051398,0.5364090212428426 l -14.240021208006214 -10.821648713837362" fill="#ffb110" stroke="none" /><path d="M 116.498646956653 112.99209946851258 l 11.503744461619318 9.058790863176853 a35.64233002431695,35.64233002431695 0 0,0 -0.3837186852917878,0.4787480593465741 l -11.346107864272676 -9.255466756101677" fill="#ff820c" stroke="none" /><path d="M 116.0416608686014 113.55231037782055 l 33.60851420689603 28.39313332952645 a64.996616318342,64.996616318342 0 0,0 -0.7293780708557832,0.8484314766604323 l -33.11479362646947 -28.96744190534841" fill="#33ff55" stroke="none" /><path d="M 115.56566222782051 114.09645910891815 l 11.137446241015269 10.086211123972767 a36.025789949578595,36.025789949578595 0 0,0 -0.4202212691876617,0.4560671929945787 l -10.962178563831886 -10.276429571768679" fill="#ff880c" stroke="none" /><path d="M 115.07121518719521 114.62390073753431 l 12.68452961755002 12.30805211957744 a38.67442894683555,38.67442894683555 0 0,0 -0.4677016096034503,0.4737792612591808 l -12.470787382891032 -12.524571874817285" fill="#ffae10" stroke="none" /><path d="M 114.29624159901734 115.38237550388516 l 29.238578495909334 31.459932354165975 a63.94906071371236,63.94906071371236 0 0,0 -0.8127634816981286,0.742440170095088 l -28.692715464744342 -31.958565290847645" fill="#32ff48" stroke="none" /><path d="M 113.75828350139079 115.86535959552629 l 9.267820548242991 10.687183880883032 a35.145967517926834,35.145967517926834 0 0,0 -0.4604699534896846,0.39242248404620944 l -9.082485118176258 -10.845130755152187" fill="#ff7b0b" stroke="none" /><path d="M 112.92097659922987 116.55440617244103 l 9.696398330471439 12.423063778474035 a36.75920855332535,36.75920855332535 0 0,0 -0.5021505189173945,0.3850276051092553 l -9.481119083060552 -12.588130725410663" fill="#ff920d" stroke="none" /><path d="M 112.34349029814194 116.9893568818739 l 25.697935627604878 35.370173991267386 a64.71993942920155,64.71993942920155 0 0,0 -0.9069195008233083,0.6470629836312108 l -25.085288798932687 -35.80728123674282" fill="#33ff51" stroke="none" /><path d="M 111.7513745106137 117.40417183066458 l 10.241003015366603 15.167262011504578 a39.30092838318258,39.30092838318258 0 0,0 -0.5639220992791231,0.3737368176699968 l -9.978406217347516 -15.341296850265893" fill="#ffb610" stroke="none" /><path d="M 111.1453310114006 117.79835938074945 l 12.239848871038967 19.546232296732434 a44.06228734067157,44.06228734067157 0 0,0 -0.6462905237850552,0.3970044258465244 l -11.901579147321604 -19.75402518940734" fill="#fff817" stroke="none" /><line stroke="#e1ed5e" stroke-width="0.3" x1="143.8653032363475" x2="146.44561519142675" y1="172.8068346515853" y2="177.08958963109032" /><path d="M 144.38136562736335 173.6633856474863 a86.0,86.0 0 0,1 -40.68145358897372,12.25698825130547" fill="none" id="id42" stroke="none" /><text fill="#e1ed5e" style="font-size:6.75px; font-family:Arial;" text-anchor="middle"><textPath startOffset="21.466115282336833" xlink:href="#id42">June</textPath></text><path d="M 109.89434966115114 118.52300852407294 l 20.202617247826296 37.82090428432788 a63.87850912224514,63.87850912224514 0 0,0 -0.9743270288047313,0.5097218519314204 l -19.54859931649507 -38.16305555520402" fill="#32ff47" stroke="none" /><path d="M 109.2508944713604 118.85261126421891 l 7.817471180501866 15.931404870253932 a38.746056373119295,38.746056373119295 0 0,0 -0.6012785208070679,0.28865022962292763 l -7.542079991694566 -16.06360937637642" fill="#ffaf10" stroke="none" /><path d="M 108.59647513512805 119.15986991738527 l 6.663510663404702 14.851668328828595 a37.278035093672656,37.278035093672656 0 0,0 -0.5877136528046534,0.2576363940773896 l -6.406876335942295 -14.964169276200439" fill="#ff9a0e" stroke="none" /><path d="M 107.59598834532513 119.57807347666477 l 15.914083394684122 41.0173212293891 a64.99634861130926,64.99634861130926 0 0,0 -1.046533381301439,0.3957093765064448 l -15.205679792622407 -41.28517885600217" fill="#33ff55" stroke="none" /><path d="M 106.91757812671514 119.82793768551818 l 4.8514875823052295 13.905877418646844 a35.72787691908423,35.72787691908423 0 0,0 -0.5824158879664757,0.19758709094542537 l -4.611401961401527 -13.98732749649039" fill="#ff830c" stroke="none" /><path d="M 106.2309692047433 120.05430185196036 l 5.227030402540705 16.823136503728485 a38.61646300061867,38.61646300061867 0 0,0 -0.6364821068150686,0.19176683764104396 l -4.93667332128539 -16.91061871047525" fill="#ffad10" stroke="none" /><path d="M 105.18746579009965 120.34920634021253 l 3.7320106327593687 14.639798603554471 a36.10799809755298,36.10799809755298 0 0,0 -0.6035997203163979,0.14835012574553674 l -3.4794576276997597 -14.701869987614037" fill="#ff890c" stroke="none" /><path d="M 104.48393922423573 120.51570834832081 l 4.123681441564191 18.867393500618622 a40.31277520551323,40.31277520551323 0 0,0 -0.6791906705327925,0.1423310086573422 l -3.7982993096020206 -18.935580490002504" fill="#ffc512" stroke="none" /><path d="M 103.7750983002368 120.6578951692458 l 3.7520699662530617 20.531880726303 a41.871898696352254,41.871898696352254 0 0,0 -0.7101295136725708,0.12346511844297904 l -3.3980914811084406 -20.593424423266985" fill="#ffda14" stroke="none" /><path d="M 102.70371172650421 120.8252237178851 l 2.220210096354889 17.101073129966995 a38.24459437239494,38.24459437239494 0 0,0 -0.6535683874655263,0.0791380298840877 l -1.9255142858379828 -17.136756688576433" fill="#ffa70f" stroke="none" /><path d="M 101.98527174616119 120.90594882070398 l 1.6598085008787868 17.478650788557548 a38.557283321970196,38.557283321970196 0 0,0 -0.6612678419455644,0.057056971873030694 l -1.3586963411916808 -17.50463201270924" fill="#ffac0f" stroke="none" /><path d="M 101.26447882468166 120.96189622390904 l 1.4136880056356858 23.4354112450879 a44.478011287237905,44.478011287237905 0 0,0 -0.7646234651396577,0.03952229930727736 l -1.0100764720825484 -23.456273351157378" fill="#fffd17" stroke="none" /><line stroke="#e1ed5e" stroke-width="0.3" x1="102.19456741930631" x2="102.32365962044197" y1="184.97166512339345" y2="189.96999836594603" /><path d="M 102.22038585953345 185.97133177190398 a86.0,86.0 0 0,1 -42.740103519485714,-10.115201625700543" fill="none" id="id43" stroke="none" /><text fill="#e1ed5e" style="font-size:6.75px; font-family:Arial;" text-anchor="middle"><textPath startOffset="22.20632615414155" xlink:href="#id43">July</textPath></text><path d="M 100.54218724476979 120.99299961872073 l 1.1686470818532886 45.24895777321677 a66.2640466105747,66.2640466105747 0 0,0 -1.140499883613944,0.019634739790910682 l -0.3895875083466766 -45.26236999028684" fill="#35ff65" stroke="none" /><path d="M 99.81925306533755 120.99922214144158 l -0.07643727172242963 8.88050052844691 a29.880829482219227,29.880829482219227 0 0,0 -0.5142922035389347,-0.008854006684317382 l 0.2292891651540322 -8.877869044483433" fill="#ff2b04" stroke="none" /><path d="M 99.09653310690486 120.98055641714683 l -0.681345506985718 15.82239256151478 a36.837055852353615,36.837055852353615 0 0,0 -0.6332674612961129,-0.03273269431030858 l 0.9536010366953199 -15.80832006044227" fill="#ff930d" stroke="none" /><path d="M 98.01472825383883 120.90594882070398 l -4.187677415213315 44.098431305111546 a65.29682026630726,65.29682026630726 0 0,0 -1.118028957765113,-0.11588827281695015 l 4.946138969584021 -44.01981366383884" fill="#34ff59" stroke="none" /><path d="M 97.2962882734958 120.8252237178851 l -2.2486215700834484 17.319911288914255 a38.46526913681275,38.46526913681275 0 0,0 -0.6558720528664881,-0.09089789020753462 l 2.546422214136767 -17.278638833214114" fill="#ffab0f" stroke="none" /><path d="M 96.58105272829116 120.7198165907248 l -3.1992500717666865 19.3883875494041 a40.65056672942506,40.65056672942506 0 0,0 -0.6894162452823239,-0.11986385122917582 l 3.5325152885210604 -19.33044511965392" fill="#ffc912" stroke="none" /><path d="M 95.86986931433489 120.58985236759428 l -2.9517326405105178 14.71520974085925 a36.008335127472805,36.008335127472805 0 0,0 -0.6066693537053347,-0.1271334616045956 l 3.204593455645239 -14.662220298528112" fill="#ff870c" stroke="none" /><path d="M 94.81253420990036 120.34920634021253 l -3.7664826886401284 14.775024358571097 a36.247548545264415,36.247548545264415 0 0,0 -0.6032792686297339,-0.15933153796506097 l 4.020252400081351 -14.708001471302453" fill="#ff8b0c" stroke="none" /><path d="M 94.11515582081647 120.15858648285463 l -4.7532730152558695 16.28237931831674 a37.96200107956335,37.96200107956335 0 0,0 -0.6256951711411085,-0.18851682240906242 l 5.032843160837224 -16.19814712680195" fill="#ffa30f" stroke="none" /><path d="M 93.08242187328487 119.8279376855182 l -13.81523107217203 39.59876358348246 a62.93951223986807,62.93951223986807 0 0,0 -1.0198611847015717,-0.36568593591104653 l 14.49481181750333 -39.35509010653145" fill="#30ff3a" stroke="none" /><path d="M 92.40401165467489 119.57807347666478 l -5.403729238011821 13.92769489106807 a35.93924277386332,35.93924277386332 0 0,0 -0.5748206757502685,-0.22873300982777628 l 5.642670989803947 -13.832615036834227" fill="#ff860c" stroke="none" /><path d="M 91.7346041902142 119.30500536409082 l -6.809408521478386 15.904340343603312 a38.30075391933977,38.30075391933977 0 0,0 -0.6038375127483241,-0.2647046204401256 l 7.082166708884453 -15.784771169868733" fill="#ffa80f" stroke="none" /><path d="M 90.7491055286396 118.85261126421891 l -20.01466909739256 40.78835589826256 a66.4343147407491,66.4343147407491 0 0,0 -1.0222852002022216,-0.5125950216740265 l 20.71380820527754 -40.437793035679235" fill="#35ff67" stroke="none" /><line stroke="#e1ed5e" stroke-width="0.3" x1="58.666819895761336" x2="56.23545636021788" y1="174.27360380694188" y2="178.64263932499728" /><path d="M 58.180547188652646 175.14741091055294 a86.0,86.0 0 0,1 -31.652253787137756,-30.449443065178592" fill="none" id="id44" stroke="none" /><text fill="#e1ed5e" style="font-size:6.75px; font-family:Arial;" text-anchor="middle"><textPath startOffset="22.20632615414155" xlink:href="#id44">August</textPath></text><path d="M 89.7882731507175 118.34994917583269 l -8.490249492707349 15.256542696524031 a38.45985198961544,38.45985198961544 0 0,0 -0.5757096141411178,-0.32690294400730174 l 8.751607873769673 -15.108136586722095" fill="#ffab0f" stroke="none" /><path d="M 89.1626897886671 117.98757091392108 l -9.082494572580497 15.074959746815397 a38.59960564981667,38.59960564981667 0 0,0 -0.5661657816454241,-0.34778526499151474 l 9.34063955415823 -14.916386014995505" fill="#ffad10" stroke="none" /><path d="M 88.54995079064634 117.60387380957326 l -24.136676783647538 37.10892455682052 a65.26795057287006,65.26795057287006 0 0,0 -0.9365183270950169,-0.6206732804150557 l 24.771869809482517 -36.68795325531414" fill="#34ff58" stroke="none" /><path d="M 88.24862548938628 117.40417183066458 l -16.505963965975454 24.445875062115768 a50.49657020737587,50.49657020737587 0 0,0 -0.7161931326868463,-0.4926041672596558 l 16.92431398328519 -24.15813010549101" fill="#b4ff20" stroke="none" /><path d="M 87.95078237400918 117.19931262002967 l -8.98112098373817 12.819845426679239 a36.65276240439657,36.65276240439657 0 0,0 -0.513614587355316,-0.36645037076493 l 9.200462898942375 -12.66335079407009" fill="#ff910d" stroke="none" /><path d="M 87.36589467227662 116.77436683061367 l -9.238488290892281 12.265988570769764 a36.35591552201328,36.35591552201328 0 0,0 -0.49664131964682523,-0.3808033860328901 l 9.448258339032593 -12.105145842909506" fill="#ff8c0c" stroke="none" /><path d="M 86.79598089348748 116.32954008644616 l -11.474062533955745 14.190085805783719 a39.24863409158701,39.24863409158701 0 0,0 -0.5216888661324394,-0.42931442042980944 l 11.716621528632874 -13.990476266496728" fill="#ffb610" stroke="none" /><path d="M 86.24171649860922 115.8653595955263 l -28.995855434814924 33.436560106261176 a65.25791662670423,65.25791662670423 0 0,0 -0.8423170159548817,-0.7432468320600492 l 29.567114803676397 -32.93249013242884" fill="#34ff58" stroke="none" /><path d="M 85.70375840098266 115.38237550388516 l -11.55317322026531 12.430906927857635 a37.970658752874456,37.970658752874456 0 0,0 -0.47493006661689485,-0.4490760216263794 l 11.76543912127302 -12.230196269485324" fill="#ffa40f" stroke="none" /><path d="M 85.18274418774928 114.88116024355367 l -11.132245481541348 11.180257058424187 a36.777358376919175,36.777358376919175 0 0,0 -0.4447597593100496,-0.4505392880353472 l 11.32304586590693 -10.986977276408176" fill="#ff920d" stroke="none" /><line stroke="#e1ed5e" stroke-width="0.3" x1="26.63291911575756" x2="22.317208475507996" y1="142.92168965132927" y2="145.44649492493687" /><path d="M 25.769776987707644 143.4266507060508 a86.0,86.0 0 0,1 -11.730757126820373,-40.83630448921669" fill="none" id="id45" stroke="none" /><text fill="#e1ed5e" style="font-size:6.75px; font-family:Arial;" text-anchor="middle"><textPath startOffset="21.46611528233685" xlink:href="#id45">September</textPath></text><line stroke="#e1ed5e" stroke-width="0.3" x1="15.007084014347285" x2="10.007500721073583" y1="101.09737516637583" y2="101.16192664675087" /><path d="M 14.007167355692545 101.11028546245083 a86.0,86.0 0 0,1 10.666146001902534,-42.60595125391555" fill="none" id="id46" stroke="none" /><text fill="#e1ed5e" style="font-size:6.75px; font-family:Arial;" text-anchor="middle"><textPath startOffset="22.20632615414155" xlink:href="#id46">October</textPath></text><line stroke="#e1ed5e" stroke-width="0.3" x1="26.266209847984243" x2="21.928928074336255" y1="57.711370442889674" y2="55.22380399835377" /><path d="M 25.398753493254645 57.213857153982495 a86.0,86.0 0 0,1 29.58750427330803,-30.492523968695096" fill="none" id="id47" stroke="none" /><text fill="#e1ed5e" style="font-size:6.75px; font-family:Arial;" text-anchor="middle"><textPath startOffset="21.46611528233685" xlink:href="#id47">November</textPath></text><line stroke="#e1ed5e" stroke-width="0.3" x1="56.762969772571076" x2="54.21961505331055" y1="26.818313649435495" y2="22.513508569990535" /><path d="M 56.25429882871897 25.957352633546506 a86.0,86.0 0 0,1 42.265352541879196,-11.944610805530505" fill="none" id="id48" stroke="none" /><text fill="#e1ed5e" style="font-size:6.75px; font-family:Arial;" text-anchor="middle"><textPath startOffset="22.20632615414155" xlink:href="#id48">December</textPath></text></svg>