<?xml version="1.0" encoding="utf-8" ?>
<svg baseProfile="full" height="200mm" version="1.1" viewBox="0,0,200,200" width="200mm" xmlns="http://www.w3.org/2000/svg" xmlns:ev="http://www.w3.org/2001/xml-events" xmlns:xlink="http://www.w3.org/1999/xlink"><defs /><rect fill="#1a1a1a" height="200" width="200" x="0" y="0" /><text alignment-baseline="middle" fill="#e1ed5e" style="dominant-baseline: central; font-size:9.0px; font-family:Arial;" text-anchor="middle" x="100.0" y="100.0">2013</text><line stroke="#e1ed5e" stroke-width="0.3" x1="100.0" x2="100.0" y1="15.0" y2="10.0" /><path d="M 100.0 14.0 a86.0,86.0 0 0,1 42.46469731375804,11.215312516191453" fill="none" id="id1" stroke="none" /><text fill="#e1ed5e" style="font-size:6.75px; font-family:Arial;" text-anchor="middle"><textPath startOffset="22.20632615414155" xlink:href="#id1">January</textPath></text><line stroke="#e1ed5e" stroke-width="0.3" x1="143.23703022742887" x2="145.7803849466894" y1="26.81831364943548" y2="22.513508569990506" /><path d="M 143.74570117128098 25.957352633546492 a86.0,86.0 0 0,1 28.547481713284135,27.462654790039103" fill="none" id="id2" stroke="none" /><text fill="#e1ed5e" style="font-size:6.75px; font-family:Arial;" text-anchor="middle"><textPath startOffset="19.985693538727396" xlink:href="#id2">February</textPath></text><line stroke="#e1ed5e" stroke-width="0.3" x1="172.23445277983987" x2="176.4835382374775" y1="55.19839476539836" y2="52.563006222186495" /><path d="M 173.08426987136738 54.67131705675599 a86.0,86.0 0 0,1 12.851231095245387,41.99856678651699" fill="none" id="id3" stroke="none" /><text fill="#e1ed5e" style="font-size:6.75px; font-family:Arial;" text-anchor="middle"><textPath startOffset="22.20632615414155" xlink:href="#id3">March</textPath></text><line stroke="#e1ed5e" stroke-width="0.3" x1="184.98032266829074" x2="189.97916517819016" y1="98.17113171792111" y2="98.06355123074" /><path d="M 185.9800911702706 98.14961562048488 a86.0,86.0 0 0,1 -9.607161424134198,41.387399972396054" fill="none" id="id4" stroke="none" /><text fill="#e1ed5e" style="font-size:6.75px; font-family:Arial;" text-anchor="middle"><textPath startOffset="21.466115282336823" xlink:href="#id4">April</textPath></text><line stroke="#e1ed5e" stroke-width="0.3" x1="174.80103733775053" x2="179.2010983576182" y1="140.37084112569926" y2="142.7455964860345" /><path d="M 175.68104954172406 140.8457921977663 a86.0,86.0 0 0,1 -30.038265399797805,32.042727171017184" fill="none" id="id5" stroke="none" /><text fill="#e1ed5e" style="font-size:6.75px; font-family:Arial;" text-anchor="middle"><textPath startOffset="22.206326154141568" xlink:href="#id5">May</textPath></text><line stroke="#e1ed5e" stroke-width="0.3" x1="143.8653032363475" x2="146.44561519142675" y1="172.8068346515853" y2="177.08958963109032" /><path d="M 144.38136562736335 173.6633856474863 a86.0,86.0 0 0,1 -40.68145358897372,12.25698825130547" fill="none" id="id6" stroke="none" /><text fill="#e1ed5e" style="font-size:6.75px; font-family:Arial;" text-anchor="middle"><textPath startOffset="21.466115282336833" xlink:href="#id6">June</textPath></text><path d="M 103.41894727170886 120.7198165907248 l 1.064051357030596 6.448461239288508 a27.5356604597397,27.5356604597397 0 0,0 -0.4683214470510491,0.07314217851236439 l -0.9528940463710298 -6.465821725147978" fill="#ff0500" stroke="none" /><line stroke="#e1ed5e" stroke-width="0.3" x1="102.19456741930631" x2="102.32365962044197" y1="184.97166512339345" y2="189.96999836594603" /><path d="M 102.22038585953345 185.97133177190398 a86.0,86.0 0 0,1 -42.740103519485714,-10.115201625700543" fill="none" id="id7" stroke="none" /><text fill="#e1ed5e" style="font-size:6.75px; font-family:Arial;" text-anchor="middle"><textPath startOffset="22.20632615414155" xlink:href="#id7">July</textPath></text><path d="M 98.37488393609728 120.93702456842531 l -2.875078887955698 37.04079890068257 a58.15221207159509,58.15221207159509 0 0,0 -0.9973261720706612,-0.0860534986559311 l 3.512249377767901 -36.98582114974798" fill="#5bff2a" stroke="none" /><path d="M 96.93821686468263 120.77559828337769 l -1.305357554880288 8.85744776092837 a29.95311896400679,29.95311896400679 0 0,0 -0.5094371365243254,-0.07956360362122879 l 1.4576305550131308 -8.833665849960035" fill="#ff2b04" stroke="none" /><path d="M 96.58105272829116 120.7198165907248 l -2.6625237307920635 16.13566954569923 a37.353863895270635,37.353863895270635 0 0,0 -0.6335055736092235,-0.11014306429181062 l 2.939878275873337 -16.087447902886414" fill="#ff9a0e" stroke="none" /><path d="M 96.22490169976321 120.6578951692458 l -7.464514602203404 40.846925795799834 a62.52337083154601,62.52337083154601 0 0,0 -1.0570391186353467,-0.2025840628607647 l 8.166521335410446 -40.712384534590605" fill="#30ff34" stroke="none" /><line stroke="#e1ed5e" stroke-width="0.3" x1="58.666819895761336" x2="56.23545636021788" y1="174.27360380694188" y2="178.64263932499728" /><path d="M 58.180547188652646 175.14741091055294 a86.0,86.0 0 0,1 -31.652253787137756,-30.449443065178592" fill="none" id="id8" stroke="none" /><text fill="#e1ed5e" style="font-size:6.75px; font-family:Arial;" text-anchor="middle"><textPath startOffset="22.20632615414155" xlink:href="#id8">August</textPath></text><path d="M 87.36589467227662 116.77436683061367 l -11.008099036810426 14.615509888618062 a39.297305094153046,39.297305094153046 0 0,0 -0.5368222799590031,-0.4116124329962227 l 11.258050045262916 -14.423858113794473" fill="#ffb510" stroke="none" /><path d="M 85.18274418774928 114.88116024355367 l -8.086714048350611 8.12159074002128 a32.46102876046433,32.46102876046433 0 0,0 -0.3925610749553276,-0.3976622963712615 l 8.225315748361473 -7.981187949669354" fill="#ff5107" stroke="none" /><line stroke="#e1ed5e" stroke-width="0.3" x1="26.63291911575756" x2="22.317208475507996" y1="142.92168965132927" y2="145.44649492493687" /><path d="M 25.769776987707644 143.4266507060508 a86.0,86.0 0 0,1 -11.730757126820373,-40.83630448921669" fill="none" id="id9" stroke="none" /><text fill="#e1ed5e" style="font-size:6.75px; font-family:Arial;" text-anchor="middle"><textPath startOffset="21.46611528233685" xlink:href="#id9">September</textPath></text><line stroke="#e1ed5e" stroke-width="0.3" x1="15.007084014347285" x2="10.007500721073583" y1="101.09737516637583" y2="101.16192664675087" /><path d="M 14.007167355692545 101.11028546245083 a86.0,86.0 0 0,1 10.666146001902534,-42.60595125391555" fill="none" id="id10" stroke="none" /><text fill="#e1ed5e" style="font-size:6.75px; font-family:Arial;" text-anchor="middle"><textPath startOffset="22.20632615414155" xlink:href="#id10">October</textPath></text><path d="M 79.00019446554 99.90962569577889 l -17.508525558341216 -0.07534930800555517 a38.50868769340822,38.50868769340822 0 0,0 0.008558084351011947,-0.6628330643257137 l 17.504634466872485 0.3767186303917408" fill="#ffaa0f" stroke="none" /><path d="M 79.03285615573316 98.82574320788736 l -19.376477906472868 -1.085172160685959 a40.40684144002725,40.40684144002725 0 0,0 0.04486969817903913,-0.6941143710312195 l 19.354927617289416 1.4185455959701903" fill="#ffc512" stroke="none" /><path d="M 79.08570108090925 98.10471618934814 l -29.235065281953432 -2.6493236109224214 a50.35486258927931,50.35486258927931 0 0,0 0.0856581155983557,-0.8625655343514207 l 29.185130040672846 3.1521646759782724" fill="#b6ff1f" stroke="none" /><path d="M 81.43458229118936 90.18545643968196 l -5.76649998467001 -3.0484401793587677 a27.522691898313774,27.522691898313774 0 0,0 0.22502015650694562,-0.41692817536832844 l 5.713171728944593 3.1472493380595687" fill="#ff0500" stroke="none" /><line stroke="#e1ed5e" stroke-width="0.3" x1="26.266209847984243" x2="21.928928074336255" y1="57.711370442889674" y2="55.22380399835377" /><path d="M 25.398753493254645 57.213857153982495 a86.0,86.0 0 0,1 29.58750427330803,-30.492523968695096" fill="none" id="id11" stroke="none" /><text fill="#e1ed5e" style="font-size:6.75px; font-family:Arial;" text-anchor="middle"><textPath startOffset="21.46611528233685" xlink:href="#id11">November</textPath></text><path d="M 85.31137513191541 84.99185889309783 l -8.165874788426233 -8.343504050694511 a32.67456940979884,32.67456940979884 0 0,0 0.4053463256667329,-0.38994284413591995 l 8.021045219147073 8.482829981592744" fill="#ff5507" stroke="none" /><line stroke="#e1ed5e" stroke-width="0.3" x1="56.762969772571076" x2="54.21961505331055" y1="26.818313649435495" y2="22.513508569990535" /><path d="M 56.25429882871897 25.957352633546506 a86.0,86.0 0 0,1 42.265352541879196,-11.944610805530505" fill="none" id="id12" stroke="none" /><text fill="#e1ed5e" style="font-size:6.75px; font-family:Arial;" text-anchor="middle"><textPath startOffset="22.20632615414155" xlink:href="#id12">December</textPath></text><path d="M 94.28887869178378 79.79150937346287 l -1.6950902363798384 -5.997984161838018 a27.23290822290285,27.23290822290285 0 0,0 0.45219869428108894,-0.12360298505166095 l 1.591593652875027 6.026273687715975" fill="#ff0000" stroke="none" /><path d="M 95.692805502759 79.44645832069477 l -1.5841633002893711 -7.5594836593007075 a28.723688662628636,28.723688662628636 0 0,0 0.4847923860020749,-0.09724479194203675 l 1.4538045048201598 7.585632407319955" fill="#ff1802" stroke="none" /><path d="M 98.91598698831166 79.02799685794201 l -3.2520390350650135 -62.91600942617398 a84.0,84.0 0 0,0 1.4446366704427036,-0.06220909390323026 l 2.1685615322329856 62.9626662466014" fill="#4dd2ff" stroke="none" /></svg>