<?xml version="1.0" encoding="utf-8" ?>
<svg baseProfile="full" height="200mm" version="1.1" viewBox="0,0,200,200" width="200mm" xmlns="http://www.w3.org/2000/svg" xmlns:ev="http://www.w3.org/2001/xml-events" xmlns:xlink="http://www.w3.org/1999/xlink"><defs /><rect fill="#1a1a1a" height="200" width="200" x="0" y="0" /><text alignment-baseline="middle" fill="#e1ed5e" style="dominant-baseline: central; font-size:9.0px; font-family:Arial;" text-anchor="middle" x="100.0" y="100.0">2024</text><line stroke="#e1ed5e" stroke-width="0.3" x1="100.0" x2="100.0" y1="15.0" y2="10.0" /><path d="M 100.0 14.0 a86.0,86.0 0 0,1 42.35913384403234,11.155469271406648" fill="none" id="id49" stroke="none" /><text fill="#e1ed5e" style="font-size:6.75px; font-family:Arial;" text-anchor="middle"><textPath startOffset="22.145653131862478" xlink:href="#id49">January</textPath></text><path d="M 100.72087961077811 79.0123766808444 l 0.5475496233645725 -15.941309855215664 a36.95071065783725,36.95071065783725 0 0,0 0.6337473384021478,0.027215837557953225 l -0.8211227223675566 15.929561449231882" fill="#ffb811" stroke="none" /><path d="M 101.44090949804482 79.04949213459386 l 1.105421927766514 -16.07259222296033 a37.11056108284103,37.11056108284103 0 0,0 0.6351755368790786,0.04916660368529035 l -1.3811664594208262 16.05124785227999" fill="#ffba11" stroke="none" /><path d="M 102.15924093988457 79.11130261209362 l 1.6803883134177784 -16.256232606924737 a37.34285175403345,37.34285175403345 0 0,0 0.6370763388244716,0.07138573257936201 l -1.9592005538430466 16.224991113838406" fill="#ffbd11" stroke="none" /><path d="M 102.87502721639298 79.19773525538626 l 2.2635771354041396 -16.37811655209563 a37.53379820978692,37.53379820978692 0 0,0 0.6374935006008726,0.09368959129396949 l -2.544395741612694 16.33684588750278" fill="#ffbf11" stroke="none" /><path d="M 103.58742460773223 79.30868818359171 l 2.3311355673173586 -13.445370477116267 a34.64595838701415,34.64595838701415 0 0,0 0.5851294315575942,0.10663007411669673 l -2.5615997324260062 13.403372229068205" fill="#ff990e" stroke="none" /><path d="M 104.29559338865022 79.4440306129975 l 2.8538955744725345 -13.656923445678656 a34.951927391981414,34.951927391981414 0 0,0 0.5862563066216678,0.1277718333951689 l -3.0879142977133363 13.605920154149768" fill="#ff9d0e" stroke="none" /><path d="M 104.9986988182912 79.60360301121754 l 2.7040553494748987 -11.033468587008196 a32.35998874970924,32.35998874970924 0 0,0 0.538400418115914,0.1368592808866082 l -2.893061060816207 10.985424074286321" fill="#ff790b" stroke="none" /><path d="M 105.69591212413111 79.78721728523813 l 3.9749817527499527 -14.105807939537774 a35.65517988841563,35.65517988841563 0 0,0 0.5876992154813263,0.17107067640647575 l -4.2165409806128835 14.035493568828782" fill="#ffa60f" stroke="none" /><path d="M 106.72888874123014 80.10723608172694 l 10.846797577643944 -32.066629688681815 a54.851466102392564,54.851466102392564 0 0,0 0.8893622667968097,0.3093663629084859 l -11.395665616485772 31.87570489320474" fill="#6eff28" stroke="none" /><path d="M 107.06938296918511 80.22567764915836 l 12.89801625692244 -36.07804701803837 a59.31428323745106,59.31428323745106 0 0,0 0.9558379480673022,0.3509969342654401 l -13.515443356643868 35.85131923476421" fill="#3fff2d" stroke="none" /><path d="M 108.07796709384702 80.6158196554323 l 4.955567275186699 -11.89155744952531 a33.88280969331854,33.88280969331854 0 0,0 0.5349691070942756,0.22834650058908243 l -5.158971457451404 11.804736299276826" fill="#ff8e0d" stroke="none" /><path d="M 109.06512990194946 81.05736502329252 l 20.511961333420945 -42.86211012947241 a68.51737621644084,68.51737621644084 0 0,0 1.0566023826261606,0.5168371723630593 l -21.244723965309174 42.503679207012134" fill="#39ff8b" stroke="none" /><path d="M 109.71004243097381 81.37971332152246 l 6.750274127080872 -12.944540695683656 a35.59888127950042,35.59888127950042 0 0,0 0.5394267699344526,0.28721437165644775 l -6.971489712801884 12.826755856304636" fill="#ffa60f" stroke="none" /><line stroke="#e1ed5e" stroke-width="0.3" x1="143.13028292997686" x2="145.6673583964461" y1="26.7553504044142" y2="22.446841604673864" /><path d="M 143.63769802327073 25.89364864446614 a86.0,86.0 0 0,1 29.32050498858742,28.57503671076993" fill="none" id="id50" stroke="none" /><text fill="#e1ed5e" style="font-size:6.75px; font-family:Arial;" text-anchor="middle"><textPath startOffset="20.669276256404974" xlink:href="#id50">February</textPath></text><path d="M 110.96478420261332 82.08984904055464 l 7.807027492732684 -12.752192688485101 a35.952193706494604,35.952193706494604 0 0,0 0.5235938325784186,0.32676127636135716 l -8.024785454100815 12.616295615282198" fill="#ffaa0f" stroke="none" /><path d="M 113.31354834802062 83.75963576809568 l 8.044799970016713 -9.813347897242496 a33.68938940650395,33.68938940650395 0 0,0 0.444099412101654,0.37048352451812366 l -8.21207371628026 9.673802188812502" fill="#ff8c0c" stroke="none" /><path d="M 115.16444852881244 85.47280134310134 l 12.193485777825456 -11.681083547349472 a37.885757556419854,37.885757556419854 0 0,0 0.4458687602167416,0.4734971722454656 l -12.392210371778459 11.470044915159512" fill="#ffc412" stroke="none" /><path d="M 115.41159269507618 85.73525988315684 l 8.357308047928266 -7.735399561797802 a32.38775676718765,32.38775676718765 0 0,0 0.3741592502997031,0.41126655913269916 l -8.488864999069847 7.590795427107431" fill="#ff790b" stroke="none" /><path d="M 115.8921839302757 86.27271002978787 l 11.976561479948524 -10.345068557136564 a36.825879701768315,36.825879701768315 0 0,0 0.4091275208597921,0.4819511908363199 l -12.152383564315429 10.137950583850692" fill="#ffb610" stroke="none" /><path d="M 116.1254893667686 86.54754324733833 l 11.175042794718262 -9.322618153523734 a35.553102442441435,35.553102442441435 0 0,0 0.38694164995975755,0.47200589711868235 l -11.333431263916648 9.129409974706558" fill="#ffa50f" stroke="none" /><path d="M 116.35404254752997 86.82634096563983 l 10.971030118533877 -8.837485265017254 a35.087748140535965,35.087748140535965 0 0,0 0.3738241491539096,0.47231460058449287 l -11.121120698329346 8.647850720518083" fill="#ff9f0e" stroke="none" /><path d="M 117.42321728460499 88.27688183743584 l 27.996917463841438 -18.837575532400315 a54.74435714924848,54.74435714924848 0 0,0 0.5179221844071998,0.7842001989469976 l -28.316164087169366 18.354195455114258" fill="#6fff27" stroke="none" /><line stroke="#e1ed5e" stroke-width="0.3" x1="172.87174338648825" x2="177.1583165268699" y1="56.24261187166439" y2="53.66864786411523" /><path d="M 173.72905801456457 55.72781907015455 a86.0,86.0 0 0,1 12.242430191666344,42.057860355516425" fill="none" id="id51" stroke="none" /><text fill="#e1ed5e" style="font-size:6.75px; font-family:Arial;" text-anchor="middle"><textPath startOffset="22.145653131862474" xlink:href="#id51">March</textPath></text><path d="M 118.18653347947321 89.5 l 29.500349790302295 -17.032034892619155 a55.0640697852383,55.0640697852383 0 0,0 0.4655972180948995,0.8226656717099156 l -29.788380373418573 16.52311245081012" fill="#6cff28" stroke="none" /><path d="M 118.70294669586156 90.45014215332178 l 10.6947755648114 -5.460828606685599 a33.008283534847216,33.008283534847216 0 0,0 0.2533465716608699,0.5068628534620391 l -10.786942049684006 5.2764338970598095" fill="#ff820c" stroke="none" /><path d="M 119.0197475246899 91.09779779509293 l 11.135063042045985 -5.21177174597102 a33.29439684093694,33.29439684093694 0 0,0 0.23784175044864003,0.5197271483321781 l -11.222889257349676 5.019855615424158" fill="#ff860c" stroke="none" /><path d="M 119.31412917781788 91.75594674310238 l 4.201965849848767 -1.7935693569660613 a25.568742501120294,25.568742501120294 0 0,0 0.1688439891717612,0.4051641085161879 l -4.232135683557011 1.7211727390085958" fill="#ff1702" stroke="none" /><path d="M 119.58574465831526 92.42381321644754 l 15.646611320422636 -6.052445386233525 a37.77642813490754,37.77642813490754 0 0,0 0.22876202542138657,0.6068184509938175 l -15.748204029658464 5.78295865504555" fill="#ffc312" stroke="none" /><path d="M 119.83427380445688 93.10060997987247 l 15.82740417566305 -5.505592767886293 a37.75763332531172,37.75763332531172 0 0,0 0.20769319504755268,0.6140080264958355 l -15.919582792282968 5.233083066916296" fill="#ffc212" stroke="none" /><path d="M 120.16314734710363 94.1308016681162 l 32.11769932100746 -9.348994183979936 a54.450714520421435,54.450714520421435 0 0,0 0.2535368082582504,0.8997126893526372 l -32.273454621340285 8.796273570724287" fill="#73ff27" stroke="none" /><path d="M 120.51834098615036 95.52812308129327 l 26.666779331068025 -5.811900439092105 a48.29277022593705,48.29277022593705 0 0,0 0.16958187748064088,0.8115106730755822 l -26.762618919373033 5.353273314731118" fill="#b8ff1f" stroke="none" /><path d="M 120.65975698304385 96.23510406497455 l 12.785473621355525 -2.329939200346033 a33.99603602640771,33.99603602640771 0 0,0 0.09969771824889981,0.5750299452220261 l -12.823586157096658 2.1101162222034144" fill="#ff900d" stroke="none" /><path d="M 120.77682067341334 96.94652285012252 l 33.493919404842835 -4.922452726051453 a54.85370257354901,54.85370257354901 0 0,0 0.12892052425019493,0.9328046917871144 l -33.57348444564824 4.346759726064253" fill="#6eff28" stroke="none" /><path d="M 120.86939407059847 97.66154086499901 l 9.079282688891015 -1.01735256286167 a30.136103128903333,30.136103128903333 0 0,0 0.053193963948296376,0.5146033475257112 l -9.095409045320977 0.8613446930530272" fill="#ff5a08" stroke="none" /><path d="M 120.9064616781168 98.02013634271609 l 3.392418271590333 -0.3212655374035833 a24.407596407285222,24.407596407285222 0 0,0 0.03592144683832492,0.41746166255458383 l -3.3974333411263986 0.26298282747333745" fill="#ff0600" stroke="none" /><path d="M 120.93736805541906 98.37931529534042 l 9.343569713854622 -0.7232513887171842 a30.37152002446469,30.37152002446469 0 0,0 0.035774814228625315,0.520157947391764 l -9.354608489248314 0.5627500171710861" fill="#ff5d08" stroke="none" /><path d="M 120.98066250479742 99.09900007780936 l 25.110232816197342 -1.078341439809608 a46.13337646128042,46.13337646128042 0 0,0 0.027186427314313515,0.7915031682621154 l -25.125043930508507 0.6471320069833727" fill="#d2ff1c" stroke="none" /><line stroke="#e1ed5e" stroke-width="0.3" x1="184.99686870605535" x2="189.99668451229388" y1="99.2704041080226" y2="99.22748670261217" /><path d="M 185.99683186730306 99.26182062694052 a86.0,86.0 0 0,1 -10.086455211305974,41.156179273409016" fill="none" id="id52" stroke="none" /><text fill="#e1ed5e" style="font-size:6.75px; font-family:Arial;" text-anchor="middle"><textPath startOffset="21.40746469413373" xlink:href="#id52">April</textPath></text><path d="M 120.99922638620191 99.81974689727618 l 12.82967132403937 -0.11012729805154002 a33.83014397053495,33.83014397053495 0 0,0 0.0,0.5807608015507322 l -12.82967132403937 -0.11012729805153845" fill="#ff8d0d" stroke="none" /><path d="M 120.99303781780057 100.54070618675476 l 13.75768280707994 0.35434910724973895 a34.762245438518804,34.762245438518804 0 0,0 -0.020485412761625688,0.5964104410087211 l -13.749572707321468 -0.5904658128225707" fill="#ff9a0e" stroke="none" /><path d="M 120.98066250479742 100.90099992219065 l 13.435428419538272 0.5769751054254819 a34.447811609656696,34.447811609656696 0 0,0 -0.030442696674983387,0.5905801826629018 l -13.423544133406716 -0.8075270814651144" fill="#ff960d" stroke="none" /><path d="M 120.93736805541906 101.62068470465957 l 5.377682495453446 0.4162666359891941 a26.393769269642906,26.393769269642906 0 0,0 -0.03884456149887419,0.451432685813281 l -5.369744311256832 -0.5085203691781325" fill="#ff2303" stroke="none" /><path d="M 120.86939407059847 102.33845913500097 l 10.982221461594564 1.2305808214935476 a32.0509509721895,32.0509509721895 0 0,0 -0.06596072544818261,0.5462494292173545 l -10.95947864988672 -1.4189239276343109" fill="#ff750a" stroke="none" /><path d="M 120.77682067341334 103.0534771498775 l 14.383012165206704 2.1138074820594506 a35.537510825987184,35.537510825987184 0 0,0 -0.09388419398790157,0.6028038733788406 l -14.344606479080534 -2.3603995373697417" fill="#ffa50f" stroke="none" /><path d="M 120.7213421655516 103.40968896794604 l 11.6989199464686 1.9250528252302497 a32.85624545519398,32.85624545519398 0 0,0 -0.09635513680371752,0.5557508237026746 l -11.664149992172648 -2.1255966818535126" fill="#ff800b" stroke="none" /><path d="M 120.592083275326 104.11899336999214 l 32.07563462765778 6.416025256071177 a53.71103356443422,53.71103356443422 0 0,0 -0.18860831281098922,0.9025590537783833 l -31.960768604022427 -6.965700761134969" fill="#7bff26" stroke="none" /><path d="M 120.35273937422433 105.17358676015961 l 11.982077295793811 3.045797193042003 a33.36313297119788,33.36313297119788 0 0,0 -0.14586126476507139,0.5538589804267668 l -11.92802655022401 -3.251036677841573" fill="#ff870c" stroke="none" /><path d="M 120.26092885502905 105.52220625578681 l 16.170405647743497 4.4073159658923915 a37.76026410399862,37.76026410399862 0 0,0 -0.17582169351195737,0.6239291635912946 l -16.09236546215696 -4.684253053386695" fill="#ffc212" stroke="none" /><path d="M 120.05942366710727 106.21446072829308 l 13.085568111565882 4.053942450503978 a34.699143848957426,34.699143848957426 0 0,0 -0.18115478562696985,0.5674647858156731 l -13.014048610161657 -4.277976270011035" fill="#ff990e" stroke="none" /><path d="M 119.71291397450082 107.23885506374661 l 11.385316767770847 4.180846020194948 a33.12868135235912,33.12868135235912 0 0,0 -0.20061675017660963,0.5321597645471905 l -11.311869333779796 -4.375674064936297" fill="#ff840c" stroke="none" /><path d="M 119.4528033332814 107.91128576633889 l 16.978351188826448 6.904947620904555 a39.32874002048586,39.32874002048586 0 0,0 -0.2597085622754762,0.6232060058787365 l -16.857316782014486 -7.1953861362245695" fill="#ffd714" stroke="none" /><path d="M 119.0197475246899 108.90220220490707 l 29.70780668019772 13.904753561428837 a53.800852875376094,53.800852875376094 0 0,0 -0.3986918403264586,0.8331126063479539 l -29.46473558191135 -14.412678669841895" fill="#7aff26" stroke="none" /><path d="M 118.70294669586154 109.54985784667822 l 10.162074201578335 5.188827494971311 a32.41015700378195,32.41015700378195 0 0,0 -0.25726245979930884,0.4933346879919909 l -10.071503672804077 -5.362508426067804" fill="#ff7a0b" stroke="none" /><line stroke="#e1ed5e" stroke-width="0.3" x1="174.33088141563837" x2="178.70328620479359" y1="141.23008692659167" y2="143.65538615756765" /><path d="M 175.20536237346943 141.71514677278685 a86.0,86.0 0 0,1 -30.301960400862466,31.631185727798858" fill="none" id="id53" stroke="none" /><text fill="#e1ed5e" style="font-size:6.75px; font-family:Arial;" text-anchor="middle"><textPath startOffset="22.145653131862474" xlink:href="#id53">May</textPath></text><path d="M 117.81537515405839 111.11811171558189 l 19.088903023618474 11.912887295901374 a43.50118002172239,43.50118002172239 0 0,0 -0.40079565369526515,0.6301173379975858 l -18.881589678297317 -12.238818308577631" fill="#f2ff19" stroke="none" /><path d="M 117.423217284605 111.72311816256416 l 10.353891011667654 6.966559952124401 a33.479423730606946,33.479423730606946 0 0,0 -0.3249261981812577,0.4740770336835328 l -10.232775076671077 -7.143271720877978" fill="#ff890c" stroke="none" /><path d="M 117.01052211995028 112.31430620078461 l 9.66065946665106 6.993572445041292 a32.9263740036373,32.9263740036373 0 0,0 -0.3353754715145506,0.45500123783375235 l -9.539181975552681 -7.158379992143923" fill="#ff810b" stroke="none" /><path d="M 116.79662413953412 112.60449989151573 l 11.997329494354144 9.003019717166792 a35.99967596395982,35.99967596395982 0 0,0 -0.37516466193325626,0.4911025854180737 l -11.841012855066582 -9.207643215825742" fill="#ffab0f" stroke="none" /><path d="M 116.35404254752997 113.17365903436017 l 10.321702644574879 8.31443301547604 a34.253955705820886,34.253955705820886 0 0,0 -0.3728024062011679,0.4547583187420835 l -10.177453419135082 -8.490393615916616" fill="#ff930d" stroke="none" /><path d="M 115.89218393027572 113.72728997021213 l 12.116831485170682 10.466230446796006 a37.011233088224756,37.011233088224756 0 0,0 -0.41944114210701927,0.47724702396931806 l -11.935379279105076 -10.672689748576618" fill="#ffb811" stroke="none" /><path d="M 115.41159269507618 114.26474011684316 l 14.435566398186216 13.361344747668344 a40.67005619469572,40.67005619469572 0 0,0 -0.478636530006549,0.5082954082302428 l -14.204074034443407 -13.607181615843084" fill="#ffe815" stroke="none" /><path d="M 115.16444852881244 114.52719865689866 l 10.32083553115529 9.88712697210181 a35.292477945535566,35.292477945535566 0 0,0 -0.422859679580514,0.4338912831541488 l -10.14958905042397 -10.062840947323695" fill="#ffa10e" stroke="none" /><path d="M 114.65682725009322 115.03919595460226 l 17.488616987302564 17.944861692038863 a46.057329970987965,46.057329970987965 0 0,0 -0.5709519151918264,0.5469590192989354 l -17.177992586245423 -18.24243284164338" fill="#d3ff1c" stroke="none" /><path d="M 114.13192950727249 115.5334660781643 l 7.366456300128631 8.097025887048348 a31.94652943344309,31.94652943344309 0 0,0 -0.40881665382773796,0.36556637274134873 l -7.2263746194775145 -8.222287789673084" fill="#ff730a" stroke="none" /><path d="M 113.59037401385872 116.0094264158162 l 10.194127581274243 12.008656657971859 a36.7520815091958,36.7520815091958 0 0,0 -0.4844723540342587,0.4041640685917436 l -9.98648089307809 -12.181882910475473" fill="#ffb510" stroke="none" /><path d="M 113.31354834802062 116.24036423190432 l 7.549304606125481 9.208924119714395 a32.907824464557955,32.907824464557955 0 0,0 -0.4399450651290105,0.35438860239080744 l -7.390108770641218 -9.337161015898605" fill="#ff810b" stroke="none" /><path d="M 112.45986205192187 116.90419585922612 l 14.5231806453608 19.703483803035628 a45.47754174818766,45.47754174818766 0 0,0 -0.6323955139038788,0.4578055831150265 l -14.182804121082953 -19.949890157523733" fill="#daff1c" stroke="none" /><path d="M 112.16784306229584 117.11559508785304 l 5.981264405831619 8.413397441065127 a31.32282811993833,31.32282811993833 0 0,0 -0.4409134166940193,0.30779180791401795 l -5.835955897963841 -8.514834064784267" fill="#ff6b09" stroke="none" /><path d="M 111.5731344415666 117.5232005979908 l 7.7034915124084105 11.664067998036591 a34.97834982194142,34.97834982194142 0 0,0 -0.5038787324322737,0.3266081066724644 l -7.502127147719127 -11.79458994641295" fill="#ff9d0e" stroke="none" /><line stroke="#e1ed5e" stroke-width="0.3" x1="143.1302829299769" x2="145.66735839644613" y1="173.24464959558577" y2="177.55315839532614" /><path d="M 143.63769802327073 174.10635135553383 a86.0,86.0 0 0,1 -40.68552437913181,11.842963189579606" fill="none" id="id54" stroke="none" /><text fill="#e1ed5e" style="font-size:6.75px; font-family:Arial;" text-anchor="middle"><textPath startOffset="21.407464694133747" xlink:href="#id54">June</textPath></text><path d="M 110.02825361518725 118.45085714620011 l 2.342433432225841 4.3098136815195796 a25.905251099976706,25.905251099976706 0 0,0 -0.39254002999382237,0.20900545606659388 l -2.2681045864454648 -4.349389605308741" fill="#ff1c02" stroke="none" /><path d="M 109.71004243097381 118.62028667847754 l 6.364819634469116 12.205380882020705 a34.76525522663928,34.76525522663928 0 0,0 -0.5315322420692132,0.2714041501177085 l -6.154360170686321 -12.312842983811251" fill="#ff9a0e" stroke="none" /><path d="M 109.06512990194946 118.94263497670748 l 5.606207668269073 11.714817836289571 a33.98716756483904,33.98716756483904 0 0,0 -0.5284377996885821,0.24733557264297307 l -5.404281154708985 -11.809329640503076" fill="#ff900d" stroke="none" /><path d="M 108.07796709384702 119.3841803445677 l 2.8758349598482007 6.900956992678459 a28.476204527103498,28.476204527103498 0 0,0 -0.45283340305022785,0.18416340281119672 l -2.756947095607532 -6.949307652068947" fill="#ff4206" stroke="none" /><path d="M 105.3480935250658 120.30758222061773 l 0.7717149287780105 2.9303272827198312 a24.030241230521266,24.030241230521266 0 0,0 -0.3998113851648069,0.10163049065863249 l -0.7212982503878063 -2.9431430052137335" fill="#ff0000" stroke="none" /><path d="M 104.64783097203109 120.47920084513623 l 2.871139157393195 12.650768888201567 a33.97248601941067,33.97248601941067 0 0,0 -0.5698279227103527,0.12419134358489436 l -2.6535488180637063 -12.69819168992018" fill="#ff8f0d" stroke="none" /><path d="M 104.29559338865022 120.5559693870025 l 2.446105706705644 11.70550130682021 a32.95835247734183,32.95835247734183 0 0,0 -0.5548044491357035,0.11097642803194833 l -2.244804772038982 -11.74576713151502" fill="#ff810b" stroke="none" /><path d="M 103.58742460773223 120.69131181640829 l 5.78556873680067 33.369623018804184 a54.86745555877133,54.86745555877133 0 0,0 -0.9294089663090823,0.15293389172456393 l -5.211882267438516 -33.46402290902442" fill="#6eff28" stroke="none" /><path d="M 102.51750503828377 120.84855314841334 l 1.5594008677706857 12.914076189322188 a34.00788587319332,34.00788587319332 0 0,0 -0.5801811700391676,0.06501051024500357 l -1.3374837961307189 -12.938942460074163" fill="#ff900d" stroke="none" /><path d="M 101.80034050326958 120.92268563240118 l 1.1712587753284391 13.611802381762372 a34.66210127319131,34.66210127319131 0 0,0 -0.5932682811345587,0.04592271705065601 l -0.9374214994186446 -13.62990286580808" fill="#ff990e" stroke="none" /><path d="M 101.08105385017728 120.97215588758144 l 0.8072248112458399 15.659945686327319 a36.68073693404148,36.68073693404148 0 0,0 -0.6291169774199737,0.027016989934161094 l -0.5382820732250366 -15.671495244687312" fill="#ffb410" stroke="none" /><path d="M 100.72087961077811 120.9876233191556 l 2.162638832334333 62.96286995746683 a84.0,84.0 0 0,0 -1.4415467437170246,0.03712913059981959 l -1.0814787745465644 -62.990716805416696" fill="#4dd2ff" stroke="none" /><line stroke="#e1ed5e" stroke-width="0.3" x1="101.45913802915013" x2="101.54496967792366" y1="184.9874750549273" y2="189.98673829345242" /><path d="M 101.47630435890484 185.9873277026323 a86.0,86.0 0 0,1 -42.54439059252881,-10.42667462771756" fill="none" id="id55" stroke="none" /><text fill="#e1ed5e" style="font-size:6.75px; font-family:Arial;" text-anchor="middle"><textPath startOffset="22.145653131862474" xlink:href="#id55">July</textPath></text><path d="M 100.0 121.0 l 1.5237367360912445e-15 12.442254674181399 a33.4422546741814,33.4422546741814 0 0,0 -0.5740807714778976,-0.004927792975315208 l 0.21358784662904395 -12.44042127940052" fill="#ff880c" stroke="none" /><path d="M 99.27912038922189 120.98762331915562 l -0.436780718282386 12.716394043224838 a33.723893070064186,33.723893070064186 0 0,0 -0.5784036921947149,-0.024839143260756723 l 0.6550101710779397 -12.707022331538253" fill="#ff8c0c" stroke="none" /><path d="M 98.55909050195518 120.95050786540614 l -0.9492853719367096 13.802400968458596 a34.83500687428379,34.83500687428379 0 0,0 -0.5962276922778754,-0.04615179418977293 l 1.186082058989821 -13.78407140727377" fill="#ff9b0e" stroke="none" /><path d="M 97.84075906011543 120.88869738790638 l -1.2695921285670306 12.282152162751398 a33.34759595718528,33.34759595718528 0 0,0 -0.5689164952086578,-0.06374827993438173 l 1.4802445253764878 -12.258548122310046" fill="#ff870c" stroke="none" /><line stroke="#e1ed5e" stroke-width="0.3" x1="58.13341422392154" x2="55.67067388415222" y1="173.97424548756322" y2="178.32567169271397" /><path d="M 57.64086615596768 174.84453072859336 a86.0,86.0 0 0,1 -31.369924170532247,-30.572349798747897" fill="none" id="id56" stroke="none" /><text fill="#e1ed5e" style="font-size:6.75px; font-family:Arial;" text-anchor="middle"><textPath startOffset="22.145653131862474" xlink:href="#id56">August</textPath></text><line stroke="#e1ed5e" stroke-width="0.3" x1="26.387840678322732" x2="22.057713659400548" y1="142.50000000000003" y2="145.00000000000006" /><path d="M 25.521815274538298 143.00000000000003 a86.0,86.0 0 0,1 -11.493303480769221,-40.785679425670985" fill="none" id="id57" stroke="none" /><text fill="#e1ed5e" style="font-size:6.75px; font-family:Arial;" text-anchor="middle"><textPath startOffset="21.40746469413373" xlink:href="#id57">September</textPath></text><line stroke="#e1ed5e" stroke-width="0.3" x1="15.003131293944662" x2="10.003315487706104" y1="100.72959589197737" y2="100.7725132973878" /><path d="M 14.003168132696942 100.73817937305945 a86.0,86.0 0 0,1 10.791469493833604,-42.45332614584628" fill="none" id="id58" stroke="none" /><text fill="#e1ed5e" style="font-size:6.75px; font-family:Arial;" text-anchor="middle"><textPath startOffset="22.145653131862435" xlink:href="#id58">October</textPath></text><line stroke="#e1ed5e" stroke-width="0.3" x1="26.387840678322718" x2="22.05771365940052" y1="57.49999999999999" y2="54.99999999999999" /><path d="M 25.521815274538284 56.99999999999999 a86.0,86.0 0 0,1 29.574782752854787,-30.34633250058573" fill="none" id="id59" stroke="none" /><text fill="#e1ed5e" style="font-size:6.75px; font-family:Arial;" text-anchor="middle"><textPath startOffset="21.40746469413373" xlink:href="#id59">November</textPath></text><line stroke="#e1ed5e" stroke-width="0.3" x1="56.869717070023135" x2="54.33264160355391" y1="26.7553504044142" y2="22.446841604673864" /><path d="M 56.362301976729285 25.89364864446614 a86.0,86.0 0 0,1 42.16139366436587,-11.88097634709845" fill="none" id="id60" stroke="none" /><text fill="#e1ed5e" style="font-size:6.75px; font-family:Arial;" text-anchor="middle"><textPath startOffset="22.145653131862474" xlink:href="#id60">December</textPath></text></svg>