<?xml version="1.0" encoding="utf-8" ?>
<svg baseProfile="full" height="200mm" version="1.1" viewBox="0,0,200,200" width="200mm" xmlns="http://www.w3.org/2000/svg" xmlns:ev="http://www.w3.org/2001/xml-events" xmlns:xlink="http://www.w3.org/1999/xlink"><defs /><rect fill="#1a1a1a" height="200" width="200" x="0" y="0" /><text alignment-baseline="middle" fill="#e1ed5e" style="dominant-baseline: central; font-size:9.0px; font-family:Arial;" text-anchor="middle" x="100.0" y="100.0">2023</text><line stroke="#e1ed5e" stroke-width="0.3" x1="100.0" x2="100.0" y1="15.0" y2="10.0" /><path d="M 100.0 14.0 a86.0,86.0 0 0,1 42.46469731375804,11.215312516191453" fill="none" id="id37" stroke="none" /><text fill="#e1ed5e" style="font-size:6.75px; font-family:Arial;" text-anchor="middle"><textPath startOffset="22.20632615414155" xlink:href="#id37">January</textPath></text><path d="M 100.36148047927253 79.00311137660856 l 0.011674290317841117 -0.6781106798744797 a21.67821116417695,21.67821116417695 0 0,0 0.3730441957788003,0.009634630989384916 l -0.023345121291509237 0.6778092567427352" fill="#ff0601" stroke="none" /><path d="M 101.08401301168833 79.027996857942 l 0.03813671885586869 -0.7378171470722316 a21.738802106006,21.738802106006 0 0,0 0.37353261012439687,0.022532507116014802 l -0.05083137781987746 0.7370513705759126" fill="#ff0701" stroke="none" /><path d="M 102.16513564639614 79.11191278185805 l 0.16788905904287016 -1.6197051275269787 a22.628383074182327,22.628383074182327 0 0,0 0.38708898314205975,0.04349395749006497 l -0.19574474569465516 1.616575216566313" fill="#ff1402" stroke="none" /><path d="M 102.88285421437855 79.19881850522331 l 0.03259861892134935 -0.23521473450859906 a21.237462926128543,21.237462926128543 0 0,0 0.3616750247323797,0.053301497077804884 l -0.03664262408238486 0.23461875326982523" fill="#ff0000" stroke="none" /><path d="M 104.66035177308747 79.52364482259891 l 0.5411687894175616 -2.377752771159787 a23.438559390172344,23.438559390172344 0 0,0 0.392625238342131,0.09292170870289888 l -0.5820177147222162 2.3680851503160194" fill="#ff1f03" stroke="none" /><path d="M 105.71112130821622 79.79150937346287 l 0.1965920645648231 -0.6956302763687333 a21.722876145166445,21.722876145166445 0 0,0 0.35895478674072223,0.10478874543797112 l -0.20853706902897243 0.6921432020120587" fill="#ff0701" stroke="none" /><path d="M 106.40334571778207 80.00007090966166 l 0.20480451932806215 -0.6396774505813863 a21.671663704482757,21.671663704482757 0 0,0 0.354297829539736,0.11680642399127085 l -0.2157851711102156 0.6360573023308792" fill="#ff0601" stroke="none" /><path d="M 107.08798089147638 80.2323363322302 l 0.5375030478425208 -1.4990417768943745 a22.592493571514385,22.592493571514385 0 0,0 0.3649415773489108,0.13441106280626777 l -0.5632269509640081 1.489567446281782" fill="#ff1302" stroke="none" /><path d="M 107.76421540070413 80.48803036053334 l 0.415955847957226 -1.045323636431307 a22.12504256467557,22.12504256467557 0 0,0 0.35264803011621076,0.14385398594911383 l -0.43388774766182425 1.0380087642986138" fill="#ff0d01" stroke="none" /><path d="M 108.43124777332544 80.76684994638697 l 0.23054319747608212 -0.5259093351432077 a21.574221903703844,21.574221903703844 0 0,0 0.33883638876224714,0.15202601079395747 l -0.23956170470510949 0.521862993832719" fill="#ff0500" stroke="none" /><path d="M 109.73455568895987 81.39251694778311 l 0.2634231137493823 -0.5035300306733952 a21.568273022980478,21.568273022980478 0 0,0 0.3274833662479582,0.17493027278247125 l -0.2720515265256517 0.4989210313891698" fill="#ff0500" stroke="none" /><path d="M 110.36928655335952 81.73862282372117 l 0.3442828620050291 -0.6063174323565835 a21.69724566535035,21.69724566535035 0 0,0 0.32318901622019436,0.18721193860229773 l -0.3546686106905518 0.6003013363642363" fill="#ff0701" stroke="none" /><line stroke="#e1ed5e" stroke-width="0.3" x1="143.23703022742887" x2="145.7803849466894" y1="26.81831364943548" y2="22.513508569990506" /><path d="M 143.74570117128098 25.957352633546492 a86.0,86.0 0 0,1 28.547481713284135,27.462654790039103" fill="none" id="id38" stroke="none" /><text fill="#e1ed5e" style="font-size:6.75px; font-family:Arial;" text-anchor="middle"><textPath startOffset="19.985693538727396" xlink:href="#id38">February</textPath></text><path d="M 110.99172775467656 82.1063720568725 l 0.488544351022363 -0.795309986384218 a21.93337749992076,21.93337749992076 0 0,0 0.31999841856023103,0.20038298034570534 l -0.5021619219548573 0.7867826647155683" fill="#ff0a01" stroke="none" /><path d="M 111.90073688211348 82.69761687909136 l 1.212856059148207 -1.7633614131439306 a23.140201694602048,23.140201694602048 0 0,0 0.3262425307392999,0.2285537415695299 l -1.2430297294711576 1.742222828810465" fill="#ff1b02" stroke="none" /><path d="M 112.48926042617603 83.11751280151076 l 0.3598687790010567 -0.4864563510812698 a21.60509942952131,21.60509942952131 0 0,0 0.29707407422413545,0.22375003371416982 l -0.3681890069835751 0.4801897278612526" fill="#ff0500" stroke="none" /><path d="M 113.06298171725822 83.55741782278167 l 0.37990002354698166 -0.4781861822592754 a21.610725840942315,21.610725840942315 0 0,0 0.28927150421159115,0.23390410558774774 l -0.38807492632306395 0.47157597940739804" fill="#ff0500" stroke="none" /><path d="M 114.16331599549186 84.49514656593476 l 0.7122899147437697 -0.7797574193910686 a22.056114840223877,22.056114840223877 0 0,0 0.2781088249431793,0.2584718433900076 l -0.7256066234817957 0.7673809899264206" fill="#ff0c01" stroke="none" /><path d="M 114.68862486808459 84.99185889309783 l 0.6413242456403242 -0.6552747354016061 a21.916886997891112,21.916886997891112 0 0,0 0.26734865812561853,0.26620057802450336 l -0.6525087039332652 0.644138306726984" fill="#ff0a01" stroke="none" /><path d="M 115.4437574822437 85.77008943001954 l 1.7752049377564867 -1.6356775568838178 a23.413875233132075,23.413875233132075 0 0,0 0.2705488439591523,0.29874679085410843 l -1.8030974223316747 1.6048779787601604" fill="#ff1f03" stroke="none" /><path d="M 116.15771136456269 86.58626213691792 l 0.6304750483591558 -0.5234050068781257 a21.81942149583018,21.81942149583018 0 0,0 0.23741765303893403,0.29104597004644406 l -0.6393911934744987 0.5124748672235808" fill="#ff0801" stroke="none" /><path d="M 116.60985879189232 87.15038557335679 l 0.48024090708819095 -0.37152094820919324 a21.607173075654007,21.607173075654007 0 0,0 0.22504802930415582,0.2961368267307931 l -0.48656487661646025 0.36319934559736655" fill="#ff0500" stroke="none" /><path d="M 117.04232023915458 87.72973835380427 l 1.0072506362876839 -0.7252081099938377 a22.241161007727353,22.241161007727353 0 0,0 0.22102141062965014,0.31261911101594975 l -1.019584666721217 0.7077624986460948" fill="#ff0e01" stroke="none" /><path d="M 117.45458315368197 88.32363383020206 l 0.5211854970793972 -0.34865070409908216 a21.627049946842103,21.627049946842103 0 0,0 0.20432759413027068,0.31120494397087095 l -0.5271097265675928 0.33962769615053723" fill="#ff0600" stroke="none" /><line stroke="#e1ed5e" stroke-width="0.3" x1="172.23445277983987" x2="176.4835382374775" y1="55.19839476539836" y2="52.563006222186495" /><path d="M 173.08426987136738 54.67131705675599 a86.0,86.0 0 0,1 12.851231095245387,41.99856678651699" fill="none" id="id39" stroke="none" /><text fill="#e1ed5e" style="font-size:6.75px; font-family:Arial;" text-anchor="middle"><textPath startOffset="22.20632615414155" xlink:href="#id39">March</textPath></text><path d="M 117.84615892207809 88.93136811851018 l 0.59146947494398 -0.36684408762009646 a21.69599621005601,21.69599621005601 0 0,0 0.19411118706245165,0.31906775343058663 l -0.5976964602926556 0.35660856098242844" fill="#ff0701" stroke="none" /><path d="M 118.3937258080291 89.86733742301442 l 1.8698411485076478 -1.0300506611945262 a23.134785770347854,23.134785770347854 0 0,0 0.1891454925278398,0.3504578714322517 l -1.8872947402539524 0.9977118064298157" fill="#ff1b02" stroke="none" /><path d="M 118.73160827565052 90.50648371742162 l 0.5025185315995034 -0.2546854382086737 a21.56337336379746,21.56337336379746 0 0,0 0.16494952465910706,0.3325281763563311 l -0.5068280692120187 0.24599767335339268" fill="#ff0500" stroke="none" /><path d="M 119.04729006885535 91.15688171328212 l 0.6233155298727706 -0.289387778559955 a21.68721724087834,21.68721724087834 0 0,0 0.15428666701427518,0.33995021929324354 l -0.6282045138503928 0.2786155504246487" fill="#ff0601" stroke="none" /><path d="M 119.47837535516314 92.15188598940014 l 1.5413544484867043 -0.621033593505653 a22.661762997581874,22.661762997581874 0 0,0 0.14266815425393023,0.36307489101677687 l -1.5518161526223349 0.5944096975930918" fill="#ff1402" stroke="none" /><path d="M 119.7369772167798 92.82701384747503 l 0.5556782120549808 -0.20194947162129454 a21.591237570220922,21.591237570220922 0 0,0 0.1239408176473155,0.35039738153895933 l -0.5590721105121058 0.19235446365572065" fill="#ff0500" stroke="none" /><path d="M 119.97218684219823 93.5106431181261 l 0.53172924973744 -0.1727693063028402 a21.559093219621474,21.559093219621474 0 0,0 0.11163967440780398,0.3539282761648485 l -0.5346244079134501 0.16359086371157255" fill="#ff0500" stroke="none" /><path d="M 120.28053869075195 94.5502522615342 l 1.6043767376225466 -0.43112506185512084 a22.66129273013035,22.66129273013035 0 0,0 0.09798707164079422,0.3775841584741171 l -1.6115601411336435 0.4034444778321533" fill="#ff1402" stroke="none" /><path d="M 120.37134235888165 94.90015583598534 l 0.5468209081018284 -0.1368933557649656 a21.563695748067964,21.563695748067964 0 0,0 0.08704257640911409,0.3608476736130644 l -0.5490962847717619 0.12746045049249508" fill="#ff0500" stroke="none" /><path d="M 120.53481517161879 95.60439243477599 l 0.6717033619419237 -0.1437823693401947 a21.686919774192855,21.686919774192855 0 0,0 0.07499616111604103,0.36570791594632257 l -0.6740788189729616 0.1321987972304603" fill="#ff0601" stroke="none" /><path d="M 120.67395015179393 96.31383870115 l 0.5811066322350771 -0.10361119972344157 a21.59027129248823,21.59027129248823 0 0,0 0.06208553774413012,0.36643235822663756 l -0.5828040314994303 0.09359305318096617" fill="#ff0500" stroke="none" /><path d="M 120.87857604477298 97.74499172005257 l 0.6533587537653289 -0.07056656528479119 a21.65715850542915,21.65715850542915 0 0,0 0.036840759589023706,0.3709814214197826 l -0.6544766390365814 0.059309613160573656" fill="#ff0601" stroke="none" /><line stroke="#e1ed5e" stroke-width="0.3" x1="184.98032266829074" x2="189.97916517819016" y1="98.17113171792111" y2="98.06355123074" /><path d="M 185.9800911702706 98.14961562048488 a86.0,86.0 0 0,1 -9.607161424134198,41.387399972396054" fill="none" id="id40" stroke="none" /><text fill="#e1ed5e" style="font-size:6.75px; font-family:Arial;" text-anchor="middle"><textPath startOffset="21.466115282336823" xlink:href="#id40">April</textPath></text><path d="M 120.9904718944345 100.63252640178507 l 0.7281990795103679 0.021943534469466598 a21.728529627472184,21.728529627472184 0 0,0 -0.014483479574478618,0.3737542519225349 l -0.7277134670846861 -0.034475033406007695" fill="#ff0701" stroke="none" /><path d="M 120.95626037817324 101.35467743843564 l 0.5750141948370241 0.03717069469786071 a21.576214356648975,21.576214356648975 0 0,0 -0.027148468299932827,0.3704192803940958 l -0.5742891678727536 -0.04706311158872673" fill="#ff0500" stroke="none" /><path d="M 120.89721153311464 102.0752229133903 l 1.6111360899847111 0.15999582170224594 a22.619060889347093,22.619060889347093 0 0,0 -0.041810470758667846,0.38711303234015265 l -1.6081433177249913 -0.18770517592719002" fill="#ff1402" stroke="none" /><path d="M 120.76222939487914 103.15116336523771 l 0.6820448032924096 0.10351656157483215 a21.68985563143201,21.68985563143201 0 0,0 -0.05920116537860055,0.36864571332447094 l -0.6801618835525206 -0.11524150459250804" fill="#ff0701" stroke="none" /><path d="M 120.64145759157962 103.86396538481128 l 0.7241086674119188 0.1355490915943287 a21.73668644514007,21.73668644514007 0 0,0 -0.07201060632739847,0.367180530259129 l -0.7216681281088562 -0.14799334892140267" fill="#ff0701" stroke="none" /><path d="M 120.49622156327973 104.57218783832717 l 1.1753229843588058 0.26218478555185104 a22.204211351606087,22.204211351606087 0 0,0 -0.08642665094469887,0.37232375027415654 l -1.170635767483554 -0.28237719317457255" fill="#ff0e01" stroke="none" /><path d="M 120.32669344350535 105.2749913415812 l 0.5910381148272105 0.15338062469054295 a21.610615811463283,21.610615811463283 0 0,0 -0.09653968765296074,0.35926009140198517 l -0.5883103508324725 -0.1635316492680764" fill="#ff0500" stroke="none" /><path d="M 120.02730092923936 106.31721596034902 l 0.5398589182559863 0.17028781795375966 a21.56607913984175,21.56607913984175 0 0,0 -0.11471895976748546,0.35306865387826275 l -0.5368477074722539 -0.17955537180981762" fill="#ff0500" stroke="none" /><path d="M 119.79798401119884 107.00284435728193 l 1.3223466522562883 0.4677338756757009 a22.40263168621988,22.40263168621988 0 0,0 -0.13172292870874872,0.3624449270596884 l -1.3140994625423128 -0.4904265997415204" fill="#ff1101" stroke="none" /><path d="M 119.54520255179757 107.68017299344265 l 0.7415968748062572 0.29140615323961755 a21.796795752290585,21.796795752290585 0 0,0 -0.140223339223811,0.3480228283211481 l -0.7364709213250539 -0.30412834940357913" fill="#ff0801" stroke="none" /><path d="M 119.26925614724726 108.34839909993367 l 0.5344163883933337 0.23153573037587474 a21.582417093348113,21.582417093348113 0 0,0 -0.150623601813254,0.3396164586193112 l -0.5303517018488069 -0.24070052548787366" fill="#ff0500" stroke="none" /><path d="M 118.64920377521936 109.65438752849418 l 0.45771715745674957 0.23695268011388726 a21.5154139781219,21.5154139781219 0 0,0 -0.17309405838603667,0.3274287262673172 l -0.4535705908458198 -0.24479642146733882" fill="#ff0400" stroke="none" /><line stroke="#e1ed5e" stroke-width="0.3" x1="174.80103733775053" x2="179.2010983576182" y1="140.37084112569926" y2="142.7455964860345" /><path d="M 175.68104954172406 140.8457921977663 a86.0,86.0 0 0,1 -30.038265399797805,32.042727171017184" fill="none" id="id41" stroke="none" /><text fill="#e1ed5e" style="font-size:6.75px; font-family:Arial;" text-anchor="middle"><textPath startOffset="22.206326154141568" xlink:href="#id41">May</textPath></text><path d="M 117.94076556474637 110.91462005526583 l 0.23484926826221234 0.14287520362988948 a21.274895439423027,21.274895439423027 0 0,0 -0.19302951755127998,0.3112250442290936 l -0.23235511104296946 -0.14689657922425658" fill="#ff0100" stroke="none" /><path d="M 117.75023020441432 111.22182372390056 l 0.47326667208639106 0.29920260793179726 a21.5599138715025,21.5599138715025 0 0,0 -0.2010155372404695,0.3119805777668311 l -0.46804627146887123 -0.3073047856200813" fill="#ff0500" stroke="none" /><path d="M 117.35343817320211 111.8261652097733 l 0.7590235634814954 0.5172656836213958 a21.918520852987267,21.918520852987267 0 0,0 -0.21515542880869504,0.3099474422490757 l -0.7500072275106642 -0.530254388057491" fill="#ff0a01" stroke="none" /><path d="M 116.93607887273984 112.41649034213515 l 0.5582202558442306 0.4092527241727949 a21.69216879897728,21.69216879897728 0 0,0 -0.22336605255843303,0.29923532936064806 l -0.5510929365907056 -0.418800933042758" fill="#ff0701" stroke="none" /><path d="M 116.498646956653 112.99209946851258 l 0.445300267248784 0.3506581709791968 a21.566792273135682,21.566792273135682 0 0,0 -0.23218406797094085,0.28968532472624925 l -0.4391982872229892 -0.35827132928369637" fill="#ff0500" stroke="none" /><path d="M 116.0416608686014 113.55231037782055 l 1.3004144880331694 1.0986157172874238 a22.70236139963215,22.70236139963215 0 0,0 -0.25476102448831117,0.29634462679764373 l -1.2813109539740795 -1.1208374432465955" fill="#ff1502" stroke="none" /><path d="M 115.56566222782051 114.09645910891815 l 0.4313560314244874 0.39064143686046693 a21.581952539335205,21.581952539335205 0 0,0 -0.2517417522369528,0.27321595245330527 l -0.4245678711918127 -0.398008644115107" fill="#ff0500" stroke="none" /><path d="M 115.07121518719521 114.62390073753431 l 0.4910714015751568 0.4764963768667032 a21.684251356310007,21.684251356310007 0 0,0 -0.26223423431367354,0.2656418948725436 l -0.4827965422059477 -0.4848787657199114" fill="#ff0601" stroke="none" /><path d="M 114.29624159901734 115.38237550388516 l 1.1320253323423402 1.2180291317402734 a22.662851863165432,22.662851863165432 0 0,0 -0.2880345415545036,0.26311272447697465 l -1.1108912413209726 -1.2373346228038309" fill="#ff1402" stroke="none" /><path d="M 113.75828350139079 115.86535959552629 l 0.35831810515131823 0.41319439210847747 a21.54691998514328,21.54691998514328 0 0,0 -0.2823000743497568,0.24058224773018305 l -0.3511525542245142 -0.41930103006160735" fill="#ff0400" stroke="none" /><path d="M 112.92097659922987 116.55440617244103 l 0.3751166881603903 0.4806009801331986 a21.60966370389044,21.60966370389044 0 0,0 -0.2951996049315737,0.22634646910461445 l -0.3667883547353228 -0.4869867910651845" fill="#ff0500" stroke="none" /><path d="M 112.34349029814194 116.9893568818739 l 0.9947788342542019 1.3691956023348733 a22.692418838979673,22.692418838979673 0 0,0 -0.31798851091994573,0.2268763594227677 l -0.9710629954853716 -1.3861162236018603" fill="#ff1502" stroke="none" /><path d="M 111.7513745106137 117.40417183066458 l 0.3968978330618455 0.5878187338500572 a21.709266348950994,21.709266348950994 0 0,0 -0.3115024391777151,0.2064468309781506 l -0.38672069514416624 -0.5945635859195262" fill="#ff0701" stroke="none" /><path d="M 111.1453310114006 117.79835938074945 l 0.47360709605422424 0.7563193315859094 a21.892369101192703,21.892369101192703 0 0,0 -0.3211097640917419,0.19725184392360537 l -0.46051813203017367 -0.7643596423378929" fill="#ff0901" stroke="none" /><line stroke="#e1ed5e" stroke-width="0.3" x1="143.8653032363475" x2="146.44561519142675" y1="172.8068346515853" y2="177.08958963109032" /><path d="M 144.38136562736335 173.6633856474863 a86.0,86.0 0 0,1 -40.68145358897372,12.25698825130547" fill="none" id="id42" stroke="none" /><text fill="#e1ed5e" style="font-size:6.75px; font-family:Arial;" text-anchor="middle"><textPath startOffset="21.466115282336833" xlink:href="#id42">June</textPath></text><path d="M 109.89434966115114 118.52300852407294 l 0.7818475999478853 1.4636808132244379 a22.65941170073783,22.65941170073783 0 0,0 -0.3456197957687571,0.18081194214588198 l -0.7565369016526327 -1.4769221743150365" fill="#ff1402" stroke="none" /><path d="M 109.2508944713604 118.85261126421891 l 0.30215738014171023 0.6157734958562106 a21.68591258960095,21.68591258960095 0 0,0 -0.336531628371677,0.1615556326117819 l -0.2915130837698005 -0.6208834049675525" fill="#ff0601" stroke="none" /><path d="M 108.59647513512805 119.15986991738527 l 0.25773923840533264 0.5744505978122122 a21.62962131820688,21.62962131820688 0 0,0 -0.3410057349257238,0.1494868929566545 l -0.24781282882185507 -0.5788020440633213" fill="#ff0600" stroke="none" /><path d="M 107.59598834532513 119.57807347666477 l 0.6155439589210608 1.5865170282008683 a22.701743413718862,22.701743413718862 0 0,0 -0.36553026137322114,0.13821226767020112 l -0.5881434767875648 -1.5968775459777003" fill="#ff1502" stroke="none" /><path d="M 106.91757812671514 119.82793768551818 l 0.18765164156837727 0.5378681653386401 a21.569662445548293,21.569662445548293 0 0,0 -0.3516165859732578,0.11928743666865264 l -0.1783653226578925 -0.5410185889054158" fill="#ff0500" stroke="none" /><path d="M 106.2309692047433 120.05430185196036 l 0.20217733611069313 0.650705402765045 a21.681390634235925,21.681390634235925 0 0,0 -0.35735580416409163,0.10766837236027961 l -0.19094655750635567 -0.6540891442310501" fill="#ff0601" stroke="none" /><path d="M 105.18746579009965 120.34920634021253 l 0.14435117264696218 0.566255647073529 a21.584365227308414,21.584365227308414 0 0,0 -0.36081526256902247,0.08867961294774175 l -0.1345826253347286 -0.5686565183353008" fill="#ff0500" stroke="none" /><path d="M 104.48393922423573 120.51570834832081 l 0.1595006848284842 0.7297756208674678 a21.74700262735365,21.74700262735365 0 0,0 -0.36639405799407004,0.07678143723535565 l -0.14691516540503616 -0.7324130388293646" fill="#ff0701" stroke="none" /><path d="M 103.7750983002368 120.6578951692458 l 0.14512705154905098 0.7941566493603525 a21.80730827124128,21.80730827124128 0 0,0 -0.3698426319156502,0.06430188222789902 l -0.13143544816135086 -0.7965371101092577" fill="#ff0801" stroke="none" /><path d="M 102.70371172650421 120.8252237178851 l 0.08587594261340267 0.6614557681490267 a21.66700705448845,21.66700705448845 0 0,0 -0.3702711741146758,0.044834682650327966 l -0.07447734544734654 -0.6628359795247056" fill="#ff0601" stroke="none" /><path d="M 101.98527174616119 120.90594882070398 l 0.06420005917670632 0.6760601686039481 a21.679101611816,21.679101611816 0 0,0 -0.3718024586549541,0.0320806805959055 l -0.05255328278021056 -0.6770651014785171" fill="#ff0601" stroke="none" /><path d="M 101.26447882468166 120.96189622390904 l 0.054680316175726724 0.9064628768731487 a21.90811061227486,21.90811061227486 0 0,0 -0.3766233014070711,0.019467122738100202 l -0.039068946355176 -0.9072698063734508" fill="#ff0a01" stroke="none" /><line stroke="#e1ed5e" stroke-width="0.3" x1="102.19456741930631" x2="102.32365962044197" y1="184.97166512339345" y2="189.96999836594603" /><path d="M 102.22038585953345 185.97133177190398 a86.0,86.0 0 0,1 -42.740103519485714,-10.115201625700543" fill="none" id="id43" stroke="none" /><text fill="#e1ed5e" style="font-size:6.75px; font-family:Arial;" text-anchor="middle"><textPath startOffset="22.20632615414155" xlink:href="#id43">July</textPath></text><path d="M 100.54218724476979 120.99299961872073 l 0.04520233013142363 1.7501933296442058 a22.7507769537495,22.7507769537495 0 0,0 -0.39157370844504585,0.006741296500546526 l -0.01506893179370983 -1.750712103423912" fill="#ff1602" stroke="none" /><path d="M 99.81925306533755 120.99922214144158 l -0.002956532253743603 0.34349062505897937 a21.343503348726582,21.343503348726582 0 0,0 -0.3673524985305055,-0.006324306406180145 l 0.00886872067691707 -0.34338884137363956" fill="#ff0200" stroke="none" /><path d="M 99.09653310690486 120.98055641714683 l -0.026353896756828695 0.6119974311666156 a21.612564595474474,21.612564595474474 0 0,0 -0.37154255672145153,-0.019204506272187977 l 0.036884521891769155 -0.6114531181322258" fill="#ff0500" stroke="none" /><path d="M 98.01472825383883 120.90594882070398 l -0.16197599766919438 1.7056918902928502 a22.713365415908623,22.713365415908623 0 0,0 -0.38890408690221817,-0.04031149874028558 l 0.19131268117700584 -1.702651023096804" fill="#ff1502" stroke="none" /><path d="M 97.2962882734958 120.8252237178851 l -0.08697487558892698 0.6699202523031323 a21.675542577066466,21.675542577066466 0 0,0 -0.36959009844571505,-0.05122181993192694 l 0.0984935652214731 -0.6683238668786006" fill="#ff0601" stroke="none" /><path d="M 96.58105272829116 120.7198165907248 l -0.12374442221482655 0.7499272520616873 a21.760068132086904,21.760068132086904 0 0,0 -0.3690414593371914,-0.06416258810564643 l 0.13663485302406791 -0.7476860854350348" fill="#ff0801" stroke="none" /><path d="M 95.86986931433489 120.58985236759428 l -0.11417064685128361 0.5691724892724829 a21.580510343703775,21.580510343703775 0 0,0 -0.3635889917292302,-0.07619360832641191 l 0.12395110000990062 -0.5671229002195297" fill="#ff0500" stroke="none" /><path d="M 94.81253420990036 120.34920634021253 l -0.14568452407052387 0.5714860706252111 a21.58976292649869,21.58976292649869 0 0,0 -0.35932516572597534,-0.0949010421238405 l 0.1555001326079885 -0.568893679197789" fill="#ff0500" stroke="none" /><path d="M 94.11515582081647 120.15858648285463 l -0.1838527810291979 0.6297893493255791 a21.65607657298223,21.65607657298223 0 0,0 -0.3569385741594032,-0.10754266438245691 l 0.19466632962884695 -0.6265313158373966" fill="#ff0601" stroke="none" /><path d="M 93.08242187328487 119.8279376855182 l -0.5343620374903046 1.5316483582521632 a22.62218663551619,22.62218663551619 0 0,0 -0.36656607656427503,-0.13143755325963496 l 0.5606476746843063 -1.5222232639525703" fill="#ff1402" stroke="none" /><path d="M 92.40401165467489 119.57807347666478 l -0.20901190509120843 0.538712047641803 a21.577837906981085,21.577837906981085 0 0,0 -0.3451209989304767,-0.13733076796011512 l 0.21825398006354327 -0.5350344352756213" fill="#ff0500" stroke="none" /><path d="M 91.7346041902142 119.30500536409082 l -0.2633824503283497 0.6151671055336849 a21.669179260640718,21.669179260640718 0 0,0 -0.34162939287301664,-0.14976028627312774 l 0.27393251785910966 -0.6105422659661051" fill="#ff0601" stroke="none" /><path d="M 90.7491055286396 118.85261126421891 l -0.7741513191277692 1.577660833163939 a22.75736278821614,22.75736278821614 0 0,0 -0.3501882312598954,-0.17559164894214122 l 0.8011934580704252 -1.5641013433124957" fill="#ff1602" stroke="none" /><line stroke="#e1ed5e" stroke-width="0.3" x1="58.666819895761336" x2="56.23545636021788" y1="174.27360380694188" y2="178.64263932499728" /><path d="M 58.180547188652646 175.14741091055294 a86.0,86.0 0 0,1 -31.652253787137756,-30.449443065178592" fill="none" id="id44" stroke="none" /><text fill="#e1ed5e" style="font-size:6.75px; font-family:Arial;" text-anchor="middle"><textPath startOffset="22.20632615414155" xlink:href="#id44">August</textPath></text><path d="M 89.7882731507175 118.34994917583269 l -0.3283960285588497 0.590110813042713 a21.675333046165488,21.675333046165488 0 0,0 -0.3244603652597917,-0.1842370632898815 l 0.33850516073984865 -0.5843705839581984" fill="#ff0601" stroke="none" /><path d="M 89.1626897886671 117.98757091392108 l -0.35130359238614695 0.5830873304478237 a21.680738605451594,21.680738605451594 0 0,0 -0.31800564053855623,-0.19534503770622225 l 0.36128843285701195 -0.5769538259132233" fill="#ff0601" stroke="none" /><path d="M 88.54995079064634 117.60387380957326 l -0.9335872644457367 1.4353433852582675 a22.712248759362943,22.712248759362943 0 0,0 -0.32589405712895086,-0.21598481060528704 l 0.9581560203146494 -1.419060553561662" fill="#ff1502" stroke="none" /><path d="M 88.24862548938628 117.40417183066458 l -0.6384374238492911 0.9455468054195817 a22.14090363546204,22.14090363546204 0 0,0 -0.31402455790716133,-0.21598895435733884 l 0.6546188663793427 -0.9344170616971418" fill="#ff0d01" stroke="none" /><path d="M 87.95078237400918 117.19931262002967 l -0.3473825434222529 0.495861320503708 a21.605436272985187,21.605436272985187 0 0,0 -0.30275664119247314,-0.21600882480344213 l 0.35586651246361295 -0.4898082338560466" fill="#ff0500" stroke="none" /><path d="M 87.36589467227662 116.77436683061367 l -0.35733730407126546 0.4744385823348258 a21.593954474087703,21.593954474087703 0 0,0 -0.29498500842072856,-0.22618192565096232 l 0.36545104098548076 -0.46821731485649665" fill="#ff0500" stroke="none" /><path d="M 86.79598089348748 116.32954008644616 l -0.44380751953443687 0.5488611173948812 a21.705842504092285,21.705842504092285 0 0,0 -0.2885118584760243,-0.2374256177384416 l 0.45318950655514995 -0.541140380799259" fill="#ff0701" stroke="none" /><path d="M 86.24171649860922 115.8653595955263 l -1.1215363903780142 1.2932992790137707 a22.711860654387408,22.711860654387408 0 0,0 -0.29315350048055705,-0.25867387980104517 l 1.143632243765159 -1.2738022574404368" fill="#ff1502" stroke="none" /><path d="M 85.70375840098266 115.38237550388516 l -0.4468674573163527 0.48081749187695544 a21.65641144482956,21.65641144482956 0 0,0 -0.2708744401069199,-0.256128690251175 l 0.45507773181408956 -0.47305416487984964" fill="#ff0601" stroke="none" /><path d="M 85.18274418774928 114.88116024355367 l -0.4305863105931687 0.43244335981024 a21.61025554509091,21.61025554509091 0 0,0 -0.261339380505785,-0.2647354126896043 l 0.43796631615448695 -0.4249674531399711" fill="#ff0500" stroke="none" /><path d="M 84.19399662182784 113.82643327865904 l -0.3068410368416226 0.2684117560612508 a21.40767179529853,21.40767179529853 0 0,0 -0.2402322957720225,-0.27944443298691063 l 0.31141584218442386 -0.26309022391280984" fill="#ff0200" stroke="none" /><path d="M 83.72743513129214 113.27417163493432 l -0.46146495988023684 0.3764351305637017 a21.595527763181348,21.595527763181348 0 0,0 -0.23249342890367894,-0.2900713000562573 l 0.46787630083877674 -0.3684359969291848" fill="#ff0500" stroke="none" /><path d="M 83.06392112726016 112.41649034213515 l -1.373518903732468 1.0069794980929538 a22.703103604743404,22.703103604743404 0 0,0 -0.22835020271961887,-0.31715845950442095 l 1.3906488988276944 -0.9831874331373947" fill="#ff1502" stroke="none" /><path d="M 82.6465618267979 111.8261652097733 l -0.5146380843489764 0.350719837072448 a21.622781472089937,21.622781472089937 0 0,0 -0.20695771087011777,-0.3093736973598736 l 0.5205989006298245 -0.3418092255067536" fill="#ff0600" stroke="none" /><path d="M 82.24976979558568 111.22182372390057 l -0.5759212141379553 0.3641015507677001 a21.681362740517546,21.681362740517546 0 0,0 -0.19671744105972694,-0.31717115118511713 l 0.5821032948656382 -0.3541340682173188" fill="#ff0601" stroke="none" /><line stroke="#e1ed5e" stroke-width="0.3" x1="26.63291911575756" x2="22.317208475507996" y1="142.92168965132927" y2="145.44649492493687" /><path d="M 25.769776987707644 143.4266507060508 a86.0,86.0 0 0,1 -11.730757126820373,-40.83630448921669" fill="none" id="id45" stroke="none" /><text fill="#e1ed5e" style="font-size:6.75px; font-family:Arial;" text-anchor="middle"><textPath startOffset="21.46611528233685" xlink:href="#id45">September</textPath></text><path d="M 81.51974371655577 109.97397251340807 l -1.4496063421595604 0.7823665207995055 a22.647257089860943,22.647257089860943 0 0,0 -0.18219987051991296,-0.3446534912097063 l 1.4628587209043595 -0.7572980145036731" fill="#ff1402" stroke="none" /><path d="M 81.18737489456691 109.33194174019688 l -0.5959495021936377 0.2956188199893612 a21.66524153199928,21.66524153199928 0 0,0 -0.16284703907055348,-0.33551313418503614 l 0.6009497978789101 -0.2853167298390403" fill="#ff0601" stroke="none" /><path d="M 80.58989483394504 108.01547362559985 l -0.6410383519059586 0.26471912226864736 a21.693546236605023,21.693546236605023 0 0,0 -0.13955911352627726,-0.3463742746126188 l 0.6455000796896236 -0.25364547981322316" fill="#ff0701" stroke="none" /><path d="M 80.20201598880116 107.00284435728193 l -0.7836152104969798 0.27717647170565507 a21.831191671390794,21.831191671390794 0 0,0 -0.122264205332923,-0.35535701130337954 l 0.7882702467731313 -0.2636467573129787" fill="#ff0901" stroke="none" /><path d="M 79.97269907076064 106.31721596034903 l -0.6399038655120922 0.20184501778770444 a21.670983135632362,21.670983135632362 0 0,0 -0.1091528490105264,-0.3567178261079788 l 0.643283487028749 -0.19080021912767786" fill="#ff0601" stroke="none" /><path d="M 79.76711848015287 105.62410040840567 l -1.6562356352996948 0.460381063555767 a22.7190308907397,22.7190308907397 0 0,0 -0.10149123769099669,-0.37768665111534483 l 1.6639149493324663 -0.43180347926488327" fill="#ff1502" stroke="none" /><path d="M 79.58551787078972 104.9243191809786 l -0.6517596347136723 0.15721547332400046 a21.670453075535185,21.670453075535185 0 0,0 -0.08434907478203364,-0.3633736065406154 l 0.654369275426261 -0.14597320943481082" fill="#ff0601" stroke="none" /><path d="M 79.4281124754447 104.21870165774334 l -0.6549575247485785 0.13431292544790605 a21.668587556844397,21.668587556844397 0 0,0 -0.07178500422153831,-0.36603018998174625 l 0.6571724619457833 -0.12301900839820495" fill="#ff0601" stroke="none" /><path d="M 79.18660465613746 102.79330883721812 l -2.431922659546096 0.3263816856457428 a23.453726314554807,23.453726314554807 0 0,0 -0.05025629936630711,-0.40059215356347705 l 2.4371804681592515 -0.28447177779485716" fill="#ff2003" stroke="none" /><path d="M 79.10278846688536 102.07522291339032 l -0.5654007178818324 0.05614780341082335 a21.568181790986962,21.568181790986962 0 0,0 -0.03350812564287533,-0.36975937428205835 l 0.5662834398017831 -0.04640704058019883" fill="#ff0500" stroke="none" /><path d="M 79.0095281055655 100.63252640178507 l -0.4613160314461798 0.013901286780207663 a21.461525434449065,21.461525434449065 0 0,0 -0.007948876167298237,-0.3693530409851939 l 0.46148697029848545 -0.0059584300048849265" fill="#ff0300" stroke="none" /><line stroke="#e1ed5e" stroke-width="0.3" x1="15.007084014347285" x2="10.007500721073583" y1="101.09737516637583" y2="101.16192664675087" /><path d="M 14.007167355692545 101.11028546245083 a86.0,86.0 0 0,1 10.666146001902534,-42.60595125391555" fill="none" id="id46" stroke="none" /><text fill="#e1ed5e" style="font-size:6.75px; font-family:Arial;" text-anchor="middle"><textPath startOffset="22.20632615414155" xlink:href="#id46">October</textPath></text><path d="M 79.00019446554 99.90962569577889 l -0.5722087013110645 -0.0024625448633511867 a21.57221400016366,21.57221400016366 0 0,0 0.004794160437803845,-0.37131300925806815 l 0.5720815337555452 0.012311812181891323" fill="#ff0500" stroke="none" /><path d="M 79.05617556472873 98.46500227214037 l -62.831473305813795 -4.604993183578899 a84.0,84.0 0 0,0 0.11810206472201168,-1.4411443311688865 l 62.742896757272284 5.685851431955563" fill="#4dd2ff" stroke="none" /><path d="M 79.12142395522702 97.74499172005258 l -0.6929807042176465 -0.07484596758435594 a21.697010886056756,21.697010886056756 0 0,0 0.043300669862472725,-0.3709736961082056 l 0.6915896813515848 0.08676340201742329" fill="#ff0701" stroke="none" /><path d="M 79.21141760316559 97.0276538004421 l -0.6955446673127229 -0.09944879881874734 a21.702618280301373,21.702618280301373 0 0,0 0.05605900660203882,-0.3693588112759676 l 0.6937297672713818 0.11140672248680698" fill="#ff0701" stroke="none" /><path d="M 79.32604984820605 96.31383870115002 l -0.6172291553133038 -0.11005183857620647 a21.626963505590858,21.626963505590858 0 0,0 0.06850008674296273,-0.3659302024501582 l 0.6152433446604794 0.12066011848893736" fill="#ff0600" stroke="none" /><path d="M 79.46518482838121 95.60439243477599 l -2.3925953819164527 -0.5121502323433339 a23.446795970663935,23.446795970663935 0 0,0 0.08787592617663144,-0.3939305463122995 l 2.383425068737784 0.5532589482055926" fill="#ff2003" stroke="none" /><path d="M 79.62865764111835 94.90015583598534 l -0.4625367396336664 -0.11579331644950155 a21.476810578369772,21.476810578369772 0 0,0 0.09286538953536005,-0.3578482280562646 l 0.46047501822799897 0.12373797005462998" fill="#ff0300" stroke="none" /><path d="M 79.81627453868168 94.20196356495316 l -0.6787271362874117 -0.19497315662518838 a21.70617636418766,21.70617636418766 0 0,0 0.10625080602341623,-0.3582248978059187 l 0.6752704331522885 0.2066274411776463" fill="#ff0701" stroke="none" /><path d="M 80.14247586403 93.16781622104843 l -1.1049828257264656 -0.3801806149777419 a22.168556522019923,22.168556522019923 0 0,0 0.1272548186487193,-0.3597665086381058 l 1.0982749262679368 0.3991447500424588" fill="#ff0d01" stroke="none" /><path d="M 80.38941819471856 92.48833698450439 l -0.4220570332807587 -0.16166528044930584 a21.45195995646131,21.45195995646131 0 0,0 0.13505178447256486,-0.34369206068036395 l 0.41921169892650273 0.16890634602543322" fill="#ff0300" stroke="none" /><path d="M 80.65960295795068 91.81776055985345 l -0.5731670792089306 -0.24248676338445918 a21.622350649638584,21.622350649638584 0 0,0 0.1479682220662958,-0.3415310574539819 l 0.5689081472999541 0.25231696542504034" fill="#ff0600" stroke="none" /><path d="M 81.10775173730289 90.83032412892265 l -1.0508131473963411 -0.5100301366310469 a22.168049233128848,22.168049233128848 0 0,0 0.16957500674561551,-0.341852865991987 l 1.0418781276973128 0.5280425911219955" fill="#ff0d01" stroke="none" /><path d="M 81.6062741919709 89.86733742301443 l -0.5076206678995301 -0.27963605626244364 a21.579547294395184,21.579547294395184 0 0,0 0.18203104321765282,-0.3238129143145774 l 0.5027319833894467 0.28833248051180566" fill="#ff0500" stroke="none" /><line stroke="#e1ed5e" stroke-width="0.3" x1="26.266209847984243" x2="21.928928074336255" y1="57.711370442889674" y2="55.22380399835377" /><path d="M 25.398753493254645 57.213857153982495 a86.0,86.0 0 0,1 29.58750427330803,-30.492523968695096" fill="none" id="id47" stroke="none" /><text fill="#e1ed5e" style="font-size:6.75px; font-family:Arial;" text-anchor="middle"><textPath startOffset="21.46611528233685" xlink:href="#id47">November</textPath></text><path d="M 81.96595687620814 89.24020034530311 l -0.5309625387168897 -0.3167925518158427 a21.618286938570336,21.618286938570336 0 0,0 0.19341593256537098,-0.31792493784224257 l 0.5254308078653017 0.32588526286515973" fill="#ff0500" stroke="none" /><path d="M 82.34701348167596 88.62581576622439 l -1.4445391711809203 -0.930746457482549 a22.718424390304204,22.718424390304204 0 0,0 0.2146386589715735,-0.3269094031256721 l 1.4283038768514265 0.9554739245858882" fill="#ff1502" stroke="none" /><path d="M 82.95767976084542 87.72973835380427 l -0.47196899436784057 -0.3398118899608571 a21.58157274025126,21.58157274025126 0 0,0 0.21965661787372812,-0.2996113799246956 l 0.46604976398047904 0.34788571355705333" fill="#ff0500" stroke="none" /><path d="M 83.39014120810768 87.1503855733568 l -0.48558420330048957 -0.3756545953976264 a21.613928655088134,21.613928655088134 0 0,0 0.23018414028778575,-0.2923104826000574 l 0.47904598241873275 0.38395747195073143" fill="#ff0500" stroke="none" /><path d="M 84.07557802195018 86.31012108654704 l -1.0480399773038613 -0.9009771535522274 a22.382080904017617,22.382080904017617 0 0,0 0.25367225548643657,-0.2899912397043029 l 1.0323758582395812 0.9188839494594734" fill="#ff1001" stroke="none" /><path d="M 84.5562425177563 85.77008943001954 l -0.4173746912226927 -0.3845699168159475 a21.567534715936446,21.567534715936446 0 0,0 0.2539142555388633,-0.2708580241493722 l 0.41069311371337347 0.39169735784336984" fill="#ff0500" stroke="none" /><path d="M 85.05521093208273 85.24692304244772 l -0.48791302530761005 -0.4816540653897955 a21.685601749539295,21.685601749539295 0 0,0 0.2645273723838593,-0.26339140778032094 l 0.47954985275643747 0.4899813238202258" fill="#ff0601" stroke="none" /><path d="M 85.57189188830299 84.74124197986013 l -0.8138977851889361 -0.8607552189921203 a22.18462194465476,22.18462194465476 0 0,0 0.2797291900922004,-0.25997779620225103 l 0.7989607113018796 0.8746376012690188" fill="#ff0e01" stroke="none" /><path d="M 86.37877921826538 84.01681056812374 l -0.4914612656354464 -0.5766824158385512 a21.75769174758432,21.75769174758432 0 0,0 0.2871419181433313,-0.24047309868554861 l 0.48146181053300474 0.5850566719179121" fill="#ff0701" stroke="none" /><path d="M 86.93701828274178 83.55741782278169 l -0.4347498501492214 -0.5472265285472886 a21.698902214727273,21.698902214727273 0 0,0 0.2944514628560148,-0.2298240372708305 l 0.42526583213378094 0.5546289550413409" fill="#ff0701" stroke="none" /><path d="M 87.51073957382395 83.11751280151077 l -1.003922374339177 -1.3570624724531766 a22.688039895215613,22.688039895215613 0 0,0 0.31596302524324105,-0.22956057511644667 l 0.9804140327421543 1.374142282386291" fill="#ff1502" stroke="none" /><path d="M 87.80319425747018 82.90503203632743 l -0.3011760879226616 -0.4221265537180086 a21.51855362624346,21.51855362624346 0 0,0 0.30337969761570455,-0.21253686589903908 l 0.2938652507232967 0.42724826238099023" fill="#ff0400" stroke="none" /><path d="M 88.09926311788651 82.69761687909137 l -0.3350421963892793 -0.4871150837987864 a21.591214325118777,21.591214325118777 0 0,0 0.30802983113656485,-0.20798311699894942 l 0.3266076708461749 0.49281011309640127" fill="#ff0500" stroke="none" /><path d="M 88.70189139769569 82.29822771554957 l -0.16171190694694462 -0.2533687233166806 a21.300576863386958,21.300576863386958 0 0,0 0.3107661330649858,-0.19460172401555512 l 0.15732662150971657 0.25611478865516596" fill="#ff0100" stroke="none" /><line stroke="#e1ed5e" stroke-width="0.3" x1="56.762969772571076" x2="54.21961505331055" y1="26.818313649435495" y2="22.513508569990535" /><path d="M 56.25429882871897 25.957352633546506 a86.0,86.0 0 0,1 42.265352541879196,-11.944610805530505" fill="none" id="id48" stroke="none" /><text fill="#e1ed5e" style="font-size:6.75px; font-family:Arial;" text-anchor="middle"><textPath startOffset="22.20632615414155" xlink:href="#id48">December</textPath></text><path d="M 89.94658935756843 81.56283822128135 l -1.0891348383040478 -1.9973873471255634 a23.275032068008027,23.275032068008027 0 0,0 0.3533980603379477,-0.18877300488265464 l 1.0545917314377948 2.0158390785099676" fill="#ff1d02" stroke="none" /><path d="M 90.58718382345135 81.22770947309562 l -0.21527066392738048 -0.4293214027946869 a21.480269013830096,21.480269013830096 0 0,0 0.33195068987302323,-0.16288676187467402 l 0.20784870704393127 0.43296332480419053" fill="#ff0400" stroke="none" /></svg>