<?xml version="1.0" encoding="utf-8" ?>
<svg baseProfile="full" height="200mm" version="1.1" viewBox="0,0,200,200" width="200mm" xmlns="http://www.w3.org/2000/svg" xmlns:ev="http://www.w3.org/2001/xml-events" xmlns:xlink="http://www.w3.org/1999/xlink"><defs /><rect fill="#1a1a1a" height="200" width="200" x="0" y="0" /><text alignment-baseline="middle" fill="#e1ed5e" style="dominant-baseline: central; font-size:9.0px; font-family:Arial;" text-anchor="middle" x="100.0" y="100.0">2025</text><line stroke="#e1ed5e" stroke-width="0.3" x1="100.0" x2="100.0" y1="15.0" y2="10.0" /><path d="M 100.0 14.0 a86.0,86.0 0 0,1 42.46469731375804,11.215312516191453" fill="none" id="id61" stroke="none" /><text fill="#e1ed5e" style="font-size:6.75px; font-family:Arial;" text-anchor="middle"><textPath startOffset="22.20632615414155" xlink:href="#id61">January</textPath></text><path d="M 101.80526077348638 79.07773832637324 l 2.2710539156319376 -26.320620818676794 a47.41841717757272,47.41841717757272 0 0,0 0.8126046121600364,0.07716659938074608 l -2.7237836548822183 26.27762867478087" fill="#d6ff1c" stroke="none" /><path d="M 102.88285421437855 79.19881850522331 l 3.9458133488578158 -28.470943554735726 a49.74306994530981,49.74306994530981 0 0,0 0.8471268962452304,0.12484448385164551 l -4.435309225531702 28.39880458672311" fill="#b9ff1f" stroke="none" /><path d="M 103.95276090670814 79.375362276772 l 11.858282720124386 -61.87391316968404 a84.0,84.0 0 0,0 1.4177343621314986,0.2843841756911667 l -12.921583491723009 61.66062503791566" fill="#4dd2ff" stroke="none" /><path d="M 104.66035177308747 79.52364482259891 l 7.4708976908294575 -32.82515184687502 a54.66459425089278,54.66459425089278 0 0,0 0.9157004485366046,0.21671671107369497 l -8.034821826328585 32.691689223660454" fill="#7eff26" stroke="none" /><path d="M 105.36241919743992 79.69619591428918 l 6.5939466115194865 -24.966753851665523 a46.82283736937567,46.82283736937567 0 0,0 0.7774867725350574,0.21251650466681338 l -7.022731273278255 24.849550806172413" fill="#ddff1b" stroke="none" /><path d="M 106.74666289553966 80.11325718540242 l 9.187561697310466 -27.081637158491255 a49.59766356061384,49.59766356061384 0 0,0 0.8061226252215579,0.28124035530713287 l -9.652366326595297 26.919475950011915" fill="#bbff1f" stroke="none" /><path d="M 108.43124777332544 80.76684994638697 l 2.3496709277946386 -5.360010136798776 a26.85240652514066,26.85240652514066 0 0,0 0.42173351591384284,0.18921953535362163 l -2.4415865621752615 5.318770270928623" fill="#ff0500" stroke="none" /><line stroke="#e1ed5e" stroke-width="0.3" x1="143.23703022742887" x2="145.7803849466894" y1="26.81831364943548" y2="22.513508569990506" /><path d="M 143.74570117128098 25.957352633546492 a86.0,86.0 0 0,1 28.547481713284135,27.462654790039103" fill="none" id="id62" stroke="none" /><text fill="#e1ed5e" style="font-size:6.75px; font-family:Arial;" text-anchor="middle"><textPath startOffset="19.985693538727396" xlink:href="#id62">February</textPath></text><path d="M 111.90073688211348 82.69761687909136 l 15.399184317738044 -22.388746970403886 a48.17334849731329,48.17334849731329 0 0,0 0.6791727805732947,0.4758039358646649 l -15.78228823789499 22.120358191775285" fill="#ccff1d" stroke="none" /><path d="M 112.48926042617603 83.11751280151076 l 17.09331448136332 -23.106064976156798 a49.741462012938115,49.741462012938115 0 0,0 0.6839542130436747,0.5151401334066248 l -17.488514848165376 22.808408253244323" fill="#b9ff1f" stroke="none" /><path d="M 113.6212207817346 84.01681056812373 l 33.13425493169707 -38.8798538503649 a72.08347957318908,72.08347957318908 0 0,0 0.9374497755503447,0.8129472075737728 l -33.79859850589418 38.30374164937146" fill="#3dffad" stroke="none" /><path d="M 114.68862486808459 84.99185889309783 l 20.199670153136548 -20.639066127276347 a49.87901876625315,49.87901876625315 0 0,0 0.6084389966998257,0.6058261662867203 l -20.551944950003698 20.28830411033951" fill="#b7ff1f" stroke="none" /><path d="M 114.94478906791727 85.2469230424477 l 17.43601169614771 -17.212342122530732 a45.500596425622895,45.500596425622895 0 0,0 0.5454345782453268,0.5621182779348128 l -17.729710538096146 16.909659649045803" fill="#eeff19" stroke="none" /><path d="M 115.4437574822437 85.77008943001954 l 24.076257350021674 -22.18391407301932 a53.73823775928658,53.73823775928658 0 0,0 0.6209488159227794,0.6856671916498626 l -24.454549806560486 21.76619409409991" fill="#89ff24" stroke="none" /><path d="M 115.9244219780498 86.31012108654704 l 22.03702125884521 -18.94474744908296 a50.06086306138087,50.06086306138087 0 0,0 0.5561270491378562,0.6582790146782463 l -22.359858921470185 18.562609484775606" fill="#b5ff20" stroke="none" /><path d="M 116.82858285166822 87.43820079747576 l 23.218857558508876 -17.331859071727344 a49.97427626713983,49.97427626713983 0 0,0 0.5086367262314643,0.6937799229622673 l -23.51375689725397 16.929616705093583" fill="#b6ff1f" stroke="none" /><path d="M 117.2510076193507 88.02491185347247 l 18.183408201711686 -12.62233029075578 a43.135030060946534,43.135030060946534 0 0,0 0.4181541330024971,0.6135895926712566 l -18.397986800382917 12.307462674814118" fill="#fff116" stroke="none" /><path d="M 117.45458315368197 88.32363383020206 l 21.32954602779767 -14.268549839506672 a46.662054638598704,46.662054638598704 0 0,0 0.44085279244811093,0.6714490480700626 l -21.571995455603705 13.899282727458937" fill="#dfff1b" stroke="none" /><line stroke="#e1ed5e" stroke-width="0.3" x1="172.23445277983987" x2="176.4835382374775" y1="55.19839476539836" y2="52.563006222186495" /><path d="M 173.08426987136738 54.67131705675599 a86.0,86.0 0 0,1 12.851231095245387,41.99856678651699" fill="none" id="id63" stroke="none" /><text fill="#e1ed5e" style="font-size:6.75px; font-family:Arial;" text-anchor="middle"><textPath startOffset="22.20632615414155" xlink:href="#id63">March</textPath></text><path d="M 117.84615892207809 88.93136811851018 l 15.538028438488322 -9.637071915625452 a39.28396791897778,39.28396791897778 0 0,0 0.3514684263146061,0.5777216804609278 l -15.701612663089152 9.368182461957442" fill="#ffbd11" stroke="none" /><path d="M 118.03404312379186 89.2402003453031 l 4.75003899696182 -2.8340548821178735 a26.531250992995545,26.531250992995545 0 0,0 0.23062015204623137,0.39420459646765565 l -4.7981188234783785 2.7518708732963226" fill="#ff0000" stroke="none" /><path d="M 118.21658344932153 89.55222093294921 l 20.84893529994639 -11.957514997423353 a45.03456402880974,45.03456402880974 0 0,0 0.37988232835382424,0.6757682737321578 l -21.051675269592646 11.5968632137564" fill="#f4ff19" stroke="none" /><path d="M 119.34039704204932 91.81776055985345 l 27.037968256659138 -11.438810163517973 a50.35810118868571,50.35810118868571 0 0,0 0.33087265969662055,0.8012343900393162 l -27.230862603241956 10.971701203025354" fill="#b1ff20" stroke="none" /><path d="M 119.61058180528143 92.48833698450437 l 31.739524694983597 -12.157549232757054 a54.9882837344045,54.9882837344045 0 0,0 0.33096508334283065,0.8868218778718597 l -31.944094366828054 11.609404217855861" fill="#7bff26" stroke="none" /><path d="M 119.85752413597 93.16781622104841 l 30.32384851099137 -10.43322946473962 a53.06849022921822,53.06849022921822 0 0,0 0.28976079548231143,0.8663478970419228 l -30.49894660024545 9.909708464775385" fill="#91ff24" stroke="none" /><path d="M 120.53481517161879 95.60439243477599 l 26.066518094719843 -5.57970369728762 a47.65701519172546,47.65701519172546 0 0,0 0.16480409513394248,0.803643296856195 l -26.15870148576878 5.130184744268013" fill="#d3ff1c" stroke="none" /><path d="M 120.6074358757038 95.95851677861258 l 13.149847533093528 -2.5789180414948323 a34.400347324168635,34.400347324168635 0 0,0 0.10895781902459456,0.5820570260561516 l -13.192291076027983 2.352182937976118" fill="#ff770b" stroke="none" /><line stroke="#e1ed5e" stroke-width="0.3" x1="184.98032266829074" x2="189.97916517819016" y1="98.17113171792111" y2="98.06355123074" /><path d="M 185.9800911702706 98.14961562048488 a86.0,86.0 0 0,1 -9.607161424134198,41.387399972396054" fill="none" id="id64" stroke="none" /><text fill="#e1ed5e" style="font-size:6.75px; font-family:Arial;" text-anchor="middle"><textPath startOffset="21.466115282336823" xlink:href="#id64">April</textPath></text><line stroke="#e1ed5e" stroke-width="0.3" x1="174.80103733775053" x2="179.2010983576182" y1="140.37084112569926" y2="142.7455964860345" /><path d="M 175.68104954172406 140.8457921977663 a86.0,86.0 0 0,1 -30.038265399797805,32.042727171017184" fill="none" id="id65" stroke="none" /><text fill="#e1ed5e" style="font-size:6.75px; font-family:Arial;" text-anchor="middle"><textPath startOffset="22.206326154141568" xlink:href="#id65">May</textPath></text><line stroke="#e1ed5e" stroke-width="0.3" x1="143.8653032363475" x2="146.44561519142675" y1="172.8068346515853" y2="177.08958963109032" /><path d="M 144.38136562736335 173.6633856474863 a86.0,86.0 0 0,1 -40.68145358897372,12.25698825130547" fill="none" id="id66" stroke="none" /><text fill="#e1ed5e" style="font-size:6.75px; font-family:Arial;" text-anchor="middle"><textPath startOffset="21.466115282336833" xlink:href="#id66">June</textPath></text><line stroke="#e1ed5e" stroke-width="0.3" x1="102.19456741930631" x2="102.32365962044197" y1="184.97166512339345" y2="189.96999836594603" /><path d="M 102.22038585953345 185.97133177190398 a86.0,86.0 0 0,1 -42.740103519485714,-10.115201625700543" fill="none" id="id67" stroke="none" /><text fill="#e1ed5e" style="font-size:6.75px; font-family:Arial;" text-anchor="middle"><textPath startOffset="22.20632615414155" xlink:href="#id67">July</textPath></text><line stroke="#e1ed5e" stroke-width="0.3" x1="58.666819895761336" x2="56.23545636021788" y1="174.27360380694188" y2="178.64263932499728" /><path d="M 58.180547188652646 175.14741091055294 a86.0,86.0 0 0,1 -31.652253787137756,-30.449443065178592" fill="none" id="id68" stroke="none" /><text fill="#e1ed5e" style="font-size:6.75px; font-family:Arial;" text-anchor="middle"><textPath startOffset="22.20632615414155" xlink:href="#id68">August</textPath></text><line stroke="#e1ed5e" stroke-width="0.3" x1="26.63291911575756" x2="22.317208475507996" y1="142.92168965132927" y2="145.44649492493687" /><path d="M 25.769776987707644 143.4266507060508 a86.0,86.0 0 0,1 -11.730757126820373,-40.83630448921669" fill="none" id="id69" stroke="none" /><text fill="#e1ed5e" style="font-size:6.75px; font-family:Arial;" text-anchor="middle"><textPath startOffset="21.46611528233685" xlink:href="#id69">September</textPath></text><line stroke="#e1ed5e" stroke-width="0.3" x1="15.007084014347285" x2="10.007500721073583" y1="101.09737516637583" y2="101.16192664675087" /><path d="M 14.007167355692545 101.11028546245083 a86.0,86.0 0 0,1 10.666146001902534,-42.60595125391555" fill="none" id="id70" stroke="none" /><text fill="#e1ed5e" style="font-size:6.75px; font-family:Arial;" text-anchor="middle"><textPath startOffset="22.20632615414155" xlink:href="#id70">October</textPath></text><line stroke="#e1ed5e" stroke-width="0.3" x1="26.266209847984243" x2="21.928928074336255" y1="57.711370442889674" y2="55.22380399835377" /><path d="M 25.398753493254645 57.213857153982495 a86.0,86.0 0 0,1 29.58750427330803,-30.492523968695096" fill="none" id="id71" stroke="none" /><text fill="#e1ed5e" style="font-size:6.75px; font-family:Arial;" text-anchor="middle"><textPath startOffset="21.46611528233685" xlink:href="#id71">November</textPath></text><line stroke="#e1ed5e" stroke-width="0.3" x1="56.762969772571076" x2="54.21961505331055" y1="26.818313649435495" y2="22.513508569990535" /><path d="M 56.25429882871897 25.957352633546506 a86.0,86.0 0 0,1 42.265352541879196,-11.944610805530505" fill="none" id="id72" stroke="none" /><text fill="#e1ed5e" style="font-size:6.75px; font-family:Arial;" text-anchor="middle"><textPath startOffset="22.20632615414155" xlink:href="#id72">December</textPath></text></svg>