<?xml version="1.0" encoding="utf-8" ?>
<svg baseProfile="full" height="200mm" version="1.1" viewBox="0,0,200,200" width="200mm" xmlns="http://www.w3.org/2000/svg" xmlns:ev="http://www.w3.org/2001/xml-events" xmlns:xlink="http://www.w3.org/1999/xlink"><defs /><rect fill="#1a1a1a" height="200" width="200" x="0" y="0" /><text alignment-baseline="middle" fill="#e1ed5e" style="dominant-baseline: central; font-size:9.0px; font-family:Arial;" text-anchor="middle" x="100.0" y="100.0">2023</text><line stroke="#e1ed5e" stroke-width="0.3" x1="100.0" x2="100.0" y1="15.0" y2="10.0" /><path d="M 100.0 14.0 a86.0,86.0 0 0,1 42.46469731375804,11.215312516191453" fill="none" id="id37" stroke="none" /><text fill="#e1ed5e" style="font-size:6.75px; font-family:Arial;" text-anchor="middle"><textPath startOffset="22.20632615414155" xlink:href="#id37">January</textPath></text><path d="M 100.36148047927253 79.00311137660856 l 0.30129450993764656 -17.50093748003075 a38.503530816999856,38.503530816999856 0 0,0 0.6625785946770161,0.017112450303243845 l -0.6024997398095305 17.49315823758515" fill="#ffab0f" stroke="none" /><path d="M 101.08401301168833 79.027996857942 l 0.9853538457382928 -19.063280353689958 a40.088729136448364,40.088729136448364 0 0,0 0.6888349945818943,0.04155240799995364 l -1.3133508891597991 19.0434946763097" fill="#ffc112" stroke="none" /><path d="M 102.16513564639614 79.11191278185805 l 4.3344643664004225 -41.81662699979191 a63.04066929751857,63.04066929751857 0 0,0 1.0783955926048023,0.12117030994140503 l -5.05362666251495 41.7358207363799" fill="#31ff3c" stroke="none" /><path d="M 102.88285421437855 79.19881850522331 l 0.842772350883675 -6.081008377764922 a27.1391308933644,27.1391308933644 0 0,0 0.46218071674638456,0.06811342348370258 l -0.9473220480587153 6.065600470120251" fill="#ff0000" stroke="none" /><path d="M 104.66035177308747 79.52364482259891 l 13.981055319262426 -61.429065532203275 a84.0,84.0 0 0,0 1.407105252149906,0.3330163514365254 l -15.036384258374856 61.17930326862588" fill="#4dd2ff" stroke="none" /><path d="M 105.71112130821622 79.79150937346287 l 5.086313084865941 -17.997640875054422 a39.70255752202645,39.70255752202645 0 0,0 0.6560559924543576,0.19152073443726564 l -5.395359295043725 17.907421811698455" fill="#ffbc11" stroke="none" /><path d="M 106.40334571778207 80.00007090966166 l 5.293658692396847 -16.53398131891922 a38.360741937082025,38.360741937082025 0 0,0 0.627138174215521,0.20675759592908796 l -5.577479688854786 16.4404099987309" fill="#ffa90f" stroke="none" /><path d="M 107.08798089147638 80.2323363322302 l 13.882590112485959 -38.71714334206784 a62.130809581158516,62.130809581158516 0 0,0 1.0036127963803578,0.36963906274368746 l -14.546985234638894 38.47244101151783" fill="#2fff30" stroke="none" /><path d="M 107.76421540070413 80.48803036053334 l 10.684775266821985 -26.851523283582235 a49.89928589344812,49.89928589344812 0 0,0 0.7953378992646533,0.3244382988554109 l -11.145397035675026 26.663624098543245" fill="#bbff1f" stroke="none" /><path d="M 108.43124777332544 80.76684994638697 l 5.961015656971053 -13.59811877017597 a35.847307558963884,35.847307558963884 0 0,0 0.5630039541793925,0.2526034630689393 l -6.194201729617226 13.4934949765905" fill="#ff850c" stroke="none" /><path d="M 109.73455568895987 81.39251694778311 l 6.809044443447203 -13.01540441408407 a35.68890187505514,35.68890187505514 0 0,0 0.5418849117536368,0.2894561531958727 l -7.03207440172915 12.896269534386443" fill="#ff830c" stroke="none" /><path d="M 110.36928655335952 81.73862282372117 l 8.888111297393507 -15.652875629506225 a39.000306605934355,39.000306605934355 0 0,0 0.5809249210090622,0.3365092103575568 l -9.1562329508679 15.497562261758619" fill="#ffb210" stroke="none" /><line stroke="#e1ed5e" stroke-width="0.3" x1="143.23703022742887" x2="145.7803849466894" y1="26.81831364943548" y2="22.513508569990506" /><path d="M 143.74570117128098 25.957352633546492 a86.0,86.0 0 0,1 28.547481713284135,27.462654790039103" fill="none" id="id38" stroke="none" /><text fill="#e1ed5e" style="font-size:6.75px; font-family:Arial;" text-anchor="middle"><textPath startOffset="19.985693538727396" xlink:href="#id38">February</textPath></text><path d="M 110.99172775467656 82.1063720568725 l 12.614621736172921 -20.535565748008228 a45.100583854701426,45.100583854701426 0 0,0 0.6579978623766306,0.4120382010554062 l -12.966238750921816 20.315383205629878" fill="#f9ff18" stroke="none" /><path d="M 111.90073688211348 82.69761687909136 l 31.332434687977244 -45.55396816620929 a76.28910814224054,76.28910814224054 0 0,0 1.0755633004691796,0.7535008267010449 l -32.11192912803008 45.0078824967443" fill="#43ffdc" stroke="none" /><path d="M 112.48926042617603 83.11751280151076 l 9.292678660958122 -12.561474673431436 a36.625124724848945,36.625124724848945 0 0,0 0.5036021730180513,0.37930271594923154 l -9.507526987734556 12.399655367976356" fill="#ff900d" stroke="none" /><path d="M 113.06298171725822 83.55741782278167 l 9.821793126235649 -12.36284671457566 a36.789477480355835,36.789477480355835 0 0,0 0.4924474803960101,0.3981916150534996 l -10.03314400519615 12.191949002258031" fill="#ff930d" stroke="none" /><path d="M 114.16331599549186 84.49514656593476 l 18.403043683827484 -20.146164581039287 a48.286259621926646,48.286259621926646 0 0,0 0.6088486128057808,0.5658584308840672 l -18.747100180428113 19.826401564080577" fill="#d0ff1d" stroke="none" /><path d="M 114.68862486808459 84.99185889309783 l 16.544509875669014 -16.90439649650853 a44.65331748269742,44.65331748269742 0 0,0 0.5446943496585568,0.5423552590178286 l -16.833040025494892 16.61710538684058" fill="#ffff18" stroke="none" /><path d="M 115.4437574822437 85.77008943001954 l 45.849133366252865 -42.245487748885566 a83.344400434824,83.344400434824 0 0,0 0.9630499421216041,1.0634237996762703 l -46.56952694899051 41.45001116193974" fill="#4cd8ff" stroke="none" /><path d="M 116.15771136456269 86.58626213691792 l 16.2965762772962 -13.529020126501647 a42.18048120192315,42.18048120192315 0 0,0 0.4589668361705776,0.5626390722955521 l -16.527041605543186 13.246496884597995" fill="#ffde14" stroke="none" /><path d="M 116.60985879189232 87.15038557335679 l 12.397247304469287 -9.590680439253967 a36.673955850903106,36.673955850903106 0 0,0 0.38197507198815017,0.5026344201217503 l -12.560498316681551 9.375861243251183" fill="#ff910d" stroke="none" /><path d="M 117.04232023915458 87.72973835380427 l 25.99172915906972 -18.71372635552948 a53.02769955504257,53.02769955504257 0 0,0 0.5269624618080304,0.7453510312864823 l -26.310004240681632 18.263548823911204" fill="#95ff23" stroke="none" /><path d="M 117.45458315368197 88.32363383020206 l 13.47923903052617 -9.017031757498907 a37.21717443199659,37.21717443199659 0 0,0 0.3516196490371016,0.5355408487210163 l -13.632455314921197 8.783672844800217" fill="#ff990e" stroke="none" /><line stroke="#e1ed5e" stroke-width="0.3" x1="172.23445277983987" x2="176.4835382374775" y1="55.19839476539836" y2="52.563006222186495" /><path d="M 173.08426987136738 54.67131705675599 a86.0,86.0 0 0,1 12.851231095245387,41.99856678651699" fill="none" id="id39" stroke="none" /><text fill="#e1ed5e" style="font-size:6.75px; font-family:Arial;" text-anchor="middle"><textPath startOffset="22.20632615414155" xlink:href="#id39">March</textPath></text><path d="M 117.84615892207809 88.93136811851018 l 15.260561028182307 -9.464979722722916 a38.95746541264754,38.95746541264754 0 0,0 0.34854725189749164,0.5729200377902878 l -15.421224078366022 9.200891911725545" fill="#ffb210" stroke="none" /><line stroke="#e1ed5e" stroke-width="0.3" x1="184.98032266829074" x2="189.97916517819016" y1="98.17113171792111" y2="98.06355123074" /><path d="M 185.9800911702706 98.14961562048488 a86.0,86.0 0 0,1 -9.607161424134198,41.387399972396054" fill="none" id="id40" stroke="none" /><text fill="#e1ed5e" style="font-size:6.75px; font-family:Arial;" text-anchor="middle"><textPath startOffset="21.466115282336823" xlink:href="#id40">April</textPath></text><line stroke="#e1ed5e" stroke-width="0.3" x1="174.80103733775053" x2="179.2010983576182" y1="140.37084112569926" y2="142.7455964860345" /><path d="M 175.68104954172406 140.8457921977663 a86.0,86.0 0 0,1 -30.038265399797805,32.042727171017184" fill="none" id="id41" stroke="none" /><text fill="#e1ed5e" style="font-size:6.75px; font-family:Arial;" text-anchor="middle"><textPath startOffset="22.206326154141568" xlink:href="#id41">May</textPath></text><line stroke="#e1ed5e" stroke-width="0.3" x1="143.8653032363475" x2="146.44561519142675" y1="172.8068346515853" y2="177.08958963109032" /><path d="M 144.38136562736335 173.6633856474863 a86.0,86.0 0 0,1 -40.68145358897372,12.25698825130547" fill="none" id="id42" stroke="none" /><text fill="#e1ed5e" style="font-size:6.75px; font-family:Arial;" text-anchor="middle"><textPath startOffset="21.466115282336833" xlink:href="#id42">June</textPath></text><line stroke="#e1ed5e" stroke-width="0.3" x1="102.19456741930631" x2="102.32365962044197" y1="184.97166512339345" y2="189.96999836594603" /><path d="M 102.22038585953345 185.97133177190398 a86.0,86.0 0 0,1 -42.740103519485714,-10.115201625700543" fill="none" id="id43" stroke="none" /><text fill="#e1ed5e" style="font-size:6.75px; font-family:Arial;" text-anchor="middle"><textPath startOffset="22.20632615414155" xlink:href="#id43">July</textPath></text><line stroke="#e1ed5e" stroke-width="0.3" x1="58.666819895761336" x2="56.23545636021788" y1="174.27360380694188" y2="178.64263932499728" /><path d="M 58.180547188652646 175.14741091055294 a86.0,86.0 0 0,1 -31.652253787137756,-30.449443065178592" fill="none" id="id44" stroke="none" /><text fill="#e1ed5e" style="font-size:6.75px; font-family:Arial;" text-anchor="middle"><textPath startOffset="22.20632615414155" xlink:href="#id44">August</textPath></text><line stroke="#e1ed5e" stroke-width="0.3" x1="26.63291911575756" x2="22.317208475507996" y1="142.92168965132927" y2="145.44649492493687" /><path d="M 25.769776987707644 143.4266507060508 a86.0,86.0 0 0,1 -11.730757126820373,-40.83630448921669" fill="none" id="id45" stroke="none" /><text fill="#e1ed5e" style="font-size:6.75px; font-family:Arial;" text-anchor="middle"><textPath startOffset="21.46611528233685" xlink:href="#id45">September</textPath></text><line stroke="#e1ed5e" stroke-width="0.3" x1="15.007084014347285" x2="10.007500721073583" y1="101.09737516637583" y2="101.16192664675087" /><path d="M 14.007167355692545 101.11028546245083 a86.0,86.0 0 0,1 10.666146001902534,-42.60595125391555" fill="none" id="id46" stroke="none" /><text fill="#e1ed5e" style="font-size:6.75px; font-family:Arial;" text-anchor="middle"><textPath startOffset="22.20632615414155" xlink:href="#id46">October</textPath></text><line stroke="#e1ed5e" stroke-width="0.3" x1="26.266209847984243" x2="21.928928074336255" y1="57.711370442889674" y2="55.22380399835377" /><path d="M 25.398753493254645 57.213857153982495 a86.0,86.0 0 0,1 29.58750427330803,-30.492523968695096" fill="none" id="id47" stroke="none" /><text fill="#e1ed5e" style="font-size:6.75px; font-family:Arial;" text-anchor="middle"><textPath startOffset="21.46611528233685" xlink:href="#id47">November</textPath></text><line stroke="#e1ed5e" stroke-width="0.3" x1="56.762969772571076" x2="54.21961505331055" y1="26.818313649435495" y2="22.513508569990535" /><path d="M 56.25429882871897 25.957352633546506 a86.0,86.0 0 0,1 42.265352541879196,-11.944610805530505" fill="none" id="id48" stroke="none" /><text fill="#e1ed5e" style="font-size:6.75px; font-family:Arial;" text-anchor="middle"><textPath startOffset="22.20632615414155" xlink:href="#id48">December</textPath></text></svg>