<?xml version="1.0" encoding="utf-8" ?>
<svg baseProfile="full" height="200mm" version="1.1" viewBox="0,0,200,200" width="200mm" xmlns="http://www.w3.org/2000/svg" xmlns:ev="http://www.w3.org/2001/xml-events" xmlns:xlink="http://www.w3.org/1999/xlink"><defs /><rect fill="#1a1a1a" height="200" width="200" x="0" y="0" /><text alignment-baseline="middle" fill="#e1ed5e" style="dominant-baseline: central; font-size:9.0px; font-family:Arial;" text-anchor="middle" x="100.0" y="100.0">2025</text><line stroke="#e1ed5e" stroke-width="0.3" x1="100.0" x2="100.0" y1="15.0" y2="10.0" /><path d="M 100.0 14.0 a86.0,86.0 0 0,1 42.46469731375804,11.215312516191453" fill="none" id="id61" stroke="none" /><text fill="#e1ed5e" style="font-size:6.75px; font-family:Arial;" text-anchor="middle"><textPath startOffset="22.20632615414155" xlink:href="#id61">January</textPath></text><path d="M 101.80526077348638 79.07773832637324 l 0.778349624385728 -9.02076572766688 a30.05428309979486,30.05428309979486 0 0,0 0.5150372052824999,0.04890898856772243 l -0.933511956758472 9.006031194583981" fill="#ff6709" stroke="none" /><path d="M 102.88285421437855 79.19881850522331 l 1.3523335209437688 -9.757737616532774 a30.85100245380981,30.85100245380981 0 0,0 0.5253940696359068,0.07742942849901231 l -1.5200965710083316 9.733013703872793" fill="#ff720a" stroke="none" /><path d="M 103.95276090670814 79.375362276772 l 4.064143892638629 -21.205809665464486 a42.591749098856695,42.591749098856695 0 0,0 0.7188545981039575,0.14419546974670658 l -4.428564900209712 21.132710239640573" fill="#f4ff19" stroke="none" /><path d="M 104.66035177308747 79.52364482259891 l 2.5604721981526595 -11.250038774755525 a32.53773766000144,32.53773766000144 0 0,0 0.5450478756483788,0.128995222375387 l -2.753743760763562 11.20429764023927" fill="#ff890c" stroke="none" /><path d="M 105.36241919743992 79.69619591428918 l 2.2599181080505564 -8.55676007901708 a29.850162309526034,29.850162309526034 0 0,0 0.49565783830221705,0.1354820107913104 l -2.4068738355764845 8.516591527399475" fill="#ff6409" stroke="none" /><path d="M 106.74666289553966 80.11325718540242 l 3.148817888866563 -9.281585947816149 a30.801167879591915,30.801167879591915 0 0,0 0.5006187091987133,0.1746560377334006 l -3.3081186021285505 9.226009056910542" fill="#ff710a" stroke="none" /><path d="M 108.43124777332544 80.76684994638697 l 0.8052937323463446 -1.8370157784299657 a23.005772909767444,23.005772909767444 0 0,0 0.36131977543494453,0.16211365101900596 l -0.8367956262480694 1.8228817968944284" fill="#ff0200" stroke="none" /><line stroke="#e1ed5e" stroke-width="0.3" x1="143.23703022742887" x2="145.7803849466894" y1="26.81831364943548" y2="22.513508569990506" /><path d="M 143.74570117128098 25.957352633546492 a86.0,86.0 0 0,1 28.547481713284135,27.462654790039103" fill="none" id="id62" stroke="none" /><text fill="#e1ed5e" style="font-size:6.75px; font-family:Arial;" text-anchor="middle"><textPath startOffset="19.985693538727396" xlink:href="#id62">February</textPath></text><path d="M 111.90073688211348 82.69761687909136 l 5.277703557391248 -7.673209638456328 a30.313017824282273,30.313017824282273 0 0,0 0.4273686020483681,0.2993990170630062 l -5.409003299023266 7.581225778629386" fill="#ff6a09" stroke="none" /><path d="M 112.48926042617603 83.11751280151076 l 5.858326310308738 -7.919053295667584 a30.850451373296515,30.850451373296515 0 0,0 0.42419935677758785,0.31949816094993055 l -5.993771820844709 7.817038545211806" fill="#ff720a" stroke="none" /><path d="M 113.6212207817346 84.01681056812373 l 11.355976493059657 -13.325143640274549 a38.50764561969635,38.50764561969635 0 0,0 0.5007941342024685,0.4342837382730358 l -11.58366442590889 13.12769490858184" fill="#ffd714" stroke="none" /><path d="M 114.68862486808459 84.99185889309783 l 6.922955711526804 -7.073548213569253 a30.897595673366858,30.897595673366858 0 0,0 0.37689799392483897,0.37527947416113766 l -7.043689505618965 6.953332888757997" fill="#ff720a" stroke="none" /><path d="M 114.94478906791727 85.2469230424477 l 5.975777616316702 -5.899120198624859 a29.396995726895156,29.396995726895156 0 0,0 0.35239401734411946,0.363173011181757 l -6.07643589736393 5.795382991892987" fill="#ff5e08" stroke="none" /><path d="M 115.4437574822437 85.77008943001954 l 8.251563618113845 -7.603008042781416 a32.22025104186083,32.22025104186083 0 0,0 0.37230708648834915,0.4111107838162865 l -8.38121434521823 7.459844471695581" fill="#ff840c" stroke="none" /><path d="M 115.9244219780498 86.31012108654704 l 7.552664030272333 -6.492860851774678 a30.959918473294735,30.959918473294735 0 0,0 0.34393430414875215,0.4071097336482303 l -7.663308947908202 6.361892168497341" fill="#ff730a" stroke="none" /><path d="M 116.82858285166822 87.43820079747576 l 7.957710266117715 -5.940081785610795 a30.930242912397482,30.930242912397482 0 0,0 0.3148071102102267,0.42939654453940307 l -8.058779988841568 5.8022227973998985" fill="#ff730a" stroke="none" /><path d="M 117.2510076193507 88.02491185347247 l 6.231929962753202 -4.326002994934884 a28.58625421224775,28.58625421224775 0 0,0 0.27711723694227414,0.40663535074177704 l -6.30547166536421 4.218089620922701" fill="#ff5207" stroke="none" /><path d="M 117.45458315368197 88.32363383020206 l 7.310193749598774 -4.890205526018414 a29.7950578590123,29.7950578590123 0 0,0 0.2814971299492068,0.42873944132064556 l -7.393287514905905 4.763648020720094" fill="#ff6309" stroke="none" /><line stroke="#e1ed5e" stroke-width="0.3" x1="172.23445277983987" x2="176.4835382374775" y1="55.19839476539836" y2="52.563006222186495" /><path d="M 173.08426987136738 54.67131705675599 a86.0,86.0 0 0,1 12.851231095245387,41.99856678651699" fill="none" id="id63" stroke="none" /><text fill="#e1ed5e" style="font-size:6.75px; font-family:Arial;" text-anchor="middle"><textPath startOffset="22.20632615414155" xlink:href="#id63">March</textPath></text><path d="M 117.84615892207809 88.93136811851018 l 5.325289071979998 -3.3028768071400467 a27.26639441012878,27.26639441012878 0 0,0 0.2439487974933339,0.4009876810616218 l -5.381353667759555 3.210721352871343" fill="#ff4006" stroke="none" /><path d="M 118.03404312379186 89.2402003453031 l 1.6279627020981666 -0.9713047928107776 a22.895704502278758,22.895704502278758 0 0,0 0.19901854062272178,0.34018719873202774 l -1.6444409171912158 0.9431381817248546" fill="#ff0000" stroke="none" /><path d="M 118.21658344932153 89.55222093294921 l 7.145475872614904 -4.098153391590176 a29.237274225562956,29.237274225562956 0 0,0 0.2466266532617227,0.4387212968111103 l -7.21496016716906 3.9745485848442716" fill="#ff5b08" stroke="none" /><path d="M 119.34039704204932 91.81776055985345 l 9.266619472073588 -3.9203796673036835 a31.061789760078547,31.061789760078547 0 0,0 0.20408825492339167,0.4942158974321636 l -9.332729413883177 3.760289199418217" fill="#ff750a" stroke="none" /><path d="M 119.61058180528143 92.48833698450437 l 10.87796593223892 -4.166710360169651 a32.6486745189526,32.6486745189526 0 0,0 0.19650679289045317,0.5265405079156766 l -10.948077313630998 3.978846715224641" fill="#ff8a0c" stroke="none" /><path d="M 119.85752413597 93.16781622104841 l 10.392776647001032 -3.5757408395786805 a31.99071103187964,31.99071103187964 0 0,0 0.17467340481336238,0.5222512475413427 l -10.452787345586163 3.396316489115024" fill="#ff810b" stroke="none" /><path d="M 120.53481517161879 95.60439243477599 l 8.93367807273014 -1.9123105123459896 a30.136056884827738,30.136056884827738 0 0,0 0.10421436520580454,0.5081862557219866 l -8.965271733850942 1.758248600460591" fill="#ff6809" stroke="none" /><path d="M 120.6074358757038 95.95851677861258 l 4.506796962266272 -0.8838627190233541 a25.59264979779341,25.59264979779341 0 0,0 0.08106078926327213,0.43302997757044326 l -4.521343475439402 0.8061546639903481" fill="#ff2803" stroke="none" /><path d="M 120.87857604477298 97.74499172005257 l 9.088275960081992 -0.9815869385193456 a30.1411308296335,30.1411308296335 0 0,0 0.051272753734404763,0.5163096329361002 l -9.103825839498626 0.8250017748788104" fill="#ff6809" stroke="none" /><line stroke="#e1ed5e" stroke-width="0.3" x1="184.98032266829074" x2="189.97916517819016" y1="98.17113171792111" y2="98.06355123074" /><path d="M 185.9800911702706 98.14961562048488 a86.0,86.0 0 0,1 -9.607161424134198,41.387399972396054" fill="none" id="id64" stroke="none" /><text fill="#e1ed5e" style="font-size:6.75px; font-family:Arial;" text-anchor="middle"><textPath startOffset="21.466115282336823" xlink:href="#id64">April</textPath></text><path d="M 120.9904718944345 100.63252640178507 l 15.55790798303354 0.46882164466348425 a36.56497011057341,36.56497011057341 0 0,0 -0.02437293304321584,0.6289571031519956 l -15.54753291713912 -0.736555994829486" fill="#ffbe11" stroke="none" /><path d="M 120.9764740272857 100.99374915477107 l 27.19206161509309 1.2882092677411732 a48.22255862325423,48.22255862325423 0 0,0 -0.046416851396000436,0.8288040627526467 l -27.16585841280956 -1.7560850468292433" fill="#b1ff20" stroke="none" /><path d="M 120.89721153311464 102.0752229133903 l 8.434487249828262 0.8375969767930623 a29.475974508164143,29.475974508164143 0 0,0 -0.05448521387717125,0.5044654121078247 l -8.418819734450038 -0.9826587107856785" fill="#ff5f08" stroke="none" /><path d="M 120.76222939487914 103.15116336523771 l 8.785832135912294 1.3334595159922178 a29.886448143168302,29.886448143168302 0 0,0 -0.08157327504470172,0.5079568615711293 l -8.761577106506303 -1.484495607256552" fill="#ff6409" stroke="none" /><path d="M 120.64145759157962 103.86396538481128 l 10.423002545934878 1.9511277662737079 a31.60405024662224,31.60405024662224 0 0,0 -0.10469980447133277,0.5338620473354366 l -10.387872808487883 -2.1302535406770895" fill="#ff7c0b" stroke="none" /><path d="M 120.49622156327973 104.57218783832717 l 9.673969430331356 2.158017527335516 a30.91174677780223,30.91174677780223 0 0,0 -0.12031946131979102,0.5183330903127938 l -9.635389403081012 -2.324219274996875" fill="#ff730a" stroke="none" /><path d="M 120.32669344350535 105.2749913415812 l 9.686332912670867 2.5137055560966086 a31.0071854643472,31.0071854643472 0 0,0 -0.13851636741131879,0.5154709324909978 l -9.641628468917771 -2.6800674217631544" fill="#ff740a" stroke="none" /><path d="M 120.02730092923936 106.31721596034902 l 60.08190278771807 18.951647881047055 a84.0,84.0 0 0,0 -0.4468309959350121,1.375204400088819 l -59.746779540766816 -19.98305118111367" fill="#4dd2ff" stroke="none" /><path d="M 119.79798401119884 107.00284435728193 l 9.251533347164838 3.2724063247930544 a30.81323149774062,30.81323149774062 0 0,0 -0.1811755490476451,0.4985172991770212 l -9.193833537111967 -3.4311714209762068" fill="#ff710a" stroke="none" /><path d="M 119.54520255179757 107.68017299344265 l 7.053282554062595 2.771546114360922 a28.578275704371865,28.578275704371865 0 0,0 -0.18385001603295786,0.4563006623637262 l -7.004529923772245 -2.892546144567462" fill="#ff5207" stroke="none" /><path d="M 119.26925614724726 108.34839909993367 l 6.541420345828609 2.8340682852568126 a28.12896368249404,28.12896368249404 0 0,0 -0.1963119240447498,0.4426315638865204 l -6.491667337052586 -2.9462481856360205" fill="#ff4c07" stroke="none" /><path d="M 118.81262510543309 109.33194174019688 l 7.888973130137869 3.9132995649375855 a29.806237024574003,29.806237024574003 0 0,0 -0.23195118586769722,0.4576616949316716 l -7.820443274483903 -4.048515471571951" fill="#ff6309" stroke="none" /><line stroke="#e1ed5e" stroke-width="0.3" x1="174.80103733775053" x2="179.2010983576182" y1="140.37084112569926" y2="142.7455964860345" /><path d="M 175.68104954172406 140.8457921977663 a86.0,86.0 0 0,1 -30.038265399797805,32.042727171017184" fill="none" id="id65" stroke="none" /><text fill="#e1ed5e" style="font-size:6.75px; font-family:Arial;" text-anchor="middle"><textPath startOffset="22.206326154141568" xlink:href="#id65">May</textPath></text><path d="M 117.55443506779139 111.5257021239791 l 7.051191792098291 4.629595649243316 a29.435191851075288,29.435191851075288 0 0,0 -0.2817324835097991,0.42115183688181757 l -6.970456203177771 -4.75028440033094" fill="#ff5e08" stroke="none" /><path d="M 117.14729908036423 112.12312394758627 l 7.2644836177881364 5.135982926576726 a29.896687184295054,29.896687184295054 0 0,0 -0.3007040225880217,0.4176515870577149 l -7.174999802824512 -5.2602681190855725" fill="#ff6509" stroke="none" /><path d="M 115.32070863581623 114.36230785411682 l 6.614255738814591 6.200494990462495 a30.06611918657549,30.06611918657549 0 0,0 -0.3572047505957049,0.37452775291382323 l -6.5065444368399215 -6.313429859958826" fill="#ff6709" stroke="none" /><path d="M 114.0293411484842 115.62618273729858 l 7.918459632146976 8.81975111306062 a32.85284829238421,32.85284829238421 0 0,0 -0.4240483694500234,0.3741733827811467 l -7.765468909790365 -8.954747637614055" fill="#ff8d0d" stroke="none" /><path d="M 113.48314897796784 116.09983520530334 l 5.532665765534184 6.606394931679311 a29.61712506967562,29.61712506967562 0 0,0 -0.39366782445592197,0.3239618187581867 l -5.418127812533571 -6.700651869294676" fill="#ff6108" stroke="none" /><path d="M 112.92097659922987 116.55440617244103 l 2.948844639494256 3.7780713808059163 a25.792651465143145,25.792651465143145 0 0,0 -0.35234146292046503,0.27016040915667133 l -2.883374448080297 -3.828271131789959" fill="#ff2a04" stroke="none" /><line stroke="#e1ed5e" stroke-width="0.3" x1="143.8653032363475" x2="146.44561519142675" y1="172.8068346515853" y2="177.08958963109032" /><path d="M 144.38136562736335 173.6633856474863 a86.0,86.0 0 0,1 -40.68145358897372,12.25698825130547" fill="none" id="id66" stroke="none" /><text fill="#e1ed5e" style="font-size:6.75px; font-family:Arial;" text-anchor="middle"><textPath startOffset="21.466115282336833" xlink:href="#id66">June</textPath></text><path d="M 108.92500713936063 119.00905698771935 l 3.185194569768836 6.784033239221312 a28.494569463160943,28.494569463160943 0 0,0 -0.4457799054988929,0.20463569049088207 l -3.067946668502524 -6.837856000046269" fill="#ff5107" stroke="none" /><path d="M 108.2653958097858 119.30500536409082 l 3.3981728220146157 7.936915069382486 a29.63378244727475,29.63378244727475 0 0,0 -0.4706529623433001,0.1967329764305849 l -3.2610484001738542 -7.994233088833044" fill="#ff6108" stroke="none" /><path d="M 107.59598834532513 119.57807347666477 l 2.9318435066862705 7.556600271946501 a29.105424974526652,29.105424974526652 0 0,0 -0.46863861530071815,0.17719902449444766 l -2.8013346706252777 -7.60594754654758" fill="#ff5a08" stroke="none" /><path d="M 104.83641907484287 120.43548508189849 l 1.872900796648803 7.913631076528645 a29.132239187916674,29.132239187916674 0 0,0 -0.4889774912765847,0.11128968504051724 l -1.7364031559793562 -7.944697495146847" fill="#ff5a08" stroke="none" /><path d="M 104.13013068566511 120.58985236759428 l 1.2063717925991928 6.014099552892821 a27.133899765572032,27.133899765572032 0 0,0 -0.45873395998777666,0.08791745522768404 l -1.1026702180397117 -6.033974206468974" fill="#ff3e05" stroke="none" /><path d="M 103.41894727170886 120.7198165907248 l 1.3296063932240438 8.057802129158794 a29.16676363767057,29.16676363767057 0 0,0 -0.49606294980871973,0.07747483071029292 l -1.190707579806807 -8.079495267216194" fill="#ff5a08" stroke="none" /><path d="M 102.70371172650421 120.8252237178851 l 1.1174356695226648 8.607000361773956 a29.679234857007764,29.679234857007764 0 0,0 -0.5071934997617941,0.06141406945463845 l -0.9691147467094905 -8.624959959953946" fill="#ff6209" stroke="none" /><line stroke="#e1ed5e" stroke-width="0.3" x1="102.19456741930631" x2="102.32365962044197" y1="184.97166512339345" y2="189.96999836594603" /><path d="M 102.22038585953345 185.97133177190398 a86.0,86.0 0 0,1 -42.740103519485714,-10.115201625700543" fill="none" id="id67" stroke="none" /><text fill="#e1ed5e" style="font-size:6.75px; font-family:Arial;" text-anchor="middle"><textPath startOffset="22.20632615414155" xlink:href="#id67">July</textPath></text><line stroke="#e1ed5e" stroke-width="0.3" x1="58.666819895761336" x2="56.23545636021788" y1="174.27360380694188" y2="178.64263932499728" /><path d="M 58.180547188652646 175.14741091055294 a86.0,86.0 0 0,1 -31.652253787137756,-30.449443065178592" fill="none" id="id68" stroke="none" /><text fill="#e1ed5e" style="font-size:6.75px; font-family:Arial;" text-anchor="middle"><textPath startOffset="22.20632615414155" xlink:href="#id68">August</textPath></text><line stroke="#e1ed5e" stroke-width="0.3" x1="26.63291911575756" x2="22.317208475507996" y1="142.92168965132927" y2="145.44649492493687" /><path d="M 25.769776987707644 143.4266507060508 a86.0,86.0 0 0,1 -11.730757126820373,-40.83630448921669" fill="none" id="id69" stroke="none" /><text fill="#e1ed5e" style="font-size:6.75px; font-family:Arial;" text-anchor="middle"><textPath startOffset="21.46611528233685" xlink:href="#id69">September</textPath></text><line stroke="#e1ed5e" stroke-width="0.3" x1="15.007084014347285" x2="10.007500721073583" y1="101.09737516637583" y2="101.16192664675087" /><path d="M 14.007167355692545 101.11028546245083 a86.0,86.0 0 0,1 10.666146001902534,-42.60595125391555" fill="none" id="id70" stroke="none" /><text fill="#e1ed5e" style="font-size:6.75px; font-family:Arial;" text-anchor="middle"><textPath startOffset="22.20632615414155" xlink:href="#id70">October</textPath></text><line stroke="#e1ed5e" stroke-width="0.3" x1="26.266209847984243" x2="21.928928074336255" y1="57.711370442889674" y2="55.22380399835377" /><path d="M 25.398753493254645 57.213857153982495 a86.0,86.0 0 0,1 29.58750427330803,-30.492523968695096" fill="none" id="id71" stroke="none" /><text fill="#e1ed5e" style="font-size:6.75px; font-family:Arial;" text-anchor="middle"><textPath startOffset="21.46611528233685" xlink:href="#id71">November</textPath></text><line stroke="#e1ed5e" stroke-width="0.3" x1="56.762969772571076" x2="54.21961505331055" y1="26.818313649435495" y2="22.513508569990535" /><path d="M 56.25429882871897 25.957352633546506 a86.0,86.0 0 0,1 42.265352541879196,-11.944610805530505" fill="none" id="id72" stroke="none" /><text fill="#e1ed5e" style="font-size:6.75px; font-family:Arial;" text-anchor="middle"><textPath startOffset="22.20632615414155" xlink:href="#id72">December</textPath></text></svg>