<?xml version="1.0" encoding="utf-8" ?>
<svg baseProfile="full" height="200mm" version="1.1" viewBox="0,0,200,200" width="200mm" xmlns="http://www.w3.org/2000/svg" xmlns:ev="http://www.w3.org/2001/xml-events" xmlns:xlink="http://www.w3.org/1999/xlink"><defs /><rect fill="#1a1a1a" height="200" width="200" x="0" y="0" /><text alignment-baseline="middle" fill="#e1ed5e" style="dominant-baseline: central; font-size:9.0px; font-family:Arial;" text-anchor="middle" x="100.0" y="100.0">2023</text><line stroke="#e1ed5e" stroke-width="0.3" x1="100.0" x2="100.0" y1="15.0" y2="10.0" /><path d="M 100.0 14.0 a86.0,86.0 0 0,1 42.46469731375804,11.215312516191453" fill="none" id="id37" stroke="none" /><text fill="#e1ed5e" style="font-size:6.75px; font-family:Arial;" text-anchor="middle"><textPath startOffset="22.20632615414155" xlink:href="#id37">January</textPath></text><path d="M 100.36148047927253 79.00311137660856 l 0.2997401485493024 -17.410651130357753 a38.41323108844766,38.41323108844766 0 0,0 0.6610246938794972,0.017072317630097835 l -0.5993914776236674 17.402912020585298" fill="#ffaa0f" stroke="none" /><path d="M 101.08401301168833 79.027996857942 l 0.9791692226097559 -18.943628712717395 a39.968917764906806,39.968917764906806 0 0,0 0.6867763045898576,0.04142822219759548 l -1.3051075760392254 18.923967221139495" fill="#ffc011" stroke="none" /><path d="M 102.16513564639614 79.11191278185805 l 4.310591061831544 -41.58630994374508 a62.80911826431613,62.80911826431613 0 0,0 1.0744346001779908,0.1207252462900663 l -5.02579236551926 41.50594874398441" fill="#30ff39" stroke="none" /><path d="M 102.88285421437855 79.19881850522331 l 0.836977204777472 -6.039193607755866 a27.096916456150307,27.096916456150307 0 0,0 0.46146180283107474,0.06800747426040624 l -0.9408079880372024 6.023891649334491" fill="#ff0000" stroke="none" /><path d="M 104.66035177308747 79.52364482259891 l 13.894635897684523 -61.049361411867665 a83.61058565071932,83.61058565071932 0 0,0 1.4005820738625798,0.331472525891353 l -14.943441658509627 60.80114297383544" fill="#4cd6ff" stroke="none" /><path d="M 105.71112130821622 79.79150937346287 l 5.047547476716431 -17.860470889224434 a39.56001497613997,39.56001497613997 0 0,0 0.6537005801775377,0.1908331250040045 l -5.354238274617396 17.770939435301727" fill="#ffbb11" stroke="none" /><path d="M 106.40334571778207 80.00007090966166 l 5.258404183519915 -16.423868932562304 a38.245123521484125,38.245123521484125 0 0,0 0.6252479938279079,0.20613443317344157 l -5.540334999590241 16.330920775129627" fill="#ffa80f" stroke="none" /><path d="M 107.08798089147638 80.2323363322302 l 13.800517120925406 -38.48825004816411 a61.887646845654494,61.887646845654494 0 0,0 0.9996849345900506,0.368192398097728 l -14.460984381288032 38.24499438226006" fill="#31ff2f" stroke="none" /><path d="M 107.76421540070413 80.48803036053334 l 10.679764187987615 -26.838930122131774 a49.88573234681259,49.88573234681259 0 0,0 0.7951218711368819,0.3243501755579497 l -11.140169928712885 26.651119060390247" fill="#bbff1f" stroke="none" /><path d="M 108.43124777332544 80.76684994638697 l 5.9192507961623875 -13.502845821675667 a35.74328237780899,35.74328237780899 0 0,0 0.5613701748996489,0.25187043392964126 l -6.150803089528816 13.398955057229493" fill="#ff840c" stroke="none" /><path d="M 109.73455568895987 81.39251694778311 l 6.763450376584551 -12.928251918013745 a35.59054346664811,35.59054346664811 0 0,0 0.5403914800519144,0.28865841370162765 l -6.984986903164776 12.809914777810363" fill="#ff820b" stroke="none" /><path d="M 110.36928655335952 81.73862282372117 l 8.839543423265638 -15.567342621662815 a38.90194638110724,38.90194638110724 0 0,0 0.5794598067366162,0.3356605216043733 l -9.106199962467583 15.412877942668393" fill="#ffb110" stroke="none" /><line stroke="#e1ed5e" stroke-width="0.3" x1="143.23703022742887" x2="145.7803849466894" y1="26.81831364943548" y2="22.513508569990506" /><path d="M 143.74570117128098 25.957352633546492 a86.0,86.0 0 0,1 28.547481713284135,27.462654790039103" fill="none" id="id38" stroke="none" /><text fill="#e1ed5e" style="font-size:6.75px; font-family:Arial;" text-anchor="middle"><textPath startOffset="19.985693538727396" xlink:href="#id38">February</textPath></text><path d="M 110.99172775467656 82.1063720568725 l 12.543491069823363 -20.4197708786835 a44.96468674856129,44.96468674856129 0 0,0 0.6560151828257081,0.4107966473025099 l -12.893125405021333 20.200829890058046" fill="#faff18" stroke="none" /><path d="M 111.90073688211348 82.69761687909136 l 31.1403644624484 -45.274718850714024 a75.95018167272352,75.95018167272352 0 0,0 1.0707849398218063,0.7501532797026479 l -31.915080541853857 44.73198072824744" fill="#42ffd8" stroke="none" /><path d="M 112.48926042617603 83.11751280151076 l 9.239715506405236 -12.489881180444721 a36.536070112513414,36.536070112513414 0 0,0 0.5023776557876971,0.3783804349582332 l -9.453339315951316 12.32898415598064" fill="#ff8f0d" stroke="none" /><path d="M 113.06298171725822 83.55741782278167 l 9.754022419489843 -12.277542651613995 a36.68052954852327,36.68052954852327 0 0,0 0.49098915214022143,0.39701241502391743 l -9.963914970194555 12.107824139325949" fill="#ff920d" stroke="none" /><path d="M 114.16331599549186 84.49514656593476 l 18.28821102120315 -20.02045506470847 a48.11599681653004,48.11599681653004 0 0,0 0.6067017438271145,0.5638631501426306 l -18.630120648825113 19.702687328491198" fill="#d1ff1c" stroke="none" /><path d="M 114.68862486808459 84.99185889309783 l 16.46615078286388 -16.824332887260564 a44.54128923201459,44.54128923201459 0 0,0 0.5433277959826129,0.5409945737576586 l -16.753314379013815 16.538402462852787" fill="#fffe18" stroke="none" /><path d="M 115.4437574822437 85.77008943001954 l 45.57880412956731 -41.99640582261799 a82.97681411543743,82.97681411543743 0 0,0 0.9588024584062853,1.0587336220706762 l -46.294950228589634 41.205619413277766" fill="#4cdcff" stroke="none" /><path d="M 116.15771136456269 86.58626213691792 l 16.187595092011478 -13.438546604699335 a42.038839552351504,42.038839552351504 0 0,0 0.45742562995572494,0.5607497357104169 l -16.41651921404361 13.157912699380816" fill="#ffdd14" stroke="none" /><path d="M 116.60985879189232 87.15038557335679 l 12.330298194664545 -9.538887690262154 a36.5893114644869,36.5893114644869 0 0,0 0.38109346418652196,0.5014743275957125 l -12.49266759907518 9.325228586785407" fill="#ff900d" stroke="none" /><path d="M 117.04232023915458 87.72973835380427 l 25.861396892439238 -18.61988872133085 a52.8671006717431,52.8671006717431 0 0,0 0.5253665113214501,0.7430936725042772 l -26.17807602356457 18.171968548494778" fill="#97ff23" stroke="none" /><path d="M 117.45458315368197 88.32363383020206 l 13.38156016880777 -8.95168879591506 a37.09965480531598,37.09965480531598 0 0,0 0.35050934954448665,0.533849786420494 l -13.53366615371018 8.720020945516893" fill="#ff980e" stroke="none" /><line stroke="#e1ed5e" stroke-width="0.3" x1="172.23445277983987" x2="176.4835382374775" y1="55.19839476539836" y2="52.563006222186495" /><path d="M 173.08426987136738 54.67131705675599 a86.0,86.0 0 0,1 12.851231095245387,41.99856678651699" fill="none" id="id39" stroke="none" /><text fill="#e1ed5e" style="font-size:6.75px; font-family:Arial;" text-anchor="middle"><textPath startOffset="22.20632615414155" xlink:href="#id39">March</textPath></text><path d="M 117.84615892207809 88.93136811851018 l 15.186117824322869 -9.418808195101953 a38.86986632267674,38.86986632267674 0 0,0 0.3477635145122528,0.5716317795988253 l -15.345997137121344 9.156008642296046" fill="#ffb110" stroke="none" /><path d="M 118.3937258080291 89.86733742301442 l 48.0086110896825 -26.446792892233788 a75.81112654420718,75.81112654420718 0 0,0 0.6198169722268775,1.1484267156524632 l -48.45673616112784 25.616485193248863" fill="#42ffd6" stroke="none" /><path d="M 118.73160827565052 90.50648371742162 l 12.902281441486991 -6.539108502839537 a35.46474356520875,35.46474356520875 0 0,0 0.27128837842503983,0.5469008166636391 l -13.012929832865439 6.316048097676948" fill="#ff800b" stroke="none" /><path d="M 119.04729006885535 91.15688171328212 l 16.003772771662742 -7.430099249917778 a38.64446422509458,38.64446422509458 0 0,0 0.2749234960677122,0.6057574810948289 l -16.129298584693803 7.153519759980886" fill="#ffae10" stroke="none" /><path d="M 119.47837535516314 92.15188598940014 l 39.57463783905362 -15.945183518951167 a63.66615564525689,63.66615564525689 0 0,0 0.40081316335897865,1.020025781966979 l -39.8432445522943 15.261608732088405" fill="#31ff44" stroke="none" /><path d="M 119.7369772167798 92.82701384747503 l 14.267168735081803 -5.1851001624237565 a36.1801636160373,36.1801636160373 0 0,0 0.20768605998620557,0.5871564588866167 l -14.354307875877819 4.938746077110525" fill="#ff8a0c" stroke="none" /><path d="M 119.97218684219823 93.5106431181261 l 13.652273497151016 -4.435892557582867 a35.354849857223556,35.354849857223556 0 0,0 0.18307838305578478,0.5804085049665124 l -13.726607363975008 4.2002338861899355" fill="#ff7e0b" stroke="none" /><path d="M 120.28053869075195 94.5502522615342 l 41.1927499292272 -11.069237321115237 a63.654081417878615,63.654081417878615 0 0,0 0.27523924210332296,1.0606090769771537 l -41.37718550320082 10.358531818589233" fill="#31ff44" stroke="none" /><path d="M 120.37134235888165 94.90015583598534 l 14.039755373722466 -3.514769093046775 a35.47302085714678,35.47302085714678 0 0,0 0.14318803068332758,0.593606828897871 l -14.098176204666613 3.272577032489498" fill="#ff800b" stroke="none" /><path d="M 120.53481517161879 95.60439243477599 l 17.246141736071767 -3.6916461362056037 a38.63682669801,38.63682669801 0 0,0 0.13361112182951101,0.6515352810647982 l -17.307132153816273 3.394235198977394" fill="#ffae10" stroke="none" /><path d="M 120.67395015179393 96.31383870115 l 14.920049401455845 -2.6602419120084906 a36.155354208077405,36.155354208077405 0 0,0 0.10396926365251265,0.6136324794396935 l -14.963630526628581 2.4030236442529596" fill="#ff8a0c" stroke="none" /><path d="M 120.87857604477298 97.74499172005257 l 16.775139608299714 -1.81181315396556 a37.87269912559424,37.87269912559424 0 0,0 0.06442484147325576,0.6487493616069047 l -16.8038415754552 1.5227882616542205" fill="#ffa30f" stroke="none" /><line stroke="#e1ed5e" stroke-width="0.3" x1="184.98032266829074" x2="189.97916517819016" y1="98.17113171792111" y2="98.06355123074" /><path d="M 185.9800911702706 98.14961562048488 a86.0,86.0 0 0,1 -9.607161424134198,41.387399972396054" fill="none" id="id40" stroke="none" /><text fill="#e1ed5e" style="font-size:6.75px; font-family:Arial;" text-anchor="middle"><textPath startOffset="21.466115282336823" xlink:href="#id40">April</textPath></text><path d="M 120.9904718944345 100.63252640178507 l 18.69668256684801 0.5634054064530897 a39.70516946347985,39.70516946347985 0 0,0 -0.0264660803462026,0.6829719343511241 l -18.684214353650606 -0.88515458781822" fill="#ffbd11" stroke="none" /><path d="M 120.95626037817324 101.35467743843564 l 14.763624638921941 0.9543663252395365 a35.79443907560318,35.79443907560318 0 0,0 -0.045038679097959035,0.6145169928945077 l -14.745009401159646 -1.2083564546308143" fill="#ff850c" stroke="none" /><path d="M 120.89721153311464 102.0752229133903 l 41.36629789025711 4.107930337402084 a62.56976897701547,62.56976897701547 0 0,0 -0.11565782987136304,1.0708478623408682 l -41.289457758884694 -4.8193745216277435" fill="#30ff36" stroke="none" /><path d="M 120.76222939487914 103.15116336523771 l 17.51166067402994 2.6578120552934075 a38.712205522848635,38.712205522848635 0 0,0 -0.10566265263690118,0.657961438832862 l -17.46331626703175 -2.9588527238194744" fill="#ffaf10" stroke="none" /><path d="M 120.64145759157962 103.86396538481128 l 18.591660274559924 3.480254794427676 a39.91459767477983,39.91459767477983 0 0,0 -0.13223148740399207,0.6742455054635175 l -18.52899885418027 -3.7997640269591386" fill="#ffbf11" stroke="none" /><path d="M 120.49622156327973 104.57218783832717 l 30.1766939431626 6.731656008980569 a51.91840956392406,51.91840956392406 0 0,0 -0.20208482931147267,0.8705761556224613 l -30.056348547920578 -7.250100821951595" fill="#a2ff22" stroke="none" /><path d="M 120.32669344350535 105.2749913415812 l 15.175042551911506 3.9380835988863723 a36.67770451578109,36.67770451578109 0 0,0 -0.16384790552349085,0.6097390093698721 l -15.105006570046237 -4.198713541431792" fill="#ff920d" stroke="none" /><path d="M 120.02730092923936 106.31721596034902 l 13.861004647658925 4.3721797608195505 a35.5342150012769,35.5342150012769 0 0,0 -0.18902129379511193,0.581747724088787 l -13.783691102847566 -4.610126384886133" fill="#ff810b" stroke="none" /><path d="M 119.79798401119884 107.00284435728193 l 33.95156118185952 12.009177222731775 a57.01289830397617,57.01289830397617 0 0,0 -0.335224273824634,0.922393228468634 l -33.73981264702966 -12.59181824820654" fill="#67ff28" stroke="none" /><path d="M 119.54520255179757 107.68017299344265 l 19.040674110906696 7.481921494340254 a41.45791826763474,41.45791826763474 0 0,0 -0.26670744648991174,0.6619460096694713 l -18.90906405015939 -7.8085668718525385" fill="#ffd513" stroke="none" /><path d="M 119.26925614724726 108.34839909993367 l 13.72126641389047 5.944734311710189 a35.95369579862393,35.95369579862393 0 0,0 -0.250920697911815,0.5657599326614831 l -13.616904631247383 -6.1800425808643595" fill="#ff870c" stroke="none" /><path d="M 118.64920377521936 109.65438752849418 l 11.75199562751851 6.083815769764591 a34.233375062683386,34.233375062683386 0 0,0 -0.2754115643731834,0.5209748882361132 l -11.645531554920433 -6.285205673086838" fill="#ff6e0a" stroke="none" /><line stroke="#e1ed5e" stroke-width="0.3" x1="174.80103733775053" x2="179.2010983576182" y1="140.37084112569926" y2="142.7455964860345" /><path d="M 175.68104954172406 140.8457921977663 a86.0,86.0 0 0,1 -30.038265399797805,32.042727171017184" fill="none" id="id41" stroke="none" /><text fill="#e1ed5e" style="font-size:6.75px; font-family:Arial;" text-anchor="middle"><textPath startOffset="22.206326154141568" xlink:href="#id41">May</textPath></text><path d="M 117.94076556474637 110.91462005526583 l 6.029810175958322 3.668354443317819 a28.058005035411927,28.058005035411927 0 0,0 -0.2545734333152535,0.4104534324500082 l -5.965772102975106 -3.771604207133101" fill="#ff0f01" stroke="none" /><path d="M 117.75023020441432 111.22182372390056 l 12.15123307134287 7.682097301517198 a35.375920287205076,35.375920287205076 0 0,0 -0.3298301497998045,0.5119037170562901 l -12.017198058166015 -7.8901226184949405" fill="#ff7f0b" stroke="none" /><path d="M 117.35343817320211 111.8261652097733 l 19.48810843967744 13.280918036721006 a44.583238845729575,44.583238845729575 0 0,0 -0.43763563863964305,0.6304467778686902 l -19.25661189387566 -13.614406076776715" fill="#ffff18" stroke="none" /><path d="M 116.93607887273984 112.41649034213515 l 14.332436307008091 10.507659908910409 a38.77159664340171,38.77159664340171 0 0,0 -0.39923433077990506,0.534839628021588 l -14.149440709533094 -10.752812416441312" fill="#ffaf10" stroke="none" /><path d="M 116.498646956653 112.99209946851258 l 11.433189052204217 9.003230980019708 a35.55252486625702,35.55252486625702 0 0,0 -0.38275185968976727,0.4775417957518212 l -11.276519280459596 -9.19870060934978" fill="#ff810b" stroke="none" /><path d="M 116.0416608686014 113.55231037782055 l 33.38844770915451 28.207216827140435 a64.70852916262751,64.70852916262751 0 0,0 -0.7261452186586131,0.8446709391928722 l -32.89795998092512 -28.777764865494834" fill="#33ff52" stroke="none" /><path d="M 115.56566222782051 114.09645910891815 l 11.07516751910993 10.029810731631912 a35.941768265125326,35.941768265125326 0 0,0 -0.419241201882277,0.4550035235002273 l -10.900879909231932 -10.218965509933474" fill="#ff870c" stroke="none" /><path d="M 115.07121518719521 114.62390073753431 l 12.608373686878789 12.234156500884607 a38.56831444151984,38.56831444151984 0 0,0 -0.4664183346776161,0.47247931053446623 l -12.395914727145637 -12.449376305399737" fill="#ffad10" stroke="none" /><path d="M 114.29624159901734 115.38237550388516 l 29.065016548313363 31.273184317444883 a63.69411252510831,63.69411252510831 0 0,0 -0.8095232061552224,0.7394802552128348 l -28.522393792691275 -31.768857339244303" fill="#32ff44" stroke="none" /><path d="M 113.75828350139079 115.86535959552629 l 9.199901590747997 10.608863159849596 a35.04229920005486,35.04229920005486 0 0,0 -0.45911172809769585,0.391264974901086 l -9.015924386073253 -10.765652524973628" fill="#ff7a0b" stroke="none" /><path d="M 112.92097659922987 116.55440617244103 l 9.63120915887165 12.339543154748721 a36.65325893000685,36.65325893000685 0 0,0 -0.5007031901956319,0.3839178551626706 l -9.417377240182525 -12.503500351738763" fill="#ff910d" stroke="none" /><path d="M 112.34349029814194 116.9893568818739 l 25.54118044309495 35.1544189893678 a64.45325158036806,64.45325158036806 0 0,0 -0.9031824081610957,0.6443966672426865 l -24.93227070708497 -35.5888599184547" fill="#33ff4e" stroke="none" /><path d="M 111.7513745106137 117.40417183066458 l 10.190445174988044 15.092384188443027 a39.21058025862993,39.21058025862993 0 0,0 -0.5626257099529752,0.37287764151457525 l -9.929144766295105 -15.265559851048922" fill="#ffb610" stroke="none" /><path d="M 111.1453310114006 117.79835938074945 l 12.15997353675104 19.418676649990335 a43.911786470097994,43.911786470097994 0 0,0 -0.6440830286152954,0.395648402014863 l -11.823911308203437 -19.625113518833576" fill="#fff617" stroke="none" /><line stroke="#e1ed5e" stroke-width="0.3" x1="143.8653032363475" x2="146.44561519142675" y1="172.8068346515853" y2="177.08958963109032" /><path d="M 144.38136562736335 173.6633856474863 a86.0,86.0 0 0,1 -40.68145358897372,12.25698825130547" fill="none" id="id42" stroke="none" /><text fill="#e1ed5e" style="font-size:6.75px; font-family:Arial;" text-anchor="middle"><textPath startOffset="21.466115282336833" xlink:href="#id42">June</textPath></text><path d="M 109.89434966115114 118.52300852407294 l 20.074120941908575 37.58034899253633 a63.60578554599362,63.60578554599362 0 0,0 -0.9701672267776422,0.5075456401152326 l -19.424262812604436 -37.92032405159628" fill="#31ff43" stroke="none" /><path d="M 109.2508944713604 118.85261126421891 l 7.757961772676963 15.81012927514688 a38.61096699682256,38.61096699682256 0 0,0 -0.599182143834551,0.2876438412795007 l -7.484666960842179 -15.94132739292594" fill="#ffad10" stroke="none" /><path d="M 108.59647513512805 119.15986991738527 l 6.6175155408405955 14.749154152807618 a37.165675369638876,37.165675369638876 0 0,0 -0.5859422251080465,0.2568598522326584 l -6.362652641074796 -14.860878558334731" fill="#ff990e" stroke="none" /><path d="M 107.59598834532513 119.57807347666477 l 15.80423586037254 40.73419769098791 a64.69266222901473,64.69266222901473 0 0,0 -1.041643599901279,0.3938604795828666 l -15.100722039710986 -41.00020642067741" fill="#33ff51" stroke="none" /><path d="M 106.91757812671514 119.82793768551818 l 4.8180000143792325 13.809891598477794 a35.626217217731515,35.626217217731515 0 0,0 -0.5807586883134472,0.19702487884695236 l -4.579571593128558 -13.890779464222868" fill="#ff820c" stroke="none" /><path d="M 106.2309692047433 120.05430185196036 l 5.190950636760255 16.707014197561673 a38.4948647297088,38.4948647297088 0 0,0 -0.6344779065947495,0.19116298855536693 l -4.90259775572526 -16.793892555222765" fill="#ffac0f" stroke="none" /><path d="M 105.18746579009965 120.34920634021253 l 3.7062502948331426 14.538746865949795 a36.00371459606306,36.00371459606306 0 0,0 -0.6018564640948021,0.14792167577948165 l -3.4554405459951294 -14.600389800043308" fill="#ff880c" stroke="none" /><path d="M 104.48393922423573 120.51570834832081 l 4.095217581761021 18.737160636838258 a40.179468078459465,40.179468078459465 0 0,0 -0.6769447086373667,0.14186034550507723 l -3.772081411694276 -18.804876963069876" fill="#ffc312" stroke="none" /><path d="M 103.7750983002368 120.6578951692458 l 3.7261711680542855 20.390158679444987 a41.72782966319882,41.72782966319882 0 0,0 -0.7076861644184459,0.12304031085612356 l -3.3746360321637896 -20.451277568822118" fill="#ffd914" stroke="none" /><path d="M 102.70371172650421 120.8252237178851 l 2.204885016129425 16.983032356218352 a38.12556293809671,38.12556293809671 0 0,0 -0.651534239010074,0.07889172283444518 l -1.9122233540679705 -17.018469607778147" fill="#ffa60f" stroke="none" /><path d="M 101.98527174616119 120.90594882070398 l 1.648351612867767 17.35800377140936 a38.43609354092554,38.43609354092554 0 0,0 -0.6591894044086648,0.05687763553673794 l -1.3493178907175605 -17.383805659224763" fill="#ffab0f" stroke="none" /><path d="M 101.26447882468166 120.96189622390904 l 1.4039299732153703 23.27364747415588 a44.31595346797928,44.31595346797928 0 0,0 -0.7618375219796931,0.039378297868083924 l -1.0031043828221975 -23.294365578786167" fill="#fffb17" stroke="none" /><line stroke="#e1ed5e" stroke-width="0.3" x1="102.19456741930631" x2="102.32365962044197" y1="184.97166512339345" y2="189.96999836594603" /><path d="M 102.22038585953345 185.97133177190398 a86.0,86.0 0 0,1 -42.740103519485714,-10.115201625700543" fill="none" id="id43" stroke="none" /><text fill="#e1ed5e" style="font-size:6.75px; font-family:Arial;" text-anchor="middle"><textPath startOffset="22.20632615414155" xlink:href="#id43">July</textPath></text><path d="M 100.54218724476979 120.99299961872073 l 1.160580453242753 44.93662521102742 a65.95160989714155,65.95160989714155 0 0,0 -1.1351223968238395,0.019542161479093427 l -0.38689836652624543 -44.94994484978567" fill="#35ff61" stroke="none" /><path d="M 99.81925306533755 120.99922214144158 l -0.07590966069891207 8.819202553420059 a29.819529236577104,29.819529236577104 0 0,0 -0.5132371378344325,-0.008835842771398277 l 0.22770648842601252 -8.816589233369502" fill="#ff2b04" stroke="none" /><path d="M 99.09653310690486 120.98055641714683 l -0.6766424950622254 15.713177926484473 a36.7277400034297,36.7277400034297 0 0,0 -0.6313882076878728,-0.03263555836436219 l 0.9470187711635872 -15.69920256135791" fill="#ff920d" stroke="none" /><path d="M 98.01472825383883 120.90594882070398 l -4.15877182089507 43.79404029334312 a64.99105986758255,64.99105986758255 0 0,0 -1.1127936495446233,-0.1153456117140126 l 4.911998067045286 -43.71596531317335" fill="#33ff55" stroke="none" /><path d="M 97.2962882734958 120.8252237178851 l -2.233100378636381 17.200359976884684 a38.34471448699812,38.34471448699812 0 0,0 -0.6538164731856261,-0.09061300559425187 l 2.5288454430088376 -17.15937240579783" fill="#ffa90f" stroke="none" /><path d="M 96.58105272829116 120.7198165907248 l -3.1771671328179636 19.254558505420913 a40.5149279842006,40.5149279842006 0 0,0 -0.6871158701099461,-0.11946390151908412 l 3.5081319743999595 -19.197016025380826" fill="#ffc812" stroke="none" /><path d="M 95.86986931433489 120.58985236759428 l -2.931358199553687 14.61363747516087 a35.90473955322658,35.90473955322658 0 0,0 -0.6049239728135994,-0.12676770006871194 l 3.1824736337966733 -14.561013794365616" fill="#ff860c" stroke="none" /><path d="M 94.81253420990036 120.34920634021253 l -3.7404844061055176 14.673039220317726 a36.14230179177858,36.14230179177858 0 0,0 -0.6015276140484785,-0.15886891006961068 l 3.9925024629654855 -14.606478960944534" fill="#ff8a0c" stroke="none" /><path d="M 94.11515582081647 120.15858648285463 l -4.720463376919426 16.169989608115756 a37.84492025565598,37.84492025565598 0 0,0 -0.6237654281331325,-0.18793540667068254 l 4.998103779492805 -16.086338832339347" fill="#ffa20f" stroke="none" /><path d="M 93.08242187328487 119.8279376855182 l -13.719870941677195 39.325431690369115 a62.650023244773415,62.650023244773415 0 0,0 -1.015170354109016,-0.36400397095231457 l 14.394760856415939 -39.08344017837684" fill="#30ff37" stroke="none" /><path d="M 92.40401165467489 119.57807347666478 l -5.366429802149793 13.831558475009144 a35.83612411207856,35.83612411207856 0 0,0 -0.5731713716950175,-0.22807671770643548 l 5.603722249886669 -13.737134912896643" fill="#ff850c" stroke="none" /><path d="M 91.7346041902142 119.30500536409082 l -6.762406333689521 15.794560061053048 a38.18133484174429,38.18133484174429 0 0,0 -0.6019547895272143,-0.2638792899081263 l 7.033281797874478 -15.67581621785047" fill="#ffa70f" stroke="none" /><path d="M 90.7491055286396 118.85261126421891 l -19.876517122447833 40.50681280131336 a66.12070274540952,66.12070274540952 0 0,0 -1.0174593673070884,-0.5101752488777591 l 20.570830397437682 -40.1586697115263" fill="#35ff63" stroke="none" /><line stroke="#e1ed5e" stroke-width="0.3" x1="58.666819895761336" x2="56.23545636021788" y1="174.27360380694188" y2="178.64263932499728" /><path d="M 58.180547188652646 175.14741091055294 a86.0,86.0 0 0,1 -31.652253787137756,-30.449443065178592" fill="none" id="id44" stroke="none" /><text fill="#e1ed5e" style="font-size:6.75px; font-family:Arial;" text-anchor="middle"><textPath startOffset="22.20632615414155" xlink:href="#id44">August</textPath></text><path d="M 89.7882731507175 118.34994917583269 l -8.431645239522677 15.151233860584895 a38.33933473185461,38.33933473185461 0 0,0 -0.5739055784942421,-0.3258785654845675 l 8.691199584938127 -15.003852129305693" fill="#ffa90f" stroke="none" /><path d="M 89.1626897886671 117.98757091392108 l -9.019802326382422 14.970904293732433 a38.47812373737839,38.47812373737839 0 0,0 -0.5643839266043292,-0.34669070409127345 l 9.27616545291906 -14.813425122812781" fill="#ffab0f" stroke="none" /><path d="M 88.54995079064634 117.60387380957326 l -23.970072502056006 36.85277886734382 a64.96238944824502,64.96238944824502 0 0,0 -0.932133884336398,-0.6177675108309993 l 24.600881085132364 -36.434713335421506" fill="#33ff55" stroke="none" /><path d="M 88.24862548938628 117.40417183066458 l -16.392030954684095 24.27713652826095 a50.29296906821061,50.29296906821061 0 0,0 -0.7133054566114506,-0.49061799732376243 l 16.807493295918437 -23.991377741572084" fill="#b6ff1f" stroke="none" /><path d="M 87.95078237400918 117.19931262002967 l -8.919128472391453 12.731355981484636 a36.5447186476407,36.5447186476407 0 0,0 -0.5121005718786591,-0.3653701609219394 l 9.136956372118998 -12.575941558718478" fill="#ff900d" stroke="none" /><path d="M 87.36589467227662 116.77436683061367 l -9.17471929243021 12.181322142488815 a36.249920761563956,36.249920761563956 0 0,0 -0.49519337432762883,-0.37969316330568614 l 9.383041395251325 -12.021589637355762" fill="#ff8b0c" stroke="none" /><path d="M 86.79598089348748 116.32954008644616 l -11.3948624036917 14.092138226977156 a39.12267223693287,39.12267223693287 0 0,0 -0.5200145939277784,-0.4279366083892448 l 11.635747126164167 -13.89390649973073" fill="#ffb410" stroke="none" /><path d="M 86.24171649860922 115.8653595955263 l -28.79571049741731 33.2057630447879 a64.95242476175429,64.95242476175429 0 0,0 -0.8383738775682384,-0.7397674708946753 l 29.363026727892137 -32.70517243212094" fill="#33ff55" stroke="none" /><path d="M 85.70375840098266 115.38237550388516 l -11.473427025637182 12.345102144671815 a37.85351816906495,37.85351816906495 0 0,0 -0.4734648935833093,-0.4476906090716345 l 11.684227753611308 -12.145776898854251" fill="#ffa20f" stroke="none" /><path d="M 85.18274418774928 114.88116024355367 l -11.055404755803604 11.103084931046261 a36.66845459197146,36.66845459197146 0 0,0 -0.4434427527788873,-0.44920516737252414 l 11.244888133638025 -10.911139269693074" fill="#ff910d" stroke="none" /><path d="M 84.19399662182784 113.82643327865904 l -7.87821575958018 6.891534940777168 a31.467069188385548,31.467069188385548 0 0,0 -0.3531166931475052,-0.4107544898478608 l 7.995674962298463 -6.754903351767777" fill="#ff4406" stroke="none" /><path d="M 83.72743513129214 113.27417163493432 l -11.84822133585411 9.665060477543943 a36.29031532892538,36.29031532892538 0 0,0 -0.3906947743690922,-0.4874518030932417 l 12.012834022278062 -9.45968084087244" fill="#ff8c0c" stroke="none" /><path d="M 83.06392112726016 112.41649034213515 l -35.26542076916409 25.854435355544673 a64.7275854533523,64.7275854533523 0 0,0 -0.6510368589753659,-0.9042332558239676 l 35.70523742051506 -25.243568494269567" fill="#33ff52" stroke="none" /><path d="M 82.6465618267979 111.8261652097733 l -13.213453807650087 9.004814271461669 a36.99006071253084,36.99006071253084 0 0,0 -0.3540422539946307,-0.5292451326381452 l 13.366499167055448 -8.776032224617703" fill="#ff960d" stroke="none" /><path d="M 82.24976979558568 111.22182372390057 l -14.786912572714643 9.348392916643183 a38.49414855193161,38.49414855193161 0 0,0 -0.34926173642940583,-0.5631211264820901 l 14.945638948812004 -9.092475458795828" fill="#ffac0f" stroke="none" /><line stroke="#e1ed5e" stroke-width="0.3" x1="26.63291911575756" x2="22.317208475507996" y1="142.92168965132927" y2="145.44649492493687" /><path d="M 25.769776987707644 143.4266507060508 a86.0,86.0 0 0,1 -11.730757126820373,-40.83630448921669" fill="none" id="id45" stroke="none" /><text fill="#e1ed5e" style="font-size:6.75px; font-family:Arial;" text-anchor="middle"><textPath startOffset="21.46611528233685" xlink:href="#id45">September</textPath></text><path d="M 81.51974371655577 109.97397251340807 l -37.21898363902164 20.08744435677277 a63.293713054166844,63.293713054166844 0 0,0 -0.5092054316969178,-0.9632247776932843 l 37.55924157894344 -19.44380456399336" fill="#31ff3f" stroke="none" /><path d="M 81.18737489456691 109.33194174019688 l -15.301143577217195 7.5900827035425795 a38.08023273311085,38.08023273311085 0 0,0 -0.28623051067976796,-0.5897196306771388 l 15.429527344511682 -7.325574116900156" fill="#ffa60f" stroke="none" /><path d="M 80.58989483394504 108.01547362559985 l -16.458810394020137 6.7967257000097145 a38.80696267833113,38.80696267833113 0 0,0 -0.2496532955454122,-0.6196190056259565 l 16.573366303822937 -6.512407326540953" fill="#ffb010" stroke="none" /><path d="M 80.20201598880116 107.00284435728193 l -20.119504758323778 7.116571075541695 a42.34104157705171,42.34104157705171 0 0,0 -0.23712831985120322,-0.6892058947936801 l 20.23902390911821 -6.769192477658718" fill="#ffe115" stroke="none" /><path d="M 79.97269907076064 106.31721596034903 l -16.429682189138557 5.182418285689097 a38.2276497562477,38.2276497562477 0 0,0 -0.19254580448683611,-0.6292508296886721 l 16.516454766131524 -4.898840483448376" fill="#ffa80f" stroke="none" /><path d="M 79.76711848015287 105.62410040840567 l -42.52423931917288 11.820392042898089 a65.13652226582988,65.13652226582988 0 0,0 -0.2909801168649673,-1.082845262114981 l 42.72140751237962 -11.08665584760757" fill="#33ff57" stroke="none" /><path d="M 79.58551787078972 104.9243191809786 l -16.7340818506938 4.036544239127614 a38.21404033863503,38.21404033863503 0 0,0 -0.14874257289461731,-0.6407791110752047 l 16.801084989518973 -3.7478964707038345" fill="#ffa80f" stroke="none" /><path d="M 79.4281124754447 104.21870165774334 l -16.81618842916749 3.448515937994215 a38.16614270766344,38.16614270766344 0 0,0 -0.12643910029678213,-0.6447102483956706 l 16.873057462439938 -3.1585419625305895" fill="#ffa70f" stroke="none" /><path d="M 79.18660465613746 102.79330883721812 l -62.440186031587636 8.379926511654372 a84.0,84.0 0 0,0 -0.1799939630126075,-1.4347289828503655 l 62.5751815038471 -7.303879774516597" fill="#4dd2ff" stroke="none" /><path d="M 79.10278846688536 102.07522291339032 l -14.5167963579582 1.4416080529843698 a35.58820106376581,35.58820106376581 0 0,0 -0.0552894965465703,-0.6101149871919718 l 14.539460450781846 -1.191511677243832" fill="#ff820b" stroke="none" /><path d="M 79.0095281055655 100.63252640178507 l -11.844397563296416 0.3569188062899257 a32.84977403462638,32.84977403462638 0 0,0 -0.012166832535856842,-0.5653448992908078 l 11.84878645851728 -0.15298409120898915" fill="#ff5908" stroke="none" /><line stroke="#e1ed5e" stroke-width="0.3" x1="15.007084014347285" x2="10.007500721073583" y1="101.09737516637583" y2="101.16192664675087" /><path d="M 14.007167355692545 101.11028546245083 a86.0,86.0 0 0,1 10.666146001902534,-42.60595125391555" fill="none" id="id46" stroke="none" /><text fill="#e1ed5e" style="font-size:6.75px; font-family:Arial;" text-anchor="middle"><textPath startOffset="22.20632615414155" xlink:href="#id46">October</textPath></text><path d="M 79.00019446554 99.90962569577889 l -14.691592933068312 -0.0632264183135979 a35.69172898235451,35.69172898235451 0 0,0 0.007932049767479717,-0.6143459959168269 l 14.688327876183116 0.31610867229089673" fill="#ff830c" stroke="none" /><line stroke="#e1ed5e" stroke-width="0.3" x1="26.266209847984243" x2="21.928928074336255" y1="57.711370442889674" y2="55.22380399835377" /><path d="M 25.398753493254645 57.213857153982495 a86.0,86.0 0 0,1 29.58750427330803,-30.492523968695096" fill="none" id="id47" stroke="none" /><text fill="#e1ed5e" style="font-size:6.75px; font-family:Arial;" text-anchor="middle"><textPath startOffset="21.46611528233685" xlink:href="#id47">November</textPath></text><line stroke="#e1ed5e" stroke-width="0.3" x1="56.762969772571076" x2="54.21961505331055" y1="26.818313649435495" y2="22.513508569990535" /><path d="M 56.25429882871897 25.957352633546506 a86.0,86.0 0 0,1 42.265352541879196,-11.944610805530505" fill="none" id="id48" stroke="none" /><text fill="#e1ed5e" style="font-size:6.75px; font-family:Arial;" text-anchor="middle"><textPath startOffset="22.20632615414155" xlink:href="#id48">December</textPath></text></svg>