<?xml version="1.0" encoding="utf-8" ?>
<svg baseProfile="full" height="200mm" version="1.1" viewBox="0,0,200,200" width="200mm" xmlns="http://www.w3.org/2000/svg" xmlns:ev="http://www.w3.org/2001/xml-events" xmlns:xlink="http://www.w3.org/1999/xlink"><defs /><rect fill="#1a1a1a" height="200" width="200" x="0" y="0" /><text alignment-baseline="middle" fill="#e1ed5e" style="dominant-baseline: central; font-size:9.0px; font-family:Arial;" text-anchor="middle" x="100.0" y="100.0">2025</text><line stroke="#e1ed5e" stroke-width="0.3" x1="100.0" x2="100.0" y1="15.0" y2="10.0" /><path d="M 100.0 14.0 a86.0,86.0 0 0,1 42.46469731375804,11.215312516191453" fill="none" id="id61" stroke="none" /><text fill="#e1ed5e" style="font-size:6.75px; font-family:Arial;" text-anchor="middle"><textPath startOffset="22.20632615414155" xlink:href="#id61">January</textPath></text><path d="M 101.80526077348638 79.07773832637324 l 1.801301156696306 -20.87637127384306 a41.95393909078804,41.95393909078804 0 0,0 0.7189604046838562,0.06827395351766954 l -2.1603866884704064 20.84227177581021" fill="#ffec16" stroke="none" /><path d="M 102.88285421437855 79.19881850522331 l 3.129647473572888 -22.58191371168321 a43.7977525249913,43.7977525249913 0 0,0 0.7458778519260026,0.10992300663904243 l -3.517894305927546 22.5246962208832" fill="#faff18" stroke="none" /><path d="M 103.95276090670814 79.375362276772 l 9.405473922554675 -49.0756959113698 a70.96885899130672,70.96885899130672 0 0,0 1.1977975003957202,0.24026691028554054 l -10.24883783241752 48.90652504500705" fill="#3cffa3" stroke="none" /><path d="M 104.66035177308747 79.52364482259891 l 5.925591003992638 -26.035482285789357 a47.7012914781336,47.7012914781336 0 0,0 0.7990564020620873,0.18911083389116992 l -6.372871093017249 25.92962553975732" fill="#c9ff1d" stroke="none" /><path d="M 105.36241919743992 79.69619591428918 l 5.230031562336858 -19.802542899754584 a41.48155109945681,41.48155109945681 0 0,0 0.6887954488883374,0.18827381558000433 l -5.570124900448906 19.709582543348287" fill="#ffe615" stroke="none" /><path d="M 106.74666289553966 80.11325718540242 l 7.287174205187893 -21.479976324228282 a43.68242250700227,43.68242250700227 0 0,0 0.7099808051310174,0.24769836207166632 l -7.6558370143821834 21.351357108984406" fill="#fbff18" stroke="none" /><path d="M 108.43124777332544 80.76684994638697 l 1.8636567502689396 -4.251326836788458 a25.641874228802493,25.641874228802493 0 0,0 0.402721363651662,0.18068933682451752 l -1.9365602323873818 4.218617169447409" fill="#ff0400" stroke="none" /><line stroke="#e1ed5e" stroke-width="0.3" x1="143.23703022742887" x2="145.7803849466894" y1="26.81831364943548" y2="22.513508569990506" /><path d="M 143.74570117128098 25.957352633546492 a86.0,86.0 0 0,1 28.547481713284135,27.462654790039103" fill="none" id="id62" stroke="none" /><text fill="#e1ed5e" style="font-size:6.75px; font-family:Arial;" text-anchor="middle"><textPath startOffset="19.985693538727396" xlink:href="#id62">February</textPath></text><path d="M 111.90073688211348 82.69761687909136 l 12.213963011971334 -17.757780005653288 a42.55271776799816,42.55271776799816 0 0,0 0.5999302217709401,0.4202894593652957 l -12.517824373325926 17.54490570352406" fill="#fff417" stroke="none" /><path d="M 112.48926042617603 83.11751280151076 l 13.557673349417534 -18.326725438691266 a43.79647718299211,43.79647718299211 0 0,0 0.6022095827820092,0.4535717726374507 l -13.871129085957927 18.090637076547967" fill="#faff18" stroke="none" /><path d="M 113.6212207817346 84.01681056812373 l 26.280649404190164 -30.83780848653171 a61.51719345361877,61.51719345361877 0 0,0 0.8000346200966653,0.6937821388757694 l -26.807577822933595 30.38086135423627" fill="#2fff31" stroke="none" /><path d="M 114.68862486808459 84.99185889309783 l 16.02149951671408 -16.370009286128994 a43.90558121489212,43.90558121489212 0 0,0 0.5355732419095941,0.5332733202042185 l -16.300908558790997 16.091800115274655" fill="#f9ff18" stroke="none" /><path d="M 114.94478906791727 85.2469230424477 l 13.829485870088568 -13.652080895728052 a40.43280711102959,40.43280711102959 0 0,0 0.48468487945929534,0.49951037328652476 l -14.062435013250973 13.412006326891413" fill="#ffd814" stroke="none" /><path d="M 115.4437574822437 85.77008943001954 l 19.09623981843881 -17.595315463332813 a46.9665458129788,46.9665458129788 0 0,0 0.5427014771341719,0.5992645258173668 l -19.39628493618902 17.263998150245897" fill="#d2ff1c" stroke="none" /><path d="M 115.9244219780498 86.31012108654704 l 17.47880647415341 -15.026149427129269 a44.0498121980923,44.0498121980923 0 0,0 0.48935017446193585,0.5792362575724667 l -17.734867262102462 14.723054219927697" fill="#f7ff19" stroke="none" /><path d="M 116.82858285166822 87.43820079747576 l 18.416187607624863 -13.746876539878473 a43.981135320125,43.981135320125 0 0,0 0.44763871247658044,0.6105787007515524 l -18.65008893261507 13.427835395455427" fill="#f8ff18" stroke="none" /><path d="M 117.2510076193507 88.02491185347247 l 14.422288260519064 -10.011483213340872 a38.55654279180591,38.55654279180591 0 0,0 0.37376994289563026,0.5484612704108297 l -14.592482669083427 9.761743919659637" fill="#ffbf11" stroke="none" /><path d="M 117.45458315368197 88.32363383020206 l 16.917667901771562 -11.31719293556732 a41.354025232751546,41.354025232751546 0 0,0 0.39070370227005613,0.5950685431975706 l -17.109968239399542 11.024306328392075" fill="#ffe415" stroke="none" /><line stroke="#e1ed5e" stroke-width="0.3" x1="172.23445277983987" x2="176.4835382374775" y1="55.19839476539836" y2="52.563006222186495" /><path d="M 173.08426987136738 54.67131705675599 a86.0,86.0 0 0,1 12.851231095245387,41.99856678651699" fill="none" id="id63" stroke="none" /><text fill="#e1ed5e" style="font-size:6.75px; font-family:Arial;" text-anchor="middle"><textPath startOffset="22.20632615414155" xlink:href="#id63">March</textPath></text><path d="M 117.84615892207809 88.93136811851018 l 12.324088127710107 -7.6437061530312755 a35.502047853094865,35.502047853094865 0 0,0 0.3176320914325241,0.522103642580002 l -12.453836017428856 7.430434737244192" fill="#ff950d" stroke="none" /><path d="M 118.03404312379186 89.2402003453031 l 3.767524267339576 -2.24784902822496 a25.387147633563806,25.387147633563806 0 0,0 0.2206751520619332,0.3772053677753807 l -3.8056590938718364 2.182664248095684" fill="#ff0000" stroke="none" /><path d="M 118.21658344932153 89.55222093294921 l 16.53646838288727 -9.484180647502901 a40.06317049004963,40.06317049004963 0 0,0 0.33794688180527543,0.601169793605161 l -16.69727290598498 9.198127343962947" fill="#ffd313" stroke="none" /><path d="M 119.34039704204932 91.81776055985345 l 21.445340051244887 -9.072766541097712 a44.285568548411916,44.285568548411916 0 0,0 0.2909737163616927,0.7046159339979915 l -21.59833545449278 8.702276036646419" fill="#f4ff19" stroke="none" /><path d="M 119.61058180528143 92.48833698450437 l 25.174410062456083 -9.642839099865183 a47.95802789334893,47.95802789334893 0 0,0 0.28865117477287483,0.7734416400561499 l -25.33666582573058 9.2080743227797" fill="#c6ff1e" stroke="none" /><path d="M 119.85752413597 93.16781622104841 l 24.05155730665832 -8.275183681706679 a46.435331211554015,46.435331211554015 0 0,0 0.2535428924438559,0.7580609768586518 l -24.190437492873947 7.859949601925712" fill="#d9ff1c" stroke="none" /><path d="M 120.53481517161879 95.60439243477599 l 20.674828048720645 -4.425578210524409 a42.14318465467382,42.14318465467382 0 0,0 0.1457365591431767,0.7106632196676447 l -20.74794390377882 4.069039334693353" fill="#ffef16" stroke="none" /><path d="M 120.6074358757038 95.95851677861258 l 10.4298869387037 -2.045485586755431 a31.628572474220903,31.628572474220903 0 0,0 0.10017864770892163,0.5351583418407067 l -10.46355131032248 1.8656491674521618" fill="#ff5e08" stroke="none" /><path d="M 120.87857604477298 97.74499172005257 l 21.03260730958876 -2.2716445570951374 a42.15492706754496,42.15492706754496 0 0,0 0.07170929340517739,0.7221027984555172 l -21.068593728676163 1.909266227935185" fill="#ffef16" stroke="none" /><line stroke="#e1ed5e" stroke-width="0.3" x1="184.98032266829074" x2="189.97916517819016" y1="98.17113171792111" y2="98.06355123074" /><path d="M 185.9800911702706 98.14961562048488 a86.0,86.0 0 0,1 -9.607161424134198,41.387399972396054" fill="none" id="id64" stroke="none" /><text fill="#e1ed5e" style="font-size:6.75px; font-family:Arial;" text-anchor="middle"><textPath startOffset="21.466115282336823" xlink:href="#id64">April</textPath></text><path d="M 120.9904718944345 100.63252640178507 l 36.004999254325945 1.0849738271320786 a57.02134283323671,57.02134283323671 0 0,0 -0.038008437220268775,0.9808288779609492 l -35.98098868425447 -1.704579952107034" fill="#5eff2a" stroke="none" /><path d="M 120.9764740272857 100.99374915477107 l 62.92942208185712 2.9812474643131925 a84.0,84.0 0 0,0 -0.0808545964498828,1.4437131346583068 l -62.86878113451971 -4.064032315306923" fill="#4dd2ff" stroke="none" /><path d="M 120.89721153311464 102.0752229133903 l 19.519572134754 1.938414763588261 a40.61558431756652,40.61558431756652 0 0,0 -0.07507635744751917,0.6951138282157996 l -19.483313475805428 -2.274124913688852" fill="#ffdb14" stroke="none" /><path d="M 120.76222939487914 103.15116336523771 l 20.332674537420363 3.085968173312993 a41.56552584816063,41.56552584816063 0 0,0 -0.11345062003176602,0.7064571192348806 l -20.276542163027308 -3.4355045222410787" fill="#ffe715" stroke="none" /><line stroke="#e1ed5e" stroke-width="0.3" x1="174.80103733775053" x2="179.2010983576182" y1="140.37084112569926" y2="142.7455964860345" /><path d="M 175.68104954172406 140.8457921977663 a86.0,86.0 0 0,1 -30.038265399797805,32.042727171017184" fill="none" id="id65" stroke="none" /><text fill="#e1ed5e" style="font-size:6.75px; font-family:Arial;" text-anchor="middle"><textPath startOffset="22.206326154141568" xlink:href="#id65">May</textPath></text><line stroke="#e1ed5e" stroke-width="0.3" x1="143.8653032363475" x2="146.44561519142675" y1="172.8068346515853" y2="177.08958963109032" /><path d="M 144.38136562736335 173.6633856474863 a86.0,86.0 0 0,1 -40.68145358897372,12.25698825130547" fill="none" id="id66" stroke="none" /><text fill="#e1ed5e" style="font-size:6.75px; font-family:Arial;" text-anchor="middle"><textPath startOffset="21.466115282336833" xlink:href="#id66">June</textPath></text><line stroke="#e1ed5e" stroke-width="0.3" x1="102.19456741930631" x2="102.32365962044197" y1="184.97166512339345" y2="189.96999836594603" /><path d="M 102.22038585953345 185.97133177190398 a86.0,86.0 0 0,1 -42.740103519485714,-10.115201625700543" fill="none" id="id67" stroke="none" /><text fill="#e1ed5e" style="font-size:6.75px; font-family:Arial;" text-anchor="middle"><textPath startOffset="22.20632615414155" xlink:href="#id67">July</textPath></text><line stroke="#e1ed5e" stroke-width="0.3" x1="58.666819895761336" x2="56.23545636021788" y1="174.27360380694188" y2="178.64263932499728" /><path d="M 58.180547188652646 175.14741091055294 a86.0,86.0 0 0,1 -31.652253787137756,-30.449443065178592" fill="none" id="id68" stroke="none" /><text fill="#e1ed5e" style="font-size:6.75px; font-family:Arial;" text-anchor="middle"><textPath startOffset="22.20632615414155" xlink:href="#id68">August</textPath></text><line stroke="#e1ed5e" stroke-width="0.3" x1="26.63291911575756" x2="22.317208475507996" y1="142.92168965132927" y2="145.44649492493687" /><path d="M 25.769776987707644 143.4266507060508 a86.0,86.0 0 0,1 -11.730757126820373,-40.83630448921669" fill="none" id="id69" stroke="none" /><text fill="#e1ed5e" style="font-size:6.75px; font-family:Arial;" text-anchor="middle"><textPath startOffset="21.46611528233685" xlink:href="#id69">September</textPath></text><line stroke="#e1ed5e" stroke-width="0.3" x1="15.007084014347285" x2="10.007500721073583" y1="101.09737516637583" y2="101.16192664675087" /><path d="M 14.007167355692545 101.11028546245083 a86.0,86.0 0 0,1 10.666146001902534,-42.60595125391555" fill="none" id="id70" stroke="none" /><text fill="#e1ed5e" style="font-size:6.75px; font-family:Arial;" text-anchor="middle"><textPath startOffset="22.20632615414155" xlink:href="#id70">October</textPath></text><line stroke="#e1ed5e" stroke-width="0.3" x1="26.266209847984243" x2="21.928928074336255" y1="57.711370442889674" y2="55.22380399835377" /><path d="M 25.398753493254645 57.213857153982495 a86.0,86.0 0 0,1 29.58750427330803,-30.492523968695096" fill="none" id="id71" stroke="none" /><text fill="#e1ed5e" style="font-size:6.75px; font-family:Arial;" text-anchor="middle"><textPath startOffset="21.46611528233685" xlink:href="#id71">November</textPath></text><line stroke="#e1ed5e" stroke-width="0.3" x1="56.762969772571076" x2="54.21961505331055" y1="26.818313649435495" y2="22.513508569990535" /><path d="M 56.25429882871897 25.957352633546506 a86.0,86.0 0 0,1 42.265352541879196,-11.944610805530505" fill="none" id="id72" stroke="none" /><text fill="#e1ed5e" style="font-size:6.75px; font-family:Arial;" text-anchor="middle"><textPath startOffset="22.20632615414155" xlink:href="#id72">December</textPath></text></svg>