<?xml version="1.0" encoding="utf-8" ?>
<svg baseProfile="full" height="200mm" version="1.1" viewBox="0,0,200,200" width="200mm" xmlns="http://www.w3.org/2000/svg" xmlns:ev="http://www.w3.org/2001/xml-events" xmlns:xlink="http://www.w3.org/1999/xlink"><defs /><rect fill="#1a1a1a" height="200" width="200" x="0" y="0" /><text alignment-baseline="middle" fill="#e1ed5e" style="dominant-baseline: central; font-size:9.0px; font-family:Arial;" text-anchor="middle" x="100.0" y="100.0">2024</text><line stroke="#e1ed5e" stroke-width="0.3" x1="100.0" x2="100.0" y1="15.0" y2="10.0" /><path d="M 100.0 14.0 a86.0,86.0 0 0,1 42.35913384403234,11.155469271406648" fill="none" id="id49" stroke="none" /><text fill="#e1ed5e" style="font-size:6.75px; font-family:Arial;" text-anchor="middle"><textPath startOffset="22.145653131862478" xlink:href="#id49">January</textPath></text><path d="M 100.72087961077811 79.0123766808444 l 0.7259581445499235 -21.135479288755462 a42.14794316223328,42.14794316223328 0 0,0 0.7228858747950742,0.031043829850181462 l -1.0886697799458338 21.119902890479448" fill="#ff6f0a" stroke="none" /><path d="M 101.44090949804482 79.04949213459386 l 1.4656024173572666 -21.30953749285833 a42.35987777599156,42.35987777599156 0 0,0 0.7250215928677569,0.056121256644985046 l -1.831193005000257 21.28123846921829" fill="#ff730a" stroke="none" /><path d="M 102.15924093988457 79.11130261209362 l 2.227910549250641 -21.55301356647527 a42.667855897899294,42.667855897899294 0 0,0 0.7279219487565725,0.08156517265806311 l -2.59756839960801 21.511592633310233" fill="#ff780b" stroke="none" /><path d="M 102.87502721639298 79.19773525538626 l 3.0011202403284174 -21.71461105264095 a42.92101858637927,42.92101858637927 0 0,0 0.728992846262264,0.10713684415317716 l -3.3734381921983636 21.65989313518889" fill="#ff7d0b" stroke="none" /><path d="M 103.58742460773223 79.30868818359171 l 3.0906912888464566 -17.826286034817834 a39.092231659971986,39.092231659971986 0 0,0 0.6602217503699,0.1203143960610504 l -3.3962477727674103 17.770603464825417" fill="#ff3805" stroke="none" /><path d="M 104.29559338865022 79.4440306129975 l 3.7837825971872814 -18.10676947226023 a39.49789478466002,39.49789478466002 0 0,0 0.6625068098847786,0.14439027568600685 l -4.094051823691194 18.039147738440505" fill="#ff4006" stroke="none" /><path d="M 104.9986988182912 79.60360301121754 l 3.5851198147168786 -14.628512269181464 a36.06142275136941,36.06142275136941 0 0,0 0.5999842965757051,0.1525136619692037 l -3.835709404517978 14.564813375376993" fill="#ff0000" stroke="none" /><path d="M 105.69591212413111 79.78721728523813 l 5.270153160026572 -18.701914351142246 a40.430288590949914,40.430288590949914 0 0,0 0.6664066472514077,0.19398126270034532 l -5.590419819659584 18.608689394139386" fill="#ff5107" stroke="none" /><path d="M 106.72888874123014 80.10723608172694 l 14.381018099125018 -42.514924670608664 a65.88131572620048,65.88131572620048 0 0,0 1.0682003683262393,0.37157553805022653 l -15.108724239496276 42.261790699989845" fill="#30ff35" stroke="none" /><path d="M 107.06938296918511 80.22567764915836 l 17.100586961806318 -47.83338523960834 a71.79825605194613,71.79825605194613 0 0,0 1.1570147019187365,0.4248718248680829 l -17.919190815379178 47.53278256573154" fill="#39ff8d" stroke="none" /><path d="M 108.07796709384702 80.6158196554323 l 6.570243628661079 -15.76619289557669 a38.08042563171347,38.08042563171347 0 0,0 0.601244450574148,0.256635503745112 l -6.839923154405658 15.651082742172177" fill="#ff2603" stroke="none" /><path d="M 109.06512990194946 81.05736502329252 l 27.195389705848374 -56.82790493012246 a84.0,84.0 0 0,0 1.2953590029517317,0.6336249996111154 l -28.166908958062173 56.352686180414125" fill="#4dd2ff" stroke="none" /><path d="M 109.71004243097381 81.37971332152246 l 8.949721215014268 -17.162270494764993 a40.35564616234647,40.35564616234647 0 0,0 0.6115056169056597,0.3255922978114142 l -9.243015647706487 17.006107729231005" fill="#ff4f07" stroke="none" /><line stroke="#e1ed5e" stroke-width="0.3" x1="143.13028292997686" x2="145.6673583964461" y1="26.7553504044142" y2="22.446841604673864" /><path d="M 143.63769802327073 25.89364864446614 a86.0,86.0 0 0,1 29.32050498858742,28.57503671076993" fill="none" id="id50" stroke="none" /><text fill="#e1ed5e" style="font-size:6.75px; font-family:Arial;" text-anchor="middle"><textPath startOffset="20.669276256404974" xlink:href="#id50">February</textPath></text><path d="M 110.96478420261332 82.08984904055464 l 10.350797354673453 -16.90724958623856 a40.824078653215615,40.824078653215615 0 0,0 0.5945460791077855,0.3710407258011465 l -10.639507562570952 16.72707306359587" fill="#ff5808" stroke="none" /><path d="M 113.31354834802062 83.75963576809568 l 10.666043423830594 -13.010838702671638 a37.82398306186671,37.82398306186671 0 0,0 0.4986023474166926,0.4159518116219958 l -10.887820105409178 12.825824707137773" fill="#ff2103" stroke="none" /><path d="M 115.16444852881244 85.47280134310134 l 16.16649876676509 -15.487140117563879 a43.38765712165687,43.38765712165687 0 0,0 0.5106193497842338,0.5422600545037574 l -16.429973950285582 15.207338603115627" fill="#ff850c" stroke="none" /><path d="M 115.41159269507618 85.73525988315684 l 11.080376252704585 -10.255830839090967 a36.09823844365789,36.09823844365789 0 0,0 0.41702455438045377,0.45838303721347956 l -11.254798507926917 10.064110226319816" fill="#ff0100" stroke="none" /><line stroke="#e1ed5e" stroke-width="0.3" x1="172.87174338648825" x2="177.1583165268699" y1="56.24261187166439" y2="53.66864786411523" /><path d="M 173.72905801456457 55.72781907015455 a86.0,86.0 0 0,1 12.242430191666344,42.057860355516425" fill="none" id="id51" stroke="none" /><text fill="#e1ed5e" style="font-size:6.75px; font-family:Arial;" text-anchor="middle"><textPath startOffset="22.145653131862474" xlink:href="#id51">March</textPath></text><line stroke="#e1ed5e" stroke-width="0.3" x1="184.99686870605535" x2="189.99668451229388" y1="99.2704041080226" y2="99.22748670261217" /><path d="M 185.99683186730306 99.26182062694052 a86.0,86.0 0 0,1 -10.086455211305974,41.156179273409016" fill="none" id="id52" stroke="none" /><text fill="#e1ed5e" style="font-size:6.75px; font-family:Arial;" text-anchor="middle"><textPath startOffset="21.40746469413373" xlink:href="#id52">April</textPath></text><line stroke="#e1ed5e" stroke-width="0.3" x1="174.33088141563837" x2="178.70328620479359" y1="141.23008692659167" y2="143.65538615756765" /><path d="M 175.20536237346943 141.71514677278685 a86.0,86.0 0 0,1 -30.301960400862466,31.631185727798858" fill="none" id="id53" stroke="none" /><text fill="#e1ed5e" style="font-size:6.75px; font-family:Arial;" text-anchor="middle"><textPath startOffset="22.145653131862474" xlink:href="#id53">May</textPath></text><line stroke="#e1ed5e" stroke-width="0.3" x1="143.1302829299769" x2="145.66735839644613" y1="173.24464959558577" y2="177.55315839532614" /><path d="M 143.63769802327073 174.10635135553383 a86.0,86.0 0 0,1 -40.68552437913181,11.842963189579606" fill="none" id="id54" stroke="none" /><text fill="#e1ed5e" style="font-size:6.75px; font-family:Arial;" text-anchor="middle"><textPath startOffset="21.407464694133747" xlink:href="#id54">June</textPath></text><line stroke="#e1ed5e" stroke-width="0.3" x1="101.45913802915013" x2="101.54496967792366" y1="184.9874750549273" y2="189.98673829345242" /><path d="M 101.47630435890484 185.9873277026323 a86.0,86.0 0 0,1 -42.54439059252881,-10.42667462771756" fill="none" id="id55" stroke="none" /><text fill="#e1ed5e" style="font-size:6.75px; font-family:Arial;" text-anchor="middle"><textPath startOffset="22.145653131862474" xlink:href="#id55">July</textPath></text><line stroke="#e1ed5e" stroke-width="0.3" x1="58.13341422392154" x2="55.67067388415222" y1="173.97424548756322" y2="178.32567169271397" /><path d="M 57.64086615596768 174.84453072859336 a86.0,86.0 0 0,1 -31.369924170532247,-30.572349798747897" fill="none" id="id56" stroke="none" /><text fill="#e1ed5e" style="font-size:6.75px; font-family:Arial;" text-anchor="middle"><textPath startOffset="22.145653131862474" xlink:href="#id56">August</textPath></text><line stroke="#e1ed5e" stroke-width="0.3" x1="26.387840678322732" x2="22.057713659400548" y1="142.50000000000003" y2="145.00000000000006" /><path d="M 25.521815274538298 143.00000000000003 a86.0,86.0 0 0,1 -11.493303480769221,-40.785679425670985" fill="none" id="id57" stroke="none" /><text fill="#e1ed5e" style="font-size:6.75px; font-family:Arial;" text-anchor="middle"><textPath startOffset="21.40746469413373" xlink:href="#id57">September</textPath></text><line stroke="#e1ed5e" stroke-width="0.3" x1="15.003131293944662" x2="10.003315487706104" y1="100.72959589197737" y2="100.7725132973878" /><path d="M 14.003168132696942 100.73817937305945 a86.0,86.0 0 0,1 10.791469493833604,-42.45332614584628" fill="none" id="id58" stroke="none" /><text fill="#e1ed5e" style="font-size:6.75px; font-family:Arial;" text-anchor="middle"><textPath startOffset="22.145653131862435" xlink:href="#id58">October</textPath></text><line stroke="#e1ed5e" stroke-width="0.3" x1="26.387840678322718" x2="22.05771365940052" y1="57.49999999999999" y2="54.99999999999999" /><path d="M 25.521815274538284 56.99999999999999 a86.0,86.0 0 0,1 29.574782752854787,-30.34633250058573" fill="none" id="id59" stroke="none" /><text fill="#e1ed5e" style="font-size:6.75px; font-family:Arial;" text-anchor="middle"><textPath startOffset="21.40746469413373" xlink:href="#id59">November</textPath></text><line stroke="#e1ed5e" stroke-width="0.3" x1="56.869717070023135" x2="54.33264160355391" y1="26.7553504044142" y2="22.446841604673864" /><path d="M 56.362301976729285 25.89364864446614 a86.0,86.0 0 0,1 42.16139366436587,-11.88097634709845" fill="none" id="id60" stroke="none" /><text fill="#e1ed5e" style="font-size:6.75px; font-family:Arial;" text-anchor="middle"><textPath startOffset="22.145653131862474" xlink:href="#id60">December</textPath></text></svg>