<?xml version="1.0" encoding="utf-8" ?>
<svg baseProfile="full" height="200mm" version="1.1" viewBox="0,0,200,200" width="200mm" xmlns="http://www.w3.org/2000/svg" xmlns:ev="http://www.w3.org/2001/xml-events" xmlns:xlink="http://www.w3.org/1999/xlink"><defs /><rect fill="#1a1a1a" height="200" width="200" x="0" y="0" /><text alignment-baseline="middle" fill="#e1ed5e" style="dominant-baseline: central; font-size:9.0px; font-family:Arial;" text-anchor="middle" x="100.0" y="100.0">2022</text><line stroke="#e1ed5e" stroke-width="0.3" x1="100.0" x2="100.0" y1="15.0" y2="10.0" /><path d="M 100.0 14.0 a86.0,86.0 0 0,1 42.46469731375804,11.215312516191453" fill="none" id="id25" stroke="none" /><text fill="#e1ed5e" style="font-size:6.75px; font-family:Arial;" text-anchor="middle"><textPath startOffset="22.20632615414155" xlink:href="#id25">January</textPath></text><path d="M 100.36148047927253 79.00311137660856 l 0.1400688334309403 -8.136012492504545 a29.137218109175194,29.137218109175194 0 0,0 0.5014006928177939,0.012949700619349278 l -0.280096161443602 8.132395999742837" fill="#ff5a08" stroke="none" /><path d="M 100.72285384407766 79.0124445844662 l 0.2796517693093465 -8.11949338516822 a29.124307843986976,29.124307843986976 0 0,0 0.5008814656271999,0.021569009542058332 l -0.41937406732587795 8.113476649101965" fill="#ff5a08" stroke="none" /><path d="M 102.52436894288641 79.15227682838746 l 1.9911685277216566 -16.444240597613934 a37.56435332085148,37.56435332085148 0 0,0 0.6412508285072683,0.08325276156225038 l -2.273934084736771 16.407529512887546" fill="#ffcb12" stroke="none" /><path d="M 103.2404852339499 79.25152402106235 l 1.360609003739087 -8.711832084602905 a29.81744152979607,29.81744152979607 0 0,0 0.5064290733971446,0.08356513636227303 l -1.5103672832751067 8.687120685301007" fill="#ff6409" stroke="none" /><path d="M 105.01212808612495 79.60689891045804 l 4.605912175214918 -18.74030970172782 a40.29802152248947,40.29802152248947 0 0,0 0.6721923210908388,0.1713567896324185 l -4.927813384990782 18.658249915926532" fill="#ffee16" stroke="none" /><path d="M 105.36241919743992 79.69619591428918 l 2.735660460556789 -10.358070115571703 a31.713237357332908,31.713237357332908 0 0,0 0.5265939431453072,0.1439380168630576 l -2.9135522929258073 10.309445557882352" fill="#ff7e0b" stroke="none" /><path d="M 106.0581310904928 79.89281104454417 l 1.9520217378946216 -6.478841303153729 a27.76651856545623,27.76651856545623 0 0,0 0.45644801703309024,0.1418206207672773 l -2.0632551276384303 6.444280547503931" fill="#ff4706" stroke="none" /><path d="M 106.74666289553966 80.11325718540242 l 5.455906013210615 -16.08205440011943 a37.98232564030582,37.98232564030582 0 0,0 0.6173357746935866,0.215376330084905 l -5.731923791967476 15.985757216862314" fill="#ffd113" stroke="none" /><path d="M 107.4271985657038 80.35727306442388 l 10.212530750019118 -27.009100547023113 a49.875375264735354,49.875375264735354 0 0,0 0.800421005532143,0.31055091486005226 l -10.675934920550928 26.829306928272516" fill="#9fff22" stroke="none" /><path d="M 108.09893153111575 80.62456947434976 l 3.1162698131111224 -7.455189493964952 a29.08028390213073,29.08028390213073 0 0,0 0.4601833651784225,0.1970265009795817 l -3.2441369360798604 7.40044346502258" fill="#ff5908" stroke="none" /><path d="M 108.76106565485865 80.91482961587045 l 7.008931871329626 -15.26830915836118 a37.8001901933352,37.8001901933352 0 0,0 0.589002183251359,0.2765444226935354 l -7.270712265880583 15.145399753027643" fill="#ffce13" stroke="none" /><path d="M 109.41281617654863 81.2277094730956 l 10.064897750834866 -20.072758370974306 a43.45479448479277,43.45479448479277 0 0,0 0.6657678280699076,0.3410321401001417 l -10.40892606649353 19.896533705561662" fill="#e9ff1a" stroke="none" /><path d="M 109.73455568895987 81.39251694778311 l 16.31218506805064 -31.180540426987857 a56.18967864322376,56.18967864322376 0 0,0 0.8531598747321076,0.45572845828433617 l -16.846489989311056 30.895133242201766" fill="#5aff2a" stroke="none" /><path d="M 110.36928655335952 81.73862282372117 l 4.061472982140026 -7.1526704982509575 a29.225342426987645,29.225342426987645 0 0,0 0.43532298123720986,0.2521671688867791 l -4.183992695842565 7.081699171974129" fill="#ff5b08" stroke="none" /><line stroke="#e1ed5e" stroke-width="0.3" x1="143.23703022742887" x2="145.7803849466894" y1="26.81831364943548" y2="22.513508569990506" /><path d="M 143.74570117128098 25.957352633546492 a86.0,86.0 0 0,1 28.547481713284135,27.462654790039103" fill="none" id="id26" stroke="none" /><text fill="#e1ed5e" style="font-size:6.75px; font-family:Arial;" text-anchor="middle"><textPath startOffset="19.985693538727396" xlink:href="#id26">February</textPath></text><path d="M 110.68208982089419 81.91981866633111 l 2.5944974373006193 -4.391367693274805 a26.10054185059756,26.10054185059756 0 0,0 0.3848437071056718,0.23186402748553814 l -2.6697032106239287 4.346057056330652" fill="#ff2f04" stroke="none" /><path d="M 111.2981086023043 82.29822771554956 l 5.538529893653573 -8.67771752061943 a31.294566273066568,31.294566273066568 0 0,0 0.4515850235484913,0.29372346097058905 l -5.687081942986344 8.581095135489313" fill="#ff780b" stroke="none" /><path d="M 111.90073688211348 82.69761687909136 l 10.446008819790315 -15.187365998827516 a39.432991787701724,39.432991787701724 0 0,0 0.555946711494862,0.3894761996159328 l -10.705886670868829 15.005304956447647" fill="#ffe315" stroke="none" /><path d="M 112.48926042617603 83.11751280151076 l 3.376592525279165 -4.564343935295287 a26.677553402781694,26.677553402781694 0 0,0 0.3668212453985406,0.27628215703223097 l -3.454659924436089 4.505545188757208" fill="#ff3705" stroke="none" /><path d="M 112.77801427241765 83.33499621200491 l 6.271228199834658 -8.178895364925317 a31.306436461008154,31.306436461008154 0 0,0 0.42482453358843525,0.3315822869208677 l -6.411085288582524 8.069734688781224" fill="#ff780b" stroke="none" /><path d="M 113.34407831869373 83.78471172551755 l 8.689204772381997 -10.558837927592098 a34.67447761187035,34.67447761187035 0 0,0 0.4576081014290329,0.3832336248423348 l -8.869670410770146 10.407703145355944" fill="#ffa50f" stroke="none" /><path d="M 113.89432698308785 84.25364557470407 l 27.02235114498165 -30.624262625430138 a61.84180361778858,61.84180361778858 0 0,0 0.7921316990681753,0.7111836606281138 l -27.545493831645814 30.154579956032727" fill="#31ff40" stroke="none" /><path d="M 114.42810811169701 84.74124197986012 l 5.754792912377658 -6.086105803074589 a29.376056668299846,29.376056668299846 0 0,0 0.36442642850872703,0.35057793549071453 l -5.858702584498803 5.986144780821573" fill="#ff5d08" stroke="none" /><path d="M 114.94478906791727 85.2469230424477 l 11.83344616554926 -11.681646436093201 a37.628027893013694,37.628027893013694 0 0,0 0.45106282414513105,0.46485988982317833 l -12.0327732533975 11.476222350719908" fill="#ffcc13" stroke="none" /><path d="M 115.68641384162765 86.03803664274999 l 18.411392997487642 -16.38737808285306 a45.648033441601584,45.648033441601584 0 0,0 0.5173620652748409,0.5914342756851145 l -18.69074692634033 16.068028250965" fill="#cfff1d" stroke="none" /><path d="M 116.60985879189232 87.15038557335679 l 7.300190779101671 -5.647527647747427 a30.229699558672138,30.229699558672138 0 0,0 0.3148553625370521,0.4143127501680115 l -7.396322081862836 5.521030121698383" fill="#ff6909" stroke="none" /><path d="M 117.2510076193507 88.02491185347247 l 51.75302285805209 -35.92526443958259 a84.0,84.0 0 0,0 0.8143021373250665,1.1948879069183742 l -52.36374946104589 35.02909850939381" fill="#4dd2ff" stroke="none" /><path d="M 117.45458315368197 88.32363383020206 l 37.99780682464364 -25.418900137995827 a66.71601259633586,66.71601259633586 0 0,0 0.6303181606960047,0.9600178023833646 l -38.42972162069756 24.761064271634787" fill="#37ff7a" stroke="none" /><path d="M 117.65298651832404 88.62581576622439 l 15.837625994003202 -10.204509910798276 a39.84044637596217,39.84044637596217 0 0,0 0.36647975205136746,0.5796829574424415 l -16.010933342300525 9.930379305641628" fill="#ffe815" stroke="none" /><line stroke="#e1ed5e" stroke-width="0.3" x1="172.23445277983987" x2="176.4835382374775" y1="55.19839476539836" y2="52.563006222186495" /><path d="M 173.08426987136738 54.67131705675599 a86.0,86.0 0 0,1 12.851231095245387,41.99856678651699" fill="none" id="id27" stroke="none" /><text fill="#e1ed5e" style="font-size:6.75px; font-family:Arial;" text-anchor="middle"><textPath startOffset="22.20632615414155" xlink:href="#id27">March</textPath></text><path d="M 118.03404312379186 89.2402003453031 l 15.063364413376608 -8.987379152919775 a38.540750596497226,38.540750596497226 0 0,0 0.3350114838115491,0.5726432214019536 l -15.215835571658484 8.726756519163926" fill="#ffd814" stroke="none" /><path d="M 118.3937258080291 89.86733742301442 l 15.892063385828157 -8.754556723378611 a39.14386789199132,39.14386789199132 0 0,0 0.3200326229674902,0.5929718458268771 l -16.040404108014112 8.479703894219275" fill="#ffdf14" stroke="none" /><path d="M 118.73160827565052 90.50648371742162 l 15.956414679539412 -8.086998208727996 a38.88873135393873,38.88873135393873 0 0,0 0.2974802524264338,0.5997020364006338 l -16.093254944919252 7.8111365838284135" fill="#ffdc14" stroke="none" /><path d="M 119.04729006885535 91.15688171328212 l 29.817637925396603 -13.843486304435391 a53.874513601133934,53.874513601133934 0 0,0 0.38327273841600284,0.8444906743729635 l -30.051512980775954 13.328173621220365" fill="#73ff27" stroke="none" /><path d="M 119.34039704204932 91.81776055985345 l 28.786118708645994 -12.178390925198201 a52.25626074621225,52.25626074621225 0 0,0 0.3433443193998755,0.831435503253922 l -28.991484714932067 11.681080851490975" fill="#84ff25" stroke="none" /><path d="M 119.61058180528143 92.48833698450437 l 20.224876757171653 -7.746963360816178 a42.657818014671065,42.657818014671065 0 0,0 0.2567501172184349,0.6879626660182091 l -20.355231462891716 7.397677557768636" fill="#f3ff19" stroke="none" /><path d="M 120.08093135843002 93.85539295169968 l 7.795188192943217 -2.3852662736720354 a29.15196014218167,29.15196014218167 0 0,0 0.1426975995357608,0.48110536685793426 l -7.83509168959068 2.2507315200675713" fill="#ff5a08" stroke="none" /><path d="M 120.28053869075195 94.5502522615342 l 7.533432493488109 -2.024369634372338 a28.800684428337764,28.800684428337764 0 0,0 0.12453370432090112,0.47987916324356894 l -7.5671625296793135 1.8943940455799182" fill="#ff5507" stroke="none" /><path d="M 120.45610955862082 95.25157060432595 l 10.236135026587977 -2.3760903469474868 a31.508295086235364,31.508295086235364 0 0,0 0.11808950853727816,0.5293721117469257 l -10.275518922127294 2.1995400656505972" fill="#ff7b0b" stroke="none" /><path d="M 120.67395015179393 96.31383870115 l 9.738246865791089 -1.7363275257878805 a30.89182921890075,30.89182921890075 0 0,0 0.08883333622688568,0.5242993789779179 l -9.766692063538196 1.5684423584941247" fill="#ff720a" stroke="none" /><path d="M 120.83666639777658 97.38593545837742 l 16.136930660415054 -2.0244590686787793 a37.26342416773907,37.26342416773907 0 0,0 0.07436652155940371,0.637126941851606 l -16.169387534978046 1.7463883885023206" fill="#ffc712" stroke="none" /><path d="M 120.91429891909075 98.10471618934814 l 8.409487242543706 -0.7620798138314735 a29.443947022877083,29.443947022877083 0 0,0 0.04139751115437604,0.5051544921340173 l -8.421359237517576 0.6172114044896875" fill="#ff5e08" stroke="none" /><path d="M 120.96714384426684 98.82574320788733 l 34.734795011177034 -1.9453087777460265 a55.78922549740458,55.78922549740458 0 0,0 0.04544534989087668,0.9592795093913212 l -34.76313396930141 1.3471181617317054" fill="#5fff29" stroke="none" /><line stroke="#e1ed5e" stroke-width="0.3" x1="184.98032266829074" x2="189.97916517819016" y1="98.17113171792111" y2="98.06355123074" /><path d="M 185.9800911702706 98.14961562048488 a86.0,86.0 0 0,1 -9.607161424134198,41.387399972396054" fill="none" id="id28" stroke="none" /><text fill="#e1ed5e" style="font-size:6.75px; font-family:Arial;" text-anchor="middle"><textPath startOffset="21.466115282336823" xlink:href="#id28">April</textPath></text><path d="M 120.9904718944345 100.63252640178507 l 6.656545916745229 0.2005882029813887 a27.659567491129803,27.659567491129803 0 0,0 -0.018436902434953044,0.47577452931180025 l -6.652106881459074 -0.3151399793071951" fill="#ff4506" stroke="none" /><path d="M 120.9764740272857 100.99374915477107 l 2.532567107996718 0.11997900217639176 a23.5354074854883,23.5354074854883 0 0,0 -0.022654117553841755,0.4045044870992249 l -2.530126639555347 -0.16355520561103995" fill="#ff0a01" stroke="none" /><path d="M 120.95626037817324 101.35467743843564 l 8.071021914461666 0.5217358009174508 a29.08786764170133,29.08786764170133 0 0,0 -0.03660007448619074,0.499378937469508 l -8.060845281311137 -0.6605878748837289" fill="#ff5908" stroke="none" /><path d="M 120.8583938346157 102.4346265915055 l 23.53612907534103 2.7471763244222474 a44.69591419651454,44.69591419651454 0 0,0 -0.09577374674645378,0.7634109941992259 l -23.485353819347726 -3.1519050729088685" fill="#daff1b" stroke="none" /><path d="M 120.76222939487914 103.15116336523771 l 35.83883783062952 5.439398181990476 a57.24926688406819,57.24926688406819 0 0,0 -0.15625845437605604,0.9730215445600434 l -35.739897621892176 -6.055498956243724" fill="#50ff2b" stroke="none" /><path d="M 120.70491114924044 103.5080841355445 l 23.12104685485686 3.9174559641459727 a44.45057075841672,44.45057075841672 0 0,0 -0.13431175498453177,0.753291650101277 l -23.05018865753314 -4.3148663649804675" fill="#ddff1b" stroke="none" /><path d="M 120.64145759157962 103.86396538481128 l 12.97459292517129 2.4287712106789576 a34.199961786601044,34.199961786601044 0 0,0 -0.11329969684397907,0.5777127132665505 l -12.930863295351648 -2.651747651013453" fill="#ff9f0e" stroke="none" /><path d="M 120.49622156327973 104.57218783832717 l 15.986907993513242 3.566274206917784 a37.37985161446784,37.37985161446784 0 0,0 -0.14549561507459582,0.6267913017673321 l -15.923151812508094 -3.8409341660336813" fill="#ffc912" stroke="none" /><path d="M 120.32669344350535 105.2749913415812 l 15.673844992817314 4.06752809335128 a37.193029415432626,37.193029415432626 0 0,0 -0.16614998267326664,0.618305894837908 l -15.60150693380227 -4.336724921364737" fill="#ffc612" stroke="none" /><path d="M 120.13307415673323 105.97154293290107 l 7.419630617094046 2.2006893945417008 a28.739118315762312,28.739118315762312 0 0,0 -0.14475377617077598,0.4730637159235325 l -7.380650068417137 -2.3280800830172903" fill="#ff5407" stroke="none" /><path d="M 119.9155931802556 106.66101706037122 l 15.852830669957497 5.302175767099486 a37.71601950571852,37.71601950571852 0 0,0 -0.21122617686649783,0.6139221427557611 l -15.759213662147769 -5.574270612944548" fill="#ffcd13" stroke="none" /><path d="M 119.67450827220406 107.3425965602758 l 32.387959779929766 12.087301943420915 a55.56996972775324,55.56996972775324 0 0,0 -0.34216737945781683,0.8932910558040529 l -32.175098120878445 -12.643016566058112" fill="#61ff29" stroke="none" /><path d="M 119.41010516605496 108.01547362559984 l 3.109287203189439 1.2839914754900539 a24.363971019650545,24.363971019650545 0 0,0 -0.16341149582746667,0.38625650516061927 l -3.0867247261696638 -1.3373225063168366" fill="#ff1602" stroke="none" /><path d="M 119.12269723197855 108.67885076344098 l 10.794387848997864 4.899041180628483 a32.85408847293146,32.85408847293146 0 0,0 -0.2381536288652415,0.5129617294342911 l -10.708459603292791 -5.084122977341605" fill="#ff8d0d" stroke="none" /><path d="M 118.64920377521936 109.65438752849418 l 20.390320964858162 10.55573539749177 a43.9605909948284,43.9605909948284 0 0,0 -0.35366817073941004,0.6690068957088978 l -20.20560028589386 -10.905157308286801" fill="#e3ff1b" stroke="none" /><line stroke="#e1ed5e" stroke-width="0.3" x1="174.80103733775053" x2="179.2010983576182" y1="140.37084112569926" y2="142.7455964860345" /><path d="M 175.68104954172406 140.8457921977663 a86.0,86.0 0 0,1 -30.038265399797805,32.042727171017184" fill="none" id="id29" stroke="none" /><text fill="#e1ed5e" style="font-size:6.75px; font-family:Arial;" text-anchor="middle"><textPath startOffset="22.206326154141568" xlink:href="#id29">May</textPath></text><path d="M 118.30583269289576 110.29060199501025 l 13.86562012565703 7.794541801013767 a36.90629760053471,36.90629760053471 0 0,0 -0.3160725691839234,0.5510991662083128 l -13.729395560320727 -8.032060813080395" fill="#ffc312" stroke="none" /><path d="M 117.94076556474637 110.91462005526583 l 7.119977642549786 4.331579412816256 a29.334066344824862,29.334066344824862 0 0,0 -0.26615128100071844,0.42912060938593616 l -7.0443617218811045 -4.453496353567466" fill="#ff5d08" stroke="none" /><path d="M 117.55443506779139 111.5257021239791 l 8.14516616655065 5.3478655749066455 a30.743890295359087,30.743890295359087 0 0,0 -0.29425840366479267,0.4398763879743685 l -8.051904657475136 -5.487278877086821" fill="#ff700a" stroke="none" /><path d="M 116.93607887273984 112.41649034213515 l 8.644129973062624 6.337343911373132 a31.718344594302692,31.718344594302692 0 0,0 -0.3266064122666947,0.4375426624883253 l -8.533762294100837 -6.485199453370773" fill="#ff7e0b" stroke="none" /><path d="M 115.80600337817218 113.82643327865902 l 7.518336438305104 6.576727503063304 a30.988930245481523,30.988930245481523 0 0,0 -0.35466262587459196,0.3984672199227868 l -7.404014962782174 -6.705168892726958" fill="#ff740a" stroke="none" /><path d="M 115.07121518719521 114.62390073753431 l 12.222602446881062 11.859834971329684 a38.03078671470222,38.03078671470222 0 0,0 -0.4599178487005722,0.4658943525595711 l -12.016643973124955 -12.06846981786992" fill="#ffd113" stroke="none" /><path d="M 114.55890576462653 115.13401014063108 l 11.451515658929893 11.90387223529682 a37.51785049820306,37.51785049820306 0 0,0 -0.46926642364575855,0.4437206936904007 l -11.244913400893328 -12.099227565733143" fill="#ffcb12" stroke="none" /><path d="M 113.75828350139079 115.86535959552629 l 11.839127659117777 13.65228573682592 a39.070690345662726,39.070690345662726 0 0,0 -0.5118902746695083,0.4362439972956996 l -11.602371907871222 -13.854054124344568" fill="#ffde14" stroke="none" /><path d="M 113.20401910651253 116.32954008644616 l 10.454867186135242 12.929636911102422 a37.62768049165817,37.62768049165817 0 0,0 -0.5071539537899687,0.40291377320118327 l -10.230755739627924 -13.107684598308731" fill="#ffcc13" stroke="none" /><path d="M 112.63410532772338 116.77436683061366 l 10.251856628032552 13.61144294057142 a38.040303496304475,38.040303496304475 0 0,0 -0.5264325678983485,0.3894422285059639 l -10.01603908971564 -13.785895117817153" fill="#ffd113" stroke="none" /><path d="M 111.1453310114006 117.79835938074945 l 12.64879392564591 20.199290608004603 a44.83282041303714,44.83282041303714 0 0,0 -0.6575924387102295,0.40394698508374965 l -12.299222287003373 -20.41402605991673" fill="#d9ff1c" stroke="none" /><line stroke="#e1ed5e" stroke-width="0.3" x1="143.8653032363475" x2="146.44561519142675" y1="172.8068346515853" y2="177.08958963109032" /><path d="M 144.38136562736335 173.6633856474863 a86.0,86.0 0 0,1 -40.68145358897372,12.25698825130547" fill="none" id="id30" stroke="none" /><text fill="#e1ed5e" style="font-size:6.75px; font-family:Arial;" text-anchor="middle"><textPath startOffset="21.466115282336833" xlink:href="#id30">June</textPath></text><path d="M 110.5260780823613 118.17145234162733 l 4.4959326881296695 7.761449794906488 a29.96958826563666,29.96958826563666 0 0,0 -0.4486179536269927,0.25473698227879027 l -4.361665967581478 -7.837689942979907" fill="#ff6609" stroke="none" /><path d="M 109.89434966115114 118.52300852407294 l 6.073818342600413 11.370670411557773 a33.89121463893859,33.89121463893859 0 0,0 -0.5169363987275829,0.2704366918912505 l -5.877191041346334 -11.473536522393742" fill="#ff9b0e" stroke="none" /><path d="M 109.57404056367764 118.69057910512821 l 9.814767402266638 19.16052948704375 a42.528017776480695,42.528017776480695 0 0,0 -0.654417274212754,0.32813840677003564 l -9.483496220371123 -19.326635734723087" fill="#f5ff19" stroke="none" /><path d="M 108.92500713936063 119.00905698771935 l 3.6015353990147636 7.670782843549038 a29.474194160110017,29.474194160110017 0 0,0 -0.4611055276457698,0.21167093194421466 l -3.4689618756015745 -7.731640845827327" fill="#ff5f08" stroke="none" /><path d="M 108.2653958097858 119.30500536409082 l 3.742477761211726 8.741088136353303 a30.508562541239385,30.508562541239385 0 0,0 -0.48454649224809526,0.20254047305758793 l -3.5914598094661696 -8.804213652430864" fill="#ff6d0a" stroke="none" /><path d="M 107.2578585660854 119.70592522655815 l 8.024454852334998 21.787322784562573 a44.218081527031515,44.218081527031515 0 0,0 -0.7165022957204044,0.25691223131469665 l -7.648232995984858 -21.92222255691723" fill="#e0ff1b" stroke="none" /><path d="M 106.57524785965236 119.94407469862006 l 2.7004480845249725 8.191012638169811 a29.624680161946422,29.624680161946422 0 0,0 -0.4856735732507627,0.1554973410889532 l -2.55905316618327 -8.23628282591847" fill="#ff6108" stroke="none" /><path d="M 105.88484417918355 120.15858648285463 l 3.3375250670377707 11.432722032057326 a32.90992051339531,32.90992051339531 0 0,0 -0.5451588384173858,0.15406733318120563 l -3.140235060515779 -11.48847815857705" fill="#ff8e0d" stroke="none" /><path d="M 105.18746579009965 120.34920634021253 l 5.836091588050896 22.893612555919105 a44.62577958258003,44.62577958258003 0 0,0 -0.7459873018208664,0.18334552900668852 l -5.441151001486818 -22.990679343239826" fill="#dbff1b" stroke="none" /><path d="M 104.13013068566511 120.58985236759428 l 1.7796287519019547 8.871945238431726 a30.048673428095828,30.048673428095828 0 0,0 -0.508012009815843,0.09736171075998003 l -1.6266491275144073 -8.901264147540175" fill="#ff6709" stroke="none" /><path d="M 103.41894727170886 120.7198165907248 l 1.962128467802821 11.891070188980756 a33.051867007373964,33.051867007373964 0 0,0 -0.5621400731340414,0.08779471842903189 l -1.7571525310602625 -11.923083214756893" fill="#ff900d" stroke="none" /><path d="M 102.70371172650421 120.8252237178851 l 2.977654746970186 22.935258094417314 a44.127742900025694,44.127742900025694 0 0,0 -0.7541065147361132,0.09131179696496505 l -2.5824208091826923 -22.98311542010763" fill="#e1ff1b" stroke="none" /><path d="M 101.98527174616119 120.90594882070398 l 0.8207541955151766 8.64297053488877 a29.681853322673174,29.681853322673174 0 0,0 -0.5090518159106117,0.043923132655100366 l -0.6718580618630232 -8.655817919822534" fill="#ff6209" stroke="none" /><path d="M 101.26447882468166 120.96189622390904 l 0.6317825600012226 10.473374642833797 a31.49241276410129,31.49241276410129 0 0,0 -0.5413874648708665,0.027983547985839505 l -0.4514070267168765 -10.482697997581838" fill="#ff7b0b" stroke="none" /><line stroke="#e1ed5e" stroke-width="0.3" x1="102.19456741930631" x2="102.32365962044197" y1="184.97166512339345" y2="189.96999836594603" /><path d="M 102.22038585953345 185.97133177190398 a86.0,86.0 0 0,1 -42.740103519485714,-10.115201625700543" fill="none" id="id31" stroke="none" /><text fill="#e1ed5e" style="font-size:6.75px; font-family:Arial;" text-anchor="middle"><textPath startOffset="22.20632615414155" xlink:href="#id31">July</textPath></text><path d="M 100.18074693466247 120.99922214144158 l 0.20295007620943684 23.57878844199036 a44.57966185350357,44.57966185350357 0 0,0 -0.7673940217437684,0.0 l 0.2029500762094206 -23.57878844199036" fill="#dcff1b" stroke="none" /><path d="M 99.09653310690486 120.98055641714683 l -0.4646694013928322 10.790680506117413 a31.800680693256936,31.800680693256936 0 0,0 -0.5466869125161218,-0.0282574688966519 l 0.6503443823224428 -10.78108323045856" fill="#ff7f0b" stroke="none" /><path d="M 98.37488393609728 120.93702456842531 l -0.4007305212088211 5.162772650045759 a26.178301496310233,26.178301496310233 0 0,0 -0.4489649540843444,-0.03873858538440119 l 0.4895397930347071 -5.155109812382694" fill="#ff3004" stroke="none" /><path d="M 97.65516085044442 120.86867818915974 l -0.9442916063963822 8.404038142379912 a29.456922829048818,29.456922829048818 0 0,0 -0.503394371649386,-0.06095404794831072 l 1.0888134010971575 -8.386538565706253" fill="#ff5e08" stroke="none" /><path d="M 96.93821686468263 120.77559828337769 l -1.2045805404653769 8.173629647381494 a29.26191478357297,29.26191478357297 0 0,0 -0.49768126299219073,-0.0777275779472595 l 1.3450976670660848 -8.151683762087128" fill="#ff5c08" stroke="none" /><path d="M 96.22490169976321 120.6578951692458 l -1.7422786688626661 9.534006066734865 a30.691893862424983,30.691893862424983 0 0,0 -0.5188864900613854,-0.09944583078051673 l 1.9061327734957465 -9.50260303760588" fill="#ff700a" stroke="none" /><path d="M 95.16358092515715 120.4354850818985 l -5.202168039485923 21.98089655162855 a43.58810230020319,43.58810230020319 0 0,0 -0.7286409588934876,-0.17908221994956514 l 5.579762283122621 -21.888093073364953" fill="#e8ff1a" stroke="none" /><path d="M 94.46302465271185 120.25689768951611 l -2.2417450999956934 8.201373184518099 a29.502231660281154,29.502231660281154 0 0,0 -0.4887098507604325,-0.13811428541565327 l 2.38258611886074 -8.161570105763923" fill="#ff5f08" stroke="none" /><path d="M 93.76903079525671 120.05430185196036 l -3.2156267877549114 10.349457383900432 a31.83750542234227,31.83750542234227 0 0,0 -0.521951121069709,-0.16711226629337833 l 3.3932992539155604 -10.292572270947346" fill="#ff7f0b" stroke="none" /><path d="M 92.7421414339146 119.70592522655815 l -6.333429055373297 17.1959922140247 a39.32524138515629,39.32524138515629 0 0,0 -0.6331921518148325,-0.23941909171767994 l 6.628491427948412 -17.084424872200387" fill="#ffe215" stroke="none" /><path d="M 92.40401165467489 119.57807347666478 l -9.68045119269925 24.9506155251771 a47.76274183224583,47.76274183224583 0 0,0 -0.7639284919954885,-0.3039829126522869 l 10.108500760736597 -24.780285768118745" fill="#b7ff1f" stroke="none" /><path d="M 91.7346041902142 119.30500536409082 l -4.823353477679534 11.265626825670756 a33.25475771061655,33.25475771061655 0 0,0 -0.5242839403452922,-0.22983067216262348 l 5.01655809268257 -11.18093160021368" fill="#ff930d" stroke="none" /><path d="M 91.07499286063937 119.00905698771935 l -5.707826436946091 12.156897616072051 a34.43016910846468,34.43016910846468 0 0,0 -0.5343026643360972,-0.2564977484007702 l 5.91624176928243 -12.056845591171719" fill="#ffa20f" stroke="none" /><path d="M 90.42595943632237 118.69057910512821 l -12.216914722697124 23.8500358888666 a47.79696283614766,47.79696283614766 0 0,0 -0.729038191810528,-0.3813983254824305 l 12.625643817034149 -23.636208144439454" fill="#b6ff1f" stroke="none" /><line stroke="#e1ed5e" stroke-width="0.3" x1="58.666819895761336" x2="56.23545636021788" y1="174.27360380694188" y2="178.64263932499728" /><path d="M 58.180547188652646 175.14741091055294 a86.0,86.0 0 0,1 -31.652253787137756,-30.449443065178592" fill="none" id="id32" stroke="none" /><text fill="#e1ed5e" style="font-size:6.75px; font-family:Arial;" text-anchor="middle"><textPath startOffset="22.20632615414155" xlink:href="#id32">August</textPath></text><path d="M 89.7882731507175 118.34994917583269 l -5.554285353950598 9.980765785977388 a32.42216141838518,32.42216141838518 0 0,0 -0.4853307819499544,-0.27558348434653057 l 5.72526490282176 -9.883679135836223" fill="#ff870c" stroke="none" /><path d="M 89.1626897886671 117.98757091392108 l -5.630446621927654 9.345313174025556 a31.910399052417475,31.910399052417475 0 0,0 -0.4680507926954728,-0.28751502518219907 l 5.790476614555436 -9.247009682014978" fill="#ff800b" stroke="none" /><path d="M 88.24862548938628 117.40417183066458 l -15.635284449671415 23.156370085697137 a48.94064414733322,48.94064414733322 0 0,0 -0.6941254248287732,-0.47742579657076983 l 16.031566759123077 -22.883803499761267" fill="#a9ff21" stroke="none" /><path d="M 87.95078237400918 117.19931262002967 l -33.41268833437 47.69399059560867 a79.23336226480275,79.23336226480275 0 0,0 -1.1102958684371749,-0.7921666219462402 l 34.228711530656064 -47.11177971181821" fill="#47ffff" stroke="none" /><path d="M 87.36589467227662 116.77436683061367 l -6.083635723663054 8.077274539465856 a31.112021934515997,31.112021934515997 0 0,0 -0.4250069186425302,-0.32587718199035903 l 6.221771370799071 -7.97135801564813" fill="#ff750a" stroke="none" /><path d="M 86.51685102203217 116.09983520530335 l -6.2618390745110695 7.477079526933483 a30.75281225325093,30.75281225325093 0 0,0 -0.4029123972958785,-0.34337068597333814 l 6.389616948384004 -7.368184450737194" fill="#ff700a" stroke="none" /><path d="M 86.24171649860922 115.8653595955263 l -15.2399483829107 17.573940912592494 a44.26154392797423,44.26154392797423 0 0,0 -0.5713061882780193,-0.504111286523843 l 15.540196924095307 -17.30900648429636" fill="#e0ff1b" stroke="none" /><path d="M 85.70375840098266 115.38237550388516 l -5.717272573469205 6.15163313896515 a29.39820194778367,29.39820194778367 0 0,0 -0.3677073421440408,-0.34769024313227503 l 5.822315750004063 -6.052308259086944" fill="#ff5e08" stroke="none" /><path d="M 85.18274418774928 114.88116024355367 l -7.281928323629509 7.313334104443898 a31.320432928598485,31.320432928598485 0 0,0 -0.37876750331128406,-0.38368948112014145 l 7.406736451996326 -7.186904129343092" fill="#ff780b" stroke="none" /><path d="M 83.72743513129214 113.27417163493432 l -6.545284195351191 5.339245933847294 a29.446791837142605,29.446791837142605 0 0,0 -0.3170186753250989,-0.39552954131775403 l 6.636220782731151 -5.22578855895128" fill="#ff5e08" stroke="none" /><path d="M 83.28015986056508 112.70617746262583 l -6.96369245044292 5.292030984302577 a29.746348065517072,29.746348065517072 0 0,0 -0.30630060124450087,-0.4103397102958813 l 7.053754318382507 -5.1713783944973875" fill="#ff6309" stroke="none" /><path d="M 83.06392112726016 112.41649034213515 l -9.603052191353862 7.040366644777884 a32.90736637056101,32.90736637056101 0 0,0 -0.3309857503410404,-0.45971025839190227 l 9.72281773407051 -6.874022780934844" fill="#ff8e0d" stroke="none" /><path d="M 82.44556493220864 111.52570212397912 l -11.422501586116965 7.49966320669681 a34.664497455037505,34.664497455037505 0 0,0 -0.3231971435797677,-0.5016091441030393 l 11.549903593073779 -7.3019324626723225" fill="#ffa50f" stroke="none" /><path d="M 82.24976979558568 111.22182372390057 l -10.557210358022918 6.674344630437957 a33.49005871841291,33.49005871841291 0 0,0 -0.30385906692638665,-0.48991756671853165 l 10.67053406461726 -6.491630732354161" fill="#ff960d" stroke="none" /><line stroke="#e1ed5e" stroke-width="0.3" x1="26.63291911575756" x2="22.317208475507996" y1="142.92168965132927" y2="145.44649492493687" /><path d="M 25.769776987707644 143.4266507060508 a86.0,86.0 0 0,1 -11.730757126820373,-40.83630448921669" fill="none" id="id33" stroke="none" /><text fill="#e1ed5e" style="font-size:6.75px; font-family:Arial;" text-anchor="middle"><textPath startOffset="21.46611528233685" xlink:href="#id33">September</textPath></text><path d="M 81.87401531095188 110.60418214915194 l -7.491916244029696 4.382969855749843 a29.67981761121556,29.67981761121556 0 0,0 -0.2541836167589828,-0.44319056102011006 l 7.566251856941055 -4.253359448871426" fill="#ff6209" stroke="none" /><path d="M 81.35079622478065 109.6543875284942 l -21.251121333676807 11.001357658120883 a44.92989820831983,44.92989820831983 0 0,0 -0.34964303483672654,-0.6898788783761813 l 21.4373430382998 -10.633924568042017" fill="#d8ff1c" stroke="none" /><path d="M 81.02952815118164 109.00673069616217 l -10.5894085273692 5.027600346356084 a32.72230089198359,32.72230089198359 0 0,0 -0.23719832338879446,-0.5109040864259788 l 10.67438146759782 -4.844576192651278" fill="#ff8b0c" stroke="none" /><path d="M 80.73074385275274 108.34839909993369 l -8.306456215538676 3.598769514688721 a30.05253317478119,30.05253317478119 0 0,0 -0.20156522906445645,-0.4764406601022631 l 8.367172425795438 -3.455254328920299" fill="#ff6709" stroke="none" /><path d="M 80.45479744820244 107.68017299344265 l -25.440355537806358 9.996638869678534 a48.33394370706068,48.33394370706068 0 0,0 -0.29761216243467903,-0.776971443691261 l 25.608661979834544 -9.557243859154115" fill="#b0ff20" stroke="none" /><path d="M 80.20201598880116 107.00284435728193 l -8.02320330566346 2.837927536693109 a29.510324552420435,29.510324552420435 0 0,0 -0.16527070234313387,-0.4803540225100682 l 8.070864838949822 -2.6994008110937444" fill="#ff5f08" stroke="none" /><path d="M 79.97269907076064 106.31721596034903 l -11.120795001493898 3.507834826241619 a32.66091705799528,32.66091705799528 0 0,0 -0.16450717191113057,-0.5376189561268424 l 11.179528945911159 -3.3158888975627288" fill="#ff8b0c" stroke="none" /><path d="M 79.67330655649465 105.27499134158121 l -16.174766238714966 4.197522440059379 a37.710543303910725,37.710543303910725 0 0,0 -0.15764566827950494,-0.6297160808514567 l 16.24462322128953 -3.9184785198105305" fill="#ffcd13" stroke="none" /><path d="M 79.50377843672027 104.57218783832718 l -7.991201227706934 1.7826345677490953 a29.18761766717516,29.18761766717516 0 0,0 -0.10516710229191926,-0.49130568997671653 l 8.020702368723295 -1.644815058356215" fill="#ff5b08" stroke="none" /><path d="M 79.35854240842038 103.8639653848113 l -11.139934407132838 2.0853333998946333 a32.333435224323566,32.333435224323566 0 0,0 -0.09769864268470105,-0.5479458724151898 l 11.174179492156728 -1.89326877674623" fill="#ff860c" stroke="none" /><path d="M 79.23777060512086 103.15116336523772 l -6.622218993297374 1.0050796324120659 a27.698057140893773,27.698057140893773 0 0,0 -0.06748558945763315,-0.4719940554864017 l 6.638538633771607 -0.8909401049452637" fill="#ff4606" stroke="none" /><path d="M 79.10278846688536 102.07522291339032 l -8.110187067911573 0.8053919542586645 a29.15007916995318,29.15007916995318 0 0,0 -0.04528729054642567,-0.49974147745075753 l 8.122848954735074 -0.6656690882593407" fill="#ff5a08" stroke="none" /><path d="M 79.04373962182676 101.35467743843564 l -11.665261478916506 0.7540785547501436 a32.6896090541227,32.6896090541227 0 0,0 -0.03146553747827644,-0.5618383090271449 l 11.676513367282313 -0.553168529387561" fill="#ff8b0c" stroke="none" /><path d="M 79.0235259727143 100.99374915477108 l -7.081920659352695 0.33550217544822686 a28.0898633227374,28.0898633227374 0 0,0 -0.018723722619981124,-0.48317608383046495 l 7.086646514823878 -0.21354884460376514" fill="#ff4b07" stroke="none" /><line stroke="#e1ed5e" stroke-width="0.3" x1="15.007084014347285" x2="10.007500721073583" y1="101.09737516637583" y2="101.16192664675087" /><path d="M 14.007167355692545 101.11028546245083 a86.0,86.0 0 0,1 10.666146001902534,-42.60595125391555" fill="none" id="id34" stroke="none" /><text fill="#e1ed5e" style="font-size:6.75px; font-family:Arial;" text-anchor="middle"><textPath startOffset="22.20632615414155" xlink:href="#id34">October</textPath></text><path d="M 79.00019446554 99.90962569577889 l -12.603629891760503 -0.05424070619412328 a33.603746605779065,33.603746605779065 0 0,0 0.007468021248917195,-0.5784064757767912 l 12.60082886339387 0.27118344003138645" fill="#ff970d" stroke="none" /><path d="M 79.01574976396665 99.18683210126434 l -11.755423863607922 -0.45553847358827415 a32.764246916568936,32.764246916568936 0 0,0 0.026689430651867,-0.5633716981635412 l 11.745840824722556 0.6578212783748244" fill="#ff8c0c" stroke="none" /><path d="M 79.12142395522702 97.74499172005258 l -1.8812160398254336 -0.20318233087731538 a22.89215666583854,22.89215666583854 0 0,0 0.04568581927865868,-0.39140819971988494 l 1.877439867543186 0.23553426892206206" fill="#ff0000" stroke="none" /><path d="M 79.21141760316559 97.0276538004421 l -11.462858229549484 -1.6389565408683517 a32.57943424065293,32.57943424065293 0 0,0 0.0841543953636773,-0.5544723197796584 l 11.432947940746505 1.8360279730401023" fill="#ff890c" stroke="none" /><path d="M 79.32604984820605 96.31383870115002 l -13.17737941564442 -2.349524191824365 a34.38520049128205,34.38520049128205 0 0,0 0.10890984375675695,-0.5818007402570109 l 13.134983847977802 2.576003009543949" fill="#ffa20e" stroke="none" /><path d="M 79.46518482838121 95.60439243477599 l -24.075395343085304 -5.153491230448809 a45.62078659970405,45.62078659970405 0 0,0 0.1709815226085208,-0.7664766397465845 l 23.983119433474748 5.567146039745353" fill="#cfff1d" stroke="none" /><path d="M 79.62865764111835 94.90015583598534 l -7.925600977990769 -1.9841269751324326 a29.170184252253826,29.170184252253826 0 0,0 0.12613141572017347,-0.48603579701246935 l 7.890273230400288 2.1202591976937657" fill="#ff5a08" stroke="none" /><path d="M 79.81627453868168 94.20196356495316 l -11.435736698953196 -3.285063412560023 a32.89822320652649,32.89822320652649 0 0,0 0.1610353971968435,-0.5429313043635772 l 11.377495404644646 3.4814241036701397" fill="#ff8e0d" stroke="none" /><path d="M 80.02781315780177 93.51064311812611 l -10.92626111720644 -3.55015744316413 a32.48855081690598,32.48855081690598 0 0,0 0.17739167419522545,-0.5303785270052539 l 10.863532149239443 3.7377090730917057" fill="#ff880c" stroke="none" /><path d="M 80.2630227832202 92.82701384747504 l -15.758554970343273 -5.727112887883146 a37.766987707512875,37.766987707512875 0 0,0 0.22731304534976488,-0.6090859486015183 l 15.65763733649188 5.997521973514005" fill="#ffce13" stroke="none" /><path d="M 80.65960295795068 91.81776055985345 l -8.104914086678347 -3.4289031168716857 a29.800398226065084,29.800398226065084 0 0,0 0.20393305121301186,-0.4707055992021799 l 8.044690325622655 3.567907860660465" fill="#ff6309" stroke="none" /><path d="M 80.95270993114464 91.15688171328213 l -7.324959047919554 -3.4007713996035975 a29.075906832428192,29.075906832428192 0 0,0 0.2146657671899345,-0.45214085229803314 l 7.265335086887869 3.526354667542163" fill="#ff5908" stroke="none" /><path d="M 81.26839172434947 90.50648371742162 l -26.819283760683106 -13.592495813619223 a51.06709037933828,51.06709037933828 0 0,0 0.4041366046193294,-0.7806632860268752 l 26.581337722903662 14.052131821906434" fill="#91ff24" stroke="none" /><path d="M 81.6062741919709 89.86733742301443 l -8.06820116012563 -4.444578592288819 a30.21141405123473,30.21141405123473 0 0,0 0.2548438640441297,-0.4533387978920009 l 7.990499654789069 4.582800900115604" fill="#ff6909" stroke="none" /><line stroke="#e1ed5e" stroke-width="0.3" x1="26.266209847984243" x2="21.928928074336255" y1="57.711370442889674" y2="55.22380399835377" /><path d="M 25.398753493254645 57.213857153982495 a86.0,86.0 0 0,1 29.58750427330803,-30.492523968695096" fill="none" id="id35" stroke="none" /><text fill="#e1ed5e" style="font-size:6.75px; font-family:Arial;" text-anchor="middle"><textPath startOffset="21.46611528233685" xlink:href="#id35">November</textPath></text><path d="M 82.15384107792192 88.93136811851018 l -8.72935984406045 -5.4141662134046165 a31.2720455155469,31.2720455155469 0 0,0 0.2876617239306599,-0.45501176514587965 l 8.634870523883828 5.563625626264711" fill="#ff780b" stroke="none" /><path d="M 82.54541684631803 88.32363383020206 l -20.235961756919465 -13.536988949631635 a45.346338904442206,45.346338904442206 0 0,0 0.43959072249705755,-0.6450451426183155 l 19.999946568753668 13.883312115520367" fill="#d3ff1c" stroke="none" /><path d="M 83.39014120810768 87.1503855733568 l -14.195776028790643 -10.982046912161765 a38.9478525579109,38.9478525579109 0 0,0 0.41478706162878287,-0.5267374459829496 l 14.004634886567889 11.224776752097764" fill="#ffdd14" stroke="none" /><path d="M 83.84228863543731 86.58626213691792 l -4.433810552374152 -3.6808413730271936 a26.762574878275604,26.762574878275604 0 0,0 0.2973059368979913,-0.35191645416745054 l 4.369794001989036 3.75661677682376" fill="#ff3805" stroke="none" /><path d="M 84.31358615837235 86.03803664274999 l -12.318116814596745 -10.963952457974901 a37.49073240819779,37.49073240819779 0 0,0 0.43320783984815875,-0.4783589167618821 l 12.127565334132541 11.17436416200634" fill="#ffca12" stroke="none" /><path d="M 84.80347519578584 85.50635884689758 l -4.334231302002946 -4.133760446885477 a26.989452096101694,26.989452096101694 0 0,0 0.3235337902695988,-0.33343001029588304 l 4.262433248030229 4.2077546527314835" fill="#ff3c05" stroke="none" /><path d="M 85.31137513191541 84.99185889309783 l -5.7704425064304345 -5.895964813829944 a29.249873199385547,29.249873199385547 0 0,0 0.36286105193579565,-0.349072044467797 l 5.668098210882211 5.994419945060055" fill="#ff5c08" stroke="none" /><path d="M 85.83668400450813 84.49514656593479 l -16.294439148227106 -17.837834788404848 a45.159824028616235,45.159824028616235 0 0,0 0.5784522126570096,-0.5193401079388459 l 15.984975947974124 18.115673905112974" fill="#d5ff1c" stroke="none" /><path d="M 87.22198572758235 83.33499621200491 l -1.6822701097440813 -2.194005825445966 a23.764723184014848,23.764723184014848 0 0,0 0.3267692963929261,-0.24611585940518294 l 1.6442546595927652 2.2226382743570032" fill="#ff0d01" stroke="none" /><path d="M 88.09926311788651 82.69761687909137 l -6.204549387304274 -9.020743140123287 a31.948526836957527,31.948526836957527 0 0,0 0.45579184099900777,-0.30775268565347164 l 6.048352851898726 9.126207738075424" fill="#ff810b" stroke="none" /><path d="M 89.00827224532344 82.1063720568725 l -5.990636862212676 -9.752263661116547 a32.44527747723207,32.44527747723207 0 0,0 0.47839469900215154,-0.28822745335397804 l 5.821880096992875 9.853937723929144" fill="#ff880c" stroke="none" /><line stroke="#e1ed5e" stroke-width="0.3" x1="56.762969772571076" x2="54.21961505331055" y1="26.818313649435495" y2="22.513508569990535" /><path d="M 56.25429882871897 25.957352633546506 a86.0,86.0 0 0,1 42.265352541879196,-11.944610805530505" fill="none" id="id36" stroke="none" /><text fill="#e1ed5e" style="font-size:6.75px; font-family:Arial;" text-anchor="middle"><textPath startOffset="22.20632615414155" xlink:href="#id36">December</textPath></text><path d="M 89.63071344664047 81.73862282372117 l -4.871268860001346 -8.578804098216928 a30.865350478416993,30.865350478416993 0 0,0 0.4642676523085972,-0.25836444585781415 l 4.722877118620704 8.661383941634927" fill="#ff720a" stroke="none" /><path d="M 90.26544431104013 81.39251694778311 l -13.012458616991205 -24.873154042144957 a49.07129977865615,49.07129977865615 0 0,0 0.7518179078176398,-0.38511033315015913 l 12.5823802215848 25.093456900607624" fill="#a8ff21" stroke="none" /><path d="M 90.91171255644093 81.06846463323043 l -3.6259270121414486 -7.553058361543095 a29.378307544501638,29.378307544501638 0 0,0 0.4577724925572397,-0.21493032331460502 l 3.4953763082846003 7.614353667497707" fill="#ff5d08" stroke="none" /><path d="M 91.56875222667455 80.76684994638697 l -3.986238381781558 -9.09330659085078 a30.92866160122293,30.92866160122293 0 0,0 0.4894331714235044,-0.20954974152863087 l 3.8291214525677453 9.160575860342197" fill="#ff730a" stroke="none" /><path d="M 92.23578459929587 80.48803036053334 l -1.6568814673095704 -4.163849045636651 a25.481394322257657,25.481394322257657 0 0,0 0.4089361364705949,-0.1586608677465269 l 1.5849621658392992 4.191752617273729" fill="#ff2603" stroke="none" /><path d="M 92.57280143429618 80.3572730644239 l -5.901624551944805 -15.608038283160989 a37.68652244779411,37.68652244779411 0 0,0 0.6087587854505034,-0.22421099820814633 l 5.632083440721733 15.707312549175457" fill="#ffcd13" stroke="none" /><path d="M 93.25333710446033 80.11325718540243 l -3.334890950738086 -9.830062607085713 a31.380348188405797,31.380348188405797 0 0,0 0.5130196465282858,-0.16913451156638806 l 3.165188481967391 9.886010842911334" fill="#ff790b" stroke="none" /><path d="M 96.04723909329186 79.375362276772 l -1.3411059735355024 -6.997596238539469 a28.124950410344926,28.124950410344926 0 0,0 0.47625569450751615,-0.08703268402146093 l 1.2204551579250928 7.019644403911666" fill="#ff4c07" stroke="none" /><path d="M 98.55514903715128 79.0497635885617 l -0.20832082708790237 -3.020637206977376 a24.027812197474386,24.027812197474386 0 0,0 0.4128641202001416,-0.024905091213476796 l 0.15629465804813777 3.023775567571159" fill="#ff1101" stroke="none" /><path d="M 99.63851952072746 79.00311137660856 l -0.1404359150805565 -8.157334729677881 a29.15854350593618,29.15854350593618 0 0,0 0.5019163943530902,-0.004320152866857902 l 1.9982668380498335e-15 8.15854350593618" fill="#ff5a08" stroke="none" /></svg>