<?xml version="1.0" encoding="utf-8" ?>
<svg baseProfile="full" height="200mm" version="1.1" viewBox="0,0,200,200" width="200mm" xmlns="http://www.w3.org/2000/svg" xmlns:ev="http://www.w3.org/2001/xml-events" xmlns:xlink="http://www.w3.org/1999/xlink"><defs /><rect fill="#1a1a1a" height="200" width="200" x="0" y="0" /><text alignment-baseline="middle" fill="#e1ed5e" style="dominant-baseline: central; font-size:9.0px; font-family:Arial;" text-anchor="middle" x="100.0" y="100.0">2026</text><line stroke="#e1ed5e" stroke-width="0.3" x1="100.0" x2="100.0" y1="15.0" y2="10.0" /><path d="M 100.0 14.0 a86.0,86.0 0 0,1 42.46469731375804,11.215312516191453" fill="none" id="id157" stroke="none" /><text fill="#e1ed5e" style="font-size:6.75px; font-family:Arial;" text-anchor="middle"><textPath startOffset="22.20632615414155" xlink:href="#id157">January</textPath></text><path d="M 100.0 79.0 l 0.0 -39.67738148192146 a60.67738148192146,60.67738148192146 0 0,0 1.0444613780517622,0.008990008829116833 l -0.6829808987792338 39.6715028497009" fill="#36ff2e" stroke="none" /><path d="M 100.72285384407766 79.0124445844662 l 0.462133928719544 -13.417735158862554 a34.42569121354465,34.42569121354465 0 0,0 0.5920549515764614,0.0254951316355558 l -0.693029712685337 13.407792300702804" fill="#ff880c" stroke="none" /><path d="M 101.44485096284872 79.0497635885617 l 0.9111688109191686 -13.211883087130861 a34.2432655833071,34.2432655833071 0 0,0 0.5876956602140367,0.04561649411922822 l -1.1384546604955466 13.194241330823168" fill="#ff850c" stroke="none" /><path d="M 102.16513564639614 79.11191278185805 l 1.244932705536649 -12.010454392199879 a33.07480319294804,33.07480319294804 0 0,0 0.5657890753223709,0.06357299500147025 l -1.451488484368745 11.987245443727808" fill="#ff750a" stroke="none" /><path d="M 103.2404852339499 79.25152402106235 l 1.8242336829247205 -11.680370690656156 a32.82196633395039,32.82196633395039 0 0,0 0.5574588946863428,0.0919854941153718 l -2.0250217837499385 11.64723893360116" fill="#ff710a" stroke="none" /><path d="M 103.59715602781102 79.31037775812273 l 3.9422331365201457 -22.67438880977492 a44.01454127284582,44.01454127284582 0 0,0 0.7453231247162718,0.13620303705637798 l -4.3319513823393185 22.603170291367803" fill="#f6ff19" stroke="none" /><path d="M 104.307194497241 79.44645832069477 l 2.801021266613531 -13.366219562371484 a34.656556869340946,34.656556869340946 0 0,0 0.5828197721045136,0.12738182822790264 l -3.0306837628715724 13.31602423604771" fill="#ff8b0c" stroke="none" /><path d="M 105.01212808612495 79.60689891045804 l 3.2286186321087285 -13.136445240982727 a34.5273859943796,34.5273859943796 0 0,0 0.5759350671796348,0.14681867235329019 l -3.4542625879733886 13.07892357246057" fill="#ff890c" stroke="none" /><path d="M 106.0581310904928 79.89281104454417 l 3.5976466898038177 -11.940738935210343 a33.4709385381977,33.4709385381977 0 0,0 0.5502217891660179,0.1709565882363109 l -3.802653851680554 11.877042212091512" fill="#ff7a0b" stroke="none" /><path d="M 106.40334571778207 80.00007090966166 l 3.3748235095545476 -10.540775691067395 a32.06785371650888,32.06785371650888 0 0,0 0.5242592873664206,0.17284004443672624 l -3.5557656191633855 10.481121922371432" fill="#ff6609" stroke="none" /><path d="M 107.08798089147638 80.2323363322302 l 4.456039670862387 -12.42744511483857 a34.20218472945385,34.20218472945385 0 0,0 0.5524755027343826,0.20348139018963743 l -4.669297499369346 12.348900456842607" fill="#ff850c" stroke="none" /><path d="M 108.09893153111575 80.62456947434976 l 16.202453789141302 -38.76184364943227 a63.01190345476258,63.01190345476258 0 0,0 0.9971370938364835,0.4269220651193653 l -16.8672746407681 38.477202056350116" fill="#32ff44" stroke="none" /><path d="M 108.76106565485865 80.91482961587045 l 4.539844411332053 -9.889630727702665 a31.881864877373896,31.881864877373896 0 0,0 0.4967828977275624,0.23324623161449617 l -4.709405520359213 9.810019513448164" fill="#ff6409" stroke="none" /><path d="M 109.41281617654863 81.2277094730956 l 5.953008503844229 -11.872281689906757 a34.281166468775886,34.281166468775886 0 0,0 0.525219323073936,0.26903773690765415 l -6.156488314506921 11.768051427686602" fill="#ff860c" stroke="none" /><line stroke="#e1ed5e" stroke-width="0.3" x1="143.23703022742887" x2="145.7803849466894" y1="26.81831364943548" y2="22.513508569990506" /><path d="M 143.74570117128098 25.957352633546492 a86.0,86.0 0 0,1 28.547481713284135,27.462654790039103" fill="none" id="id158" stroke="none" /><text fill="#e1ed5e" style="font-size:6.75px; font-family:Arial;" text-anchor="middle"><textPath startOffset="19.985693538727396" xlink:href="#id158">February</textPath></text><path d="M 110.68208982089419 81.91981866633111 l 5.346938494580231 -9.050065968635767 a31.511586240976342,31.511586240976342 0 0,0 0.4646277358981256,0.2799330121234003 l -5.5019282966959935 8.956686347053752" fill="#ff5e08" stroke="none" /><path d="M 110.99172775467656 82.1063720568725 l 6.087457160898576 -9.909879137108561 a32.63025533674454,32.63025533674454 0 0,0 0.47606120420863207,0.2981094824015066 l -6.257137517479471 9.80362531338411" fill="#ff6e0a" stroke="none" /><path d="M 111.2981086023043 82.29822771554956 l 6.289676765568703 -9.854607506975817 a32.69073662913843,32.69073662913843 0 0,0 0.47173195952526636,0.30682758855336706 l -6.4583757508782496 9.744880994262923" fill="#ff6f0a" stroke="none" /><path d="M 112.19680574252982 82.90503203632743 l 4.076343594891505 -5.7133781282260845 a28.018494620622374,28.018494620622374 0 0,0 0.39019714192939,0.28349481791784387 l -4.174086053174684 5.642364075491566" fill="#ff2b04" stroke="none" /><path d="M 116.38621287248628 86.86637796730983 l 8.515717433101186 -6.825385156037685 a31.913447023222453,31.913447023222453 0 0,0 0.33987200956782887,0.43160293760818774 l -8.631943523262978 6.677789824476458" fill="#ff6409" stroke="none" /><path d="M 116.60985879189232 87.15038557335679 l 9.399593553032517 -7.271654409403251 a32.88399414388968,32.88399414388968 0 0,0 0.34250098575228705,0.45069114973573277 l -9.523370479008918 7.108778483786484" fill="#ff720a" stroke="none" /><path d="M 117.2510076193507 88.02491185347247 l 9.488103637474595 -6.58633280497173 a32.55006019262694,32.55006019262694 0 0,0 0.3155426617251867,0.4630199201623225 l -9.600070764868514 6.422034861539" fill="#ff6d0a" stroke="none" /><path d="M 117.45458315368197 88.32363383020206 l 6.3499519293183635 -4.247845006352711 a28.639769414232976,28.639769414232976 0 0,0 0.2705822197312864,0.41211528422980565 l -6.4221307844075755 4.137911658145231" fill="#ff3404" stroke="none" /><line stroke="#e1ed5e" stroke-width="0.3" x1="172.23445277983987" x2="176.4835382374775" y1="55.19839476539836" y2="52.563006222186495" /><path d="M 173.08426987136738 54.67131705675599 a86.0,86.0 0 0,1 12.851231095245387,41.99856678651699" fill="none" id="id159" stroke="none" /><text fill="#e1ed5e" style="font-size:6.75px; font-family:Arial;" text-anchor="middle"><textPath startOffset="22.20632615414155" xlink:href="#id159">March</textPath></text><path d="M 117.84615892207809 88.93136811851018 l 10.95666668670826 -6.795597345786419 a33.89297049440826,33.89297049440826 0 0,0 0.30323589071668866,0.49844007382927563 l -11.072018375711172 6.605989498750062" fill="#ff800b" stroke="none" /><path d="M 118.56541770881063 90.18545643968196 l 10.471675519035236 -5.53581487597305 a32.84488220781475,32.84488220781475 0 0,0 0.2599290281859972,0.5021001487073525 l -10.565413980381349 5.3547420050053525" fill="#ff720a" stroke="none" /><path d="M 118.89224826269711 90.83032412892265 l 15.460656357617937 -7.504094038050097 a38.18555563082704,38.18555563082704 0 0,0 0.28192178638854865,0.5937991811536495 l -15.587536337848242 7.236852441255907" fill="#ffbc11" stroke="none" /><path d="M 119.34039704204932 91.81776055985345 l 11.231510679035841 -4.751655793344379 a33.195288635851114,33.195288635851114 0 0,0 0.2181061871095485,0.5281614321133494 l -11.311638553031587 4.557619790777727" fill="#ff770a" stroke="none" /><path d="M 119.61058180528143 92.48833698450437 l 12.17096788950157 -4.66198352838935 a34.033286223598864,34.033286223598864 0 0,0 0.20484053413684508,0.5488707911805368 l -12.24941301214004 4.45178960017948" fill="#ff820c" stroke="none" /><path d="M 119.85752413597 93.16781622104841 l 11.089723859113095 -3.8155326386354553 a32.727756161682194,32.727756161682194 0 0,0 0.17869776620362418,0.5342835758678393 l -11.153758919088489 3.624075959845302" fill="#ff700a" stroke="none" /><path d="M 120.18372546131832 94.20196356495316 l 10.599095492467468 -3.0447273949322367 a32.02774637756487,32.02774637756487 0 0,0 0.14765283610921529,0.5311858114414502 l -10.649935099143047 2.8618302800718345" fill="#ff6609" stroke="none" /><path d="M 120.37134235888165 94.90015583598534 l 11.02831147107026 -2.760872057611479 a32.36864408895976,32.36864408895976 0 0,0 0.13065711041787137,0.5416580744771871 l -11.074201381748951 2.570628751474886" fill="#ff6b09" stroke="none" /><path d="M 120.53481517161879 95.60439243477599 l 25.73355337601231 -5.508430485219642 a47.316507666606746,47.316507666606746 0 0,0 0.16362657626630614,0.7979012966702861 l -25.824559248193612 5.064653532385944" fill="#cdff1d" stroke="none" /><path d="M 120.73433829027371 96.67025291283417 l 11.703372840707749 -1.8794557646743153 a32.85332399877702,32.85332399877702 0 0,0 0.0848618670410889,0.5591336741920675 l -11.733990601188138 1.6777229780901657" fill="#ff720a" stroke="none" /><path d="M 120.83666639777658 97.38593545837742 l 11.901936739788017 -1.4931577928144393 a32.99523315122129,32.99523315122129 0 0,0 0.06584850352056976,0.5641497651608289 l -11.925875596312176 1.2880642893287577" fill="#ff740a" stroke="none" /><path d="M 120.91429891909075 98.10471618934814 l 5.4817611837122975 -0.49676507281179266 a26.504223942829775,26.504223942829775 0 0,0 0.03726432823217882,0.4547191915147717 l -5.48949999576397 0.4023319640892522" fill="#ff1402" stroke="none" /><path d="M 120.94382443527127 98.46500227214037 l 35.320188389025766 -2.5886584893933455 a56.41492426380408,56.41492426380408 0 0,0 0.06264584249345574,0.9691034556675634 l -35.35951482252364 1.980295969472747" fill="#63ff29" stroke="none" /><path d="M 120.98425023603335 99.18683210126433 l 11.229759750177102 -0.43516828271888053 a32.23818826506222,32.23818826506222 0 0,0 0.016715202096496917,0.5546961815761932 l -11.235586646729244 0.24180195371768826" fill="#ff6909" stroke="none" /><line stroke="#e1ed5e" stroke-width="0.3" x1="184.98032266829074" x2="189.97916517819016" y1="98.17113171792111" y2="98.06355123074" /><path d="M 185.9800911702706 98.14961562048488 a86.0,86.0 0 0,1 -9.607161424134198,41.387399972396054" fill="none" id="id160" stroke="none" /><text fill="#e1ed5e" style="font-size:6.75px; font-family:Arial;" text-anchor="middle"><textPath startOffset="21.466115282336823" xlink:href="#id160">April</textPath></text><path d="M 120.99980553446 99.90962569577887 l 12.370723412079993 -0.053238374957528985 a33.37083796930314,33.37083796930314 0 0,0 -0.0024721477657333644,0.5744400776335087 l -12.369806967024758 -0.1597111808796644" fill="#ff790b" stroke="none" /><path d="M 120.9904718944345 100.63252640178507 l 12.342222463368214 0.371920250485416 a33.34782490999901,33.34782490999901 0 0,0 -0.022228496323404904,0.5736187200040355 l -12.333991834193608 -0.5843162175034576" fill="#ff790b" stroke="none" /><path d="M 120.89721153311464 102.0752229133903 l 13.50166180457073 1.3407988860758635 a34.56807330234866,34.56807330234866 0 0,0 -0.06389776414952895,0.5916139376295358 l -13.47658173892015 -1.5730091455901907" fill="#ff8a0c" stroke="none" /><path d="M 120.81339534386255 102.79330883721812 l 13.571529727080334 1.8213978687720729 a34.6932066854113,34.6932066854113 0 0,0 -0.08452908777791712,0.5911962430425699 l -13.538166588285815 -2.0547395837950524" fill="#ff8c0c" stroke="none" /><path d="M 120.70491114924044 103.5080841355445 l 16.204045183626885 2.745491319938028 a37.43498715852485,37.43498715852485 0 0,0 -0.11311348172358031,0.6344004760124644 l -16.154385259564116 -3.024010546683711" fill="#ffb210" stroke="none" /><path d="M 120.5718875245553 104.21870165774334 l 15.280094913079095 3.133507397575362 a36.59808222709975,36.59808222709975 0 0,0 -0.1318680510740656,0.6160436334833561 l -15.223892823280586 -3.3960648504748865" fill="#ffa60f" stroke="none" /><path d="M 120.41448212921028 104.9243191809786 l 11.387349811318066 2.746821826851594 a32.71395603004356,32.71395603004356 0 0,0 -0.1367578668612711,0.5462796972816173 l -11.338380630161733 -2.942429363530607" fill="#ff700a" stroke="none" /><path d="M 120.23288151984713 105.62410040840565 l 11.107913706201057 3.0876482892611823 a32.52906409309042,32.52906409309042 0 0,0 -0.15460191008068672,0.5381895308560282 l -11.05311915923427 -3.2783952956217925" fill="#ff6d0a" stroke="none" /><path d="M 120.13307415673323 105.97154293290107 l 34.97527887216114 10.373794769213081 a57.4813068584336,57.4813068584336 0 0,0 -0.28952301652294726,0.9461779696866164 l -34.79152908313206 -10.974299711451755" fill="#58ff2a" stroke="none" /><path d="M 119.9155931802556 106.66101706037122 l 10.546894560894454 3.5275396503732344 a32.12117443724269,32.12117443724269 0 0,0 -0.1798926016519833,0.5228521062609397 l -10.48461112829924 -3.7085644597234744" fill="#ff6709" stroke="none" /><path d="M 119.67450827220406 107.3425965602758 l 11.49241925559135 4.289011797797734 a33.26667528501244,33.26667528501244 0 0,0 -0.20483673396463892,0.5347640755254527 l -11.416888242033204 -4.48619944015633" fill="#ff780b" stroke="none" /><path d="M 119.41010516605496 108.01547362559984 l 9.870940265765073 4.076240735597843 a31.679475654958416,31.679475654958416 0 0,0 -0.2124772886830014,0.5022335456702027 l -9.799311995889763 -4.2455488069342096" fill="#ff6108" stroke="none" /><path d="M 118.97047184881838 109.00673069616215 l 10.64304377748749 5.053065092699052 a32.78167423079457,32.78167423079457 0 0,0 -0.24640383428801257,0.5076648810382347 l -10.554486686584763 -5.235518929702562" fill="#ff710a" stroke="none" /><path d="M 118.64920377521936 109.65438752849418 l 12.45734210224816 6.448962094024602 a35.02763288451087,35.02763288451087 0 0,0 -0.2818014627932079,0.5330621679507063 l -12.34448813123006 -6.662439277061443" fill="#ff900d" stroke="none" /><line stroke="#e1ed5e" stroke-width="0.3" x1="174.80103733775053" x2="179.2010983576182" y1="140.37084112569926" y2="142.7455964860345" /><path d="M 175.68104954172406 140.8457921977663 a86.0,86.0 0 0,1 -30.038265399797805,32.042727171017184" fill="none" id="id161" stroke="none" /><text fill="#e1ed5e" style="font-size:6.75px; font-family:Arial;" text-anchor="middle"><textPath startOffset="22.206326154141568" xlink:href="#id161">May</textPath></text><path d="M 118.12598468904814 110.60418214915192 l 3.629988780403315 2.1236397849344106 a25.205551626363683,25.205551626363683 0 0,0 -0.22231191427515268,0.37260755568257353 l -3.592895990429935 -2.1858094345030885" fill="#ff0000" stroke="none" /><path d="M 117.94076556474637 110.91462005526583 l 11.040570605437932 6.716749790682346 a33.9231933764179,33.9231933764179 0 0,0 -0.30778894636138854,0.49625378366861106 l -10.92331701940858 -6.905799905716231" fill="#ff810b" stroke="none" /><path d="M 117.55443506779139 111.5257021239791 l 9.146748479586662 6.005473714850705 a31.942062067479952,31.942062067479952 0 0,0 -0.30572644201626065,0.4570195493059367 l -9.042018932159682 -6.162030178362449" fill="#ff6509" stroke="none" /><path d="M 117.14729908036423 112.12312394758627 l 10.757068488941506 7.605237069285568 a34.17399534521755,34.17399534521755 0 0,0 -0.34372563772247783,0.4774048477026808 l -10.624563058843425 -7.789275522439381" fill="#ff840c" stroke="none" /><path d="M 116.498646956653 112.99209946851258 l 10.68544657977346 8.414410296470596 a34.60077458259428,34.60077458259428 0 0,0 -0.3725054934358217,0.46475787839918964 l -10.539023174282784 -8.597096008448036" fill="#ff8a0c" stroke="none" /><path d="M 116.0416608686014 113.55231037782055 l 10.225196028170679 8.638446566281807 a34.38571600225492,34.38571600225492 0 0,0 -0.38586912093825276,0.4488529627593326 l -10.074984397661646 -8.813176628202667" fill="#ff870c" stroke="none" /><path d="M 115.56566222782051 114.09645910891815 l 8.487867085342707 7.686718980488817 a32.45118056548979,32.45118056548979 0 0,0 -0.3785253925855306,0.41081455397860817 l -8.354295284761454 -7.831684789268761" fill="#ff6c09" stroke="none" /><path d="M 115.07121518719521 114.62390073753431 l 9.784287587897118 9.49388942402361 a34.63327620193565,34.63327620193565 0 0,0 -0.4188307226915511,0.4242733108352937 l -9.619416240150032 -9.660903228839567" fill="#ff8b0c" stroke="none" /><path d="M 114.55890576462653 115.13401014063108 l 9.011464442816445 9.367434370712056 a33.99828135153808,33.99828135153808 0 0,0 -0.42524429539753883,0.40209502370900574 l -8.848884313028098 -9.521164031166984" fill="#ff820c" stroke="none" /><path d="M 113.48314897796784 116.09983520530334 l 7.343202652400185 8.7683042571119 a32.43703566224674,32.43703566224674 0 0,0 -0.43114979022829536,0.35480692482961207 l -7.1911827336271985 -8.89340630079869" fill="#ff6c09" stroke="none" /><path d="M 112.92097659922987 116.55440617244103 l 8.005177389171402 10.256264839198224 a34.01052779420861,34.01052779420861 0 0,0 -0.4646020644253332,0.3562370513529811 l -7.827446596252575 -10.392541232378576" fill="#ff820c" stroke="none" /><path d="M 112.34349029814194 116.9893568818739 l 7.802722185517582 10.739525746605718 a34.27478386891385,34.27478386891385 0 0,0 -0.4802920112622488,0.342675597491793 l -7.616702846406448 -10.87224560594173" fill="#ff860c" stroke="none" /><line stroke="#e1ed5e" stroke-width="0.3" x1="143.8653032363475" x2="146.44561519142675" y1="172.8068346515853" y2="177.08958963109032" /><path d="M 144.38136562736335 173.6633856474863 a86.0,86.0 0 0,1 -40.68145358897372,12.25698825130547" fill="none" id="id162" stroke="none" /><text fill="#e1ed5e" style="font-size:6.75px; font-family:Arial;" text-anchor="middle"><textPath startOffset="21.466115282336833" xlink:href="#id162">June</textPath></text><path d="M 110.8373102113329 117.98757091392108 l 6.7965567916076965 11.2808016819239 a34.170029263765734,34.170029263765734 0 0,0 -0.5064195692754426,0.2992016078945525 l -6.601369351303872 -11.396121862112203" fill="#ff840c" stroke="none" /><path d="M 110.21172684928248 118.3499491758327 l 6.343244411785957 11.398484730752038 a34.044623560104796,34.044623560104796 0 0,0 -0.5145231855474484,0.2805590649712237 l -6.14609841436986 -11.505984447483032" fill="#ff830c" stroke="none" /><path d="M 108.92500713936063 119.00905698771935 l 5.555406068134891 11.832262864348055 a34.07153323343899,34.07153323343899 0 0,0 -0.5330280524027946,0.24468703548308965 l -5.350910019964677 -11.926136970165219" fill="#ff830c" stroke="none" /><path d="M 108.2653958097858 119.30500536409082 l 5.082193468893023 11.87018437304211 a33.912395885554005,33.912395885554005 0 0,0 -0.538607233554911,0.22513786730829285 l -4.877114775840652 -11.955907283370376" fill="#ff810b" stroke="none" /><path d="M 107.59598834532513 119.57807347666477 l 4.807711971761637 12.391506405577744 a34.291483190483085,34.291483190483085 0 0,0 -0.5521415067143235,0.20877267296868166 l -4.593700244287039 -12.472427328653056" fill="#ff860c" stroke="none" /><path d="M 106.91757812671514 119.82793768551818 l 3.905254018487994 11.193676732852326 a32.855353548018556,32.855353548018556 0 0,0 -0.53558961688262,0.18170107740347766 l -3.711994668668147 -11.259240797153927" fill="#ff720a" stroke="none" /><path d="M 106.2309692047433 120.05430185196036 l 3.6750004220459993 11.827946078386748 a33.38571501913647,33.38571501913647 0 0,0 -0.5502681649680609,0.16579128418628955 l -3.4708572826376924 -11.889452731678762" fill="#ff790b" stroke="none" /><path d="M 105.53697534728816 120.25689768951611 l 3.268366866506118 11.957245440698044 a33.39588401459005,33.39588401459005 0 0,0 -0.5558181254218076,0.14679661867622937 l -3.0620582982728126 -12.011733408677857" fill="#ff790b" stroke="none" /><path d="M 104.48393922423573 120.51570834832081 l 2.4703721893668606 11.302881866667526 a32.569696506211336,32.569696506211336 0 0,0 -0.5487350820262535,0.11499277168986846 l -2.275445645911229 -11.343730619083937" fill="#ff6e0a" stroke="none" /><path d="M 103.7750983002368 120.6578951692458 l 2.0772047354538747 11.366770944050739 a32.55501022100405,32.55501022100405 0 0,0 -0.55211906542612,0.09599297662608304 l -1.881236698555705 -11.400842499197829" fill="#ff6d0a" stroke="none" /><path d="M 103.06178313531738 120.77559828337769 l 1.9066501790314456 12.937493099876717 a34.07723375238656,34.07723375238656 0 0,0 -0.5810515761034641,0.08052845389392059 l -1.683670011741151 -12.968396119263241" fill="#ff830c" stroke="none" /><path d="M 102.70371172650421 120.8252237178851 l 1.692043871384603 13.032895414342503 a34.1422743596335,34.1422743596335 0 0,0 -0.5834631420156409,0.07064926097199435 l -1.4674533063175819 -13.060090204039849" fill="#ff840c" stroke="none" /><path d="M 101.98527174616119 120.90594882070398 l 1.2426216910680683 13.085455695019201 a34.14432422810025,34.14432422810025 0 0,0 -0.5855843994107359,0.05052668599180781 l -1.0171929739157908 -13.104906633289673" fill="#ff840c" stroke="none" /><path d="M 101.26447882468166 120.96189622390904 l 0.7799955656511548 12.930375569084717 a33.95387993768733,33.95387993768733 0 0,0 -0.5837026562457766,0.03017076003858295 l -0.5573048409918987 -12.941886135885502" fill="#ff810b" stroke="none" /><line stroke="#e1ed5e" stroke-width="0.3" x1="102.19456741930631" x2="102.32365962044197" y1="184.97166512339345" y2="189.96999836594603" /><path d="M 102.22038585953345 185.97133177190398 a86.0,86.0 0 0,1 -42.740103519485714,-10.115201625700543" fill="none" id="id163" stroke="none" /><text fill="#e1ed5e" style="font-size:6.75px; font-family:Arial;" text-anchor="middle"><textPath startOffset="22.20632615414155" xlink:href="#id163">July</textPath></text><path d="M 100.54218724476979 120.99299961872073 l 0.35347797012922916 13.68634722364182 a34.690911109252546,34.690911109252546 0 0,0 -0.597080650915911,0.010279284884951263 l -0.1178376293206502 -13.69040398580593" fill="#ff8c0c" stroke="none" /><path d="M 99.81925306533755 120.99922214144158 l -0.11538899035068689 13.405920524051627 a34.40641710958908,34.40641710958908 0 0,0 -0.5921840985605759,-0.010194986295577517 l 0.3461327788039306 -13.40194806047689" fill="#ff880c" stroke="none" /><path d="M 99.45781275523022 120.99299961872073 l -0.9611640487524068 37.21540243455022 a58.22781238125792,58.22781238125792 0 0,0 -1.001739218088368,-0.03450192412702783 l 1.6016236185154178 -37.193343711997095" fill="#50ff2b" stroke="none" /><path d="M 99.09653310690486 120.98055641714683 l -0.9365206599745333 21.748140073075398 a42.76829500867413,42.76829500867413 0 0,0 -0.7352316567496756,-0.03800307853871503 l 1.3107403851376977 -21.72879718777448" fill="#fff817" stroke="none" /><path d="M 98.37488393609728 120.93702456842531 l -2.3663952899488465 30.48722329732063 a51.578924295157634,51.578924295157634 0 0,0 -0.8845925080799938,-0.07632636376829702 l 2.890832115770382 -30.44197268127367" fill="#9aff23" stroke="none" /><path d="M 97.65516085044442 120.86867818915974 l -3.783601923998142 33.673427434358516 a54.88532659863692,54.88532659863692 0 0,0 -0.9379446949104265,-0.11357204038477757 l 4.3626740419599574 -33.603309865248384" fill="#74ff27" stroke="none" /><path d="M 96.93821686468263 120.77559828337769 l -5.06276936015003 34.353204580234824 a55.724260950026576,55.724260950026576 0 0,0 -0.9477479780128512,-0.14801874274400278 l 5.653353201771399 -34.26096753014371" fill="#6bff28" stroke="none" /><path d="M 96.58105272829116 120.7198165907248 l -3.2388747317206197 19.628524533530495 a40.89395096231985,40.89395096231985 0 0,0 -0.6935439378953222,-0.12058150349900534 l 3.5762676410879917 -19.569864451510483" fill="#ffe015" stroke="none" /><path d="M 95.86986931433489 120.58985236759428 l -11.755420158287599 58.604045246865056 a80.77143149025696,80.77143149025696 0 0,0 -1.360839149229725,-0.2851770749123081 l 12.76245076894671 -58.393012191226205" fill="#49f1ff" stroke="none" /><path d="M 95.16358092515715 120.4354850818985 l -6.95067926663403 29.36894017336085 a51.18023507486423,51.18023507486423 0 0,0 -0.8555549242429243,-0.2102745848310207 l 7.455187475620164 -29.2449443302158" fill="#9eff22" stroke="none" /><path d="M 94.11515582081647 120.15858648285463 l -9.983336165144348 34.19800751638492 a56.62542237050669,56.62542237050669 0 0,0 -0.9333083697773097,-0.2811981557686038 l 10.570519509361903 -34.02109399151059" fill="#61ff29" stroke="none" /><path d="M 93.76903079525671 120.05430185196036 l -3.397629532269206 10.935231098460983 a32.45090239305602,32.45090239305602 0 0,0 -0.5320072869745958,-0.1703319330528705 l 3.5853581643347416 -10.875126318748407" fill="#ff6c09" stroke="none" /><path d="M 93.42475214034765 119.94407469862007 l -19.725743578957054 59.832224095860205 a84.0,84.0 0 0,0 -1.3693210682510968,-0.46454805240750785 l 20.752734380145377 -59.483813056554574" fill="#4dd2ff" stroke="none" /><path d="M 92.7421414339146 119.70592522655815 l -16.105146139911554 43.727333993374266 a67.59887842379914,67.59887842379914 0 0,0 -1.088437801823413,-0.4115540427291274 l 16.85545416249525 -43.4436317005385" fill="#38ff7c" stroke="none" /><line stroke="#e1ed5e" stroke-width="0.3" x1="58.666819895761336" x2="56.23545636021788" y1="174.27360380694188" y2="178.64263932499728" /><path d="M 58.180547188652646 175.14741091055294 a86.0,86.0 0 0,1 -31.652253787137756,-30.449443065178592" fill="none" id="id164" stroke="none" /><text fill="#e1ed5e" style="font-size:6.75px; font-family:Arial;" text-anchor="middle"><textPath startOffset="22.20632615414155" xlink:href="#id164">August</textPath></text><line stroke="#e1ed5e" stroke-width="0.3" x1="26.63291911575756" x2="22.317208475507996" y1="142.92168965132927" y2="145.44649492493687" /><path d="M 25.769776987707644 143.4266507060508 a86.0,86.0 0 0,1 -11.730757126820373,-40.83630448921669" fill="none" id="id165" stroke="none" /><text fill="#e1ed5e" style="font-size:6.75px; font-family:Arial;" text-anchor="middle"><textPath startOffset="21.46611528233685" xlink:href="#id165">September</textPath></text><line stroke="#e1ed5e" stroke-width="0.3" x1="15.007084014347285" x2="10.007500721073583" y1="101.09737516637583" y2="101.16192664675087" /><path d="M 14.007167355692545 101.11028546245083 a86.0,86.0 0 0,1 10.666146001902534,-42.60595125391555" fill="none" id="id166" stroke="none" /><text fill="#e1ed5e" style="font-size:6.75px; font-family:Arial;" text-anchor="middle"><textPath startOffset="22.20632615414155" xlink:href="#id166">October</textPath></text><line stroke="#e1ed5e" stroke-width="0.3" x1="26.266209847984243" x2="21.928928074336255" y1="57.711370442889674" y2="55.22380399835377" /><path d="M 25.398753493254645 57.213857153982495 a86.0,86.0 0 0,1 29.58750427330803,-30.492523968695096" fill="none" id="id167" stroke="none" /><text fill="#e1ed5e" style="font-size:6.75px; font-family:Arial;" text-anchor="middle"><textPath startOffset="21.46611528233685" xlink:href="#id167">November</textPath></text><line stroke="#e1ed5e" stroke-width="0.3" x1="56.762969772571076" x2="54.21961505331055" y1="26.818313649435495" y2="22.513508569990535" /><path d="M 56.25429882871897 25.957352633546506 a86.0,86.0 0 0,1 42.265352541879196,-11.944610805530505" fill="none" id="id168" stroke="none" /><text fill="#e1ed5e" style="font-size:6.75px; font-family:Arial;" text-anchor="middle"><textPath startOffset="22.20632615414155" xlink:href="#id168">December</textPath></text></svg>