<?xml version="1.0" encoding="utf-8" ?>
<svg baseProfile="full" height="200mm" version="1.1" viewBox="0,0,200,200" width="200mm" xmlns="http://www.w3.org/2000/svg" xmlns:ev="http://www.w3.org/2001/xml-events" xmlns:xlink="http://www.w3.org/1999/xlink"><defs /><rect fill="#1a1a1a" height="200" width="200" x="0" y="0" /><text alignment-baseline="middle" fill="#e1ed5e" style="dominant-baseline: central; font-size:9.0px; font-family:Arial;" text-anchor="middle" x="100.0" y="100.0">2025</text><line stroke="#e1ed5e" stroke-width="0.3" x1="100.0" x2="100.0" y1="15.0" y2="10.0" /><path d="M 100.0 14.0 a86.0,86.0 0 0,1 42.46469731375804,11.215312516191453" fill="none" id="id61" stroke="none" /><text fill="#e1ed5e" style="font-size:6.75px; font-family:Arial;" text-anchor="middle"><textPath startOffset="22.20632615414155" xlink:href="#id61">January</textPath></text><path d="M 101.80526077348638 79.07773832637324 l 0.8968655863786318 -10.394319070062071 a31.43293998881841,31.43293998881841 0 0,0 0.5386631087455241,0.05115255278118807 l -1.0756538222144 10.377340972765705" fill="#ff760a" stroke="none" /><path d="M 102.88285421437855 79.19881850522331 l 1.5582475512824987 -11.243506510441335 a32.35097238484063,32.35097238484063 0 0,0 0.5509386303864264,0.08119403273510828 l -1.7515551620975809 11.215017993545258" fill="#ff830c" stroke="none" /><path d="M 103.95276090670814 79.375362276772 l 4.68297366787464 -24.43472743403717 a45.8794322111598,45.8794322111598 0 0,0 0.7743434233433806,0.15532600607796954 l -5.102883500685146 24.35049747188199" fill="#cfff1d" stroke="none" /><path d="M 104.66035177308747 79.52364482259891 l 2.9503443278651074 -12.963033971354825 a34.2945395330363,34.2945395330363 0 0,0 0.5744765082975948,0.13596002892246942 l -3.173044523125226 12.910328030291486" fill="#ff9d0e" stroke="none" /><path d="M 105.36241919743992 79.69619591428918 l 2.6040261543699352 -9.859661269606747 a31.197738600495015,31.197738600495015 0 0,0 0.5180341572114059,0.14159830401953546 l -2.773358200805052 9.813376424760918" fill="#ff730a" stroke="none" /><path d="M 106.74666289553966 80.11325718540242 l 3.628274895779112 -10.694853267490629 a32.293549713553126,32.293549713553126 0 0,0 0.5248747461863331,0.18311849275861 l -3.8118316460287187 10.630813921559811" fill="#ff820c" stroke="none" /><path d="M 108.43124777332544 80.76684994638697 l 0.9279123581999952 -2.1167302992002317 a23.31118335578391,23.31118335578391 0 0,0 0.3661164338303382,0.1642657718217829 l -0.9642109104971136 2.1004441968619174" fill="#ff0200" stroke="none" /><line stroke="#e1ed5e" stroke-width="0.3" x1="143.23703022742887" x2="145.7803849466894" y1="26.81831364943548" y2="22.513508569990506" /><path d="M 143.74570117128098 25.957352633546492 a86.0,86.0 0 0,1 28.547481713284135,27.462654790039103" fill="none" id="id62" stroke="none" /><text fill="#e1ed5e" style="font-size:6.75px; font-family:Arial;" text-anchor="middle"><textPath startOffset="19.985693538727396" xlink:href="#id62">February</textPath></text><path d="M 111.90073688211348 82.69761687909136 l 6.081316862544741 -8.841576389570996 a31.731071141097253,31.731071141097253 0 0,0 0.447361051073084,0.3134050052380682 l -6.232609053201476 8.735586541568992" fill="#ff7a0b" stroke="none" /><path d="M 112.48926042617603 83.11751280151076 l 6.750348554017694 -9.124853606999151 a32.35033739365902,32.35033739365902 0 0,0 0.4448230642682405,0.33503150985759433 l -6.906417772044317 9.00730550763571" fill="#ff830c" stroke="none" /><path d="M 113.6212207817346 84.01681056812373 l 13.085102372070551 -15.354106162697684 a41.17345979605277,41.17345979605277 0 0,0 0.535463200070007,0.46434841055871706 l -13.347459370787323 15.126592758719296" fill="#fff617" stroke="none" /><path d="M 114.68862486808459 84.99185889309783 l 7.977084512107123 -8.150607089130421 a32.40466015428265,32.40466015428265 0 0,0 0.3952816113938887,0.39358414653448087 l -8.116201923668335 8.012087091945821" fill="#ff840c" stroke="none" /><path d="M 114.94478906791727 85.2469230424477 l 6.885683667099942 -6.797353952901487 a30.675570284194745,30.675570284194745 0 0,0 0.36772082246756155,0.3789686311256701 l -7.0016687532706126 6.677821126225703" fill="#ff6c09" stroke="none" /><path d="M 115.4437574822437 85.77008943001954 l 9.507993851401624 -8.760685497744099 a33.92871058801592,33.92871058801592 0 0,0 0.3920484471371479,0.4329096873141431 l -9.657385939154807 8.595723023160406" fill="#ff980e" stroke="none" /><path d="M 115.9244219780498 86.31012108654704 l 8.702675818179792 -7.4815009510635235 a32.476472579895606,32.476472579895606 0 0,0 0.36078173163172883,0.4270517738358996 l -8.830168163298637 7.330590227598518" fill="#ff850c" stroke="none" /><path d="M 116.82858285166822 87.43820079747576 l 9.169396708690426 -6.844552585212942 a32.442278448503515,32.442278448503515 0 0,0 0.33019656379469636,0.4503877419336038 l -9.28585588499875 6.6857023996078455" fill="#ff840c" stroke="none" /><path d="M 117.2510076193507 88.02491185347247 l 7.180839233687823 -4.9847049335829725 a29.74138063322704,29.74138063322704 0 0,0 0.2883151168647038,0.4230668577821348 l -7.265578816221259 4.860360052530432" fill="#ff5f08" stroke="none" /><path d="M 117.45458315368197 88.32363383020206 l 8.423285626879446 -5.634816166405737 a31.13424363143009,31.13424363143009 0 0,0 0.2941494615267537,0.4480098103398247 l -8.519031723764124 5.488988292088238" fill="#ff720a" stroke="none" /><line stroke="#e1ed5e" stroke-width="0.3" x1="172.23445277983987" x2="176.4835382374775" y1="55.19839476539836" y2="52.563006222186495" /><path d="M 173.08426987136738 54.67131705675599 a86.0,86.0 0 0,1 12.851231095245387,41.99856678651699" fill="none" id="id63" stroke="none" /><text fill="#e1ed5e" style="font-size:6.75px; font-family:Arial;" text-anchor="middle"><textPath startOffset="22.20632615414155" xlink:href="#id63">March</textPath></text><path d="M 117.84615892207809 88.93136811851018 l 6.136148019530847 -3.805791705378973 a28.2205514347814,28.2205514347814 0 0,0 0.2524855132498315,0.4150197971870301 l -6.200749331066902 3.6996041349848614" fill="#ff4906" stroke="none" /><path d="M 118.03404312379186 89.2402003453031 l 1.87584560675043 -1.119201211466002 a23.184355303541953,23.184355303541953 0 0,0 0.20152760782400675,0.34447600790510685 l -1.894832889044764 1.0867457912069998" fill="#ff0000" stroke="none" /><path d="M 118.21658344932153 89.55222093294921 l 8.233486864601156 -4.722161647497158 a30.491528674278598,30.491528674278598 0 0,0 0.25720672904576786,0.45754207107434564 l -8.313551234939355 4.579736066488018" fill="#ff6909" stroke="none" /><path d="M 119.34039704204932 91.81776055985345 l 10.677607910619706 -4.517319079993192 a32.59385537098851,32.59385537098851 0 0,0 0.21415453247448804,0.5185921869721166 l -10.75378412998039 4.332852322567772" fill="#ff860c" stroke="none" /><path d="M 119.61058180528143 92.48833698450437 l 12.534307191480583 -4.801157491908205 a34.42236827212352,34.42236827212352 0 0,0 0.20718235250017386,0.5551457001154192 l -12.615094132482382 4.584688654763452" fill="#ff9f0e" stroke="none" /><path d="M 119.85752413597 93.16781622104841 l 11.975240212868075 -4.120203574785149 a33.66421950431865,33.66421950431865 0 0,0 0.18381097673458752,0.549571424533699 l -12.044388483374433 3.9134590473291366" fill="#ff950d" stroke="none" /><path d="M 120.53481517161879 95.60439243477599 l 10.293970951088136 -2.203489839603572 a31.52716511768874,31.52716511768874 0 0,0 0.10902499660241456,0.5316446028728237 l -10.330375243605546 2.0259695805673363" fill="#ff780b" stroke="none" /><path d="M 120.6074358757038 95.95851677861258 l 5.193027623598213 -1.0184447078017091 a26.291952902502384,26.291952902502384 0 0,0 0.08327572449076286,0.4448622501229 l -5.209789071998835 0.9289043802162464" fill="#ff2e04" stroke="none" /><path d="M 120.87857604477298 97.74499172005257 l 10.472108796278388 -1.1310489754415067 a31.533011650327673,31.533011650327673 0 0,0 0.053640467240260684,0.5401521848192853 l -10.490026389200878 0.9506212599177865" fill="#ff780b" stroke="none" /><line stroke="#e1ed5e" stroke-width="0.3" x1="184.98032266829074" x2="189.97916517819016" y1="98.17113171792111" y2="98.06355123074" /><path d="M 185.9800911702706 98.14961562048488 a86.0,86.0 0 0,1 -9.607161424134198,41.387399972396054" fill="none" id="id64" stroke="none" /><text fill="#e1ed5e" style="font-size:6.75px; font-family:Arial;" text-anchor="middle"><textPath startOffset="21.466115282336823" xlink:href="#id64">April</textPath></text><path d="M 120.9904718944345 100.63252640178507 l 17.92684396429193 0.5402071075449477 a38.93498141173032,38.93498141173032 0 0,0 -0.025952699868679718,0.6697238653811296 l -17.914889131572046 -0.8487082199400835" fill="#ffda14" stroke="none" /><path d="M 120.9764740272857 100.99374915477107 l 31.332480316298767 1.4843593728241034 a52.367620973209625,52.367620973209625 0 0,0 -0.05040670072415813,0.900045502736078 l -31.302287264687077 -2.0234765918956046" fill="#85ff25" stroke="none" /><path d="M 120.89721153311464 102.0752229133903 l 9.718770480669647 0.9651342792557194 a30.766574826054946,30.766574826054946 0 0,0 -0.05687083930681562,0.5265533407376634 l -9.70071733986178 -1.1322839418781743" fill="#ff6d0a" stroke="none" /><path d="M 120.76222939487914 103.15116336523771 l 10.123613147006864 1.536499682474128 a31.239549522537274,31.239549522537274 0 0,0 -0.08526648443692791,0.5309544799819655 l -10.095664908208649 -1.7105333921492984" fill="#ff740a" stroke="none" /><path d="M 120.64145759157962 103.86396538481128 l 12.010068479911338 2.2482176304507333 a33.21868353817339,33.21868353817339 0 0,0 -0.11004885905766312,0.5611367614305257 l -11.96958968787801 -2.454618118949204" fill="#ff8f0d" stroke="none" /><path d="M 120.49622156327973 104.57218783832717 l 11.146983301482768 2.4866096088844243 a32.42096598675138,32.42096598675138 0 0,0 -0.1261938767496121,0.5436399182367273 l -11.102528858802602 -2.6781181844697164" fill="#ff840c" stroke="none" /><path d="M 120.32669344350535 105.2749913415812 l 11.161229318299256 2.8964567296233 a32.53093671313146,32.53093671313146 0 0,0 -0.1453233214982269,0.5408021408974582 l -11.109717920459252 -3.088149803696307" fill="#ff850c" stroke="none" /><path d="M 120.02730092923936 106.31721596034902 l 60.08190278771807 18.951647881047055 a84.0,84.0 0 0,0 -0.4468309959350121,1.375204400088819 l -59.746779540766816 -19.98305118111367" fill="#4dd2ff" stroke="none" /><line stroke="#e1ed5e" stroke-width="0.3" x1="174.80103733775053" x2="179.2010983576182" y1="140.37084112569926" y2="142.7455964860345" /><path d="M 175.68104954172406 140.8457921977663 a86.0,86.0 0 0,1 -30.038265399797805,32.042727171017184" fill="none" id="id65" stroke="none" /><text fill="#e1ed5e" style="font-size:6.75px; font-family:Arial;" text-anchor="middle"><textPath startOffset="22.206326154141568" xlink:href="#id65">May</textPath></text><line stroke="#e1ed5e" stroke-width="0.3" x1="143.8653032363475" x2="146.44561519142675" y1="172.8068346515853" y2="177.08958963109032" /><path d="M 144.38136562736335 173.6633856474863 a86.0,86.0 0 0,1 -40.68145358897372,12.25698825130547" fill="none" id="id66" stroke="none" /><text fill="#e1ed5e" style="font-size:6.75px; font-family:Arial;" text-anchor="middle"><textPath startOffset="21.466115282336833" xlink:href="#id66">June</textPath></text><line stroke="#e1ed5e" stroke-width="0.3" x1="102.19456741930631" x2="102.32365962044197" y1="184.97166512339345" y2="189.96999836594603" /><path d="M 102.22038585953345 185.97133177190398 a86.0,86.0 0 0,1 -42.740103519485714,-10.115201625700543" fill="none" id="id67" stroke="none" /><text fill="#e1ed5e" style="font-size:6.75px; font-family:Arial;" text-anchor="middle"><textPath startOffset="22.20632615414155" xlink:href="#id67">July</textPath></text><line stroke="#e1ed5e" stroke-width="0.3" x1="58.666819895761336" x2="56.23545636021788" y1="174.27360380694188" y2="178.64263932499728" /><path d="M 58.180547188652646 175.14741091055294 a86.0,86.0 0 0,1 -31.652253787137756,-30.449443065178592" fill="none" id="id68" stroke="none" /><text fill="#e1ed5e" style="font-size:6.75px; font-family:Arial;" text-anchor="middle"><textPath startOffset="22.20632615414155" xlink:href="#id68">August</textPath></text><line stroke="#e1ed5e" stroke-width="0.3" x1="26.63291911575756" x2="22.317208475507996" y1="142.92168965132927" y2="145.44649492493687" /><path d="M 25.769776987707644 143.4266507060508 a86.0,86.0 0 0,1 -11.730757126820373,-40.83630448921669" fill="none" id="id69" stroke="none" /><text fill="#e1ed5e" style="font-size:6.75px; font-family:Arial;" text-anchor="middle"><textPath startOffset="21.46611528233685" xlink:href="#id69">September</textPath></text><line stroke="#e1ed5e" stroke-width="0.3" x1="15.007084014347285" x2="10.007500721073583" y1="101.09737516637583" y2="101.16192664675087" /><path d="M 14.007167355692545 101.11028546245083 a86.0,86.0 0 0,1 10.666146001902534,-42.60595125391555" fill="none" id="id70" stroke="none" /><text fill="#e1ed5e" style="font-size:6.75px; font-family:Arial;" text-anchor="middle"><textPath startOffset="22.20632615414155" xlink:href="#id70">October</textPath></text><line stroke="#e1ed5e" stroke-width="0.3" x1="26.266209847984243" x2="21.928928074336255" y1="57.711370442889674" y2="55.22380399835377" /><path d="M 25.398753493254645 57.213857153982495 a86.0,86.0 0 0,1 29.58750427330803,-30.492523968695096" fill="none" id="id71" stroke="none" /><text fill="#e1ed5e" style="font-size:6.75px; font-family:Arial;" text-anchor="middle"><textPath startOffset="21.46611528233685" xlink:href="#id71">November</textPath></text><line stroke="#e1ed5e" stroke-width="0.3" x1="56.762969772571076" x2="54.21961505331055" y1="26.818313649435495" y2="22.513508569990535" /><path d="M 56.25429882871897 25.957352633546506 a86.0,86.0 0 0,1 42.265352541879196,-11.944610805530505" fill="none" id="id72" stroke="none" /><text fill="#e1ed5e" style="font-size:6.75px; font-family:Arial;" text-anchor="middle"><textPath startOffset="22.20632615414155" xlink:href="#id72">December</textPath></text></svg>