<?xml version="1.0" encoding="utf-8" ?>
<svg baseProfile="full" height="200mm" version="1.1" viewBox="0,0,200,200" width="200mm" xmlns="http://www.w3.org/2000/svg" xmlns:ev="http://www.w3.org/2001/xml-events" xmlns:xlink="http://www.w3.org/1999/xlink"><defs /><rect fill="#1a1a1a" height="200" width="200" x="0" y="0" /><text alignment-baseline="middle" fill="#e1ed5e" style="dominant-baseline: central; font-size:9.0px; font-family:Arial;" text-anchor="middle" x="100.0" y="100.0">2020</text><line stroke="#e1ed5e" stroke-width="0.3" x1="100.0" x2="100.0" y1="15.0" y2="10.0" /><path d="M 100.0 14.0 a86.0,86.0 0 0,1 42.35913384403234,11.155469271406648" fill="none" id="id1" stroke="none" /><text fill="#e1ed5e" style="font-size:6.75px; font-family:Arial;" text-anchor="middle"><textPath startOffset="22.145653131862478" xlink:href="#id1">January</textPath></text><line stroke="#e1ed5e" stroke-width="0.3" x1="143.13028292997686" x2="145.6673583964461" y1="26.7553504044142" y2="22.446841604673864" /><path d="M 143.63769802327073 25.89364864446614 a86.0,86.0 0 0,1 29.32050498858742,28.57503671076993" fill="none" id="id2" stroke="none" /><text fill="#e1ed5e" style="font-size:6.75px; font-family:Arial;" text-anchor="middle"><textPath startOffset="20.669276256404974" xlink:href="#id2">February</textPath></text><line stroke="#e1ed5e" stroke-width="0.3" x1="172.87174338648825" x2="177.1583165268699" y1="56.24261187166439" y2="53.66864786411523" /><path d="M 173.72905801456457 55.72781907015455 a86.0,86.0 0 0,1 12.242430191666344,42.057860355516425" fill="none" id="id3" stroke="none" /><text fill="#e1ed5e" style="font-size:6.75px; font-family:Arial;" text-anchor="middle"><textPath startOffset="22.145653131862474" xlink:href="#id3">March</textPath></text><line stroke="#e1ed5e" stroke-width="0.3" x1="184.99686870605535" x2="189.99668451229388" y1="99.2704041080226" y2="99.22748670261217" /><path d="M 185.99683186730306 99.26182062694052 a86.0,86.0 0 0,1 -10.086455211305974,41.156179273409016" fill="none" id="id4" stroke="none" /><text fill="#e1ed5e" style="font-size:6.75px; font-family:Arial;" text-anchor="middle"><textPath startOffset="21.40746469413373" xlink:href="#id4">April</textPath></text><line stroke="#e1ed5e" stroke-width="0.3" x1="174.33088141563837" x2="178.70328620479359" y1="141.23008692659167" y2="143.65538615756765" /><path d="M 175.20536237346943 141.71514677278685 a86.0,86.0 0 0,1 -30.301960400862466,31.631185727798858" fill="none" id="id5" stroke="none" /><text fill="#e1ed5e" style="font-size:6.75px; font-family:Arial;" text-anchor="middle"><textPath startOffset="22.145653131862474" xlink:href="#id5">May</textPath></text><line stroke="#e1ed5e" stroke-width="0.3" x1="143.1302829299769" x2="145.66735839644613" y1="173.24464959558577" y2="177.55315839532614" /><path d="M 143.63769802327073 174.10635135553383 a86.0,86.0 0 0,1 -40.68552437913181,11.842963189579606" fill="none" id="id6" stroke="none" /><text fill="#e1ed5e" style="font-size:6.75px; font-family:Arial;" text-anchor="middle"><textPath startOffset="21.407464694133747" xlink:href="#id6">June</textPath></text><line stroke="#e1ed5e" stroke-width="0.3" x1="101.45913802915013" x2="101.54496967792366" y1="184.9874750549273" y2="189.98673829345242" /><path d="M 101.47630435890484 185.9873277026323 a86.0,86.0 0 0,1 -42.54439059252881,-10.42667462771756" fill="none" id="id7" stroke="none" /><text fill="#e1ed5e" style="font-size:6.75px; font-family:Arial;" text-anchor="middle"><textPath startOffset="22.145653131862474" xlink:href="#id7">July</textPath></text><path d="M 91.92203290615298 119.3841803445677 l -6.332837858875127 15.196505472626301 a37.46325040586953,37.46325040586953 0 0,0 -0.5914999906996878,-0.25247617326610305 l 6.592772924745246 -15.085554649700795" fill="#ff8e0d" stroke="none" /><path d="M 91.59046798132341 119.24265499422711 l -3.09393074566496 7.079519024678348 a28.72605960886619,28.72605960886619 0 0,0 -0.45016005743085524,-0.2013508678840487 l 3.21500420595145 -7.025364405884444" fill="#ff0601" stroke="none" /><path d="M 91.26138138417905 119.09545874513695 l -9.28608701538627 20.291776000502555 a43.315635444949734,43.315635444949734 0 0,0 -0.6734782780287722,-0.3152218400292614 l 9.633054007286532 -20.129377928902766" fill="#ffe215" stroke="none" /><path d="M 90.93487009805054 118.94263497670748 l -12.021154263206899 25.119588982133564 a48.84783475337254,48.84783475337254 0 0,0 -0.7532795538390374,-0.3684667771024941 l 12.450594066308005 -24.90952845493385" fill="#d2ff1c" stroke="none" /><path d="M 90.28995756902619 118.62028667847754 l -10.083326531580784 19.336108160744985 a42.807305031720674,42.807305031720674 0 0,0 -0.6486553917680812,-0.34537246045626546 l 10.413770739135426 -19.160165232566147" fill="#ffda14" stroke="none" /><path d="M 89.97174638481275 118.45085714620012 l -8.724232450316926 16.0516050778035 a39.26927085082845,39.26927085082845 0 0,0 -0.5895174220283723,-0.32699537651192473 l 8.9984940605014 -15.899476785858427" fill="#ffa80f" stroke="none" /><line stroke="#e1ed5e" stroke-width="0.3" x1="58.13341422392154" x2="55.67067388415222" y1="173.97424548756322" y2="178.32567169271397" /><path d="M 57.64086615596768 174.84453072859336 a86.0,86.0 0 0,1 -31.369924170532247,-30.572349798747897" fill="none" id="id8" stroke="none" /><text fill="#e1ed5e" style="font-size:6.75px; font-family:Arial;" text-anchor="middle"><textPath startOffset="22.145653131862474" xlink:href="#id8">August</textPath></text><path d="M 89.65649057296885 118.27599006163327 l -21.76139057065779 38.4502920021812 a65.18125252436505,65.18125252436505 0 0,0 -0.9690513329714335,-0.5594820479496271 l 22.418234371489625 -38.071063056955396" fill="#33ff52" stroke="none" /><path d="M 88.72937992617639 117.7192867562869 l -14.723505966017665 23.147796887918688 a48.43359489195129,48.43359489195129 0 0,0 -0.6977075398218462,-0.45224559784917134 l 15.118699138096522 -22.89163744836562" fill="#d8ff1c" stroke="none" /><path d="M 88.4268655584334 117.5232005979908 l -15.309534327607864 23.180586248178418 a48.779874372240094,48.779874372240094 0 0,0 -0.6947734043285123,-0.4674745531840953 l 15.705204020033381 -22.9143620209372" fill="#d3ff1c" stroke="none" /><path d="M 87.83215693770417 117.11559508785305 l -15.782008813846895 22.199371831786713 a48.23754599677193,48.23754599677193 0 0,0 -0.6707752116198697,-0.4855895245035173 l 16.16076503584072 -21.92518153591013" fill="#daff1c" stroke="none" /><path d="M 87.2517909369889 116.68781488649013 l -17.03590917354966 22.30055196820771 a49.06308642070872,49.06308642070872 0 0,0 -0.6648984038493367,-0.5170290204352849 l 17.416217522034223 -22.004821896151633" fill="#cfff1d" stroke="none" /><path d="M 86.96720088162412 116.46651593811092 l -14.881654730908588 18.8024846071983 a44.9790966246417,44.9790966246417 0 0,0 -0.6013260346421142,-0.4843856878711318 l 15.202231535905964 -18.544250625533756" fill="#fff817" stroke="none" /><path d="M 86.68645165197938 116.24036423190432 l -23.175054223704326 28.269797941812246 a57.554953343459864,57.554953343459864 0 0,0 -0.7586994419802132,-0.6329340585806107 l 23.65692799984643 -27.867801699319767" fill="#67ff28" stroke="none" /><path d="M 86.13680546590413 115.77377054828092 l -17.718153215915947 20.16000588318739 a47.8395005652643,47.8395005652643 0 0,0 -0.6121974714852206,-0.5474307539990224 l 18.061615714224537 -19.852879599304988" fill="#dfff1b" stroke="none" /><path d="M 85.60350026404147 115.28858382429668 l -30.5842463173847 32.479409724737565 a65.6128701034784,65.6128701034784 0 0,0 -0.8133731128228839,-0.7791930428401435 l 31.1372919160729 -31.94960455159184" fill="#34ff58" stroke="none" /><path d="M 85.08716467003676 114.78537596483092 l -22.106360103705164 21.91741799029341 a52.12979872077435,52.12979872077435 0 0,0 -0.6245974005475464,-0.6408919569895349 l 22.479344305403522 -21.534703341236135" fill="#a8ff21" stroke="none" /><path d="M 84.3458050057657 113.99807769240083 l -28.256989195841292 25.26757398016329 a58.906565833070616,58.906565833070616 0 0,0 -0.6675767108793144,-0.7595797516140897 l 28.6865769706792 -24.7787819507379" fill="#58ff2a" stroke="none" /><path d="M 84.1078160697243 113.72728997021213 l -23.852270643117755 20.603023285068094 a52.518492719633585,52.518492719633585 0 0,0 -0.5834690413286984,-0.6873250635731692 l 24.202434247953565 -20.190531439045373" fill="#a4ff21" stroke="none" /><path d="M 83.8745106332314 113.45245675266167 l -19.47132499866353 16.24367183555628 a46.35723509976637,46.35723509976637 0 0,0 -0.5045282634930588,-0.615442446313395 l 19.747300081395217 -15.907027107544389" fill="#f3ff19" stroke="none" /><path d="M 83.4222238831116 112.89097897827486 l -23.353258999006894 18.15963544855203 a50.58288467169833,50.58288467169833 0 0,0 -0.527141156672234,-0.6900446955424057 l 23.661552133033425 -17.756069839768752" fill="#bcff1f" stroke="none" /><path d="M 83.20337586046588 112.60449989151573 l -28.470784221325793 21.36500725669166 a56.59563300821859,56.59563300821859 0 0,0 -0.5764615048015553,-0.7820807439009034 l 28.83334774571118 -20.873120203521875" fill="#73ff27" stroke="none" /><path d="M 82.78059297857968 112.02048342749411 l -24.440360860766656 17.061270014894436 a50.80634451799869,50.80634451799869 0 0,0 -0.49308830703164674,-0.7194305760817591 l 24.729638904613626 -16.639204703742625" fill="#b9ff1f" stroke="none" /><path d="M 82.37810715431573 111.42229804090323 l -10.29018865896924 6.669975966211526 a33.262812158188616,33.262812158188616 0 0,0 -0.30646503235146416,-0.4818139333453804 l 10.403171382946596 -6.492348358187473" fill="#ff4e07" stroke="none" /><path d="M 81.99639281039703 110.81064883170644 l -28.48013956465106 17.10150550769828 a54.22017218877466,54.22017218877466 0 0,0 -0.4722997587913131,-0.8020682450173773 l 28.769513033572146 -16.610086094387345" fill="#8fff24" stroke="none" /><line stroke="#e1ed5e" stroke-width="0.3" x1="26.387840678322732" x2="22.057713659400548" y1="142.50000000000003" y2="145.00000000000006" /><path d="M 25.521815274538298 143.00000000000003 a86.0,86.0 0 0,1 -11.493303480769221,-40.785679425670985" fill="none" id="id9" stroke="none" /><text fill="#e1ed5e" style="font-size:6.75px; font-family:Arial;" text-anchor="middle"><textPath startOffset="21.40746469413373" xlink:href="#id9">September</textPath></text><path d="M 81.81346652052679 110.50000000000001 l -30.137205332020336 17.399723611064985 a55.79944722212994,55.79944722212994 0 0,0 -0.4718152417571816,-0.8336523237216499 l 30.431453938798896 -16.879814517244213" fill="#7cff26" stroke="none" /><path d="M 81.4637452351635 109.86951160357371 l -28.431606916811095 15.13822926657369 a53.210592313700296,53.210592313700296 0 0,0 -0.4223703039884488,-0.8099507495099506 l 28.687285289774493 -14.647932273959237" fill="#9bff22" stroke="none" /><path d="M 80.83023694016515 108.57439118712176 l -27.134563595047975 12.136945158349755 a50.72524145016307,50.72524145016307 0 0,0 -0.34871458056723936,-0.7979272033698649 l 27.338912057632182 -11.669355885204041" fill="#baff1f" stroke="none" /><path d="M 80.5471966667186 107.91128576633889 l -33.07837477152118 13.45268705080851 a56.70929383805006,56.70929383805006 0 0,0 -0.35900041259837,-0.9049155561746478 l 33.30443385908568 -12.882870477420298" fill="#71ff27" stroke="none" /><path d="M 80.41425534168474 107.57618678355246 l -33.877099785927264 13.104389960187888 a57.32331105687292,57.32331105687292 0 0,0 -0.34713172707594814,-0.9208081477990919 l 34.097062196817646 -12.520913532194651" fill="#6aff28" stroke="none" /><path d="M 80.28708602549918 107.23885506374661 l -11.930821531505053 4.381162925466445 a33.70980294875205,33.70980294875205 0 0,0 -0.19481028351012997,-0.5449190346851741 l 12.004271985059127 -4.175708934400349" fill="#ff5507" stroke="none" /><path d="M 80.16572619554312 106.89939002012753 l -58.28211997533264 20.273546734003865 a82.707553881149,82.707553881149 0 0,0 -0.45494896282674485,-1.3449757694643065 l 58.62155435973175 -19.270069290065397" fill="#4bdfff" stroke="none" /><path d="M 79.83685265289637 105.86919833188381 l -35.83984101546814 10.432455384163157 a58.327340239515955,58.327340239515955 0 0,0 -0.27158739437615176,-0.963767851567904 l 36.01364690191886 -9.815679608692259" fill="#5eff29" stroke="none" /><path d="M 79.64726062577567 105.17358676015961 l -26.15809835708614 6.649286311923366 a47.989981810237,47.989981810237 0 0,0 -0.1961018591225961,-0.8001625051437016 l 26.26838774272503 -6.199267982171565" fill="#ddff1b" stroke="none" /><path d="M 79.48165901384964 104.47187691870673 l -58.29230747458322 12.70453710218081 a80.66069370776742,80.66069370776742 0 0,0 -0.283243057166922,-1.3554205636846495 l 58.501808242574505 -11.70200008721075" fill="#48f4ff" stroke="none" /><path d="M 79.34024301695615 103.76489593502545 l -11.148639113335733 2.0316534271585343 a32.33224469059349,32.33224469059349 0 0,0 -0.09481843762647324,-0.5468875512102374 l 11.18187236845444 -1.8399728430277043" fill="#ff3f05" stroke="none" /><path d="M 79.2786578344484 103.40968896794605 l -42.2749670806179 6.9563297456040045 a63.84347517647118,63.84347517647118 0 0,0 -0.1686638447380085,-1.0829428744964353 l 42.388152417494176 -6.229598689176119" fill="#31ff40" stroke="none" /><path d="M 79.17382384314188 102.69636545807758 l -33.50842441145656 4.3383364020908965 a54.788099521518,54.788099521518 0 0,0 -0.11275368376752645,-0.9337622499095893 l 33.577960181483746 -3.7624804752579077" fill="#88ff25" stroke="none" /><path d="M 79.0935383218832 101.97986365728391 l -20.207816933874156 1.9137012736259327 a41.29822942518999,41.29822942518999 0 0,0 -0.06077993621572309,-0.7063549900085407 l 20.23769049278762 -1.56652523624173" fill="#ffc512" stroke="none" /><path d="M 79.03789590574601 101.26102812881392 l -30.390767769833776 1.8282331220994585 a51.44570908993103,51.44570908993103 0 0,0 -0.04546431380898434,-0.8819955420052518 l 30.417673673099333 -1.306265786717476" fill="#b1ff20" stroke="none" /><path d="M 79.01933749520258 100.90099992219065 l -52.94092469883331 2.273511097347037 a73.9897193866631,73.9897193866631 0 0,0 -0.04360218744882522,-1.2694301134130193 l 52.972151573278985 -1.364374719369898" fill="#3fffbf" stroke="none" /><line stroke="#e1ed5e" stroke-width="0.3" x1="15.003131293944662" x2="10.003315487706104" y1="100.72959589197737" y2="100.7725132973878" /><path d="M 14.003168132696942 100.73817937305945 a86.0,86.0 0 0,1 10.791469493833604,-42.45332614584628" fill="none" id="id10" stroke="none" /><text fill="#e1ed5e" style="font-size:6.75px; font-family:Arial;" text-anchor="middle"><textPath startOffset="22.145653131862435" xlink:href="#id10">October</textPath></text><path d="M 79.00696218219943 99.45929381324524 l -52.016896924975406 -1.3397707481510959 a73.03414793538103,73.03414793538103 0 0,0 0.043039068600888936,-1.2530355225720828 l 51.98623316937767 2.2325125352873174" fill="#3effb4" stroke="none" /><path d="M 79.22317932658666 96.9465228501225 l -59.728710676603654 -8.77806359834603 a81.37030130474781,81.37030130474781 0 0,0 0.21496680479271388,-1.3802410935499965 l 59.569222379672674 9.802092873827476" fill="#49edff" stroke="none" /><path d="M 79.34024301695615 96.23510406497455 l -35.93536262188839 -6.54862013961986 a57.527177724259616,57.527177724259616 0 0,0 0.18538463862589644,-0.9700107653825227 l 35.817651690980334 7.164533470035698" fill="#68ff28" stroke="none" /><path d="M 79.407916724674 95.88100663000787 l -43.18114053532187 -8.637437465436506 a65.03653283241704,65.03653283241704 0 0,0 0.22837822910041236,-1.0928725000950632 l 43.02650459539709 9.377426416816977" fill="#33ff50" stroke="none" /><path d="M 79.56144815229197 95.17655741523228 l -39.016261135158636 -9.207731392126274 a61.08803999145428,61.08803999145428 0 0,0 0.24962456247323742,-1.0185533994816234 l 38.8524490461691 9.876140616216015" fill="#3fff2d" stroke="none" /><path d="M 79.73907114497095 94.47779374421319 l -59.62056852226727 -16.249851071635803 a82.79538696997301,82.79538696997301 0 0,0 0.3855170374853553,-1.3680639626649689 l 59.33283299270733 17.270922958203784" fill="#4bdeff" stroke="none" /><path d="M 79.94057633289273 93.78553927170692 l -32.02377463149045 -9.921047240526446 a54.525353391086696,54.525353391086696 0 0,0 0.28466202935129925,-0.8916997525437741 l 31.84874788636189 10.469316026761613" fill="#8bff24" stroke="none" /><path d="M 80.16572619554312 93.10060997987247 l -33.508267810416555 -11.655914948143913 a56.47766008255002,56.47766008255002 0 0,0 0.3263866297111545,-0.9129614925441111 l 33.30324101066146 12.229411397068946" fill="#74ff27" stroke="none" /><path d="M 80.28708602549916 92.7611449362534 l -13.875659745983405 -5.095334456639117 a35.781622597378075,35.781622597378075 0 0,0 0.21668211798659504,-0.5747750613436949 l 13.786146944182375 5.332777798176957" fill="#ff740a" stroke="none" /><path d="M 80.5471966667186 92.08871423366112 l -58.3584099998442 -23.73385729901662 a84.0,84.0 0 0,0 0.5546966218540859,-1.3310699622349447 l 57.94238753345363 24.732159770692828" fill="#4dd2ff" stroke="none" /><path d="M 81.29705330413844 90.45014215332179 l -18.184419926614403 -9.285094383651114 a41.41778895426144,41.41778895426144 0 0,0 0.3287624390273449,-0.630445325787389 l 18.02234941861212 9.595885952542988" fill="#ffc712" stroke="none" /><line stroke="#e1ed5e" stroke-width="0.3" x1="26.387840678322718" x2="22.05771365940052" y1="57.49999999999999" y2="54.99999999999999" /><path d="M 25.521815274538284 56.99999999999999 a86.0,86.0 0 0,1 29.574782752854787,-30.34633250058573" fill="none" id="id11" stroke="none" /><text fill="#e1ed5e" style="font-size:6.75px; font-family:Arial;" text-anchor="middle"><textPath startOffset="21.40746469413373" xlink:href="#id11">November</textPath></text><path d="M 81.99639281039701 89.18935116829357 l -29.990291064444904 -18.00830809314756 a55.98166260353912,55.98166260353912 0 0,0 0.5017877288112177,-0.8196325442012838 l 29.676735371178292 18.520477753473383" fill="#7aff26" stroke="none" /><path d="M 82.98947788004972 87.6856937992154 l -27.141494088329527 -19.648348627611178 a54.50698889991425,54.50698889991425 0 0,0 0.5551873735361365,-0.753218299024153 l 26.800204695209572 20.111373235904193" fill="#8bff24" stroke="none" /><path d="M 84.10781606972428 86.27271002978789 l -26.299210337662526 -22.716631513742506 a55.75188932584493,55.75188932584493 0 0,0 0.6318253725217208,-0.7189012913458113 l 25.905373901182212 23.164745082899618" fill="#7cff26" stroke="none" /><path d="M 84.58840730492382 85.73525988315684 l -17.257916306741535 -15.973669687789586 a44.51582017589655,44.51582017589655 0 0,0 0.5238964410913338,-0.5563598653684992 l 16.98116403191393 16.267571013102597" fill="#fff216" stroke="none" /><path d="M 85.86807049272753 84.46653392183569 l -6.189228619270182 -6.80304644584889 a30.19717303555665,30.19717303555665 0 0,0 0.3864303088437957,-0.34554836501565206 l 6.071533283602995 6.908290340747943" fill="#ff1e03" stroke="none" /><path d="M 86.40962598614128 83.9905735841838 l -7.15236304481283 -8.425465682428454 a32.051912463034796,32.051912463034796 0 0,0 0.42251390518875304,-0.35247612693622815 l 7.006674805462168 8.547003993276565" fill="#ff3b05" stroke="none" /><path d="M 87.25179093698888 83.31218511350988 l -7.4847531270971634 -9.797782107173347 a33.32956055961594,33.32956055961594 0 0,0 0.457641865156349,-0.3434229873691947 l 7.315458273030062 9.924824121806543" fill="#ff4f07" stroke="none" /><path d="M 87.54013794807813 83.09580414077388 l -6.738945414676275 -9.142673706949301 a32.35789891721741,32.35789891721741 0 0,0 0.449958140391767,-0.32573499386131577 l 6.58100626391054 9.257009472183697" fill="#ff4006" stroke="none" /><line stroke="#e1ed5e" stroke-width="0.3" x1="56.869717070023135" x2="54.33264160355391" y1="26.7553504044142" y2="22.446841604673864" /><path d="M 56.362301976729285 25.89364864446614 a86.0,86.0 0 0,1 42.16139366436587,-11.88097634709845" fill="none" id="id12" stroke="none" /><text fill="#e1ed5e" style="font-size:6.75px; font-family:Arial;" text-anchor="middle"><textPath startOffset="22.145653131862474" xlink:href="#id12">December</textPath></text><path d="M 89.97174638481275 81.54914285379989 l -3.5153657256288904 -6.467876991263707 a28.361469211987835,28.361469211987835 0 0,0 0.42975889066569595,-0.2288224030136988 l 3.4038180191766325 6.527269861999981" fill="#ff0000" stroke="none" /><path d="M 91.26138138417902 80.90454125486306 l -5.112698152791518 -11.172168158959778 a33.28645692515269,33.28645692515269 0 0,0 0.5216250876424534,-0.23331626689921287 l 4.920159662293446 11.258288176768836" fill="#ff4e07" stroke="none" /><path d="M 91.5904679813234 80.7573450057729 l -5.013483213353173 -11.47183072490234 a33.51950135234576,33.51950135234576 0 0,0 0.5292329022007216,-0.22589805581584851 l 4.81581523598202 11.556203430377591" fill="#ff5207" stroke="none" /><path d="M 96.05791012581881 79.37332000966035 l -1.7736680674808345 -9.280580809845281 a30.448549019911454,30.448549019911454 0 0,0 0.5142401310062458,-0.09371168210939698 l 1.6140932029235502 9.309660665886039" fill="#ff2203" stroke="none" /><path d="M 96.76829788921471 79.25015418208739 l -1.8566297484917667 -11.920894841632721 a33.064609726313165,33.064609726313165 0 0,0 0.5615864848693268,-0.08253387398307582 l 1.6517181580147549 11.951009788914682" fill="#ff4b07" stroke="none" /><path d="M 97.48249496171623 79.15144685158666 l -0.9490427794646729 -7.859435642391284 a28.91652769932276,28.91652769932276 0 0,0 0.49332160595397057,-0.055277714917544 l 0.813985271909903 7.874569117815798" fill="#ff0901" stroke="none" /><path d="M 98.5590905019552 79.04949213459386 l -1.7485796996557177 -25.423965072501293 a46.48402501517007,46.48402501517007 0 0,0 0.7965494732058979,-0.04791843830123224 l 1.311885874317336 25.45023548862722" fill="#f1ff19" stroke="none" /></svg>