<?xml version="1.0" encoding="utf-8" ?>
<svg baseProfile="full" height="200mm" version="1.1" viewBox="0,0,200,200" width="200mm" xmlns="http://www.w3.org/2000/svg" xmlns:ev="http://www.w3.org/2001/xml-events" xmlns:xlink="http://www.w3.org/1999/xlink"><defs /><rect fill="#1a1a1a" height="200" width="200" x="0" y="0" /><text alignment-baseline="middle" fill="#e1ed5e" style="dominant-baseline: central; font-size:9.0px; font-family:Arial;" text-anchor="middle" x="100.0" y="100.0">2025</text><line stroke="#e1ed5e" stroke-width="0.3" x1="100.0" x2="100.0" y1="15.0" y2="10.0" /><path d="M 100.0 14.0 a86.0,86.0 0 0,1 42.46469731375804,11.215312516191453" fill="none" id="id61" stroke="none" /><text fill="#e1ed5e" style="font-size:6.75px; font-family:Arial;" text-anchor="middle"><textPath startOffset="22.20632615414155" xlink:href="#id61">January</textPath></text><path d="M 101.80526077348638 79.07773832637324 l 0.778349624385728 -9.02076572766688 a30.05428309979486,30.05428309979486 0 0,0 0.5150372052824999,0.04890898856772243 l -0.933511956758472 9.006031194583981" fill="#ff6709" stroke="none" /><path d="M 102.88285421437855 79.19881850522331 l 1.3523335209437688 -9.757737616532774 a30.85100245380981,30.85100245380981 0 0,0 0.5253940696359068,0.07742942849901231 l -1.5200965710083316 9.733013703872793" fill="#ff720a" stroke="none" /><path d="M 103.95276090670814 79.375362276772 l 4.064143892638629 -21.205809665464486 a42.591749098856695,42.591749098856695 0 0,0 0.7188545981039575,0.14419546974670658 l -4.428564900209712 21.132710239640573" fill="#f4ff19" stroke="none" /><path d="M 104.66035177308747 79.52364482259891 l 2.5604721981526595 -11.250038774755525 a32.53773766000144,32.53773766000144 0 0,0 0.5450478756483788,0.128995222375387 l -2.753743760763562 11.20429764023927" fill="#ff890c" stroke="none" /><path d="M 105.36241919743992 79.69619591428918 l 2.2599181080505564 -8.55676007901708 a29.850162309526034,29.850162309526034 0 0,0 0.49565783830221705,0.1354820107913104 l -2.4068738355764845 8.516591527399475" fill="#ff6409" stroke="none" /><path d="M 106.74666289553966 80.11325718540242 l 3.148817888866563 -9.281585947816149 a30.801167879591915,30.801167879591915 0 0,0 0.5006187091987133,0.1746560377334006 l -3.3081186021285505 9.226009056910542" fill="#ff710a" stroke="none" /><path d="M 108.43124777332544 80.76684994638697 l 0.8052937323463446 -1.8370157784299657 a23.005772909767444,23.005772909767444 0 0,0 0.36131977543494453,0.16211365101900596 l -0.8367956262480694 1.8228817968944284" fill="#ff0200" stroke="none" /><line stroke="#e1ed5e" stroke-width="0.3" x1="143.23703022742887" x2="145.7803849466894" y1="26.81831364943548" y2="22.513508569990506" /><path d="M 143.74570117128098 25.957352633546492 a86.0,86.0 0 0,1 28.547481713284135,27.462654790039103" fill="none" id="id62" stroke="none" /><text fill="#e1ed5e" style="font-size:6.75px; font-family:Arial;" text-anchor="middle"><textPath startOffset="19.985693538727396" xlink:href="#id62">February</textPath></text><path d="M 111.90073688211348 82.69761687909136 l 5.277703557391248 -7.673209638456328 a30.313017824282273,30.313017824282273 0 0,0 0.4273686020483681,0.2993990170630062 l -5.409003299023266 7.581225778629386" fill="#ff6a09" stroke="none" /><path d="M 112.48926042617603 83.11751280151076 l 5.858326310308738 -7.919053295667584 a30.850451373296515,30.850451373296515 0 0,0 0.42419935677758785,0.31949816094993055 l -5.993771820844709 7.817038545211806" fill="#ff720a" stroke="none" /><path d="M 113.6212207817346 84.01681056812373 l 11.355976493059657 -13.325143640274549 a38.50764561969635,38.50764561969635 0 0,0 0.5007941342024685,0.4342837382730358 l -11.58366442590889 13.12769490858184" fill="#ffd714" stroke="none" /><path d="M 114.68862486808459 84.99185889309783 l 6.922955711526804 -7.073548213569253 a30.897595673366858,30.897595673366858 0 0,0 0.37689799392483897,0.37527947416113766 l -7.043689505618965 6.953332888757997" fill="#ff720a" stroke="none" /><path d="M 114.94478906791727 85.2469230424477 l 5.975777616316702 -5.899120198624859 a29.396995726895156,29.396995726895156 0 0,0 0.35239401734411946,0.363173011181757 l -6.07643589736393 5.795382991892987" fill="#ff5e08" stroke="none" /><path d="M 115.4437574822437 85.77008943001954 l 8.251563618113845 -7.603008042781416 a32.22025104186083,32.22025104186083 0 0,0 0.37230708648834915,0.4111107838162865 l -8.38121434521823 7.459844471695581" fill="#ff840c" stroke="none" /><path d="M 115.9244219780498 86.31012108654704 l 7.552664030272333 -6.492860851774678 a30.959918473294735,30.959918473294735 0 0,0 0.34393430414875215,0.4071097336482303 l -7.663308947908202 6.361892168497341" fill="#ff730a" stroke="none" /><path d="M 116.82858285166822 87.43820079747576 l 7.957710266117715 -5.940081785610795 a30.930242912397482,30.930242912397482 0 0,0 0.3148071102102267,0.42939654453940307 l -8.058779988841568 5.8022227973998985" fill="#ff730a" stroke="none" /><path d="M 117.2510076193507 88.02491185347247 l 6.231929962753202 -4.326002994934884 a28.58625421224775,28.58625421224775 0 0,0 0.27711723694227414,0.40663535074177704 l -6.30547166536421 4.218089620922701" fill="#ff5207" stroke="none" /><path d="M 117.45458315368197 88.32363383020206 l 7.310193749598774 -4.890205526018414 a29.7950578590123,29.7950578590123 0 0,0 0.2814971299492068,0.42873944132064556 l -7.393287514905905 4.763648020720094" fill="#ff6309" stroke="none" /><line stroke="#e1ed5e" stroke-width="0.3" x1="172.23445277983987" x2="176.4835382374775" y1="55.19839476539836" y2="52.563006222186495" /><path d="M 173.08426987136738 54.67131705675599 a86.0,86.0 0 0,1 12.851231095245387,41.99856678651699" fill="none" id="id63" stroke="none" /><text fill="#e1ed5e" style="font-size:6.75px; font-family:Arial;" text-anchor="middle"><textPath startOffset="22.20632615414155" xlink:href="#id63">March</textPath></text><path d="M 117.84615892207809 88.93136811851018 l 5.325289071979998 -3.3028768071400467 a27.26639441012878,27.26639441012878 0 0,0 0.2439487974933339,0.4009876810616218 l -5.381353667759555 3.210721352871343" fill="#ff4006" stroke="none" /><path d="M 118.03404312379186 89.2402003453031 l 1.6279627020981666 -0.9713047928107776 a22.895704502278758,22.895704502278758 0 0,0 0.19901854062272178,0.34018719873202774 l -1.6444409171912158 0.9431381817248546" fill="#ff0000" stroke="none" /><path d="M 118.21658344932153 89.55222093294921 l 7.145475872614904 -4.098153391590176 a29.237274225562956,29.237274225562956 0 0,0 0.2466266532617227,0.4387212968111103 l -7.21496016716906 3.9745485848442716" fill="#ff5b08" stroke="none" /><path d="M 119.34039704204932 91.81776055985345 l 9.266619472073588 -3.9203796673036835 a31.061789760078547,31.061789760078547 0 0,0 0.20408825492339167,0.4942158974321636 l -9.332729413883177 3.760289199418217" fill="#ff750a" stroke="none" /><path d="M 119.61058180528143 92.48833698450437 l 10.87796593223892 -4.166710360169651 a32.6486745189526,32.6486745189526 0 0,0 0.19650679289045317,0.5265405079156766 l -10.948077313630998 3.978846715224641" fill="#ff8a0c" stroke="none" /><path d="M 119.85752413597 93.16781622104841 l 10.392776647001032 -3.5757408395786805 a31.99071103187964,31.99071103187964 0 0,0 0.17467340481336238,0.5222512475413427 l -10.452787345586163 3.396316489115024" fill="#ff810b" stroke="none" /><path d="M 120.53481517161879 95.60439243477599 l 8.93367807273014 -1.9123105123459896 a30.136056884827738,30.136056884827738 0 0,0 0.10421436520580454,0.5081862557219866 l -8.965271733850942 1.758248600460591" fill="#ff6809" stroke="none" /><path d="M 120.6074358757038 95.95851677861258 l 4.506796962266272 -0.8838627190233541 a25.59264979779341,25.59264979779341 0 0,0 0.08106078926327213,0.43302997757044326 l -4.521343475439402 0.8061546639903481" fill="#ff2803" stroke="none" /><path d="M 120.87857604477298 97.74499172005257 l 9.088275960081992 -0.9815869385193456 a30.1411308296335,30.1411308296335 0 0,0 0.051272753734404763,0.5163096329361002 l -9.103825839498626 0.8250017748788104" fill="#ff6809" stroke="none" /><line stroke="#e1ed5e" stroke-width="0.3" x1="184.98032266829074" x2="189.97916517819016" y1="98.17113171792111" y2="98.06355123074" /><path d="M 185.9800911702706 98.14961562048488 a86.0,86.0 0 0,1 -9.607161424134198,41.387399972396054" fill="none" id="id64" stroke="none" /><text fill="#e1ed5e" style="font-size:6.75px; font-family:Arial;" text-anchor="middle"><textPath startOffset="21.466115282336823" xlink:href="#id64">April</textPath></text><path d="M 120.9904718944345 100.63252640178507 l 15.55790798303354 0.46882164466348425 a36.56497011057341,36.56497011057341 0 0,0 -0.02437293304321584,0.6289571031519956 l -15.54753291713912 -0.736555994829486" fill="#ffbe11" stroke="none" /><path d="M 120.9764740272857 100.99374915477107 l 27.19206161509309 1.2882092677411732 a48.22255862325423,48.22255862325423 0 0,0 -0.046416851396000436,0.8288040627526467 l -27.16585841280956 -1.7560850468292433" fill="#b1ff20" stroke="none" /><path d="M 120.89721153311464 102.0752229133903 l 8.434487249828262 0.8375969767930623 a29.475974508164143,29.475974508164143 0 0,0 -0.05448521387717125,0.5044654121078247 l -8.418819734450038 -0.9826587107856785" fill="#ff5f08" stroke="none" /><path d="M 120.76222939487914 103.15116336523771 l 8.785832135912294 1.3334595159922178 a29.886448143168302,29.886448143168302 0 0,0 -0.08157327504470172,0.5079568615711293 l -8.761577106506303 -1.484495607256552" fill="#ff6409" stroke="none" /><path d="M 120.64145759157962 103.86396538481128 l 10.423002545934878 1.9511277662737079 a31.60405024662224,31.60405024662224 0 0,0 -0.10469980447133277,0.5338620473354366 l -10.387872808487883 -2.1302535406770895" fill="#ff7c0b" stroke="none" /><path d="M 120.49622156327973 104.57218783832717 l 9.673969430331356 2.158017527335516 a30.91174677780223,30.91174677780223 0 0,0 -0.12031946131979102,0.5183330903127938 l -9.635389403081012 -2.324219274996875" fill="#ff730a" stroke="none" /><path d="M 120.32669344350535 105.2749913415812 l 9.686332912670867 2.5137055560966086 a31.0071854643472,31.0071854643472 0 0,0 -0.13851636741131879,0.5154709324909978 l -9.641628468917771 -2.6800674217631544" fill="#ff740a" stroke="none" /><path d="M 120.02730092923936 106.31721596034902 l 60.08190278771807 18.951647881047055 a84.0,84.0 0 0,0 -0.4468309959350121,1.375204400088819 l -59.746779540766816 -19.98305118111367" fill="#4dd2ff" stroke="none" /><path d="M 119.79798401119884 107.00284435728193 l 9.251533347164838 3.2724063247930544 a30.81323149774062,30.81323149774062 0 0,0 -0.1811755490476451,0.4985172991770212 l -9.193833537111967 -3.4311714209762068" fill="#ff710a" stroke="none" /><path d="M 119.54520255179757 107.68017299344265 l 7.053282554062595 2.771546114360922 a28.578275704371865,28.578275704371865 0 0,0 -0.18385001603295786,0.4563006623637262 l -7.004529923772245 -2.892546144567462" fill="#ff5207" stroke="none" /><path d="M 119.26925614724726 108.34839909993367 l 6.541420345828609 2.8340682852568126 a28.12896368249404,28.12896368249404 0 0,0 -0.1963119240447498,0.4426315638865204 l -6.491667337052586 -2.9462481856360205" fill="#ff4c07" stroke="none" /><path d="M 118.81262510543309 109.33194174019688 l 7.888973130137869 3.9132995649375855 a29.806237024574003,29.806237024574003 0 0,0 -0.23195118586769722,0.4576616949316716 l -7.820443274483903 -4.048515471571951" fill="#ff6309" stroke="none" /><line stroke="#e1ed5e" stroke-width="0.3" x1="174.80103733775053" x2="179.2010983576182" y1="140.37084112569926" y2="142.7455964860345" /><path d="M 175.68104954172406 140.8457921977663 a86.0,86.0 0 0,1 -30.038265399797805,32.042727171017184" fill="none" id="id65" stroke="none" /><text fill="#e1ed5e" style="font-size:6.75px; font-family:Arial;" text-anchor="middle"><textPath startOffset="22.206326154141568" xlink:href="#id65">May</textPath></text><path d="M 117.55443506779139 111.5257021239791 l 7.051191792098291 4.629595649243316 a29.435191851075288,29.435191851075288 0 0,0 -0.2817324835097991,0.42115183688181757 l -6.970456203177771 -4.75028440033094" fill="#ff5e08" stroke="none" /><path d="M 117.14729908036423 112.12312394758627 l 7.2644836177881364 5.135982926576726 a29.896687184295054,29.896687184295054 0 0,0 -0.3007040225880217,0.4176515870577149 l -7.174999802824512 -5.2602681190855725" fill="#ff6509" stroke="none" /><path d="M 115.32070863581623 114.36230785411682 l 6.614255738814591 6.200494990462495 a30.06611918657549,30.06611918657549 0 0,0 -0.3572047505957049,0.37452775291382323 l -6.5065444368399215 -6.313429859958826" fill="#ff6709" stroke="none" /><path d="M 114.0293411484842 115.62618273729858 l 7.918459632146976 8.81975111306062 a32.85284829238421,32.85284829238421 0 0,0 -0.4240483694500234,0.3741733827811467 l -7.765468909790365 -8.954747637614055" fill="#ff8d0d" stroke="none" /><path d="M 113.48314897796784 116.09983520530334 l 5.532665765534184 6.606394931679311 a29.61712506967562,29.61712506967562 0 0,0 -0.39366782445592197,0.3239618187581867 l -5.418127812533571 -6.700651869294676" fill="#ff6108" stroke="none" /><path d="M 112.92097659922987 116.55440617244103 l 2.948844639494256 3.7780713808059163 a25.792651465143145,25.792651465143145 0 0,0 -0.35234146292046503,0.27016040915667133 l -2.883374448080297 -3.828271131789959" fill="#ff2a04" stroke="none" /><line stroke="#e1ed5e" stroke-width="0.3" x1="143.8653032363475" x2="146.44561519142675" y1="172.8068346515853" y2="177.08958963109032" /><path d="M 144.38136562736335 173.6633856474863 a86.0,86.0 0 0,1 -40.68145358897372,12.25698825130547" fill="none" id="id66" stroke="none" /><text fill="#e1ed5e" style="font-size:6.75px; font-family:Arial;" text-anchor="middle"><textPath startOffset="21.466115282336833" xlink:href="#id66">June</textPath></text><path d="M 108.92500713936063 119.00905698771935 l 3.185194569768836 6.784033239221312 a28.494569463160943,28.494569463160943 0 0,0 -0.4457799054988929,0.20463569049088207 l -3.067946668502524 -6.837856000046269" fill="#ff5107" stroke="none" /><path d="M 108.2653958097858 119.30500536409082 l 3.3981728220146157 7.936915069382486 a29.63378244727475,29.63378244727475 0 0,0 -0.4706529623433001,0.1967329764305849 l -3.2610484001738542 -7.994233088833044" fill="#ff6108" stroke="none" /><path d="M 107.59598834532513 119.57807347666477 l 2.9318435066862705 7.556600271946501 a29.105424974526652,29.105424974526652 0 0,0 -0.46863861530071815,0.17719902449444766 l -2.8013346706252777 -7.60594754654758" fill="#ff5a08" stroke="none" /><path d="M 104.83641907484287 120.43548508189849 l 1.872900796648803 7.913631076528645 a29.132239187916674,29.132239187916674 0 0,0 -0.4889774912765847,0.11128968504051724 l -1.7364031559793562 -7.944697495146847" fill="#ff5a08" stroke="none" /><path d="M 104.13013068566511 120.58985236759428 l 1.2063717925991928 6.014099552892821 a27.133899765572032,27.133899765572032 0 0,0 -0.45873395998777666,0.08791745522768404 l -1.1026702180397117 -6.033974206468974" fill="#ff3e05" stroke="none" /><path d="M 103.41894727170886 120.7198165907248 l 1.3296063932240438 8.057802129158794 a29.16676363767057,29.16676363767057 0 0,0 -0.49606294980871973,0.07747483071029292 l -1.190707579806807 -8.079495267216194" fill="#ff5a08" stroke="none" /><path d="M 102.70371172650421 120.8252237178851 l 1.1174356695226648 8.607000361773956 a29.679234857007764,29.679234857007764 0 0,0 -0.5071934997617941,0.06141406945463845 l -0.9691147467094905 -8.624959959953946" fill="#ff6209" stroke="none" /><path d="M 101.98527174616119 120.90594882070398 l 0.8327181171604752 8.768956881138427 a29.80840645326453,29.80840645326453 0 0,0 -0.5112222363434723,0.04411040566270048 l -0.6816515630754612 -8.78199153907979" fill="#ff6309" stroke="none" /><path d="M 100.90346689309514 120.98055641714683 l 0.35199611752548016 8.174150551394112 a29.181725887831348,29.181725887831348 0 0,0 -0.5020363650610669,0.017291147499845845 l -0.211239400789761 -8.17899849732005" fill="#ff5b08" stroke="none" /><line stroke="#e1ed5e" stroke-width="0.3" x1="102.19456741930631" x2="102.32365962044197" y1="184.97166512339345" y2="189.96999836594603" /><path d="M 102.22038585953345 185.97133177190398 a86.0,86.0 0 0,1 -42.740103519485714,-10.115201625700543" fill="none" id="id67" stroke="none" /><text fill="#e1ed5e" style="font-size:6.75px; font-family:Arial;" text-anchor="middle"><textPath startOffset="22.20632615414155" xlink:href="#id67">July</textPath></text><path d="M 100.18074693466247 120.99922214144158 l 0.07433850925015503 8.636665801955715 a29.636985723539716,29.636985723539716 0 0,0 -0.510170887825215,0.0 l 0.07433850925014909 -8.636665801955715" fill="#ff6108" stroke="none" /><path d="M 99.81925306533755 120.99922214144158 l -0.07919922580076043 9.201385014502755 a30.20172585456029,30.20172585456029 0 0,0 -0.5198152932689952,-0.00894909168279012 l 0.2375742089624236 -9.198658445540806" fill="#ff6909" stroke="none" /><path d="M 98.37488393609728 120.93702456842531 l -0.7743789727683339 9.976636092801007 a31.006644318733702,31.006644318733702 0 0,0 -0.531772339959947,-0.04588355507305633 l 0.9459956304698225 -9.961828285449286" fill="#ff740a" stroke="none" /><path d="M 97.2962882734958 120.8252237178851 l -1.1072655780291436 8.528665667839089 a29.600242736926987,29.600242736926987 0 0,0 -0.5047143151439628,-0.06994880511163655 l 1.2539084843599375 -8.508342297234847" fill="#ff6008" stroke="none" /><path d="M 95.86986931433489 120.58985236759428 l -1.681034031207096 8.380423081426574 a29.547360202880398,29.547360202880398 0 0,0 -0.4978146824762196,-0.1043219068743902 l 1.8250401751127021 -8.350245193825643" fill="#ff6008" stroke="none" /><path d="M 94.81253420990036 120.34920634021253 l -2.1885883459441153 8.585316539416795 a29.85988594903941,29.85988594903941 0 0,0 -0.49696740551181895,-0.13125360866213187 l 2.3360461942674235 -8.54637158145108" fill="#ff6409" stroke="none" /><path d="M 94.11515582081647 120.15858648285463 l -2.345300725147226 8.033848655401677 a29.369179153852272,29.369179153852272 0 0,0 -0.48406704215695795,-0.14584542893939537 l 2.48324274174443 -7.992287857356556" fill="#ff5d08" stroke="none" /><path d="M 92.7421414339146 119.70592522655815 l -3.6513942620828805 9.91395762897842 a31.56500051710132,31.56500051710132 0 0,0 -0.5082412693594773,-0.19217335959506815 l 3.8215057522026408 -9.849636019276717" fill="#ff7c0b" stroke="none" /><path d="M 92.06813273071674 119.44442032107085 l -3.012435571907421 7.384776051050375 a28.97556802986849,28.97556802986849 0 0,0 -0.46019899596352526,-0.1923632176359979 l 3.1391060273684084 -7.331827790394404" fill="#ff5808" stroke="none" /><path d="M 91.40352486487194 119.15986991738527 l -3.365347310783803 7.500704147675004 a29.22107810649849,29.22107810649849 0 0,0 -0.45714568362689184,-0.20985316177323218 l 3.4939609901781146 -7.441663915567697" fill="#ff5b08" stroke="none" /><path d="M 90.7491055286396 118.85261126421891 l -3.8607523325217263 7.867916247211832 a29.764103756015892,29.764103756015892 0 0,0 -0.45800732476578127,-0.22965438071365743 l 3.995613564970268 -7.800294025588872" fill="#ff6309" stroke="none" /><line stroke="#e1ed5e" stroke-width="0.3" x1="58.666819895761336" x2="56.23545636021788" y1="174.27360380694188" y2="178.64263932499728" /><path d="M 58.180547188652646 175.14741091055294 a86.0,86.0 0 0,1 -31.652253787137756,-30.449443065178592" fill="none" id="id68" stroke="none" /><text fill="#e1ed5e" style="font-size:6.75px; font-family:Arial;" text-anchor="middle"><textPath startOffset="22.20632615414155" xlink:href="#id68">August</textPath></text><path d="M 89.7882731507175 118.34994917583269 l -4.085748478438328 7.341880372549029 a29.402175196571527,29.402175196571527 0 0,0 -0.4401242870590931,-0.2499140567304561 l 4.211521532418628 -7.270463150023939" fill="#ff5e08" stroke="none" /><path d="M 89.1626897886671 117.98757091392108 l -4.727233298236682 7.846176082489673 a30.160197256248942,30.160197256248942 0 0,0 -0.4423794328128184,-0.271745579219686 l 4.861591930981809 -7.763642036441609" fill="#ff6809" stroke="none" /><path d="M 87.95078237400918 117.19931262002967 l -4.74140944217949 6.767989904979389 a29.263573733699708,29.263573733699708 0 0,0 -0.41007000187175896,-0.2925740583016685 l 4.857206771900136 -6.685371584833502" fill="#ff5c08" stroke="none" /><path d="M 87.36589467227662 116.77436683061367 l -6.935382134273015 9.208142643507896 a32.5277671858683,32.5277671858683 0 0,0 -0.4443467586608513,-0.3407061466233225 l 7.092857621427353 -9.087397155057207" fill="#ff890c" stroke="none" /><path d="M 86.79598089348748 116.32954008644616 l -5.148878489260397 6.3676685872976675 a29.188904257275567,29.188904257275567 0 0,0 -0.3879759568216531,-0.31927779919555316 l 5.257724574626739 -6.278095669244934" fill="#ff5b08" stroke="none" /><path d="M 85.97065885151581 115.62618273729859 l -6.4540986484514535 7.188714268036097 a30.660900692554947,30.660900692554947 0 0,0 -0.38968610517118785,-0.35596901770550277 l 6.576884303089496 -7.076552483744019" fill="#ff6f0a" stroke="none" /><path d="M 85.44109423537348 115.13401014063109 l -7.334674738360412 7.624408294356779 a31.579652893956343,31.579652893956343 0 0,0 -0.38850499186235754,-0.3802339039989446 l 7.464829682598563 -7.497024287435265" fill="#ff7c0b" stroke="none" /><path d="M 84.19399662182784 113.82643327865904 l -7.153032618110858 6.257174939679064 a30.50358426392409,30.50358426392409 0 0,0 -0.34230467222536354,-0.39817766687607464 l 7.259679799907 -6.133120173641459" fill="#ff6d0a" stroke="none" /><path d="M 83.72743513129214 113.27417163493432 l -6.449482118201759 5.261096408844616 a29.323157755092833,29.323157755092833 0 0,0 -0.31568765382933733,-0.3938688873478806 l 6.539087684085958 -5.149299687918476" fill="#ff5d08" stroke="none" /><path d="M 83.28015986056508 112.70617746262583 l -6.491773190051193 4.933397778448787 a29.153620839324752,29.153620839324752 0 0,0 -0.3001972400736836,-0.40216326061054375 l 6.575731696819962 -4.820921638328935" fill="#ff5a08" stroke="none" /><path d="M 82.85270091963577 112.12312394758628 l -7.253164872779364 5.127980584748474 a29.882825313450546,29.882825313450546 0 0,0 -0.29333421435938656,-0.4225698136842031 l 7.340359994300885 -5.002369508877258" fill="#ff6409" stroke="none" /><path d="M 82.44556493220864 111.52570212397912 l -7.189794984416208 4.720598242144762 a29.600999923362206,29.600999923362206 0 0,0 -0.27598722972241735,-0.4283383094017447 l 7.269987077515671 -4.596138332821569" fill="#ff6008" stroke="none" /><line stroke="#e1ed5e" stroke-width="0.3" x1="26.63291911575756" x2="22.317208475507996" y1="142.92168965132927" y2="145.44649492493687" /><path d="M 25.769776987707644 143.4266507060508 a86.0,86.0 0 0,1 -11.730757126820373,-40.83630448921669" fill="none" id="id69" stroke="none" /><text fill="#e1ed5e" style="font-size:6.75px; font-family:Arial;" text-anchor="middle"><textPath startOffset="21.46611528233685" xlink:href="#id69">September</textPath></text><path d="M 81.87401531095188 110.60418214915194 l -7.020168516569704 4.106984913896902 a29.133270626507716,29.133270626507716 0 0,0 -0.24950288417761884,-0.4350293092243785 l 7.0898233968997 -3.985535758814217" fill="#ff5a08" stroke="none" /><path d="M 81.51974371655577 109.97397251340807 l -7.588084043561911 4.095362126969998 a29.62270319581853,29.62270319581853 0 0,0 -0.23831816212058057,-0.4508081501878013 l 7.657454713907377 -3.96413896169607" fill="#ff6108" stroke="none" /><path d="M 81.02952815118164 109.00673069616217 l -8.317084792480749 3.948754859657636 a30.20687592981378,30.20687592981378 0 0,0 -0.21896444107084376,-0.47162992607543613 l 8.38382385039142 -3.805004866303373" fill="#ff6909" stroke="none" /><path d="M 80.45479744820244 107.68017299344265 l -8.186236787873604 3.2167338521836553 a29.79555850545714,29.79555850545714 0 0,0 -0.18346362654580395,-0.47896563640410417 l 8.240394694012918 -3.075344648946393" fill="#ff6309" stroke="none" /><path d="M 80.20201598880116 107.00284435728193 l -8.06255531722888 2.8518469343440374 a29.552065784376495,29.552065784376495 0 0,0 -0.16550447146721758,-0.4810334650095569 l 8.110450619639325 -2.7126407662451837" fill="#ff6008" stroke="none" /><path d="M 79.97269907076064 106.31721596034903 l -8.929667577711758 2.816687018477555 a30.363369522159026,30.363369522159026 0 0,0 -0.15293483771179783,-0.49979989839264727 l 8.976829187929686 -2.6625601475328597" fill="#ff6b09" stroke="none" /><path d="M 79.76711848015287 105.62410040840567 l -8.96079555415183 2.490817429356737 a30.300539147258856,30.300539147258856 0 0,0 -0.1353596126326528,-0.5037234736179805 l 9.002343243126257 -2.3362030225632173" fill="#ff6a09" stroke="none" /><path d="M 79.58551787078972 104.9243191809786 l -9.023176178387176 2.1765430662090486 a30.281974362455248,30.281974362455248 0 0,0 -0.11786816413773951,-0.5077729662089248 l 9.059304908455472 -2.0209014426515495" fill="#ff6a09" stroke="none" /><path d="M 79.29508885075956 103.50808413554451 l -9.824066735180107 1.6645158441783598 a30.96408050011606,30.96408050011606 0 0,0 -0.08451460819440092,-0.5262725459020364 l 9.8512630977358 -1.4951640685831096" fill="#ff730a" stroke="none" /><path d="M 79.23777060512086 103.15116336523772 l -9.558156241809185 1.4506781143568372 a30.667616962535792,30.667616962535792 0 0,0 -0.07472084404512329,-0.5225974092197194 l 9.581711136870906 -1.2859352331567173" fill="#ff6f0a" stroke="none" /><path d="M 79.10278846688536 102.07522291339032 l -8.963330127775922 0.8901143596104439 a30.00741863980354,30.00741863980354 0 0,0 -0.04661924513363835,-0.514439485330664 l 8.977323969186635 -0.7356934857312138" fill="#ff6609" stroke="none" /><path d="M 79.04373962182676 101.35467743843564 l -9.0508686801 0.5850761241707781 a30.069759530190964,30.069759530190964 0 0,0 -0.028943788954265803,-0.5168107951160925 l 9.059598819941797 -0.429193612719248" fill="#ff6709" stroke="none" /><path d="M 79.0235259727143 100.99374915477108 l -8.3029008989198 0.3933454564249871 a29.31221294153208,29.31221294153208 0 0,0 -0.01953849821870842,-0.5042018216596271 l 8.30844152998971 -0.25036638775136316" fill="#ff5c08" stroke="none" /><line stroke="#e1ed5e" stroke-width="0.3" x1="15.007084014347285" x2="10.007500721073583" y1="101.09737516637583" y2="101.16192664675087" /><path d="M 14.007167355692545 101.11028546245083 a86.0,86.0 0 0,1 10.666146001902534,-42.60595125391555" fill="none" id="id70" stroke="none" /><text fill="#e1ed5e" style="font-size:6.75px; font-family:Arial;" text-anchor="middle"><textPath startOffset="22.20632615414155" xlink:href="#id70">October</textPath></text><path d="M 79.00175016825051 100.2711162175752 l -8.307420245435695 0.1072601941969823 a29.30811265472093,29.30811265472093 0 0,0 -0.002171176680785733,-0.5045049969724064 l 8.308035719405984 0.03575428097909944" fill="#ff5c08" stroke="none" /><path d="M 79.03285615573316 98.82574320788736 l -9.030482772642856 -0.5057486995173943 a30.044633815366044,30.044633815366044 0 0,0 0.03336300495538852,-0.5161109198443214 l 9.020439176683054 0.6611186836147277" fill="#ff6709" stroke="none" /><path d="M 79.05617556472873 98.46500227214037 l -8.278370217144767 -0.6067315696314701 a29.300574477088738,29.300574477088738 0 0,0 0.04119593265815783,-0.5026947239005737 l 8.266699800667112 0.7491402107398223" fill="#ff5c08" stroke="none" /><path d="M 79.12142395522702 97.74499172005258 l -8.324654608161351 -0.8991113679807676 a29.373068469636102,29.373068469636102 0 0,0 0.05861975860780295,-0.502218293268353 l 8.30794449654996 1.0422733995739824" fill="#ff5d08" stroke="none" /><path d="M 79.16333360222342 97.38593545837743 l -8.351531279553582 -1.0477415806043857 a29.41699691891884,29.41699691891884 0 0,0 0.06735651940785675,-0.501884306075669 l 8.33225876108789 1.191344228744714" fill="#ff5e08" stroke="none" /><path d="M 79.26566170972629 96.67025291283419 l -8.621095923702201 -1.384469985887623 a29.731554962748525,29.731554962748525 0 0,0 0.08549682182426468,-0.5046070821044119 l 8.595987240357713 1.5326628563078628" fill="#ff6209" stroke="none" /><path d="M 79.32604984820605 96.31383870115002 l -6.9113103953767325 -1.2322853018762183 a28.020308999357695,28.020308999357695 0 0,0 0.08875002709115556,-0.47410619351164535 l 6.889074644375715 1.3510695728504365" fill="#ff4a06" stroke="none" /><path d="M 79.54389044137918 95.25157060432595 l -8.46277107823828 -1.9644434755108005 a29.687780642439314,29.687780642439314 0 0,0 0.11983571578717953,-0.4967964074766407 l 8.427702562190287 2.109825114646838" fill="#ff6209" stroke="none" /><path d="M 79.62865764111835 94.90015583598534 l -9.619743074005742 -2.4082453532523034 a30.916607408350032,30.916607408350032 0 0,0 0.13368292184780065,-0.5151348305754359 l 9.576863820287633 2.5734766093766033" fill="#ff730a" stroke="none" /><path d="M 79.81627453868168 94.20196356495316 l -5.9136854311939455 -1.698782698029657 a27.15284796124855,27.15284796124855 0 0,0 0.1329120308113696,-0.4481132937860901 l 5.883567503270869 1.8003253785622864" fill="#ff3e05" stroke="none" /><path d="M 79.91906864156998 93.8553929516997 l -7.732467870487957 -2.3660743483299593 a29.086369221718336,29.086369221718336 0 0,0 0.15061824523596026,-0.47750099754510744 l 7.6905941414837935 2.4988255123014813" fill="#ff5908" stroke="none" /><path d="M 80.14247586403 93.16781622104843 l -8.490592729574832 -2.9212750554137332 a29.979087528746533,29.979087528746533 0 0,0 0.17208984008206926,-0.4865211517791048 l 8.439049808682954 3.066993833619449" fill="#ff6609" stroke="none" /><path d="M 80.38941819471856 92.48833698450439 l -8.72779950724399 -3.343107788243648 a30.346167873650877,30.346167873650877 0 0,0 0.1910456728223644,-0.48619039898524063 l 8.668960284539935 3.492847192124652" fill="#ff6b09" stroke="none" /><path d="M 80.65960295795068 91.81776055985345 l -10.746942617192355 -4.546652147430031 a32.66913970123571,32.66913970123571 0 0,0 0.2235647084054705,-0.5160181706914179 l 10.667087198944204 4.730969462708048" fill="#ff8b0c" stroke="none" /><path d="M 80.803312248108 91.48605970444005 l -8.08920728913891 -3.587651619292975 a29.849097056088468,29.849097056088468 0 0,0 0.21235171147217421,-0.46788884794291696 l 8.026253260703385 3.726362476077963" fill="#ff6409" stroke="none" /><path d="M 81.43458229118936 90.18545643968196 l -7.392049029155113 -3.9077810332389946 a29.361407863103885,29.361407863103885 0 0,0 0.2400531393160959,-0.44478200939927676 l 7.3236877906205455 4.034444025970744" fill="#ff5d08" stroke="none" /><line stroke="#e1ed5e" stroke-width="0.3" x1="26.266209847984243" x2="21.928928074336255" y1="57.711370442889674" y2="55.22380399835377" /><path d="M 25.398753493254645 57.213857153982495 a86.0,86.0 0 0,1 29.58750427330803,-30.492523968695096" fill="none" id="id71" stroke="none" /><text fill="#e1ed5e" style="font-size:6.75px; font-family:Arial;" text-anchor="middle"><textPath startOffset="21.46611528233685" xlink:href="#id71">November</textPath></text><path d="M 81.78341655067845 89.55222093294921 l -17.61129164121602 -10.100625326626552 a41.30222217543821,41.30222217543821 0 0,0 0.359015289571593,-0.6136735063938262 l 17.434816677174105 10.402278245374271" fill="#fffa17" stroke="none" /><path d="M 81.96595687620814 89.24020034530311 l -7.091758417066957 -4.231214223197812 a29.258099735933897,29.258099735933897 0 0,0 0.2617683196451518,-0.430278290151332 l 7.017874299135588 4.352660286556218" fill="#ff5c08" stroke="none" /><path d="M 82.34701348167596 88.62581576622439 l -6.659593303812679 -4.2909136695344365 a28.922254924677958,28.922254924677958 0 0,0 0.27325108048057467,-0.4161801422509829 l 6.584745587974184 4.404911875763086" fill="#ff5708" stroke="none" /><path d="M 82.7489923806493 88.02491185347247 l -7.220748038369738 -5.012408327172127 a29.78996242721918,29.78996242721918 0 0,0 0.2960375816703463,-0.4187241649822325 l 7.133397836895513 5.135958992486146" fill="#ff6309" stroke="none" /><path d="M 83.17141714833178 87.43820079747576 l -6.9167646265867 -5.163061508871588 a29.631270882320425,29.631270882320425 0 0,0 0.3086224697000131,-0.40611099380595544 l 6.826866216662578 5.281357278558571" fill="#ff6108" stroke="none" /><path d="M 83.39014120810768 87.1503855733568 l -1.806758739309797 -1.3977333253086552 a23.284301992020914,23.284301992020914 0 0,0 0.24797329174919758,-0.31490089843943536 l 1.7824313669666285 1.4286266177011382" fill="#ff0600" stroke="none" /><path d="M 83.6137871275137 86.86637796730984 l -6.544426117218778 -5.245386454654051 a29.387108695039277,29.387108695039277 0 0,0 0.3197618404919729,-0.3919902073775464 l 6.453165784650413 5.35726083163968" fill="#ff5d08" stroke="none" /><path d="M 84.07557802195018 86.31012108654704 l -6.851049479312298 -5.889698095864346 a30.03467888905928,30.03467888905928 0 0,0 0.3404046643058516,-0.3891413761977571 l 6.748652951428602 6.0067550282650455" fill="#ff6609" stroke="none" /><path d="M 84.80347519578584 85.50635884689758 l -13.707909201680723 -13.073878369439806 a39.94288970301071,39.94288970301071 0 0,0 0.4788120356767872,-0.49345789153110786 l 13.480832902300817 13.307900456521038" fill="#ffe915" stroke="none" /><path d="M 85.05521093208273 85.24692304244772 l -5.984087461907842 -5.9073234453186885 a29.408672489720033,29.408672489720033 0 0,0 0.3587356693557467,-0.35719514438571287 l 5.881515992384783 6.00945444035451" fill="#ff5e08" stroke="none" /><path d="M 85.57189188830299 84.74124197986013 l -6.2973319763577695 -6.659879733076829 a30.16571808858998,30.16571808858998 0 0,0 0.3803640156916918,-0.3535068990174783 l 6.181760076871222 6.767291218168954" fill="#ff6809" stroke="none" /><path d="M 86.10567301691215 84.25364557470407 l -6.1513971390647 -6.971340150578334 a30.297272194442783,30.297272194442783 0 0,0 0.39401775811376194,-0.3416883171207898 l 6.0304855823041645 7.076193461118804" fill="#ff6a09" stroke="none" /><path d="M 86.65592168130627 83.78471172551755 l -15.24027170282985 -18.51948056214758 a44.98409977188717,44.98409977188717 0 0,0 0.6021370268815673,-0.48688626658151435 l 14.919231277383782 18.77907292599323" fill="#d7ff1c" stroke="none" /><path d="M 87.22198572758235 83.33499621200491 l -5.05191866410749 -6.588679733730276 a29.302564833979055,29.302564833979055 0 0,0 0.40291563335979036,-0.303467701729504 l 4.937756876989309 6.674664024965634" fill="#ff5c08" stroke="none" /><path d="M 87.80319425747018 82.90503203632743 l -5.203611426444098 -7.293349792419623 a29.95938184653422,29.95938184653422 0 0,0 0.42238285914673157,-0.2959061855425705 l 5.077297427713707 7.381840820726136" fill="#ff6509" stroke="none" /><path d="M 88.39885842347998 82.49532879139004 l -4.71862409752052 -7.119813411405446 a29.541496144524693,29.541496144524693 0 0,0 0.42628797330749196,-0.27726955581060786 l 4.595369098428741 7.1999818913755895" fill="#ff6008" stroke="none" /><path d="M 89.00827224532344 82.1063720568725 l -1.5769898627123293 -2.5672096783376417 a24.012882765666117,24.012882765666117 0 0,0 0.3540618763675561,-0.21331831888608108 l 1.532565920127124 2.593974606682342" fill="#ff1001" stroke="none" /><line stroke="#e1ed5e" stroke-width="0.3" x1="56.762969772571076" x2="54.21961505331055" y1="26.818313649435495" y2="22.513508569990535" /><path d="M 56.25429882871897 25.957352633546506 a86.0,86.0 0 0,1 42.265352541879196,-11.944610805530505" fill="none" id="id72" stroke="none" /><text fill="#e1ed5e" style="font-size:6.75px; font-family:Arial;" text-anchor="middle"><textPath startOffset="22.20632615414155" xlink:href="#id72">December</textPath></text><path d="M 89.3179101791058 81.91981866633112 l -4.148994508589266 -7.022462301427344 a29.15653922980035,29.15653922980035 0 0,0 0.43429813052783944,-0.25157350920637234 l 4.027499645596107 7.092839968023764" fill="#ff5a08" stroke="none" /><path d="M 89.94658935756843 81.56283822128135 l -4.560915558154141 -8.3643592205266 a30.527038149321164,30.527038149321164 0 0,0 0.4635093966062118,-0.24759066732009802 l 4.4162611150196245 8.441628614348447" fill="#ff6d0a" stroke="none" /><path d="M 90.58718382345135 81.22770947309562 l -3.767143003198476 -7.51293784835887 a29.404498885707014,29.404498885707014 0 0,0 0.4544097508367542,-0.22297689125571396 l 3.6372619853512957 7.5766698997494135" fill="#ff5e08" stroke="none" /><path d="M 90.91171255644093 81.06846463323043 l -3.361565136263892 -7.002374172262921 a28.767455452960107,28.767455452960107 0 0,0 0.44825420141316374,-0.21046135799611115 l 3.24053272355112 7.059200512899039" fill="#ff5507" stroke="none" /><path d="M 91.23893434514133 80.91482961587045 l -3.795005438774536 -8.267067987048284 a30.096509186649946,30.096509186649946 0 0,0 0.4726841381660071,-0.21207959438317667 l 3.6521391821417546 8.33116791194799" fill="#ff6709" stroke="none" /><path d="M 91.90106846888425 80.62456947434976 l -3.399803431132707 -8.13349945331666 a29.815468037911778,29.815468037911778 0 0,0 0.4752246708600549,-0.19385607542468378 l 3.259294890684272 8.190816414924921" fill="#ff6309" stroke="none" /></svg>