<?xml version="1.0" encoding="utf-8" ?>
<svg baseProfile="full" height="200mm" version="1.1" viewBox="0,0,200,200" width="200mm" xmlns="http://www.w3.org/2000/svg" xmlns:ev="http://www.w3.org/2001/xml-events" xmlns:xlink="http://www.w3.org/1999/xlink"><defs /><rect fill="#1a1a1a" height="200" width="200" x="0" y="0" /><text alignment-baseline="middle" fill="#e1ed5e" style="dominant-baseline: central; font-size:9.0px; font-family:Arial;" text-anchor="middle" x="100.0" y="100.0">2026</text><line stroke="#e1ed5e" stroke-width="0.3" x1="100.0" x2="100.0" y1="15.0" y2="10.0" /><path d="M 100.0 14.0 a86.0,86.0 0 0,1 42.46469731375804,11.215312516191453" fill="none" id="id73" stroke="none" /><text fill="#e1ed5e" style="font-size:6.75px; font-family:Arial;" text-anchor="middle"><textPath startOffset="22.20632615414155" xlink:href="#id73">January</textPath></text><path d="M 100.0 79.0 l 0.0 -59.4992092194214 a80.4992092194214,80.4992092194214 0 0,0 1.3856615585569516,0.01192682650346639 l -1.0241810792844233 59.49039376952649" fill="#48f6ff" stroke="none" /><path d="M 100.72285384407766 79.0124445844662 l 0.6930044848046696 -20.120900161511564 a41.13283086218814,41.13283086218814 0 0,0 0.707404712174204,0.030462334971561505 l -1.0392500293682052 20.105990100015806" fill="#ffce13" stroke="none" /><path d="M 101.44485096284872 79.0497635885617 l 1.366365966962637 -19.81220954164806 a40.85926994825953,40.85926994825953 0 0,0 0.7012419878497715,0.05442987447491958 l -1.7071981441747497 19.785754404984672" fill="#ffca12" stroke="none" /><path d="M 102.16513564639614 79.11191278185805 l 1.8668699582550758 -18.01057710996943 a39.107072962662684,39.107072962662684 0 0,0 0.66897917792681,0.07516760536635834 l -2.176615839691611 17.975773551132466" fill="#ffb210" stroke="none" /><path d="M 103.2404852339499 79.25152402106235 l 2.7355752197233274 -17.515591844194773 a38.72792513057258,38.72792513057258 0 0,0 0.6577676095674061,0.10853729154898194 l -3.036672035429609 17.465908289706167" fill="#ffac10" stroke="none" /><path d="M 103.59715602781102 79.31037775812273 l 5.911674244138879 -34.0019465329387 a55.51203066175094,55.51203066175094 0 0,0 0.9400166162287618,0.17178202818080612 l -6.496085981470542 33.89514902340716" fill="#79ff26" stroke="none" /><path d="M 104.307194497241 79.44645832069477 l 4.2003414576696105 -20.043648661054508 a41.479031227301995,41.479031227301995 0 0,0 0.6975534129992723,0.15245815822893288 l -4.5447375948224105 19.968377004729707" fill="#ffd313" stroke="none" /><path d="M 105.01212808612495 79.60689891045804 l 4.84155577577839 -19.699084833731646 a41.28532981286055,41.28532981286055 0 0,0 0.6886611457691519,0.17555505973659824 l -5.179925810232567 19.61282677782618" fill="#ffd013" stroke="none" /><path d="M 106.0581310904928 79.89281104454417 l 5.3949410243145435 -17.906033553758743 a39.70110762185401,39.70110762185401 0 0,0 0.6526382414595235,0.20277787850164739 l -5.702364638484785 17.810515540374578" fill="#ffba11" stroke="none" /><path d="M 106.40334571778207 80.00007090966166 l 5.060800954445542 -15.806683676027657 a37.59707670448372,37.59707670448372 0 0,0 0.6146534412437477,0.20264157575811148 l -5.332137217931707 15.71722837601031" fill="#ff9c0e" stroke="none" /><path d="M 107.08798089147638 80.2323363322302 l 6.682165676368704 -18.63588597164775 a40.79766612696298,40.79766612696298 0 0,0 0.6590137817854914,0.24272033747768343 l -7.001961783926772 18.518102366363742" fill="#ffca12" stroke="none" /><path d="M 108.09893153111575 80.62456947434976 l 24.296794593347244 -58.12629157695072 a84.0,84.0 0 0,0 1.329264968838739,0.5691218881488367 l -25.2937433199763 57.69945016083909" fill="#4dd2ff" stroke="none" /><path d="M 108.76106565485865 80.91482961587045 l 6.807837169812794 -14.830242969499098 a37.318172491583184,37.318172491583184 0 0,0 0.5814913882726661,0.2730180037422737 l -7.062106769385059 14.710859983116823" fill="#ff980e" stroke="none" /><path d="M 109.41281617654863 81.2277094730956 l 8.92698270969846 -17.803376780333334 a40.91610516847527,40.91610516847527 0 0,0 0.6268727488891634,0.321108569850693 l -9.232115946176378 17.64707568517014" fill="#ffcb12" stroke="none" /><line stroke="#e1ed5e" stroke-width="0.3" x1="143.23703022742887" x2="145.7803849466894" y1="26.81831364943548" y2="22.513508569990506" /><path d="M 143.74570117128098 25.957352633546492 a86.0,86.0 0 0,1 28.547481713284135,27.462654790039103" fill="none" id="id74" stroke="none" /><text fill="#e1ed5e" style="font-size:6.75px; font-family:Arial;" text-anchor="middle"><textPath startOffset="19.985693538727396" xlink:href="#id74">February</textPath></text><path d="M 110.68208982089419 81.91981866633111 l 8.018135277333345 -13.571252648382897 a36.76291190649295,36.76291190649295 0 0,0 0.54205676583569,0.3265831363014537 l -8.250554109386673 13.431222902622828" fill="#ff900d" stroke="none" /><path d="M 110.99172775467656 82.1063720568725 l 9.128598554206537 -14.860606977974586 a38.4404401124997,38.4404401124997 0 0,0 0.5608292678500434,0.35119123607712127 l -9.383046974428844 14.70127140057452" fill="#ffa80f" stroke="none" /><path d="M 111.2981086023043 82.29822771554956 l 9.431842017286849 -14.777723023380327 a38.53113634636394,38.53113634636394 0 0,0 0.5560097546166709,0.36164421082020215 l -9.6848187976878 14.613179888400596" fill="#ffaa0f" stroke="none" /><path d="M 112.19680574252982 82.90503203632743 l 6.112782934357911 -8.567638989883456 a31.524759050142123,31.524759050142123 0 0,0 0.4390268302396358,0.31897166310448344 l -6.259355080951336 8.461148091962297" fill="#ff4206" stroke="none" /><path d="M 116.38621287248628 86.86637796730983 l 12.769956944775293 -10.235176925353715 a37.36553228785144,37.36553228785144 0 0,0 0.3979356582196408,0.5053378749401494 l -12.944246683588897 10.013846656460528" fill="#ff990e" stroke="none" /><path d="M 116.60985879189232 87.15038557335679 l 14.095395474729866 -10.904391139660959 a38.82094048348043,38.82094048348043 0 0,0 0.4043368431840431,0.5320598897981893 l -14.281008258138021 10.660146473981735" fill="#ffae10" stroke="none" /><path d="M 117.2510076193507 88.02491185347247 l 14.228122984347586 -9.876699996704868 a38.320181479494664,38.320181479494664 0 0,0 0.3714786390647254,0.5450990647710193 l -14.396026089081044 9.630322908663441" fill="#ffa70f" stroke="none" /><path d="M 117.45458315368197 88.32363383020206 l 9.522229145790021 -6.369962162947016 a32.45640719694921,32.45640719694921 0 0,0 0.30664097105085636,0.4670352363382413 l -9.630466752198803 6.205108862631101" fill="#ff5007" stroke="none" /><line stroke="#e1ed5e" stroke-width="0.3" x1="172.23445277983987" x2="176.4835382374775" y1="55.19839476539836" y2="52.563006222186495" /><path d="M 173.08426987136738 54.67131705675599 a86.0,86.0 0 0,1 12.851231095245387,41.99856678651699" fill="none" id="id75" stroke="none" /><text fill="#e1ed5e" style="font-size:6.75px; font-family:Arial;" text-anchor="middle"><textPath startOffset="22.20632615414155" xlink:href="#id75">March</textPath></text><path d="M 117.84615892207809 88.93136811851018 l 16.430343414596454 -10.190507869883513 a40.33397619135109,40.33397619135109 0 0,0 0.36086271041211665,0.5931634134565484 l -16.603321923294796 9.906176683219883" fill="#ffc312" stroke="none" /><path d="M 118.56541770881063 90.18545643968196 l 15.703062785755131 -8.30136957640671 a38.762289202055534,38.762289202055534 0 0,0 0.3067584197381481,0.5925596276901485 l -15.843630638653394 8.029837226456216" fill="#ffad10" stroke="none" /><path d="M 118.89224826269711 90.83032412892265 l 23.184413712145492 -11.252951795107561 a46.77102953471076,46.77102953471076 0 0,0 0.34530785214010107,0.7273064010885757 l -23.37467975812735 10.852202978378447" fill="#e4ff1a" stroke="none" /><path d="M 119.34039704204932 91.81776055985345 l 16.842492593585256 -7.125464222372913 a39.2877499203508,39.2877499203508 0 0,0 0.25813606952604456,0.6250969675266865 l -16.9626503499975 6.834492684392924" fill="#ffb410" stroke="none" /><path d="M 119.61058180528143 92.48833698450437 l 18.251279137215008 -6.990993935915895 a40.54439015054071,40.54439015054071 0 0,0 0.244029756048964,0.6538784222497107 l -18.368913481765595 6.675792376636851" fill="#ffc612" stroke="none" /><path d="M 119.85752413597 93.16781622104841 l 16.629872623515322 -5.721677345394921 a38.58664991176972,38.58664991176972 0 0,0 0.21068808110308598,0.6299305456130943 l -16.725897998390177 5.4345736968595135" fill="#ffaa0f" stroke="none" /><path d="M 120.18372546131832 94.20196356495316 l 15.89413859204119 -4.565797074328607 a37.53693274180435,37.53693274180435 0 0,0 0.1730510324651096,0.6225566370615955 l -15.97037639507266 4.2915291338480595" fill="#ff9b0e" stroke="none" /><path d="M 120.37134235888165 94.90015583598534 l 16.537780141896043 -4.140134707698074 a38.04813442636986,38.04813442636986 0 0,0 0.1535825624106327,0.6366988735825971 l -16.606595504567494 3.8548506024560707" fill="#ffa30f" stroke="none" /><path d="M 120.53481517161879 95.60439243477599 l 38.5893932283849 -8.26030462872296 a60.46357690699388,60.46357690699388 0 0,0 0.20909083459445854,1.0196011665810616 l -38.72586335889436 7.594827805978485" fill="#42ff2d" stroke="none" /><path d="M 120.73433829027371 96.67025291283417 l 17.55008529329095 -2.818384872801069 a38.774948300713035,38.774948300713035 0 0,0 0.10015773464331026,0.6599143304583793 l -17.59599892137356 2.5158714299506078" fill="#ffad10" stroke="none" /><path d="M 120.83666639777658 97.38593545837742 l 17.847846751672073 -2.2391020927818914 a38.98775171757359,38.98775171757359 0 0,0 0.07780775769843948,0.6666093515633702 l -17.883744862374098 1.9315490028936684" fill="#ffb010" stroke="none" /><path d="M 120.91429891909075 98.10471618934814 l 8.220312010993272 -0.7449364826052675 a29.253996602931004,29.253996602931004 0 0,0 0.041130445240204046,0.5018956115279644 l -8.23191694005297 0.6033269538695344" fill="#ff1f03" stroke="none" /><path d="M 120.94382443527127 98.46500227214037 l 52.9652713999173 -3.8818875466422833 a74.10733494906023,74.10733494906023 0 0,0 0.08229234539285277,1.2730261597732253 l -53.02424433631457 2.9696023226160224" fill="#40ffc3" stroke="none" /><path d="M 120.98425023603335 99.18683210126433 l 16.839866944447046 -0.6525674762822856 a37.852506134631184,37.852506134631184 0 0,0 0.019626173924449236,0.6512971648200288 l -16.84860481282714 0.3626001640372578" fill="#ffa00e" stroke="none" /><line stroke="#e1ed5e" stroke-width="0.3" x1="184.98032266829074" x2="189.97916517819016" y1="98.17113171792111" y2="98.06355123074" /><path d="M 185.9800911702706 98.14961562048488 a86.0,86.0 0 0,1 -9.607161424134198,41.387399972396054" fill="none" id="id76" stroke="none" /><text fill="#e1ed5e" style="font-size:6.75px; font-family:Arial;" text-anchor="middle"><textPath startOffset="21.466115282336823" xlink:href="#id76">April</textPath></text><path d="M 120.99980553446 99.90962569577887 l 18.550827524399867 -0.07983493597084579 a39.55099931154743,39.55099931154743 0 0,0 -0.002929980801516133,0.6808243513665232 l -18.549453246308847 -0.2394988935993621" fill="#ffb811" stroke="none" /><path d="M 120.9904718944345 100.63252640178507 l 18.508088214318963 0.5577223085312267 a39.516489503208916,39.516489503208916 0 0,0 -0.026340312869178185,0.6797264346043453 l -18.49574576859858 -0.8762259901495782" fill="#ffb811" stroke="none" /><path d="M 120.89721153311464 102.0752229133903 l 20.24675446100334 2.010628485656096 a41.34634348258896,41.34634348258896 0 0,0 -0.07642713787338509,0.7076203773455836 l -20.209145021628903 -2.358845184886471" fill="#ffd113" stroke="none" /><path d="M 120.81339534386255 102.79330883721812 l 20.351526650695835 2.731322703723686 a41.53399037512824,41.53399037512824 0 0,0 -0.1011964777433706,0.7077679296410352 l -20.301496121935863 -3.0812361053451305" fill="#ffd413" stroke="none" /><path d="M 120.70491114924044 103.5080841355445 l 24.2991810087283 4.117070138046505 a45.64549582005881,45.64549582005881 0 0,0 -0.13792233814163918,0.7735417178973424 l -24.224712228247473 -4.534730606677066" fill="#f3ff19" stroke="none" /><path d="M 120.5718875245553 104.21870165774334 l 22.913648284480548 4.698929346531876 a44.39049410997076,44.39049410997076 0 0,0 -0.15994520992037548,0.7472107722458385 l -22.82936903583573 -5.092653938193883" fill="#fffa17" stroke="none" /><path d="M 120.41448212921028 104.9243191809786 l 17.07618505992048 4.119065332947515 a38.56595557940818,38.56595557940818 0 0,0 -0.16122164539387185,0.6440003318445295 l -17.002752100231547 -4.41239350418944" fill="#ffaa0f" stroke="none" /><path d="M 120.23288151984713 105.62410040840565 l 16.65714966340892 4.630160174316096 a38.288696253593756,38.288696253593756 0 0,0 -0.1819758957209656,0.6334819659993747 l -16.574981130801856 -4.9161996158200525" fill="#ffa60f" stroke="none" /><path d="M 120.13307415673323 105.97154293290107 l 52.44805371217627 15.556283260627552 a75.70645562527523,75.70645562527523 0 0,0 -0.3813198168384098,1.2461752244448683 l -52.172507122831725 -16.456785457624477" fill="#42ffd5" stroke="none" /><path d="M 119.9155931802556 106.66101706037122 l 15.815859380230634 5.289810260865973 a37.6770351241218,37.6770351241218 0 0,0 -0.21100784730812727,0.6132875748613353 l -15.722460701979276 -5.5612705388166095" fill="#ff9d0e" stroke="none" /><path d="M 119.67450827220406 107.3425965602758 l 17.233744571508534 6.431694854107493 a39.39479955455761,39.39479955455761 0 0,0 -0.24257013984149858,0.63327409137861 l -17.12048015207353 -6.7273925123192475" fill="#ffb610" stroke="none" /><path d="M 119.41010516605496 108.01547362559984 l 14.802215220093833 6.112628689132916 a37.01467467397288,37.01467467397288 0 0,0 -0.24826098139595107,0.5868156249116698 l -14.694803257505573 -6.366518839710749" fill="#ff940d" stroke="none" /><path d="M 118.97047184881838 109.00673069616215 l 15.960042341421236 7.577450071568991 a38.66750410010083,38.66750410010083 0 0,0 -0.2906447427160999,0.598814256124323 l -15.827244342090422 -7.85105328365859" fill="#ffac0f" stroke="none" /><path d="M 118.64920377521936 109.65438752849418 l 18.680718746454833 9.67070231323909 a42.03548754166247,42.03548754166247 0 0,0 -0.33818048503369663,0.6397100310404376 l -18.511485753196244 -9.990827359365662" fill="#ffdb14" stroke="none" /><line stroke="#e1ed5e" stroke-width="0.3" x1="174.80103733775053" x2="179.2010983576182" y1="140.37084112569926" y2="142.7455964860345" /><path d="M 175.68104954172406 140.8457921977663 a86.0,86.0 0 0,1 -30.038265399797805,32.042727171017184" fill="none" id="id77" stroke="none" /><text fill="#e1ed5e" style="font-size:6.75px; font-family:Arial;" text-anchor="middle"><textPath startOffset="22.206326154141568" xlink:href="#id77">May</textPath></text><path d="M 118.12598468904814 110.60418214915192 l 5.44344041473046 3.184557124266674 a27.306540067773973,27.306540067773973 0 0,0 -0.24084254471735078,0.40366595818356915 l -5.387816994314882 -3.2777851763363475" fill="#ff0000" stroke="none" /><path d="M 117.94076556474637 110.91462005526583 l 16.5561636332795 10.072270047669495 a40.37929766955208,40.37929766955208 0 0,0 -0.3663659062582234,0.5906984943323839 l -16.380333087353314 -10.355764873367152" fill="#ffc412" stroke="none" /><path d="M 117.55443506779139 111.5257021239791 l 13.716235324458623 9.00565822833967 a37.408442692759984,37.408442692759984 0 0,0 -0.3580467053650362,0.5352312441058047 l -13.559185513682866 -9.240426386651281" fill="#ff9a0e" stroke="none" /><path d="M 117.14729908036423 112.12312394758627 l 16.131030947765584 11.404623355875952 a40.75539403117949,40.75539403117949 0 0,0 -0.409922037575231,0.5693458573974103 l -15.93232911781475 -11.680602818724493" fill="#ffc912" stroke="none" /><path d="M 116.498646956653 112.99209946851258 l 16.0236285235349 12.618039295659504 a41.39538150481742,41.39538150481742 0 0,0 -0.4456549658045241,0.556023092424699 l -15.80405564567552 -12.891990221662454" fill="#ffd213" stroke="none" /><path d="M 116.0416608686014 113.55231037782055 l 15.333448303964575 12.953998484304794 a41.07288503483555,41.07288503483555 0 0,0 -0.4609110958093935,0.5361437329311518 l -15.108194698584402 -13.216019316397475" fill="#ffcd13" stroke="none" /><path d="M 115.56566222782051 114.09645910891815 l 12.728193259617026 11.52681159262966 a38.17190406292039,38.17190406292039 0 0,0 -0.4452545244692878,0.4832358474748198 l -12.527892327152017 -11.744198694905814" fill="#ffa50f" stroke="none" /><path d="M 115.07121518719521 114.62390073753431 l 14.672273030934061 14.236799205194867 a41.44412012054596,41.44412012054596 0 0,0 -0.501196325758912,0.5077092318865548 l -14.425036080119613 -14.487248931062087" fill="#ffd213" stroke="none" /><path d="M 114.55890576462653 115.13401014063108 l 13.513366765415562 14.047170368995948 a40.49189771962278,40.49189771962278 0 0,0 -0.5064652632598798,0.47889451838005265 l -13.269565667764875 -14.277699524121923" fill="#ffc512" stroke="none" /><path d="M 113.48314897796784 116.09983520530334 l 11.011683095943317 13.148729830650602 a38.150692719681174,38.150692719681174 0 0,0 -0.5070951407035997,0.41730477793765114 l -10.783717826695026 -13.336329727445431" fill="#ffa40f" stroke="none" /><path d="M 112.92097659922987 116.55440617244103 l 12.004363859896152 15.380038316170111 a40.51026217885453,40.51026217885453 0 0,0 -0.5533919247766633,0.424317330076504 l -11.737843206625994 -15.584394988073987" fill="#ffc612" stroke="none" /><path d="M 112.34349029814194 116.9893568818739 l 11.700767098470559 16.104724289978822 a40.90653398130586,40.90653398130586 0 0,0 -0.5732226220532991,0.4089791208304572 l -11.421817148568374 -16.3037476726535" fill="#ffcb12" stroke="none" /><line stroke="#e1ed5e" stroke-width="0.3" x1="143.8653032363475" x2="146.44561519142675" y1="172.8068346515853" y2="177.08958963109032" /><path d="M 144.38136562736335 173.6633856474863 a86.0,86.0 0 0,1 -40.68145358897372,12.25698825130547" fill="none" id="id78" stroke="none" /><text fill="#e1ed5e" style="font-size:6.75px; font-family:Arial;" text-anchor="middle"><textPath startOffset="21.466115282336833" xlink:href="#id78">June</textPath></text><path d="M 110.8373102113329 117.98757091392108 l 10.191946630848143 16.91640814909661 a40.74944659459801,40.74944659459801 0 0,0 -0.6039303341929516,0.35681268657401377 l -9.899248425626809 -17.089339407964374" fill="#ffc912" stroke="none" /><path d="M 110.21172684928248 118.3499491758327 l 9.512170720206033 17.092882706698024 a40.56139133689834,40.56139133689834 0 0,0 -0.6130123966285784,0.33426323564192945 l -9.216535511708805 -17.254086594099725" fill="#ffc612" stroke="none" /><path d="M 108.92500713936063 119.00905698771935 l 8.330748038335367 17.74336555011347 a40.60174441020957,40.60174441020957 0 0,0 -0.635189165067863,0.29158419162146787 l -8.024090877500084 -17.884136812069013" fill="#ffc712" stroke="none" /><path d="M 108.2653958097858 119.30500536409082 l 7.621130256214664 17.80023169640217 a40.363106022221515,40.363106022221515 0 0,0 -0.6410594210352752,0.26796288998420353 l -7.313599375681927 -17.92877962940635" fill="#ffc312" stroke="none" /><path d="M 107.59598834532513 119.57807347666477 l 7.2095246659586225 18.58199318181332 a40.931575866399086,40.931575866399086 0 0,0 -0.6590564148399803,0.2491987428767771 l -6.888598030358367 -18.70334017479673" fill="#ffcb13" stroke="none" /><path d="M 106.91757812671514 119.82793768551818 l 5.856221283324238 16.785757753848056 a38.77799176201097,38.77799176201097 0 0,0 -0.632137156002249,0.21445524463472118 l -5.566414394384762 -16.8840759853809" fill="#ffad10" stroke="none" /><path d="M 106.2309692047433 120.05430185196036 l 5.5109387471148175 17.7368922058182 a39.57330856350763,39.57330856350763 0 0,0 -0.6522529732394341,0.19651847032431535 l -5.204810799435138 -17.82912604524824" fill="#ffb811" stroke="none" /><path d="M 105.53697534728816 120.25689768951611 l 4.901161234258317 17.930786296677066 a39.58855773483512,39.58855773483512 0 0,0 -0.6588847277920805,0.1740174451199902 l -4.591786063654739 -18.01249509110064" fill="#ffb911" stroke="none" /><path d="M 104.48393922423573 120.51570834832081 l 3.704508368626874 16.9495190420688 a38.34962760438043,38.34962760438043 0 0,0 -0.6461155094015916,0.135399787058531 l -3.4122013977959047 -17.010774809853874" fill="#ffa70f" stroke="none" /><path d="M 103.7750983002368 120.6578951692458 l 3.1149242850780428 17.045325505098408 a38.32760441828377,38.32760441828377 0 0,0 -0.6500197968849604,0.113014273688795 l -2.8210555167210325 -17.096418357308206" fill="#ffa70f" stroke="none" /><path d="M 103.06178313531738 120.77559828337769 l 2.859164936630932 19.40074117731592 a40.61029276589366,40.61029276589366 0 0,0 -0.6924468925237529,0.09596682971333768 l -2.524789452920349 -19.44708257252186" fill="#ffc712" stroke="none" /><line stroke="#e1ed5e" stroke-width="0.3" x1="102.19456741930631" x2="102.32365962044197" y1="184.97166512339345" y2="189.96999836594603" /><path d="M 102.22038585953345 185.97133177190398 a86.0,86.0 0 0,1 -42.740103519485714,-10.115201625700543" fill="none" id="id79" stroke="none" /><text fill="#e1ed5e" style="font-size:6.75px; font-family:Arial;" text-anchor="middle"><textPath startOffset="22.20632615414155" xlink:href="#id79">July</textPath></text><line stroke="#e1ed5e" stroke-width="0.3" x1="58.666819895761336" x2="56.23545636021788" y1="174.27360380694188" y2="178.64263932499728" /><path d="M 58.180547188652646 175.14741091055294 a86.0,86.0 0 0,1 -31.652253787137756,-30.449443065178592" fill="none" id="id80" stroke="none" /><text fill="#e1ed5e" style="font-size:6.75px; font-family:Arial;" text-anchor="middle"><textPath startOffset="22.20632615414155" xlink:href="#id80">August</textPath></text><line stroke="#e1ed5e" stroke-width="0.3" x1="26.63291911575756" x2="22.317208475507996" y1="142.92168965132927" y2="145.44649492493687" /><path d="M 25.769776987707644 143.4266507060508 a86.0,86.0 0 0,1 -11.730757126820373,-40.83630448921669" fill="none" id="id81" stroke="none" /><text fill="#e1ed5e" style="font-size:6.75px; font-family:Arial;" text-anchor="middle"><textPath startOffset="21.46611528233685" xlink:href="#id81">September</textPath></text><line stroke="#e1ed5e" stroke-width="0.3" x1="15.007084014347285" x2="10.007500721073583" y1="101.09737516637583" y2="101.16192664675087" /><path d="M 14.007167355692545 101.11028546245083 a86.0,86.0 0 0,1 10.666146001902534,-42.60595125391555" fill="none" id="id82" stroke="none" /><text fill="#e1ed5e" style="font-size:6.75px; font-family:Arial;" text-anchor="middle"><textPath startOffset="22.20632615414155" xlink:href="#id82">October</textPath></text><line stroke="#e1ed5e" stroke-width="0.3" x1="26.266209847984243" x2="21.928928074336255" y1="57.711370442889674" y2="55.22380399835377" /><path d="M 25.398753493254645 57.213857153982495 a86.0,86.0 0 0,1 29.58750427330803,-30.492523968695096" fill="none" id="id83" stroke="none" /><text fill="#e1ed5e" style="font-size:6.75px; font-family:Arial;" text-anchor="middle"><textPath startOffset="21.46611528233685" xlink:href="#id83">November</textPath></text><line stroke="#e1ed5e" stroke-width="0.3" x1="56.762969772571076" x2="54.21961505331055" y1="26.818313649435495" y2="22.513508569990535" /><path d="M 56.25429882871897 25.957352633546506 a86.0,86.0 0 0,1 42.265352541879196,-11.944610805530505" fill="none" id="id84" stroke="none" /><text fill="#e1ed5e" style="font-size:6.75px; font-family:Arial;" text-anchor="middle"><textPath startOffset="22.20632615414155" xlink:href="#id84">December</textPath></text></svg>