<?xml version="1.0" encoding="utf-8" ?>
<svg baseProfile="full" height="200mm" version="1.1" viewBox="0,0,200,200" width="200mm" xmlns="http://www.w3.org/2000/svg" xmlns:ev="http://www.w3.org/2001/xml-events" xmlns:xlink="http://www.w3.org/1999/xlink"><defs /><rect fill="#1a1a1a" height="200" width="200" x="0" y="0" /><text alignment-baseline="middle" fill="#e1ed5e" style="dominant-baseline: central; font-size:9.0px; font-family:Arial;" text-anchor="middle" x="100.0" y="100.0">2026</text><line stroke="#e1ed5e" stroke-width="0.3" x1="100.0" x2="100.0" y1="15.0" y2="10.0" /><path d="M 100.0 14.0 a86.0,86.0 0 0,1 42.46469731375804,11.215312516191453" fill="none" id="id73" stroke="none" /><text fill="#e1ed5e" style="font-size:6.75px; font-family:Arial;" text-anchor="middle"><textPath startOffset="22.20632615414155" xlink:href="#id73">January</textPath></text><path d="M 100.0 79.0 l 0.0 -59.4992092194214 a80.4992092194214,80.4992092194214 0 0,0 1.3856615585569516,0.01192682650346639 l -1.0241810792844233 59.49039376952649" fill="#48f7ff" stroke="none" /><path d="M 100.72285384407766 79.0124445844662 l 0.6930044848046696 -20.120900161511564 a41.13283086218814,41.13283086218814 0 0,0 0.707404712174204,0.030462334971561505 l -1.0392500293682052 20.105990100015806" fill="#ffb911" stroke="none" /><path d="M 101.44485096284872 79.0497635885617 l 1.366365966962637 -19.81220954164806 a40.85926994825953,40.85926994825953 0 0,0 0.7012419878497715,0.05442987447491958 l -1.7071981441747497 19.785754404984672" fill="#ffb510" stroke="none" /><path d="M 102.16513564639614 79.11191278185805 l 1.8668699582550758 -18.01057710996943 a39.107072962662684,39.107072962662684 0 0,0 0.66897917792681,0.07516760536635834 l -2.176615839691611 17.975773551132466" fill="#ff9b0e" stroke="none" /><path d="M 103.2404852339499 79.25152402106235 l 2.7355752197233274 -17.515591844194773 a38.72792513057258,38.72792513057258 0 0,0 0.6577676095674061,0.10853729154898194 l -3.036672035429609 17.465908289706167" fill="#ff950d" stroke="none" /><path d="M 103.59715602781102 79.31037775812273 l 5.911674244138879 -34.0019465329387 a55.51203066175094,55.51203066175094 0 0,0 0.9400166162287618,0.17178202818080612 l -6.496085981470542 33.89514902340716" fill="#85ff25" stroke="none" /><path d="M 104.307194497241 79.44645832069477 l 4.2003414576696105 -20.043648661054508 a41.479031227301995,41.479031227301995 0 0,0 0.6975534129992723,0.15245815822893288 l -4.5447375948224105 19.968377004729707" fill="#ffbe11" stroke="none" /><path d="M 105.01212808612495 79.60689891045804 l 4.84155577577839 -19.699084833731646 a41.28532981286055,41.28532981286055 0 0,0 0.6886611457691519,0.17555505973659824 l -5.179925810232567 19.61282677782618" fill="#ffbb11" stroke="none" /><path d="M 106.0581310904928 79.89281104454417 l 5.3949410243145435 -17.906033553758743 a39.70110762185401,39.70110762185401 0 0,0 0.6526382414595235,0.20277787850164739 l -5.702364638484785 17.810515540374578" fill="#ffa40f" stroke="none" /><path d="M 106.40334571778207 80.00007090966166 l 5.060800954445542 -15.806683676027657 a37.59707670448372,37.59707670448372 0 0,0 0.6146534412437477,0.20264157575811148 l -5.332137217931707 15.71722837601031" fill="#ff840c" stroke="none" /><path d="M 107.08798089147638 80.2323363322302 l 6.682165676368704 -18.63588597164775 a40.79766612696298,40.79766612696298 0 0,0 0.6590137817854914,0.24272033747768343 l -7.001961783926772 18.518102366363742" fill="#ffb410" stroke="none" /><path d="M 108.09893153111575 80.62456947434976 l 24.296794593347244 -58.12629157695072 a84.0,84.0 0 0,0 1.329264968838739,0.5691218881488367 l -25.2937433199763 57.69945016083909" fill="#4dd2ff" stroke="none" /><path d="M 108.76106565485865 80.91482961587045 l 6.807837169812794 -14.830242969499098 a37.318172491583184,37.318172491583184 0 0,0 0.5814913882726661,0.2730180037422737 l -7.062106769385059 14.710859983116823" fill="#ff800b" stroke="none" /><path d="M 109.41281617654863 81.2277094730956 l 8.92698270969846 -17.803376780333334 a40.91610516847527,40.91610516847527 0 0,0 0.6268727488891634,0.321108569850693 l -9.232115946176378 17.64707568517014" fill="#ffb610" stroke="none" /><line stroke="#e1ed5e" stroke-width="0.3" x1="143.23703022742887" x2="145.7803849466894" y1="26.81831364943548" y2="22.513508569990506" /><path d="M 143.74570117128098 25.957352633546492 a86.0,86.0 0 0,1 28.547481713284135,27.462654790039103" fill="none" id="id74" stroke="none" /><text fill="#e1ed5e" style="font-size:6.75px; font-family:Arial;" text-anchor="middle"><textPath startOffset="19.985693538727396" xlink:href="#id74">February</textPath></text><path d="M 110.68208982089419 81.91981866633111 l 8.018135277333345 -13.571252648382897 a36.76291190649295,36.76291190649295 0 0,0 0.54205676583569,0.3265831363014537 l -8.250554109386673 13.431222902622828" fill="#ff780b" stroke="none" /><path d="M 110.99172775467656 82.1063720568725 l 9.128598554206537 -14.860606977974586 a38.4404401124997,38.4404401124997 0 0,0 0.5608292678500434,0.35119123607712127 l -9.383046974428844 14.70127140057452" fill="#ff910d" stroke="none" /><path d="M 111.2981086023043 82.29822771554956 l 9.431842017286849 -14.777723023380327 a38.53113634636394,38.53113634636394 0 0,0 0.5560097546166709,0.36164421082020215 l -9.6848187976878 14.613179888400596" fill="#ff920d" stroke="none" /><path d="M 112.19680574252982 82.90503203632743 l 6.112782934357911 -8.567638989883456 a31.524759050142123,31.524759050142123 0 0,0 0.4390268302396358,0.31897166310448344 l -6.259355080951336 8.461148091962297" fill="#ff2503" stroke="none" /><path d="M 116.38621287248628 86.86637796730983 l 12.769956944775293 -10.235176925353715 a37.36553228785144,37.36553228785144 0 0,0 0.3979356582196408,0.5053378749401494 l -12.944246683588897 10.013846656460528" fill="#ff810b" stroke="none" /><path d="M 116.60985879189232 87.15038557335679 l 14.095395474729866 -10.904391139660959 a38.82094048348043,38.82094048348043 0 0,0 0.4043368431840431,0.5320598897981893 l -14.281008258138021 10.660146473981735" fill="#ff970d" stroke="none" /><path d="M 117.2510076193507 88.02491185347247 l 14.228122984347586 -9.876699996704868 a38.320181479494664,38.320181479494664 0 0,0 0.3714786390647254,0.5450990647710193 l -14.396026089081044 9.630322908663441" fill="#ff8f0d" stroke="none" /><path d="M 117.45458315368197 88.32363383020206 l 9.522229145790021 -6.369962162947016 a32.45640719694921,32.45640719694921 0 0,0 0.30664097105085636,0.4670352363382413 l -9.630466752198803 6.205108862631101" fill="#ff3405" stroke="none" /><line stroke="#e1ed5e" stroke-width="0.3" x1="172.23445277983987" x2="176.4835382374775" y1="55.19839476539836" y2="52.563006222186495" /><path d="M 173.08426987136738 54.67131705675599 a86.0,86.0 0 0,1 12.851231095245387,41.99856678651699" fill="none" id="id75" stroke="none" /><text fill="#e1ed5e" style="font-size:6.75px; font-family:Arial;" text-anchor="middle"><textPath startOffset="22.20632615414155" xlink:href="#id75">March</textPath></text><path d="M 117.84615892207809 88.93136811851018 l 16.430343414596454 -10.190507869883513 a40.33397619135109,40.33397619135109 0 0,0 0.36086271041211665,0.5931634134565484 l -16.603321923294796 9.906176683219883" fill="#ffad10" stroke="none" /><path d="M 118.56541770881063 90.18545643968196 l 15.703062785755131 -8.30136957640671 a38.762289202055534,38.762289202055534 0 0,0 0.3067584197381481,0.5925596276901485 l -15.843630638653394 8.029837226456216" fill="#ff960d" stroke="none" /><path d="M 118.89224826269711 90.83032412892265 l 23.184413712145492 -11.252951795107561 a46.77102953471076,46.77102953471076 0 0,0 0.34530785214010107,0.7273064010885757 l -23.37467975812735 10.852202978378447" fill="#f6ff19" stroke="none" /><path d="M 119.34039704204932 91.81776055985345 l 16.842492593585256 -7.125464222372913 a39.2877499203508,39.2877499203508 0 0,0 0.25813606952604456,0.6250969675266865 l -16.9626503499975 6.834492684392924" fill="#ff9e0e" stroke="none" /><path d="M 119.61058180528143 92.48833698450437 l 18.251279137215008 -6.990993935915895 a40.54439015054071,40.54439015054071 0 0,0 0.244029756048964,0.6538784222497107 l -18.368913481765595 6.675792376636851" fill="#ffb010" stroke="none" /><path d="M 119.85752413597 93.16781622104841 l 16.629872623515322 -5.721677345394921 a38.58664991176972,38.58664991176972 0 0,0 0.21068808110308598,0.6299305456130943 l -16.725897998390177 5.4345736968595135" fill="#ff930d" stroke="none" /><path d="M 120.18372546131832 94.20196356495316 l 15.89413859204119 -4.565797074328607 a37.53693274180435,37.53693274180435 0 0,0 0.1730510324651096,0.6225566370615955 l -15.97037639507266 4.2915291338480595" fill="#ff830c" stroke="none" /><path d="M 120.37134235888165 94.90015583598534 l 16.537780141896043 -4.140134707698074 a38.04813442636986,38.04813442636986 0 0,0 0.1535825624106327,0.6366988735825971 l -16.606595504567494 3.8548506024560707" fill="#ff8b0c" stroke="none" /><path d="M 120.53481517161879 95.60439243477599 l 38.5893932283849 -8.26030462872296 a60.46357690699388,60.46357690699388 0 0,0 0.20909083459445854,1.0196011665810616 l -38.72586335889436 7.594827805978485" fill="#4bff2c" stroke="none" /><path d="M 120.73433829027371 96.67025291283417 l 17.55008529329095 -2.818384872801069 a38.774948300713035,38.774948300713035 0 0,0 0.10015773464331026,0.6599143304583793 l -17.59599892137356 2.5158714299506078" fill="#ff960d" stroke="none" /><path d="M 120.83666639777658 97.38593545837742 l 17.847846751672073 -2.2391020927818914 a38.98775171757359,38.98775171757359 0 0,0 0.07780775769843948,0.6666093515633702 l -17.883744862374098 1.9315490028936684" fill="#ff990e" stroke="none" /><path d="M 120.91429891909075 98.10471618934814 l 8.220312010993272 -0.7449364826052675 a29.253996602931004,29.253996602931004 0 0,0 0.041130445240204046,0.5018956115279644 l -8.23191694005297 0.6033269538695344" fill="#ff0000" stroke="none" /><path d="M 120.94382443527127 98.46500227214037 l 52.9652713999173 -3.8818875466422833 a74.10733494906023,74.10733494906023 0 0,0 0.08229234539285277,1.2730261597732253 l -53.02424433631457 2.9696023226160224" fill="#3fffbf" stroke="none" /><path d="M 120.98425023603335 99.18683210126433 l 16.839866944447046 -0.6525674762822856 a37.852506134631184,37.852506134631184 0 0,0 0.019626173924449236,0.6512971648200288 l -16.84860481282714 0.3626001640372578" fill="#ff880c" stroke="none" /><line stroke="#e1ed5e" stroke-width="0.3" x1="184.98032266829074" x2="189.97916517819016" y1="98.17113171792111" y2="98.06355123074" /><path d="M 185.9800911702706 98.14961562048488 a86.0,86.0 0 0,1 -9.607161424134198,41.387399972396054" fill="none" id="id76" stroke="none" /><text fill="#e1ed5e" style="font-size:6.75px; font-family:Arial;" text-anchor="middle"><textPath startOffset="21.466115282336823" xlink:href="#id76">April</textPath></text><path d="M 120.99980553446 99.90962569577887 l 18.550827524399867 -0.07983493597084579 a39.55099931154743,39.55099931154743 0 0,0 -0.002929980801516133,0.6808243513665232 l -18.549453246308847 -0.2394988935993621" fill="#ffa20e" stroke="none" /><path d="M 120.9904718944345 100.63252640178507 l 18.508088214318963 0.5577223085312267 a39.516489503208916,39.516489503208916 0 0,0 -0.026340312869178185,0.6797264346043453 l -18.49574576859858 -0.8762259901495782" fill="#ffa10e" stroke="none" /><path d="M 120.89721153311464 102.0752229133903 l 20.24675446100334 2.010628485656096 a41.34634348258896,41.34634348258896 0 0,0 -0.07642713787338509,0.7076203773455836 l -20.209145021628903 -2.358845184886471" fill="#ffbc11" stroke="none" /><path d="M 120.81339534386255 102.79330883721812 l 20.351526650695835 2.731322703723686 a41.53399037512824,41.53399037512824 0 0,0 -0.1011964777433706,0.7077679296410352 l -20.301496121935863 -3.0812361053451305" fill="#ffbf11" stroke="none" /><path d="M 120.70491114924044 103.5080841355445 l 24.2991810087283 4.117070138046505 a45.64549582005881,45.64549582005881 0 0,0 -0.13792233814163918,0.7735417178973424 l -24.224712228247473 -4.534730606677066" fill="#fff917" stroke="none" /><line stroke="#e1ed5e" stroke-width="0.3" x1="174.80103733775053" x2="179.2010983576182" y1="140.37084112569926" y2="142.7455964860345" /><path d="M 175.68104954172406 140.8457921977663 a86.0,86.0 0 0,1 -30.038265399797805,32.042727171017184" fill="none" id="id77" stroke="none" /><text fill="#e1ed5e" style="font-size:6.75px; font-family:Arial;" text-anchor="middle"><textPath startOffset="22.206326154141568" xlink:href="#id77">May</textPath></text><line stroke="#e1ed5e" stroke-width="0.3" x1="143.8653032363475" x2="146.44561519142675" y1="172.8068346515853" y2="177.08958963109032" /><path d="M 144.38136562736335 173.6633856474863 a86.0,86.0 0 0,1 -40.68145358897372,12.25698825130547" fill="none" id="id78" stroke="none" /><text fill="#e1ed5e" style="font-size:6.75px; font-family:Arial;" text-anchor="middle"><textPath startOffset="21.466115282336833" xlink:href="#id78">June</textPath></text><line stroke="#e1ed5e" stroke-width="0.3" x1="102.19456741930631" x2="102.32365962044197" y1="184.97166512339345" y2="189.96999836594603" /><path d="M 102.22038585953345 185.97133177190398 a86.0,86.0 0 0,1 -42.740103519485714,-10.115201625700543" fill="none" id="id79" stroke="none" /><text fill="#e1ed5e" style="font-size:6.75px; font-family:Arial;" text-anchor="middle"><textPath startOffset="22.20632615414155" xlink:href="#id79">July</textPath></text><line stroke="#e1ed5e" stroke-width="0.3" x1="58.666819895761336" x2="56.23545636021788" y1="174.27360380694188" y2="178.64263932499728" /><path d="M 58.180547188652646 175.14741091055294 a86.0,86.0 0 0,1 -31.652253787137756,-30.449443065178592" fill="none" id="id80" stroke="none" /><text fill="#e1ed5e" style="font-size:6.75px; font-family:Arial;" text-anchor="middle"><textPath startOffset="22.20632615414155" xlink:href="#id80">August</textPath></text><line stroke="#e1ed5e" stroke-width="0.3" x1="26.63291911575756" x2="22.317208475507996" y1="142.92168965132927" y2="145.44649492493687" /><path d="M 25.769776987707644 143.4266507060508 a86.0,86.0 0 0,1 -11.730757126820373,-40.83630448921669" fill="none" id="id81" stroke="none" /><text fill="#e1ed5e" style="font-size:6.75px; font-family:Arial;" text-anchor="middle"><textPath startOffset="21.46611528233685" xlink:href="#id81">September</textPath></text><line stroke="#e1ed5e" stroke-width="0.3" x1="15.007084014347285" x2="10.007500721073583" y1="101.09737516637583" y2="101.16192664675087" /><path d="M 14.007167355692545 101.11028546245083 a86.0,86.0 0 0,1 10.666146001902534,-42.60595125391555" fill="none" id="id82" stroke="none" /><text fill="#e1ed5e" style="font-size:6.75px; font-family:Arial;" text-anchor="middle"><textPath startOffset="22.20632615414155" xlink:href="#id82">October</textPath></text><line stroke="#e1ed5e" stroke-width="0.3" x1="26.266209847984243" x2="21.928928074336255" y1="57.711370442889674" y2="55.22380399835377" /><path d="M 25.398753493254645 57.213857153982495 a86.0,86.0 0 0,1 29.58750427330803,-30.492523968695096" fill="none" id="id83" stroke="none" /><text fill="#e1ed5e" style="font-size:6.75px; font-family:Arial;" text-anchor="middle"><textPath startOffset="21.46611528233685" xlink:href="#id83">November</textPath></text><line stroke="#e1ed5e" stroke-width="0.3" x1="56.762969772571076" x2="54.21961505331055" y1="26.818313649435495" y2="22.513508569990535" /><path d="M 56.25429882871897 25.957352633546506 a86.0,86.0 0 0,1 42.265352541879196,-11.944610805530505" fill="none" id="id84" stroke="none" /><text fill="#e1ed5e" style="font-size:6.75px; font-family:Arial;" text-anchor="middle"><textPath startOffset="22.20632615414155" xlink:href="#id84">December</textPath></text></svg>