<?xml version="1.0" encoding="utf-8" ?>
<svg baseProfile="full" height="200mm" version="1.1" viewBox="0,0,200,200" width="200mm" xmlns="http://www.w3.org/2000/svg" xmlns:ev="http://www.w3.org/2001/xml-events" xmlns:xlink="http://www.w3.org/1999/xlink"><defs /><rect fill="#1a1a1a" height="200" width="200" x="0" y="0" /><text alignment-baseline="middle" fill="#e1ed5e" style="dominant-baseline: central; font-size:9.0px; font-family:Arial;" text-anchor="middle" x="100.0" y="100.0">2021</text><line stroke="#e1ed5e" stroke-width="0.3" x1="100.0" x2="100.0" y1="15.0" y2="10.0" /><path d="M 100.0 14.0 a86.0,86.0 0 0,1 42.46469731375804,11.215312516191453" fill="none" id="id13" stroke="none" /><text fill="#e1ed5e" style="font-size:6.75px; font-family:Arial;" text-anchor="middle"><textPath startOffset="22.20632615414155" xlink:href="#id13">January</textPath></text><path d="M 101.44485096284872 79.0497635885617 l 0.19946774760963015 -2.892268182899366 a23.899138255438753,23.899138255438753 0 0,0 0.4101658996688528,0.031836767934168404 l -0.24922383664082412 2.888406152776733" fill="#ff1402" stroke="none" /><path d="M 102.16513564639614 79.11191278185805 l 0.32426242879916106 -3.128312956094666 a24.145073619806137,24.145073619806137 0 0,0 0.41303401859253946,0.046409184525982076 l -0.37806315090142584 3.122267818098083" fill="#ff1802" stroke="none" /><path d="M 104.66035177308747 79.52364482259891 l 0.6616635067811464 -2.9071747439785343 a23.981520348451873,23.981520348451873 0 0,0 0.40172051472436276,0.09507426676597898 l -0.7116077084680327 2.8953545650716865" fill="#ff1602" stroke="none" /><path d="M 105.01212808612495 79.60689891045804 l 0.49861884895345854 -2.0287559330353147 a23.089131731690863,23.089131731690863 0 0,0 0.38513893398056404,0.09818048974772924 l -0.5334666716190476 2.019872447118718" fill="#ff0901" stroke="none" /><path d="M 105.71112130821622 79.79150937346287 l 1.7260182371379367 -6.1074212022522145 a27.346631602405534,27.346631602405534 0 0,0 0.45188327039754245,0.1319171180842035 l -1.8308917252589063 6.076805755249307" fill="#ff4606" stroke="none" /><path d="M 106.74666289553966 80.11325718540242 l 0.9760970226174491 -2.8771839873192553 a24.038248359573156,24.038248359573156 0 0,0 0.39069936932946714,0.13630733837583595 l -1.0254783960101899 2.859955795771212" fill="#ff1702" stroke="none" /><path d="M 108.43124777332544 80.76684994638697 l 0.6021046993628127 -1.3735060743284309 a22.499682968234247,22.499682968234247 0 0,0 0.353371322464385,0.1585474118629588 l -0.6256581402939779 1.3629383319489408" fill="#ff0000" stroke="none" /><path d="M 108.76106565485865 80.91482961587045 l 0.9779325438677572 -2.130335504739751 a23.344073681246055,23.344073681246055 0 0,0 0.3637471212157768,0.1707841507272042 l -1.014457876383132 2.1131863713725436" fill="#ff0c01" stroke="none" /><path d="M 109.41281617654863 81.2277094730956 l 0.9693527092590309 -1.9332121588211726 a23.162626626572845,23.162626626572845 0 0,0 0.354872961761774,0.1817797143549955 l -1.0024861586095606 1.9162399191536765" fill="#ff0a01" stroke="none" /><line stroke="#e1ed5e" stroke-width="0.3" x1="143.23703022742887" x2="145.7803849466894" y1="26.81831364943548" y2="22.513508569990506" /><path d="M 143.74570117128098 25.957352633546492 a86.0,86.0 0 0,1 28.547481713284135,27.462654790039103" fill="none" id="id14" stroke="none" /><text fill="#e1ed5e" style="font-size:6.75px; font-family:Arial;" text-anchor="middle"><textPath startOffset="19.985693538727396" xlink:href="#id14">February</textPath></text><path d="M 113.06298171725822 83.55741782278167 l 2.2247877265683114 -2.800375581375628 a24.576560334323172,24.576560334323172 0 0,0 0.3289708373787132,0.2660048721053286 l -2.2726619625115156 2.76166461200617" fill="#ff1e03" stroke="none" /><path d="M 113.6212207817346 84.01681056812373 l 4.203126154186881 -4.931963339036891 a27.480010173264677,27.480010173264677 0 0,0 0.35737910436040915,0.30991563762917335 l -4.287399057194055 4.8588827079880454" fill="#ff4806" stroke="none" /><path d="M 114.42810811169701 84.74124197986012 l 5.3328895399222755 -5.639912759722044 a28.761979565954032,28.761979565954032 0 0,0 0.3568084582765834,0.3432494541631022 l -5.4291812418112775 5.54728021879664" fill="#ff5a08" stroke="none" /><path d="M 114.68862486808459 84.99185889309783 l 5.275491838531006 -5.390247666615553 a28.542253247263822,28.542253247263822 0 0,0 0.3481668316431894,0.3466716926210588 l -5.367494470341518 5.298640123344376" fill="#ff5708" stroke="none" /><path d="M 115.19652480421416 85.50635884689758 l 4.85216952780641 -4.627742517193302 a27.705188284605562,27.705188284605562 0 0,0 0.3261727569007424,0.3479383553239195 l -4.931109606677615 4.5435347449913275" fill="#ff4b07" stroke="none" /><path d="M 115.4437574822437 85.77008943001954 l 1.9529427386646396 -1.7994455398203488 a23.655558244754253,23.655558244754253 0 0,0 0.273341506803209,0.3018305189173686 l -1.9836278860838843 1.7655622336334313" fill="#ff1101" stroke="none" /><path d="M 115.68641384162765 86.03803664274999 l 4.406793560800953 -3.922342661621631 a26.899542477403973,26.899542477403973 0 0,0 0.3048719036026396,0.34852128825522094 l -4.4736573279814404 3.8459058171634624" fill="#ff4006" stroke="none" /><path d="M 115.9244219780498 86.31012108654704 l 5.992570768718903 -5.151682636716105 a28.902577959599416,28.902577959599416 0 0,0 0.32107927051598645,0.3800565826757341 l -6.080360652722007 5.047767104411264" fill="#ff5c08" stroke="none" /><path d="M 116.60985879189232 87.15038557335679 l 4.565725806429148 -3.53210806458068 a26.77248988906598,26.77248988906598 0 0,0 0.2788470323259707,0.3669300084592518 l -4.625848778979232 3.4529932802403946" fill="#ff3e05" stroke="none" /><path d="M 117.04232023915458 87.72973835380427 l 3.0078151412831895 -2.165590028178274 a24.706309767717425,24.706309767717425 0 0,0 0.24551881236850895,0.34726894847733114 l -3.0446465734555814 2.1134945793691493" fill="#ff2003" stroke="none" /><path d="M 117.2510076193507 88.02491185347247 l 6.182571360680993 -4.29173985949107 a28.526168989031355,28.526168989031355 0 0,0 0.2765347663983841,0.40578064709170847 l -6.25553059274811 4.184681189128955" fill="#ff5608" stroke="none" /><path d="M 117.65298651832404 88.62581576622439 l 5.641971685796769 -3.635239019153261 a27.711691830656918,27.711691830656918 0 0,0 0.2549111487152052,0.40320822022267794 l -5.703710430757931 3.537583151216377" fill="#ff4b07" stroke="none" /><line stroke="#e1ed5e" stroke-width="0.3" x1="172.23445277983987" x2="176.4835382374775" y1="55.19839476539836" y2="52.563006222186495" /><path d="M 173.08426987136738 54.67131705675599 a86.0,86.0 0 0,1 12.851231095245387,41.99856678651699" fill="none" id="id15" stroke="none" /><text fill="#e1ed5e" style="font-size:6.75px; font-family:Arial;" text-anchor="middle"><textPath startOffset="22.20632615414155" xlink:href="#id15">March</textPath></text><path d="M 118.03404312379186 89.2402003453031 l 5.496852669141698 -3.2796324731708113 a27.4008888777518,27.4008888777518 0 0,0 0.23817938931177152,0.40712578331722526 l -5.552491732923796 3.184527277499691" fill="#ff4706" stroke="none" /><path d="M 120.53481517161879 95.60439243477599 l 7.428719738768392 -1.5901646258199649 a28.59700602174148,28.59700602174148 0 0,0 0.09889212914390189,0.48223314253048394 l -7.454991163827291 1.462055827126069" fill="#ff5708" stroke="none" /><path d="M 120.67395015179393 96.31383870115 l 7.737571071661256 -1.3796074200645227 a28.85960067194932,28.85960067194932 0 0,0 0.08298940770708287,0.4898081820482158 l -7.760172340888562 1.246213449700469" fill="#ff5b08" stroke="none" /><path d="M 120.87857604477298 97.74499172005257 l 9.803980085220084 -1.0588871684161532 a30.86099728966743,30.86099728966743 0 0,0 0.0524973108333272,0.5286407558074994 l -9.82075452173564 0.8899708819042188" fill="#ff770a" stroke="none" /><path d="M 120.94382443527127 98.46500227214037 l 2.1055877681610156 -0.1543210243155542 a23.111235379576396,23.111235379576396 0 0,0 0.025663826200455445,0.39700803224270226 l -2.1079321853658866 0.11805392781981669" fill="#ff0901" stroke="none" /><path d="M 120.96714384426684 98.82574320788733 l 10.104818066829457 -0.5659164326896045 a31.120652625819698,31.120652625819698 0 0,0 0.02535057504031135,0.5351105722774891 l -10.113062250103265 0.3918947537891156" fill="#ff7a0b" stroke="none" /><line stroke="#e1ed5e" stroke-width="0.3" x1="184.98032266829074" x2="189.97916517819016" y1="98.17113171792111" y2="98.06355123074" /><path d="M 185.9800911702706 98.14961562048488 a86.0,86.0 0 0,1 -9.607161424134198,41.387399972396054" fill="none" id="id16" stroke="none" /><text fill="#e1ed5e" style="font-size:6.75px; font-family:Arial;" text-anchor="middle"><textPath startOffset="21.466115282336823" xlink:href="#id16">April</textPath></text><path d="M 120.99513854157772 99.54816195383933 l 5.038326173739045 -0.10843021825048313 a26.039492806346068,26.039492806346068 0 0,0 0.005786958456453058,0.4482063099042625 l -5.039446139313213 0.021687650285757906" fill="#ff3304" stroke="none" /><path d="M 120.89721153311464 102.0752229133903 l 3.104751609011149 0.3083211207005008 a24.12002315169733,24.12002315169733 0 0,0 -0.04458494221382072,0.4128011922354288 l -3.098984365296276 -0.361718634820721" fill="#ff1802" stroke="none" /><path d="M 120.81339534386255 102.79330883721812 l 15.171440283431652 2.0361174866902765 a36.307461405907205,36.307461405907205 0 0,0 -0.08846217704816017,0.6187042602381155 l -15.13414405536689 -2.2969672189088013" fill="#ffbf11" stroke="none" /><path d="M 120.64145759157962 103.86396538481128 l 15.120089395471396 2.8303961471784143 a36.38272556073887,36.38272556073887 0 0,0 -0.12053088837088673,0.6145844030726819 l -15.069128574124845 -3.090244277319041" fill="#ffc011" stroke="none" /><path d="M 120.49622156327973 104.57218783832717 l 6.083776791685431 1.3571364932878953 a27.233310477784983,27.233310477784983 0 0,0 -0.10600168506150906,0.4566524849231343 l -6.05951454069337 -1.4616576355595945" fill="#ff4406" stroke="none" /><path d="M 120.32669344350535 105.2749913415812 l 15.07646348114612 3.912501290273622 a36.57586008683711,36.57586008683711 0 0,0 -0.16339294258096193,0.6080459230103531 l -15.006882462223382 -4.171438146459523" fill="#ffc212" stroke="none" /><path d="M 119.79798401119884 107.00284435728193 l 14.375771751779975 5.084926426679607 a36.24858322022147,36.24858322022147 0 0,0 -0.21313431431573257,0.5864540954512778 l -14.286113176459017 -5.331628319137016" fill="#ffbe11" stroke="none" /><path d="M 119.54520255179757 107.68017299344265 l 7.79832577837541 3.0643064904762594 a29.37877432643041,29.37877432643041 0 0,0 -0.18899979084870402,0.4690819811264494 l -7.744423373269313 -3.1980878394455226" fill="#ff6209" stroke="none" /><path d="M 119.12269723197855 108.67885076344098 l 13.761799322862858 6.245803147466993 a36.11281501109761,36.11281501109761 0 0,0 -0.26177557628841064,0.563841302676701 l -13.652249129734617 -6.4817645174225245" fill="#ffbc11" stroke="none" /><path d="M 118.81262510543309 109.33194174019688 l 6.811825254861903 3.3789838508191345 a28.603847392397544,28.603847392397544 0 0,0 -0.22259422809981744,0.4391995295608313 l -6.752652356975816 -3.4957375920826603" fill="#ff5808" stroke="none" /><line stroke="#e1ed5e" stroke-width="0.3" x1="174.80103733775053" x2="179.2010983576182" y1="140.37084112569926" y2="142.7455964860345" /><path d="M 175.68104954172406 140.8457921977663 a86.0,86.0 0 0,1 -30.038265399797805,32.042727171017184" fill="none" id="id17" stroke="none" /><text fill="#e1ed5e" style="font-size:6.75px; font-family:Arial;" text-anchor="middle"><textPath startOffset="22.206326154141568" xlink:href="#id17">May</textPath></text><path d="M 118.48025628344425 109.97397251340804 l 13.965495963374334 7.537312834757196 a36.86966169368523,36.86966169368523 0 0,0 -0.3062351797581293,0.5559058032818981 l -13.833684374164696 -7.776589156436899" fill="#ffc612" stroke="none" /><path d="M 117.94076556474637 110.91462005526583 l 18.19879146463382 11.071595221767279 a42.302024118094714,42.302024118094714 0 0,0 -0.38381101943408097,0.6188255714168275 l -18.005515805531775 -11.383217124549379" fill="#f4ff19" stroke="none" /><path d="M 117.55443506779139 111.5257021239791 l 2.972468070920834 1.95163110781797 a24.555900787936388,24.555900787936388 0 0,0 -0.23503141915322104,0.35134008215235357 l -2.9384335463568925 -2.0025081041761306" fill="#ff1e03" stroke="none" /><path d="M 117.14729908036423 112.12312394758627 l 8.311945971125281 5.876537802328439 a31.17949617461989,31.17949617461989 0 0,0 -0.3136066502679672,0.4355722084094516 l -8.20955952848171 -6.018743616189021" fill="#ff7b0b" stroke="none" /><path d="M 116.93607887273984 112.41649034213515 l 1.6007658409614667 1.1735829617745785 a22.98487990713712,22.98487990713712 0 0,0 -0.23667720553736957,0.3170677940534646 l -1.5803273687290051 -1.200963635337358" fill="#ff0701" stroke="none" /><path d="M 116.71984013943494 112.70617746262583 l 5.096855241799489 3.8733353108367496 a27.40161384230834,27.40161384230834 0 0,0 -0.2886214371019816,0.37308211401556485 l -5.029426987479439 -3.960495418965567" fill="#ff4706" stroke="none" /><path d="M 116.498646956653 112.99209946851258 l 6.431807646973477 5.064820462633328 a29.186608328628882,29.186608328628882 0 0,0 -0.31421758814160033,0.39203475436949675 l -6.343672146777022 -5.174783050581076" fill="#ff6008" stroke="none" /><path d="M 116.0416608686014 113.55231037782055 l 4.255497924973492 3.5951282827761357 a26.570835660748806,26.570835660748806 0 0,0 -0.29817221192472965,0.3468416451917515 l -4.192983203477984 -3.6678470271294152" fill="#ff3b05" stroke="none" /><path d="M 115.56566222782051 114.09645910891815 l 8.537349793656913 7.731531142293476 a32.51793884788019,32.51793884788019 0 0,0 -0.379304091683986,0.4116596780550417 l -8.402999293977206 -7.877342075149852" fill="#ff8d0d" stroke="none" /><path d="M 115.07121518719521 114.62390073753431 l 6.237574357572709 6.052442826616462 a29.69134040500714,29.69134040500714 0 0,0 -0.359066392881854,0.36373236026876515 l -6.132467339635319 -6.158915680865892" fill="#ff6709" stroke="none" /><path d="M 114.81725581225074 114.88116024355365 l 6.786898435778958 6.816169232635317 a30.61884366155845,30.61884366155845 0 0,0 -0.3766847484838922,0.36866530802166253 l -6.668563734919272 -6.931984643579551" fill="#ff730a" stroke="none" /><path d="M 114.29624159901734 115.38237550388516 l 3.256667684166764 3.504087760566705 a25.78377627391264,25.78377627391264 0 0,0 -0.3277000716168032,0.2993462457282449 l -3.195868063083097 -3.5596267728815327" fill="#ff3004" stroke="none" /><path d="M 113.48314897796784 116.09983520530334 l 2.4324929105044757 2.9045688852941307 a24.788606890279503,24.788606890279503 0 0,0 -0.3294876502304715,0.2711459047346563 l -2.382135131729313 -2.9460099088859657" fill="#ff2103" stroke="none" /><path d="M 112.34349029814194 116.9893568818739 l 4.859611462915914 6.688681358071933 a29.26766483841252,29.26766483841252 0 0,0 -0.41012733045823313,0.2926149607259471 l -4.743756804608796 -6.771340580642099" fill="#ff6108" stroke="none" /><path d="M 111.45004920935366 117.60387380957326 l 5.060325643717627 7.779995739632384 a30.280906708353676,30.280906708353676 0 0,0 -0.43938777735974033,0.2804380684241487 l -4.925656064310957 -7.865948236880342" fill="#ff6f0a" stroke="none" /><line stroke="#e1ed5e" stroke-width="0.3" x1="143.8653032363475" x2="146.44561519142675" y1="172.8068346515853" y2="177.08958963109032" /><path d="M 144.38136562736335 173.6633856474863 a86.0,86.0 0 0,1 -40.68145358897372,12.25698825130547" fill="none" id="id18" stroke="none" /><text fill="#e1ed5e" style="font-size:6.75px; font-family:Arial;" text-anchor="middle"><textPath startOffset="21.466115282336833" xlink:href="#id18">June</textPath></text><path d="M 110.5260780823613 118.17145234162733 l 5.371861990971911 9.27359016254302 a31.717106687574933,31.717106687574933 0 0,0 -0.474776742711003,0.2695906254231497 l -5.2114364813397085 -9.364683953760798" fill="#ff820c" stroke="none" /><path d="M 109.89434966115114 118.52300852407294 l 3.5344945399651984 6.616854541650357 a28.50169418720883,28.50169418720883 0 0,0 -0.4347310448366994,0.22743073600050343 l -3.4200725926020032 -6.676714696595577" fill="#ff5608" stroke="none" /><path d="M 109.57404056367764 118.69057910512821 l 6.8544659767368 13.381386647519824 a36.034800046447714,36.034800046447714 0 0,0 -0.5545002296401267,0.2780379263775002 l -6.623111839413913 -13.497392414806626" fill="#ffbb11" stroke="none" /><path d="M 108.92500713936063 119.00905698771935 l 3.243761997090955 6.90877393087638 a28.632375064272495,28.632375064272495 0 0,0 -0.4479357888478288,0.20562535079697766 l -3.1243582124757063 -6.9635863520074315" fill="#ff5808" stroke="none" /><path d="M 108.2653958097858 119.30500536409082 l 4.082319347410501 9.53483640872775 a31.37200253545295,31.37200253545295 0 0,0 -0.4982599151567415,0.2082726849455936 l -3.9175879727562983 -9.603694136693317" fill="#ff7e0b" stroke="none" /><path d="M 107.93186726928326 119.44442032107085 l 2.022230890494151 4.957358221726116 a26.353953521743,26.353953521743 0 0,0 -0.4215113119488432,0.1677280500265117 l -1.9365985025034413 -4.991433116158697" fill="#ff3805" stroke="none" /><path d="M 107.2578585660854 119.70592522655815 l 3.084774142993812 8.375518487878557 a29.925533118759837,29.925533118759837 0 0,0 -0.48490826466862,0.17387085150047613 l -2.940146317695457 -8.427376880418992" fill="#ff6a09" stroke="none" /><path d="M 106.57524785965236 119.94407469862006 l 2.999526278264818 9.098178111471254 a30.57987488655545,30.57987488655545 0 0,0 -0.5013332472966973,0.16051107420225408 l -2.84247168587718 -9.148462032333214" fill="#ff730a" stroke="none" /><path d="M 105.88484417918355 120.15858648285463 l 3.7635785230184333 12.892171964323307 a34.43028745993955,34.43028745993955 0 0,0 -0.5703439943100863,0.1611849098042054 l -3.5411033606037416 -12.955045667466031" fill="#ffa60f" stroke="none" /><path d="M 105.18746579009965 120.34920634021253 l 1.7375573903686283 6.816028345103202 a28.03401365410069,28.03401365410069 0 0,0 -0.46863087660647695,0.11517806773729099 l -1.6199732290189401 -6.844927671154523" fill="#ff5007" stroke="none" /><path d="M 104.83641907484287 120.43548508189849 l 2.4096028093376516 10.181376241702159 a31.462629109065517,31.462629109065517 0 0,0 -0.5280925146700572,0.1201921370172888 l -2.2339901452747326 -10.221345112297133" fill="#ff7f0b" stroke="none" /><path d="M 103.06178313531738 120.77559828337769 l 1.4092450195214892 9.562371701219242 a30.665656939770038,30.665656939770038 0 0,0 -0.5228807134573717,0.07246650238527978 l -1.244435714877287 -9.585212769097124" fill="#ff740a" stroke="none" /><path d="M 102.34483914955558 120.86867818915974 l 1.4351243008362191 12.772367435638438 a33.852741017767684,33.852741017767684 0 0,0 -0.579635342168654,0.06008157320170731 l -1.2150563620619623 -12.795178377295905" fill="#ff9f0e" stroke="none" /><path d="M 101.26447882468166 120.96189622390904 l 0.773983620887248 12.83071256185594 a33.854035766652025,33.854035766652025 0 0,0 -0.581986230672295,0.03008204044214549 l -0.5530093218014734 -12.842134409060286" fill="#ff9f0e" stroke="none" /><path d="M 100.90346689309514 120.98055641714683 l 0.5852680641384567 13.59125578663356 a34.60385138718446,34.60385138718446 0 0,0 -0.5953174885649809,0.020503938002106214 l -0.3512302238988235 -13.599316523061761" fill="#ffa90f" stroke="none" /><line stroke="#e1ed5e" stroke-width="0.3" x1="102.19456741930631" x2="102.32365962044197" y1="184.97166512339345" y2="189.96999836594603" /><path d="M 102.22038585953345 185.97133177190398 a86.0,86.0 0 0,1 -42.740103519485714,-10.115201625700543" fill="none" id="id19" stroke="none" /><text fill="#e1ed5e" style="font-size:6.75px; font-family:Arial;" text-anchor="middle"><textPath startOffset="22.20632615414155" xlink:href="#id19">July</textPath></text><path d="M 100.54218724476979 120.99299961872073 l 0.15483538675427563 5.995086100701404 a26.997085237998082,26.997085237998082 0 0,0 -0.46465880287695727,0.007999522680471733 l -0.05161689398465041 -5.996863100661035" fill="#ff4106" stroke="none" /><path d="M 99.81925306533755 120.99922214144158 l -0.1626584007961222 18.89769194630248 a39.89839195944182,39.89839195944182 0 0,0 -0.6867089125049778,-0.011822316690124773 l 0.4879270031937679 -18.892092152333195" fill="#ffec16" stroke="none" /><path d="M 99.09653310690486 120.98055641714683 l -0.3524803066895843 8.185394525192972 a29.192980281903715,29.192980281903715 0 0,0 -0.5018578190636662,-0.025940316821312055 l 0.49332619416673945 -8.17811440160946" fill="#ff6008" stroke="none" /><path d="M 98.73552117531835 120.96189622390904 l -0.5616305504155967 9.310429786716783 a30.327353948925882,30.327353948925882 0 0,0 -0.520817771477183,-0.035918642816683964 l 0.7218110826717098 -9.299382799383814" fill="#ff6f0a" stroke="none" /><path d="M 97.65516085044442 120.86867818915974 l -0.9602821719623943 8.546351514673706 a29.60013174679053,29.60013174679053 0 0,0 -0.5058416932375761,-0.06125038451032411 l 1.1072512882513597 -8.528555601438033" fill="#ff6509" stroke="none" /><path d="M 97.2962882734958 120.8252237178851 l -2.579671765567167 19.86981123394722 a41.03656918962824,41.03656918962824 0 0,0 -0.6997153401232984,-0.09697417032038493 l 2.921315696877296 -19.82246249813423" fill="#fffa17" stroke="none" /><path d="M 96.58105272829116 120.7198165907248 l -1.304840057244235 7.907710917348644 a29.01464281969846,29.01464281969846 0 0,0 -0.4920759467907956,-0.08555371081433381 l 1.4407649755070806 -7.884078628013304" fill="#ff5d08" stroke="none" /><path d="M 96.22490169976321 120.6578951692458 l -2.1334592059667594 11.674603710838262 a32.867940848716884,32.867940848716884 0 0,0 -0.5556754020779229,-0.10649651332683452 l 2.3341022226163775 -11.63614999916296" fill="#ff920d" stroke="none" /><path d="M 95.51606077576429 120.51570834832081 l -1.3597959111273008 6.221577708980197 a27.368443617462418,27.368443617462418 0 0,0 -0.4593726151253817,-0.1045517116137022 l 1.4666886756455453 -6.197249263788809" fill="#ff4606" stroke="none" /><path d="M 94.81253420990036 120.34920634021253 l -5.550417225920345 21.772979326453285 a43.46930706835339,43.46930706835339 0 0,0 -0.7234732507024567,-0.1910758610565706 l 5.924380919434292 -21.674212116093134" fill="#e6ff1a" stroke="none" /><path d="M 94.11515582081647 120.15858648285463 l -1.1678683704279618 4.000543570743937 a25.16752509195406,25.16752509195406 0 0,0 -0.414814774558493,-0.1249802887969914 l 1.2365581194267006 -3.9798479128412194" fill="#ff2703" stroke="none" /><path d="M 93.76903079525671 120.05430185196036 l -2.470946570218614 7.952712772438069 a29.32773783171485,29.32773783171485 0 0,0 -0.4808054348680157,-0.15393871690954083 l 2.60747335017757 -7.909001208868822" fill="#ff6209" stroke="none" /><path d="M 93.08242187328487 119.8279376855182 l -2.8663803475976106 8.215940589911014 a29.701598478098212,29.701598478098212 0 0,0 -0.48127966572031916,-0.17256976501698143 l 3.0073795739476563 -8.165383283854075" fill="#ff6709" stroke="none" /><path d="M 92.40401165467489 119.57807347666478 l -3.1279435334782804 8.062032950193414 a29.6475664807293,29.6475664807293 0 0,0 -0.4741901298821349,-0.18869003884906657 l 3.266254739402273 -8.006996066938282" fill="#ff6609" stroke="none" /><path d="M 91.40352486487194 119.15986991738527 l -2.5431689664561232 5.66822864130865 a27.212610105430503,27.212610105430503 0 0,0 -0.42572444468270754,-0.19542921208840702 l 2.6403614069062504 -5.623612358886168" fill="#ff4406" stroke="none" /><path d="M 90.7491055286396 118.85261126421891 l -4.115795204603195 8.387674000145617 a30.343064020916984,30.343064020916984 0 0,0 -0.46691631272814993,-0.23412153222554535 l 4.259565425014106 -8.31558462701077" fill="#ff700a" stroke="none" /><path d="M 90.10565033884886 118.52300852407294 l -10.645715847021243 19.929625708850388 a43.59471723191927,43.59471723191927 0 0,0 -0.6588556558308695,-0.35926063575586925 l 10.987194314720753 -19.74342442133475" fill="#e5ff1a" stroke="none" /><line stroke="#e1ed5e" stroke-width="0.3" x1="58.666819895761336" x2="56.23545636021788" y1="174.27360380694188" y2="178.64263932499728" /><path d="M 58.180547188652646 175.14741091055294 a86.0,86.0 0 0,1 -31.652253787137756,-30.449443065178592" fill="none" id="id20" stroke="none" /><text fill="#e1ed5e" style="font-size:6.75px; font-family:Arial;" text-anchor="middle"><textPath startOffset="22.20632615414155" xlink:href="#id20">August</textPath></text><path d="M 89.4739219176387 118.17145234162733 l -1.612018537923781 2.782871056674757 a24.216049608555192,24.216049608555192 0 0,0 -0.358895841664426,-0.2120419893060246 l 1.6596822506165891 -2.7547104950749826" fill="#ff1902" stroke="none" /><path d="M 89.1626897886671 117.98757091392108 l -5.097773146354951 8.46119140128077 a30.878210920040395,30.878210920040395 0 0,0 -0.4529110110595126,-0.27821493475131237 l 5.242663357346773 -8.37218799970108" fill="#ff770a" stroke="none" /><path d="M 88.54995079064634 117.60387380957326 l -3.554382604504429 5.464684185769563 a27.5189269783764,27.5189269783764 0 0,0 -0.39486423629106004,-0.261694484525013 l 3.647921539535451 -5.402691680153232" fill="#ff4806" stroke="none" /><path d="M 87.95078237400918 117.19931262002967 l -10.121876983008088 14.448185096824773 a38.640930991624515,38.640930991624515 0 0,0 -0.5414747627291479,-0.38632786616062426 l 10.369079073586121 -14.271812968819928" fill="#ffdd14" stroke="none" /><path d="M 87.07902340077011 116.55440617244103 l -4.907241342218717 6.287176959218796 a28.975563410023913,28.975563410023913 0 0,0 -0.3905388627381117,-0.3102676920718203 l 5.014737697674187 -6.201775353141845" fill="#ff5d08" stroke="none" /><path d="M 86.51685102203217 116.09983520530335 l -4.073520547322961 4.864072155880113 a27.34450688289252,27.34450688289252 0 0,0 -0.35825799378381096,-0.30531523454375825 l 4.156644017683829 -4.793232531113404" fill="#ff4606" stroke="none" /><path d="M 85.97065885151581 115.62618273729859 l -17.116462613292178 19.064685203719726 a46.62099752759753,46.62099752759753 0 0,0 -0.5925316783057352,-0.5412636393417922 l 17.442093841064768 -18.767228797791358" fill="#c1ff1e" stroke="none" /><path d="M 85.18274418774928 114.88116024355367 l -6.125272442511598 6.151689753312874 a29.68114331848096,29.68114331848096 0 0,0 -0.35894307641897905,-0.36360744134292894 l 6.23025614398611 -6.04534181798928" fill="#ff6609" stroke="none" /><path d="M 84.67929136418377 114.36230785411682 l -5.569585889636135 5.221175408289957 a28.63419672435586,28.63419672435586 0 0,0 -0.3340023496089476,-0.362493584235308 l 5.658634647240811 -5.124530569253305" fill="#ff5808" stroke="none" /><path d="M 84.19399662182784 113.82643327865904 l -14.22923884747789 12.447145355064924 a39.9050962882681,39.9050962882681 0 0,0 -0.4478064212680805,-0.5209000358465953 l 14.441387778316749 -12.200368220056799" fill="#ffec16" stroke="none" /><path d="M 83.72743513129214 113.27417163493432 l -6.031302397243423 4.919970751332293 a28.78349027114183,28.78349027114183 0 0,0 -0.3098776942308734,-0.38662006942666965 l 6.115098003529158 -4.815422848327364" fill="#ff5a08" stroke="none" /><path d="M 83.50135304334701 112.99209946851258 l -7.61042033276438 5.99293616138592 a30.686783856151663,30.686783856151663 0 0,0 -0.3232241614515896,-0.4178107997316161 l 7.712451311434037 -5.861047367541051" fill="#ff740a" stroke="none" /><path d="M 83.06392112726016 112.41649034213515 l -7.626576375286961 5.591336260232429 a30.456622461697155,30.456622461697155 0 0,0 -0.30633591047130526,-0.4254737867487607 l 7.721692078133874 -5.45922886803253" fill="#ff710a" stroke="none" /><path d="M 82.44556493220864 111.52570212397912 l -18.555439509051276 12.182930851089242 a43.197480476317196,43.197480476317196 0 0,0 -0.4027550757918061,-0.625084821646083 l 18.762399448220126 -11.861724429521711" fill="#e9ff1a" stroke="none" /><line stroke="#e1ed5e" stroke-width="0.3" x1="26.63291911575756" x2="22.317208475507996" y1="142.92168965132927" y2="145.44649492493687" /><path d="M 25.769776987707644 143.4266507060508 a86.0,86.0 0 0,1 -11.730757126820373,-40.83630448921669" fill="none" id="id21" stroke="none" /><text fill="#e1ed5e" style="font-size:6.75px; font-family:Arial;" text-anchor="middle"><textPath startOffset="21.46611528233685" xlink:href="#id21">September</textPath></text><path d="M 81.87401531095188 110.60418214915194 l -6.862955340697271 4.015011033205872 a28.951130083527126,28.951130083527126 0 0,0 -0.2479429978407245,-0.4323095159127925 l 6.931050334690372 -3.896281671434773" fill="#ff5c08" stroke="none" /><path d="M 81.69416730710424 110.29060199501025 l -5.738012168163856 3.225616690357692 a27.582506109006705,27.582506109006705 0 0,0 -0.22909713104087756,-0.4158778385992231 l 5.79268570865625 -3.1263683333606465" fill="#ff4906" stroke="none" /><path d="M 81.35079622478065 109.6543875284942 l -28.14233430788326 14.568825813666502 a52.68977225992037,52.68977225992037 0 0,0 -0.4100301272083262,-0.8090283405502868 l 28.388943104877853 -14.082243261413529" fill="#7dff26" stroke="none" /><path d="M 81.02952815118164 109.00673069616217 l -5.359499129753358 2.5445632408458367 a26.932877295924033,26.932877295924033 0 0,0 -0.19523178885609374,-0.4205119045607227 l 5.402505535449278 -2.451931269006287" fill="#ff4006" stroke="none" /><path d="M 80.87730276802145 108.67885076344099 l -7.172003008391033 3.2550190503819123 a28.87608888793919,28.87608888793919 0 0,0 -0.2015261078390243,-0.4543881718382993 l 7.226970200961337 -3.131082542050917" fill="#ff5b08" stroke="none" /><path d="M 80.58989483394504 108.01547362559985 l -7.129832389550453 2.94429025419879 a28.713841779817155,28.713841779817155 0 0,0 -0.18472214090858538,-0.4584652047825885 l 7.179457144716426 -2.8211256815733963" fill="#ff5908" stroke="none" /><path d="M 80.32549172779594 107.34259656027581 l -14.708911033025771 5.489417985052338 a36.699865400444786,36.699865400444786 0 0,0 -0.2157877619680341,-0.5937552437800045 l 14.80122305599903 -5.235414944266217" fill="#ffc412" stroke="none" /><path d="M 79.86692584326677 105.97154293290107 l -7.284840633151398 2.1607101956487496 a28.59852430409972,28.59852430409972 0 0,0 -0.13592110951146946,-0.47315921338378925 l 7.320954379548971 -2.0349935067603644" fill="#ff5708" stroke="none" /><path d="M 79.67330655649465 105.27499134158121 l -8.998921393580154 2.3353150165145182 a30.297003951499256,30.297003951499256 0 0,0 -0.12665400750950181,-0.5059198016884763 l 9.037786715384714 -2.18006737542865" fill="#ff6f0a" stroke="none" /><path d="M 79.58551787078972 104.9243191809786 l -17.167086225535556 4.1409922351622495 a38.6594639263667,38.6594639263667 0 0,0 -0.150476319179492,-0.6482480446940888 l 17.235823110645605 -3.8448755331195863" fill="#ffdd14" stroke="none" /><path d="M 79.35854240842038 103.8639653848113 l -8.128062395736919 1.521527808943379 a29.269246953766746,29.269246953766746 0 0,0 -0.0884398975842554,-0.4960179129049805 l 8.153048735660363 -1.381391145305185" fill="#ff6108" stroke="none" /><path d="M 79.23777060512086 103.15116336523772 l -10.710665596853389 1.6255988894160318 a31.833324940981388,31.833324940981388 0 0,0 -0.07756106094772762,-0.5424618796214018 l 10.737060708817715 -1.4409915378142295" fill="#ff840c" stroke="none" /><path d="M 79.1416061653843 102.43462659150553 l -15.006010856564089 1.7515266685194775 a36.10788560645911,36.10788560645911 0 0,0 -0.06674404842409705,-0.6179669950440447 l 15.033937206489238 -1.4929633515906506" fill="#ffbc11" stroke="none" /><path d="M 79.07016306316243 101.71520430193888 l -8.964436937945832 0.7346373909565554 a29.994488407385887,29.994488407385887 0 0,0 -0.037740838325039744,-0.5149437537094813 l 8.975754334935207 -0.5802205007503135" fill="#ff6b09" stroke="none" /><path d="M 79.0235259727143 100.99374915477108 l -7.013155700059041 0.33224447255273315 a28.021021240732182,28.021021240732182 0 0,0 -0.018677834890545135,-0.4819919254312643 l 7.017835667800787 -0.2114753001074721" fill="#ff4f07" stroke="none" /><path d="M 79.0095281055655 100.63252640178507 l -9.142190883338287 0.2754905717676376 a30.14634075477874,30.14634075477874 0 0,0 -0.011165540412717813,-0.5188187888303872 l 9.145578486436012 -0.11808196714712152" fill="#ff6d0a" stroke="none" /><line stroke="#e1ed5e" stroke-width="0.3" x1="15.007084014347285" x2="10.007500721073583" y1="101.09737516637583" y2="101.16192664675087" /><path d="M 14.007167355692545 101.11028546245083 a86.0,86.0 0 0,1 10.666146001902534,-42.60595125391555" fill="none" id="id22" stroke="none" /><text fill="#e1ed5e" style="font-size:6.75px; font-family:Arial;" text-anchor="middle"><textPath startOffset="22.20632615414155" xlink:href="#id22">October</textPath></text><path d="M 79.00019446554 99.90962569577889 l -14.824735601794867 -0.06379940819336419 a35.82487288402872,35.82487288402872 0 0,0 0.007961639369452723,-0.6166377431985216 l 14.821440955307699 0.3189734094523577" fill="#ffb911" stroke="none" /><path d="M 79.01574976396665 99.18683210126434 l -9.401864720443912 -0.3643348936905091 a30.408921305669868,30.408921305669868 0 0,0 0.024770805764356845,-0.5228725591929683 l 9.394200306446058 0.5261185595064864" fill="#ff700a" stroke="none" /><path d="M 79.05617556472873 98.46500227214037 l -4.521587143743288 -0.3313924834223038 a25.533714953162956,25.533714953162956 0 0,0 0.035899814952283914,-0.43806867331467886 l 4.515212844971507 0.40917507394476105" fill="#ff2c04" stroke="none" /><path d="M 79.21141760316559 97.0276538004421 l -5.729399767781409 -0.8191881149195731 a26.78766713509676,26.78766713509676 0 0,0 0.0691939557423186,-0.45590171481089364 l 5.714449918599788 0.9176889421225588" fill="#ff3e05" stroke="none" /><path d="M 79.26566170972629 96.67025291283419 l -15.964877833411537 -2.5638149006036275 a37.16943014086496,37.16943014086496 0 0,0 0.10688536640766426,-0.630843482971728 l 15.91838060548365 2.8382441718911835" fill="#ffca12" stroke="none" /><path d="M 79.46518482838121 95.60439243477599 l -15.359768254394707 -3.28785591566552 a36.707720310436144,36.707720310436144 0 0,0 0.13757636327574438,-0.6167278605512486 l 15.300897504116925 3.5517619457667275" fill="#ffc412" stroke="none" /><path d="M 79.54389044137918 95.25157060432595 l -15.620930517161563 -3.626050468829847 a37.036262414430944,37.036262414430944 0 0,0 0.14949810731794982,-0.6197661703128114 l 15.556199609582798 3.894401870802055" fill="#ffc812" stroke="none" /><path d="M 79.71946130924805 94.55025226153421 l -15.374221535560068 -4.131331535207062 a36.91962901823643,36.91962901823643 0 0,0 0.1702051673689223,-0.6123185461437024 l 15.300829597624785 4.395361384769707" fill="#ffc712" stroke="none" /><path d="M 79.91906864156998 93.8553929516997 l -4.954059055671108 -1.5159031046831177 a26.180797559243636,26.180797559243636 0 0,0 0.13557229357821612,-0.42980121911299896 l 4.927231278324688 1.6009544902225312" fill="#ff3505" stroke="none" /><path d="M 80.14247586403 93.16781622104843 l -2.9405319460191555 -1.0117200173353635 a24.109711484854547,24.109711484854547 0 0,0 0.13839768771731276,-0.39126890000990594 l 2.922681177492033 1.0621865437718805" fill="#ff1802" stroke="none" /><path d="M 80.38941819471856 92.48833698450439 l -58.83174541584431 -22.534989046486853 a84.0,84.0 0 0,0 0.5288258004732356,-1.3458039804169464 l 58.435126065489385 23.544342031799562" fill="#4dd2ff" stroke="none" /><path d="M 80.52162464483688 92.15188598940014 l -14.741504094676516 -5.939561319321181 a36.89309068870309,36.89309068870309 0 0,0 0.2424022104181764,-0.5869961796984696 l 14.637080197372141 6.192432069472962" fill="#ffc612" stroke="none" /><path d="M 80.95270993114464 91.15688171328213 l -29.55112186215148 -13.719750431034637 a53.580674566399054,53.580674566399054 0 0,0 0.39558307428342077,-0.8331988407025738 l 29.31058059402631 14.226391687377742" fill="#74ff27" stroke="none" /><path d="M 81.26839172434947 90.50648371742162 l -27.165826997636387 -13.76813016461673 a51.45559989058398,51.45559989058398 0 0,0 0.40721120537631084,-0.7866024360635978 l 26.92480635909996 14.233705322940663" fill="#8bff24" stroke="none" /><path d="M 81.43458229118936 90.18545643968196 l -11.057250705534846 -5.84537716354896 a33.5072469932112,33.5072469932112 0 0,0 0.27394871077240834,-0.5075853554626812 l 10.954993895543966 6.034843502344114" fill="#ff9a0e" stroke="none" /><line stroke="#e1ed5e" stroke-width="0.3" x1="26.266209847984243" x2="21.928928074336255" y1="57.711370442889674" y2="55.22380399835377" /><path d="M 25.398753493254645 57.213857153982495 a86.0,86.0 0 0,1 29.58750427330803,-30.492523968695096" fill="none" id="id23" stroke="none" /><text fill="#e1ed5e" style="font-size:6.75px; font-family:Arial;" text-anchor="middle"><textPath startOffset="21.46611528233685" xlink:href="#id23">November</textPath></text><path d="M 81.96595687620814 89.24020034530311 l -21.51392660111099 -12.836031189723354 a46.05220019282821,46.05220019282821 0 0,0 0.4120228985901359,-0.6772573111554634 l 21.28978790423464 13.204456274085892" fill="#c8ff1d" stroke="none" /><path d="M 82.15384107792192 88.93136811851018 l -13.008649735413048 -8.068288298071504 a36.307587791662655,36.307587791662655 0 0,0 0.33398209562981973,-0.5282794693126265 l 12.867840043537266 8.291015415098347" fill="#ffbf11" stroke="none" /><path d="M 82.54541684631803 88.32363383020206 l -25.156721614554574 -16.82876586721847 a51.26661532127196,51.26661532127196 0 0,0 0.4969823146372896,-0.7292602223335976 l 24.863314834248545 17.259304112822484" fill="#8dff24" stroke="none" /><path d="M 82.7489923806493 88.02491185347247 l -27.84502984380484 -19.329113648307736 a54.89631722520278,54.89631722520278 0 0,0 0.5455318392448952,-0.7716160987742644 l 27.508185384756068 19.805556247413787" fill="#66ff29" stroke="none" /><path d="M 83.39014120810768 87.1503855733568 l -27.323400561899714 -21.13775718650394 a55.545231178002275,55.545231178002275 0 0,0 0.5915459188297497,-0.7512032444851887 l 26.955500562475994 21.604952824942178" fill="#5fff29" stroke="none" /><path d="M 83.84228863543731 86.58626213691792 l -29.345888986324415 -24.36224124444972 a59.14052960894019,59.14052960894019 0 0,0 0.656993231929344,-0.777672760271577 l 28.922185140907946 24.863772954350413" fill="#3bff2e" stroke="none" /><path d="M 84.07557802195018 86.31012108654704 l -1.3709533756310741 -1.178578772545027 a22.807916226280405,22.807916226280405 0 0,0 0.25849855412807915,-0.2955085333617796 l 1.3504629579251515 1.2020028621097498" fill="#ff0500" stroke="none" /><path d="M 84.31358615837235 86.03803664274999 l -11.115422488191212 -9.893473616553225 a35.88063968021609,35.88063968021609 0 0,0 0.41460311415089107,-0.45781511396663194 l 10.943475733424275 10.083341517789412" fill="#ffb911" stroke="none" /><path d="M 84.80347519578584 85.50635884689758 l -5.431476486253272 -5.180254837042618 a28.50572961126536,28.50572961126536 0 0,0 0.3417100396367479,-0.3521622330061566 l 5.3415021829134055 5.272981265598898" fill="#ff5608" stroke="none" /><path d="M 85.31137513191541 84.99185889309783 l -13.99753052168152 -14.302013640093769 a41.01195779694815,41.01195779694815 0 0,0 0.5087762961126163,-0.48944239375740056 l 13.749270981956476 14.540839120613484" fill="#fffa17" stroke="none" /><path d="M 85.83668400450813 84.49514656593479 l -14.1241953557403 -15.462027320054341 a41.941995685541116,41.941995685541116 0 0,0 0.537235047509892,-0.4823349301072768 l 13.855949320634435 15.702861258930897" fill="#f8ff18" stroke="none" /><path d="M 86.10567301691215 84.25364557470407 l -9.72259087036748 -11.018551813506356 a35.69480375164899,35.69480375164899 0 0,0 0.46421296479341684,-0.40256090863833327 l 9.531484106927289 11.184277715564368" fill="#ffb711" stroke="none" /><path d="M 86.37877921826538 84.01681056812374 l -4.816614596729907 -5.651832882931262 a28.42583268798959,28.42583268798959 0 0,0 0.3751431088160794,-0.3141715650952152 l 4.718613950954717 5.733905605420289" fill="#ff5507" stroke="none" /><path d="M 86.93701828274178 83.55741782278169 l -7.547789609272054 -9.50052243760305 a33.133798027544145,33.133798027544145 0 0,0 0.44962160770347226,-0.35093679659232413 l 7.383135446409156 9.629037623418597" fill="#ff950d" stroke="none" /><path d="M 87.51073957382395 83.11751280151077 l -5.148929064889929 -6.960118218188886 a29.65763917742205,29.65763917742205 0 0,0 0.41302454682507883,-0.3000798983785622 l 5.028359201711068 7.047717351384116" fill="#ff6609" stroke="none" /><path d="M 88.09926311788651 82.69761687909137 l -8.730264786208503 -12.692859910631919 a36.40539567645827,36.40539567645827 0 0,0 0.5193755068066362,-0.35068466063815124 l 8.510484584995327 12.841256483568735" fill="#ffc011" stroke="none" /><path d="M 88.70189139769569 82.29822771554957 l -4.012977795772183 -6.287496573437665 a28.458994835120276,28.458994835120276 0 0,0 0.4152043314389586,-0.26000091425615846 l 3.9041543119609816 6.355641829016754" fill="#ff5507" stroke="none" /><path d="M 89.00827224532344 82.1063720568725 l -10.822586084489544 -17.61827922784314 a41.67685015921032,41.67685015921032 0 0,0 0.6145111318978344,-0.3702360811564652 l 10.51771288637406 17.801961918458225" fill="#fcff18" stroke="none" /><line stroke="#e1ed5e" stroke-width="0.3" x1="56.762969772571076" x2="54.21961505331055" y1="26.818313649435495" y2="22.513508569990535" /><path d="M 56.25429882871897 25.957352633546506 a86.0,86.0 0 0,1 42.265352541879196,-11.944610805530505" fill="none" id="id24" stroke="none" /><text fill="#e1ed5e" style="font-size:6.75px; font-family:Arial;" text-anchor="middle"><textPath startOffset="22.20632615414155" xlink:href="#id24">December</textPath></text><path d="M 89.63071344664047 81.73862282372117 l -7.429608823922812 -13.084303178207259 a36.04653039526908,36.04653039526908 0 0,0 0.5422014583046579,-0.30173452451748084 l 7.203283276546109 13.210253100284925" fill="#ffbc11" stroke="none" /><path d="M 90.26544431104013 81.39251694778311 l -9.689741262973527 -18.521820830059028 a41.903323482264256,41.903323482264256 0 0,0 0.6419978507425719,-0.32885623448215107 l 9.369482924642192 18.685869589853684" fill="#f9ff18" stroke="none" /><path d="M 90.91171255644093 81.06846463323043 l -3.305669257483327 -6.885939165936082 a28.63829872660417,28.63829872660417 0 0,0 0.4462416826026458,-0.2095164534296419 l 3.186649363581073 6.941820602005732" fill="#ff5808" stroke="none" /><path d="M 91.56875222667455 80.76684994638697 l -23.119694906067483 -52.74006567912358 a78.58502253527311,78.58502253527311 0 0,0 1.2435752087088525,-0.5324340048273212 l 22.208435939568325 53.13021921191369" fill="#46fff9" stroke="none" /><path d="M 92.57280143429618 80.3572730644239 l -11.291285459628234 -29.862085290041122 a52.92549553570786,52.92549553570786 0 0,0 0.8549173096646228,-0.3148732600934483 l 10.775585824191042 30.052021817940894" fill="#7bff26" stroke="none" /><path d="M 92.91201910852362 80.23233633223022 l -8.677347690762925 -24.200247334974332 a46.70891545787805,46.70891545787805 0 0,0 0.7591711150695414,-0.26485989533216664 l 8.259494571630098 24.346028083478707" fill="#c0ff1e" stroke="none" /><path d="M 94.98787191387505 79.60689891045804 l -5.0156134814351505 -20.407282295144967 a42.01460323843615,42.01460323843615 0 0,0 0.7037972486166213,-0.16656606997043857 l 4.663592545855995 20.490594277256275" fill="#f8ff18" stroke="none" /><path d="M 96.40284397218896 79.31037775812273 l -4.915267823566551 -28.270954526576475 a49.69506451676217,49.69506451676217 0 0,0 0.8440370529606123,-0.13927334572703778 l 4.427901564467053 28.35137413524314" fill="#9eff22" stroke="none" /><path d="M 97.47563105711357 79.15227682838746 l -1.8706548752280083 -15.448967987931512 a36.561810998542136,36.561810998542136 0 0,0 0.6254390424124258,-0.07027536382592088 l 1.6044491293058645 15.478879305228032" fill="#ffc212" stroke="none" /><path d="M 98.55514903715128 79.0497635885617 l -0.5077704267908124 -7.362635148908644 a28.380123789088387,28.380123789088387 0 0,0 0.4876488438920252,-0.0294163099747926 l 0.3809595340591643 7.3702847282637425" fill="#ff5407" stroke="none" /><path d="M 99.27714615592234 79.0124445844662 l -0.25533280989261103 -7.413409420078274 a28.417805205956338,28.417805205956338 0 0,0 0.4890208517929965,-0.012629965849767845 l 0.12768532290473553 7.416706178070402" fill="#ff5507" stroke="none" /></svg>