<?xml version="1.0" encoding="utf-8" ?>
<svg baseProfile="full" height="200mm" version="1.1" viewBox="0,0,200,200" width="200mm" xmlns="http://www.w3.org/2000/svg" xmlns:ev="http://www.w3.org/2001/xml-events" xmlns:xlink="http://www.w3.org/1999/xlink"><defs /><rect fill="#1a1a1a" height="200" width="200" x="0" y="0" /><text alignment-baseline="middle" fill="#e1ed5e" style="dominant-baseline: central; font-size:9.0px; font-family:Arial;" text-anchor="middle" x="100.0" y="100.0">2026</text><line stroke="#e1ed5e" stroke-width="0.3" x1="100.0" x2="100.0" y1="15.0" y2="10.0" /><path d="M 100.0 14.0 a86.0,86.0 0 0,1 42.46469731375804,11.215312516191453" fill="none" id="id157" stroke="none" /><text fill="#e1ed5e" style="font-size:6.75px; font-family:Arial;" text-anchor="middle"><textPath startOffset="22.20632615414155" xlink:href="#id157">January</textPath></text><path d="M 100.0 79.0 l 0.0 -41.82056495950765 a62.82056495950765,62.82056495950765 0 0,0 1.0813527585587537,0.009307544588165002 l -0.7198722792862253 41.81436879152805" fill="#31ff41" stroke="none" /><path d="M 100.72285384407766 79.0124445844662 l 0.4870962060541759 -14.142497409420947 a35.15088321234511,35.15088321234511 0 0,0 0.6045268438928751,0.026032197554022966 l -0.7304638823363827 14.13201748534273" fill="#ff900d" stroke="none" /><path d="M 101.44485096284872 79.0497635885617 l 0.9603858173827525 -13.92552618762228 a34.95860381701493,34.95860381701493 0 0,0 0.5999725610403471,0.04656941790658743 l -1.1999485677854407 13.906931507527228" fill="#ff8d0d" stroke="none" /><path d="M 102.16513564639614 79.11191278185805 l 1.3121780505055074 -12.659202027509268 a33.72702664448862,33.72702664448862 0 0,0 0.5769462363007131,0.06482663203697259 l -1.5298909903159457 12.634739442001694" fill="#ff7b0b" stroke="none" /><path d="M 103.2404852339499 79.25152402106235 l 1.9227701120558072 -12.311288773990416 a33.460532740633425,33.460532740633425 0 0,0 0.5683045131246611,0.09377511408653903 l -2.1344038313193434 12.276367396964252" fill="#ff780b" stroke="none" /><path d="M 103.59715602781102 79.31037775812273 l 4.15517382482722 -23.89915147420671 a45.25767735587243,45.25767735587243 0 0,0 0.7663738512047144,0.14004992276928335 l -4.565942797134836 23.82408607008669" fill="#e8ff1a" stroke="none" /><path d="M 104.307194497241 79.44645832069477 l 2.952319116289142 -14.08819918536944 a35.394219133077364,35.394219133077364 0 0,0 0.5952250480833657,0.13009314107192624 l -3.194386888526036 14.035292546201644" fill="#ff930d" stroke="none" /><path d="M 105.01212808612495 79.60689891045804 l 3.4030132581985355 -13.846013547740009 a35.25807106167152,35.25807106167152 0 0,0 0.5881232807150132,0.14992571936535293 l -3.6408454275985735 13.78538483220579" fill="#ff910d" stroke="none" /><path d="M 106.0581310904928 79.89281104454417 l 3.791974456803597 -12.585720873037394 a34.144559337423985,34.144559337423985 0 0,0 0.561295301220266,0.17439718233466045 l -4.008055130734581 12.518583555820213" fill="#ff810b" stroke="none" /><path d="M 106.40334571778207 80.00007090966166 l 3.557115427904611 -11.110138271416378 a32.66568654548149,32.66568654548149 0 0,0 0.5340329197289782,0.17606225736182027 l -3.7478311698760063 11.047262289795322" fill="#ff6c0a" stroke="none" /><path d="M 107.08798089147638 80.2323363322302 l 4.696733744951229 -13.098716606150735 a34.91530397078025,34.91530397078025 0 0,0 0.5639946765672191,0.20772399912657807 l -4.921510747291024 13.015929339217832" fill="#ff8c0c" stroke="none" /><path d="M 108.09893153111575 80.62456947434976 l 17.07763329848123 -40.85557412678481 a65.28118670842736,65.28118670842736 0 0,0 1.0330475549492095,0.44229705047734424 l -17.77836461122076 40.55555754834467" fill="#34ff60" stroke="none" /><path d="M 108.76106565485865 80.91482961587045 l 4.785065219000828 -10.423821553392573 a32.469651473652675,32.469651473652675 0 0,0 0.5059417825565368,0.2375464508489373 l -4.963785212856963 10.339910119903632" fill="#ff6909" stroke="none" /><path d="M 109.41281617654863 81.2277094730956 l 6.274561716048575 -12.513565892863818 a34.9985519280941,34.9985519280941 0 0,0 0.536210334878315,0.2746677600470716 l -6.489032538515646 12.403705607504246" fill="#ff8d0d" stroke="none" /><line stroke="#e1ed5e" stroke-width="0.3" x1="143.23703022742887" x2="145.7803849466894" y1="26.81831364943548" y2="22.513508569990506" /><path d="M 143.74570117128098 25.957352633546492 a86.0,86.0 0 0,1 28.547481713284135,27.462654790039103" fill="none" id="id158" stroke="none" /><text fill="#e1ed5e" style="font-size:6.75px; font-family:Arial;" text-anchor="middle"><textPath startOffset="19.985693538727396" xlink:href="#id158">February</textPath></text><path d="M 110.68208982089419 81.91981866633111 l 5.635754686809935 -9.538907498258451 a32.07937214603027,32.07937214603027 0 0,0 0.4729995480158231,0.28497693525146794 l -5.799116301043395 9.44048395354837" fill="#ff6409" stroke="none" /><path d="M 110.99172775467656 82.1063720568725 l 6.41627265023968 -10.44516368559129 a33.25846642696421,33.25846642696421 0 0,0 0.4852265302234248,0.30384880871114117 l -6.5951183328353675 10.333170535557205" fill="#ff750a" stroke="none" /><path d="M 111.2981086023043 82.29822771554956 l 6.629415196378876 -10.38690654482111 a33.32221463117839,33.32221463117839 0 0,0 0.48084427653050305,0.3127544930091608 l -6.807226498693659 10.271253127652422" fill="#ff760a" stroke="none" /><path d="M 112.19680574252982 82.90503203632743 l 4.296528292450651 -6.021987647006843 a28.397600326357995,28.397600326357995 0 0,0 0.39547672475031304,0.287330659367371 l -4.399550333554752 5.9471377528227976" fill="#ff2d04" stroke="none" /><path d="M 116.38621287248628 86.86637796730983 l 8.975695995717036 -7.1940600067519895 a32.502939536843584,32.502939536843584 0 0,0 0.34614999029124666,0.4395753355880041 l -9.098200066602248 7.038492277210947" fill="#ff6a09" stroke="none" /><path d="M 116.60985879189232 87.15038557335679 l 9.907314900724373 -7.664434603127748 a33.52591099791697,33.52591099791697 0 0,0 0.34918682672140194,0.4594889327456187 l -10.03777766766989 7.492760894501095" fill="#ff780b" stroke="none" /><path d="M 117.2510076193507 88.02491185347247 l 10.00060587905337 -6.942095184400195 a33.173939522497605,33.173939522497605 0 0,0 0.321590593531694,0.47189451381278447 l -10.118620938253798 6.768922647317004" fill="#ff730a" stroke="none" /><path d="M 117.45458315368197 88.32363383020206 l 6.692946137859632 -4.477293394651979 a29.052433430093316,29.052433430093316 0 0,0 0.2744809782652579,0.41805336095549256 l -6.769023751482815 4.361421969718813" fill="#ff3705" stroke="none" /><line stroke="#e1ed5e" stroke-width="0.3" x1="172.23445277983987" x2="176.4835382374775" y1="55.19839476539836" y2="52.563006222186495" /><path d="M 173.08426987136738 54.67131705675599 a86.0,86.0 0 0,1 12.851231095245387,41.99856678651699" fill="none" id="id159" stroke="none" /><text fill="#e1ed5e" style="font-size:6.75px; font-family:Arial;" text-anchor="middle"><textPath startOffset="22.20632615414155" xlink:href="#id159">March</textPath></text><path d="M 117.84615892207809 88.93136811851018 l 11.548493721036913 -7.162663200635082 a34.589387453103285,34.589387453103285 0 0,0 0.30946664044737204,0.5086817881211869 l -11.670076159770508 6.962813639306814" fill="#ff880c" stroke="none" /><path d="M 118.56541770881063 90.18545643968196 l 11.037305636669531 -5.834833272198796 a33.48468642103658,33.48468642103658 0 0,0 0.2649923341318011,0.5118808441767319 l -11.136107403961448 5.643979705761719" fill="#ff780b" stroke="none" /><path d="M 118.89224826269711 90.83032412892265 l 16.295767497030766 -7.9094295152395375 a39.113837626903546,39.113837626903546 0 0,0 0.2887752395931144,0.608234301450941 l -16.429500930465636 7.627752798148056" fill="#ffc612" stroke="none" /><path d="M 119.34039704204932 91.81776055985345 l 11.838183478918316 -5.008317644684352 a33.85402013809653,33.85402013809653 0 0,0 0.22243431384644102,0.5386423343106681 l -11.922639479650954 4.803800739920381" fill="#ff7d0b" stroke="none" /><path d="M 119.61058180528143 92.48833698450437 l 12.828385700676863 -4.913801710377381 a34.73728237076891,34.73728237076891 0 0,0 0.209077766647075,0.5602244676884885 l -12.911068055825563 4.6922541056595595" fill="#ff8a0c" stroke="none" /><path d="M 119.85752413597 93.16781622104841 l 11.688738009194394 -4.021629568520819 a33.361233782838454,33.361233782838454 0 0,0 0.18215663565013837,0.5446251552597038 l -11.756231938616303 3.819831310338801" fill="#ff760a" stroke="none" /><path d="M 120.18372546131832 94.20196356495316 l 11.171608231171374 -3.2091890908116896 a32.623412798802285,32.623412798802285 0 0,0 0.15039894991422345,0.5410650438914443 l -11.225193951651962 3.0164127435012933" fill="#ff6c09" stroke="none" /><path d="M 120.37134235888165 94.90015583598534 l 11.624008415971762 -2.910001237930456 a32.98272418356273,32.98272418356273 0 0,0 0.13313586518144588,0.5519341132480191 l -11.672377081414027 2.709481893023031" fill="#ff710a" stroke="none" /><path d="M 120.53481517161879 95.60439243477599 l 27.123557563667212 -5.80596970687251 a48.7380002730314,48.7380002730314 0 0,0 0.16854228073917207,0.8218720174568905 l -27.219479140321383 5.338222033252207" fill="#bdff1f" stroke="none" /><path d="M 120.73433829027371 96.67025291283417 l 12.335533390810188 -1.980975028074785 a33.49358419740504,33.49358419740504 0 0,0 0.0865156928716105,0.5700303200630045 l -12.367804977121098 1.7683455956196985" fill="#ff780b" stroke="none" /><path d="M 120.83666639777658 97.38593545837742 l 12.544822767526824 -1.5738110766619904 a33.643158607471605,33.643158607471605 0 0,0 0.06714156671825734,0.5752279409782289 l -12.57005468724867 1.3576393973589087" fill="#ff7a0b" stroke="none" /><path d="M 120.91429891909075 98.10471618934814 l 5.777859856513033 -0.5235979598756033 a26.801535947065286,26.801535947065286 0 0,0 0.03768234206035568,0.45982001900872976 l -5.786016682392884 0.4240640236591047" fill="#ff1502" stroke="none" /><path d="M 120.94382443527127 98.46500227214037 l 37.228017014639136 -2.728485511650571 a58.32787007089406,58.32787007089406 0 0,0 0.06477006942973763,1.0019643061667478 l -37.269467675073294 2.087262141230788" fill="#50ff2b" stroke="none" /><path d="M 120.98425023603335 99.18683210126433 l 11.836337973208474 -0.4586740040810022 a32.84522175638922,32.84522175638922 0 0,0 0.017029943340745722,0.5651409111918729 l -11.842479611004864 0.2548629454641302" fill="#ff6f0a" stroke="none" /><line stroke="#e1ed5e" stroke-width="0.3" x1="184.98032266829074" x2="189.97916517819016" y1="98.17113171792111" y2="98.06355123074" /><path d="M 185.9800911702706 98.14961562048488 a86.0,86.0 0 0,1 -9.607161424134198,41.387399972396054" fill="none" id="id160" stroke="none" /><text fill="#e1ed5e" style="font-size:6.75px; font-family:Arial;" text-anchor="middle"><textPath startOffset="21.466115282336823" xlink:href="#id160">April</textPath></text><path d="M 120.99980553446 99.90962569577887 l 13.038931066726729 -0.056114058818735976 a34.03905181178634,34.03905181178634 0 0,0 -0.002521649769825875,0.585942600042593 l -13.0379651196674 -0.16833801942754179" fill="#ff800b" stroke="none" /><path d="M 120.9904718944345 100.63252640178507 l 13.008890632290505 0.39200961389724404 a34.01479569644808,34.01479569644808 0 0,0 -0.022673075773921216,0.5850913401774815 l -13.00021542366538 -0.6158782010887317" fill="#ff7f0b" stroke="none" /><path d="M 120.89721153311464 102.0752229133903 l 14.23095737345037 1.4132224662638115 a35.300956104544696,35.300956104544696 0 0,0 -0.065252470037658,0.6041568316646138 l -14.204522601911659 -1.6579756198132167" fill="#ff920d" stroke="none" /><path d="M 120.81339534386255 102.79330883721812 l 14.304599228904726 1.919781120707225 a35.43284859793816,35.43284859793816 0 0,0 -0.08633120589040917,0.6038002529240369 l -14.269433971997715 -2.1657268456116716" fill="#ff930d" stroke="none" /><path d="M 120.70491114924044 103.5080841355445 l 17.079310652529685 2.89378970594489 a38.32272701475858,38.32272701475858 0 0,0 -0.1157958746833578,0.6494447602534346 l -17.02696833550714 -3.187353216931543" fill="#ffbb11" stroke="none" /><path d="M 120.5718875245553 104.21870165774334 l 16.105452981846344 3.3027645670394694 a37.44061645850771,37.44061645850771 0 0,0 -0.13490382071821064,0.6302257386010481 l -16.046215122403687 -3.579504125056687" fill="#ffaf10" stroke="none" /><path d="M 120.41448212921028 104.9243191809786 l 12.002440300095177 2.895192080515227 a33.346688233709756,33.346688233709756 0 0,0 -0.13940294917379703,0.5568454862788779 l -11.95082603662632 -3.101365406191501" fill="#ff760a" stroke="none" /><path d="M 120.23288151984713 105.62410040840565 l 11.70791038532743 3.254428367758977 a33.15180931350275,33.15180931350275 0 0,0 -0.15756165095407432,0.5484927771178146 l -11.650156097487256 -3.455478620381373" fill="#ff730a" stroke="none" /><path d="M 120.13307415673323 105.97154293290107 l 36.864477125754036 10.93413783417511 a59.45185358252554,59.45185358252554 0 0,0 -0.2994483063769792,0.9786143912030205 l -36.670802046870925 -11.567079197930187" fill="#44ff2d" stroke="none" /><path d="M 119.9155931802556 106.66101706037122 l 11.116587653495635 3.718080568469223 a32.72188739800379,32.72188739800379 0 0,0 -0.18325685651659016,0.532630205670282 l -11.050939966035815 -3.9088834772288052" fill="#ff6d0a" stroke="none" /><path d="M 119.67450827220406 107.3425965602758 l 12.113185096131998 4.520683820418498 a33.92926275459463,33.92926275459463 0 0,0 -0.20891656015924087,0.5454152143179579 l -12.03357425637925 -4.728522601569599" fill="#ff7e0b" stroke="none" /><path d="M 119.41010516605496 108.01547362559984 l 10.404121521576196 4.296419877187052 a32.256330147824066,32.256330147824066 0 0,0 -0.21634630722180784,0.5113787626063409 l -10.32862423316208 -4.474873165459556" fill="#ff6609" stroke="none" /><path d="M 118.97047184881838 109.00673069616215 l 11.217930393569523 5.326007641157664 a33.418064249658265,33.418064249658265 0 0,0 -0.25118726724041895,0.5175201697262318 l -11.12458986971439 -5.51831676684917" fill="#ff770a" stroke="none" /><path d="M 118.64920377521936 109.65438752849418 l 13.130228486656916 6.797304360859693 a35.785338910081805,35.785338910081805 0 0,0 -0.28789729767526,0.5445931902721936 l -13.011278680756764 -7.022312566218021" fill="#ff980e" stroke="none" /><line stroke="#e1ed5e" stroke-width="0.3" x1="174.80103733775053" x2="179.2010983576182" y1="140.37084112569926" y2="142.7455964860345" /><path d="M 175.68104954172406 140.8457921977663 a86.0,86.0 0 0,1 -30.038265399797805,32.042727171017184" fill="none" id="id161" stroke="none" /><text fill="#e1ed5e" style="font-size:6.75px; font-family:Arial;" text-anchor="middle"><textPath startOffset="22.206326154141568" xlink:href="#id161">May</textPath></text><path d="M 118.12598468904814 110.60418214915192 l 3.8260635133472807 2.2383487079889695 a25.432715527385355,25.432715527385355 0 0,0 -0.22431549040944831,0.375965664529137 l -3.786967147239605 -2.3038764664042106" fill="#ff0000" stroke="none" /><path d="M 117.94076556474637 110.91462005526583 l 11.63692973048452 7.079556675532595 a34.62124283148614,34.62124283148614 0 0,0 -0.31412242752572234,0.5064653719298223 l -11.513342663290834 -7.278818378827691" fill="#ff880c" stroke="none" /><path d="M 117.55443506779139 111.5257021239791 l 9.640812338715538 6.329860848276094 a32.53310022972437,32.53310022972437 0 0,0 -0.31138343416839787,0.46547598502260745 l -9.530425799136419 -6.494873747504509" fill="#ff6a09" stroke="none" /><path d="M 117.14729908036423 112.12312394758627 l 11.338114177736951 8.016035812076739 a34.885591930050964,34.885591930050964 0 0,0 -0.35088295097930283,0.4873457298201031 l -11.198451434382045 -8.210015147347974" fill="#ff8c0c" stroke="none" /><path d="M 116.498646956653 112.99209946851258 l 11.262623593605255 8.868916729291614 a35.33542375245121,35.33542375245121 0 0,0 -0.3804145895419371,0.47462569187068887 l -11.108291092008464 -9.061470254740554" fill="#ff920d" stroke="none" /><path d="M 116.0416608686014 113.55231037782055 l 10.77751249574403 9.105054373082309 a35.10874873022778,35.10874873022778 0 0,0 -0.3939828389464565,0.45829104984471714 l -10.619187147226796 -9.289222522088554" fill="#ff8f0d" stroke="none" /><path d="M 115.56566222782051 114.09645910891815 l 8.946341304603942 8.10191898866824 a33.069718888085404,33.069718888085404 0 0,0 -0.38574030610515425,0.41864491764143347 l -8.805554590503068 -8.254715161111008" fill="#ff720a" stroke="none" /><path d="M 115.07121518719521 114.62390073753431 l 10.31278827809229 10.006704186279743 a35.36968095472082,35.36968095472082 0 0,0 -0.42773628891647747,0.43329460240347484 l -10.139011364120275 -10.182739282663883" fill="#ff930d" stroke="none" /><path d="M 114.55890576462653 115.13401014063108 l 9.498220901568626 9.873418632295204 a34.7003867019712,34.7003867019712 0 0,0 -0.4340261009233133,0.4103987689662892 l -9.326858966254505 -10.035452038007415" fill="#ff890c" stroke="none" /><path d="M 113.48314897796784 116.09983520530334 l 7.739847541992055 9.24192635888425 a33.05480994442965,33.05480994442965 0 0,0 -0.4393611833699197,0.36156434235637 l -7.579616230077445 -9.3737858200978" fill="#ff720a" stroke="none" /><path d="M 112.92097659922987 116.55440617244103 l 8.437579006285068 10.810259496207864 a34.71329463924169,34.71329463924169 0 0,0 -0.47420223673044054,0.36359805410418955 l -8.250248041061134 -10.953896892139426" fill="#ff890c" stroke="none" /><path d="M 112.34349029814194 116.9893568818739 l 8.224188135225374 11.319623859877737 a34.99182457053744,34.99182457053744 0 0,0 -0.4903398914197671,0.34984449319641775 l -8.028120915956723 -11.459512614918374" fill="#ff8d0d" stroke="none" /><line stroke="#e1ed5e" stroke-width="0.3" x1="143.8653032363475" x2="146.44561519142675" y1="172.8068346515853" y2="177.08958963109032" /><path d="M 144.38136562736335 173.6633856474863 a86.0,86.0 0 0,1 -40.68145358897372,12.25698825130547" fill="none" id="id162" stroke="none" /><text fill="#e1ed5e" style="font-size:6.75px; font-family:Arial;" text-anchor="middle"><textPath startOffset="21.466115282336833" xlink:href="#id162">June</textPath></text><path d="M 110.8373102113329 117.98757091392108 l 7.163674471157361 11.890136947398556 a34.881411619738245,34.881411619738245 0 0,0 -0.5169626666641174,0.30543065566889827 l -6.957943933464861 -12.011686175361204" fill="#ff8c0c" stroke="none" /><path d="M 110.21172684928248 118.3499491758327 l 6.685876312125069 12.01417667492928 a34.74923209628268,34.74923209628268 0 0,0 -0.5251720748781857,0.28636568849672117 l -6.478081425378234 -12.127483015185772" fill="#ff8a0c" stroke="none" /><path d="M 108.92500713936063 119.00905698771935 l 5.855482687403068 12.471385440642102 a34.7775953022121,34.7775953022121 0 0,0 -0.5440739565250152,0.24975766829821613 l -5.639940735110634 -12.570330179274393" fill="#ff8a0c" stroke="none" /><path d="M 108.2653958097858 119.30500536409082 l 5.356709393725182 12.511355288915102 a34.609862111508974,34.609862111508974 0 0,0 -0.5496846093831289,0.2297682113028897 l -5.140553324844592 -12.601708543237965" fill="#ff880c" stroke="none" /><path d="M 107.59598834532513 119.57807347666477 l 5.067401711306764 13.060836658707933 a35.00942591005084,35.00942591005084 0 0,0 -0.5637014025845241,0.2131436364458217 l -4.841830087961965 -13.146128545260385" fill="#ff8e0d" stroke="none" /><path d="M 106.91757812671514 119.82793768551818 l 4.116197270678519 11.79830592286632 a33.495723373245895,33.495723373245895 0 0,0 -0.5460285679916208,0.18524253639311927 l -3.9124989697496715 -11.867411446157561" fill="#ff780b" stroke="none" /><path d="M 106.2309692047433 120.05430185196036 l 3.8735064698364763 12.466835482429934 a34.05473244910975,34.05473244910975 0 0,0 -0.561295006637081,0.16911358112660382 l -3.6583364887591494 -12.531664432662263" fill="#ff800b" stroke="none" /><path d="M 105.53697534728816 120.25689768951611 l 3.4449085032110927 12.603118981461398 a34.065450725343105,34.065450725343105 0 0,0 -0.5669619332591154,0.14973979961055564 l -3.22745612714048 -12.660550130375537" fill="#ff800b" stroke="none" /><path d="M 104.48393922423573 120.51570834832081 l 2.6038099481602894 11.913409798728466 a33.19463649636913,33.19463649636913 0 0,0 -0.5592640870077806,0.11719922705534534 l -2.398354399723131 -11.956465006510353" fill="#ff740a" stroke="none" /><path d="M 103.7750983002368 120.6578951692458 l 2.189405457938974 11.980749860272716 a33.17915692786975,33.17915692786975 0 0,0 -0.5627043269310034,0.09783336002134764 l -1.982852159535921 -12.01666179881507" fill="#ff740a" stroke="none" /><path d="M 103.06178313531738 120.77559828337769 l 2.0096383553832253 13.636314958009542 a34.78360373608666,34.78360373608666 0 0,0 -0.5930959044466466,0.08219768805411586 l -1.7746138597497483 -13.66888721155626" fill="#ff8a0c" stroke="none" /><path d="M 102.70371172650421 120.8252237178851 l 1.7834400354725668 13.736870451854854 a34.85215752766223,34.85215752766223 0 0,0 -0.5955944563891132,0.07211819419739728 l -1.5467181560320733 -13.765534174777601" fill="#ff8b0c" stroke="none" /><path d="M 101.98527174616119 120.90594882070398 l 1.3097422060244481 13.792269788964122 a34.854318120276226,34.854318120276226 0 0,0 -0.5977609867743539,0.05157733318594831 l -1.0721369015085525 -13.812771374428733" fill="#ff8b0c" stroke="none" /><path d="M 101.26447882468166 120.96189622390904 l 0.8221272171477567 13.628812972048749 a34.653586934877566,34.653586934877566 0 0,0 -0.5957313502743599,0.030792506123221482 l -0.5874077984599173 -13.640945284934173" fill="#ff890c" stroke="none" /><line stroke="#e1ed5e" stroke-width="0.3" x1="102.19456741930631" x2="102.32365962044197" y1="184.97166512339345" y2="189.96999836594603" /><path d="M 102.22038585953345 185.97133177190398 a86.0,86.0 0 0,1 -42.740103519485714,-10.115201625700543" fill="none" id="id163" stroke="none" /><text fill="#e1ed5e" style="font-size:6.75px; font-family:Arial;" text-anchor="middle"><textPath startOffset="22.20632615414155" xlink:href="#id163">July</textPath></text><path d="M 100.54218724476979 120.99299961872073 l 0.37257116925117345 14.425618620661348 a35.43042902567102,35.43042902567102 0 0,0 -0.6098088216321119,0.01049841188673138 l -0.12420265772639352 -14.429894509827239" fill="#ff930d" stroke="none" /><path d="M 99.81925306533755 120.99922214144158 l -0.12162175492280523 14.130044604217355 a35.130568012944224,35.130568012944224 0 0,0 -0.6046477808021562,-0.010409559888408205 l 0.36482922561762937 -14.125857567049787" fill="#ff8f0d" stroke="none" /><path d="M 99.45781275523022 120.99299961872073 l -1.013081560231197 39.225601510963315 a60.23868178398158,60.23868178398158 0 0,0 -1.0363337985952359,-0.035693431427832156 l 1.688135710501076 -39.202351281109394" fill="#3cff2e" stroke="none" /><path d="M 99.09653310690486 120.98055641714683 l -0.9871070527734143 22.922871185159558 a43.944114794540525,43.944114794540525 0 0,0 -0.7554452268493549,-0.03904788922524328 l 1.381540348036258 -22.902483489172113" fill="#f9ff18" stroke="none" /><path d="M 98.37488393609728 120.93702456842531 l -2.4942167110566626 32.13399812993073 a53.23065237962313,53.23065237962313 0 0,0 -0.9129200916593332,-0.07877058687577779 l 3.0469811204575374 -32.08630329077629" fill="#88ff25" stroke="none" /><path d="M 97.65516085044442 120.86867818915974 l -3.9879741085126588 35.49230586372002 a56.71565081325023,56.71565081325023 0 0,0 -0.9692234171746988,-0.1173594580517877 l 4.598324948738747 -35.41840087694288" fill="#61ff29" stroke="none" /><path d="M 96.93821686468263 120.77559828337769 l -5.336236086991543 36.20880133860568 a57.59990040908203,57.59990040908203 0 0,0 -0.9796485088497716,-0.15300094959317764 l 5.958720459449832 -36.1115820816654" fill="#58ff2a" stroke="none" /><path d="M 96.58105272829116 120.7198165907248 l -3.413823343542644 20.688764093160344 a41.96852759550268,41.96852759550268 0 0,0 -0.7117682985210444,-0.12375004219494783 l 3.7694406135357386 -20.626935472444387" fill="#ffec16" stroke="none" /><path d="M 95.86986931433489 120.58985236759428 l -12.390392056995301 61.76955710278283 a84.0,84.0 0 0,0 -1.415234154282453,-0.29657607709383527 l 13.451817672707142 -61.54712504496245" fill="#4dd2ff" stroke="none" /><line stroke="#e1ed5e" stroke-width="0.3" x1="58.666819895761336" x2="56.23545636021788" y1="174.27360380694188" y2="178.64263932499728" /><path d="M 58.180547188652646 175.14741091055294 a86.0,86.0 0 0,1 -31.652253787137756,-30.449443065178592" fill="none" id="id164" stroke="none" /><text fill="#e1ed5e" style="font-size:6.75px; font-family:Arial;" text-anchor="middle"><textPath startOffset="22.20632615414155" xlink:href="#id164">August</textPath></text><line stroke="#e1ed5e" stroke-width="0.3" x1="26.63291911575756" x2="22.317208475507996" y1="142.92168965132927" y2="145.44649492493687" /><path d="M 25.769776987707644 143.4266507060508 a86.0,86.0 0 0,1 -11.730757126820373,-40.83630448921669" fill="none" id="id165" stroke="none" /><text fill="#e1ed5e" style="font-size:6.75px; font-family:Arial;" text-anchor="middle"><textPath startOffset="21.46611528233685" xlink:href="#id165">September</textPath></text><line stroke="#e1ed5e" stroke-width="0.3" x1="15.007084014347285" x2="10.007500721073583" y1="101.09737516637583" y2="101.16192664675087" /><path d="M 14.007167355692545 101.11028546245083 a86.0,86.0 0 0,1 10.666146001902534,-42.60595125391555" fill="none" id="id166" stroke="none" /><text fill="#e1ed5e" style="font-size:6.75px; font-family:Arial;" text-anchor="middle"><textPath startOffset="22.20632615414155" xlink:href="#id166">October</textPath></text><line stroke="#e1ed5e" stroke-width="0.3" x1="26.266209847984243" x2="21.928928074336255" y1="57.711370442889674" y2="55.22380399835377" /><path d="M 25.398753493254645 57.213857153982495 a86.0,86.0 0 0,1 29.58750427330803,-30.492523968695096" fill="none" id="id167" stroke="none" /><text fill="#e1ed5e" style="font-size:6.75px; font-family:Arial;" text-anchor="middle"><textPath startOffset="21.46611528233685" xlink:href="#id167">November</textPath></text><line stroke="#e1ed5e" stroke-width="0.3" x1="56.762969772571076" x2="54.21961505331055" y1="26.818313649435495" y2="22.513508569990535" /><path d="M 56.25429882871897 25.957352633546506 a86.0,86.0 0 0,1 42.265352541879196,-11.944610805530505" fill="none" id="id168" stroke="none" /><text fill="#e1ed5e" style="font-size:6.75px; font-family:Arial;" text-anchor="middle"><textPath startOffset="22.20632615414155" xlink:href="#id168">December</textPath></text></svg>